<?xml version="1.0" standalone="no"?>
 <!DOCTYPE svg PUBLIC "-//W3C//DTD SVG 1.1//EN" 
 "http://www.w3.org/Graphics/SVG/1.1/DTD/svg11.dtd"> 
<svg
  xmlns:svg="http://www.w3.org/2000/svg"
  xmlns="http://www.w3.org/2000/svg"
  xmlns:xlink="http://www.w3.org/1999/xlink"
  version="1.1"
  width="24.6888mm" height="33.5280mm" viewBox="0.0000 0.0000 24.6888 33.5280">
<title>SVG Image created as 2004a-oled.svg date 2023/09/25 15:22:48 </title>
  <desc>Image generated by Eeschema-SVG </desc>
<g style="fill:#000000; fill-opacity:1.0000;stroke:#000000; stroke-opacity:1.0000;
stroke-linecap:round; stroke-linejoin:round;"
 transform="translate(0 0) scale(1 1)">
</g>
<g style="fill:#840000; fill-opacity:0.0; 
stroke:#840000; stroke-width:0.0000; stroke-opacity:1; 
stroke-linecap:round; stroke-linejoin:round;">
</g>
<g style="fill:#FFFFC2; fill-opacity:0.0; 
stroke:#FFFFC2; stroke-width:0.0000; stroke-opacity:1; 
stroke-linecap:round; stroke-linejoin:round;">
</g>
<g style="fill:#FFFFC2; fill-opacity:1.0000; 
stroke:#FFFFC2; stroke-width:0.0000; stroke-opacity:1; 
stroke-linecap:round; stroke-linejoin:round;">
<rect x="7.264400" y="5.334000" width="10.160000" height="22.860000" rx="0.000000" />
</g>
<g style="fill:#840084; fill-opacity:1.0000; 
stroke:#840084; stroke-width:0.0000; stroke-opacity:1; 
stroke-linecap:round; stroke-linejoin:round;">
</g>
<g style="fill:#840000; fill-opacity:1.0000; 
stroke:#840000; stroke-width:0.0000; stroke-opacity:1; 
stroke-linecap:round; stroke-linejoin:round;">
</g>
<g style="fill:#840000; fill-opacity:0.0; 
stroke:#840000; stroke-width:0.1524; stroke-opacity:1; 
stroke-linecap:round; stroke-linejoin:round;">
<rect x="7.264400" y="5.334000" width="10.160000" height="22.860000" rx="0.000000" />
</g>
<g style="fill:#840000; fill-opacity:0.0; 
stroke:#840000; stroke-width:0.1588; stroke-opacity:1; 
stroke-linecap:round; stroke-linejoin:round;">
<text x="13.6144" y="21.2091"
textLength="12.0152" font-size="1.6933" lengthAdjust="spacingAndGlyphs"
text-anchor="middle" opacity="0">2004A
OLED</text>
<g class="stroked-text"><desc>2004A
OLED</desc>
<path d="M10.8930 18.9819
L10.9534 18.9214
" />
<path d="M10.9534 18.9214
L11.0744 18.8609
" />
<path d="M11.0744 18.8609
L11.3768 18.8609
" />
<path d="M11.3768 18.8609
L11.4977 18.9214
" />
<path d="M11.4977 18.9214
L11.5582 18.9819
" />
<path d="M11.5582 18.9819
L11.6187 19.1028
" />
<path d="M11.6187 19.1028
L11.6187 19.2238
" />
<path d="M11.6187 19.2238
L11.5582 19.4052
" />
<path d="M11.5582 19.4052
L10.8325 20.1309
" />
<path d="M10.8325 20.1309
L11.6187 20.1309
" />
<path d="M12.4048 18.8609
L12.5258 18.8609
" />
<path d="M12.5258 18.8609
L12.6467 18.9214
" />
<path d="M12.6467 18.9214
L12.7072 18.9819
" />
<path d="M12.7072 18.9819
L12.7677 19.1028
" />
<path d="M12.7677 19.1028
L12.8282 19.3447
" />
<path d="M12.8282 19.3447
L12.8282 19.6471
" />
<path d="M12.8282 19.6471
L12.7677 19.8890
" />
<path d="M12.7677 19.8890
L12.7072 20.0100
" />
<path d="M12.7072 20.0100
L12.6467 20.0705
" />
<path d="M12.6467 20.0705
L12.5258 20.1309
" />
<path d="M12.5258 20.1309
L12.4048 20.1309
" />
<path d="M12.4048 20.1309
L12.2839 20.0705
" />
<path d="M12.2839 20.0705
L12.2234 20.0100
" />
<path d="M12.2234 20.0100
L12.1629 19.8890
" />
<path d="M12.1629 19.8890
L12.1025 19.6471
" />
<path d="M12.1025 19.6471
L12.1025 19.3447
" />
<path d="M12.1025 19.3447
L12.1629 19.1028
" />
<path d="M12.1629 19.1028
L12.2234 18.9819
" />
<path d="M12.2234 18.9819
L12.2839 18.9214
" />
<path d="M12.2839 18.9214
L12.4048 18.8609
" />
<path d="M13.6143 18.8609
L13.7353 18.8609
" />
<path d="M13.7353 18.8609
L13.8562 18.9214
" />
<path d="M13.8562 18.9214
L13.9167 18.9819
" />
<path d="M13.9167 18.9819
L13.9772 19.1028
" />
<path d="M13.9772 19.1028
L14.0377 19.3447
" />
<path d="M14.0377 19.3447
L14.0377 19.6471
" />
<path d="M14.0377 19.6471
L13.9772 19.8890
" />
<path d="M13.9772 19.8890
L13.9167 20.0100
" />
<path d="M13.9167 20.0100
L13.8562 20.0705
" />
<path d="M13.8562 20.0705
L13.7353 20.1309
" />
<path d="M13.7353 20.1309
L13.6143 20.1309
" />
<path d="M13.6143 20.1309
L13.4934 20.0705
" />
<path d="M13.4934 20.0705
L13.4329 20.0100
" />
<path d="M13.4329 20.0100
L13.3724 19.8890
" />
<path d="M13.3724 19.8890
L13.3120 19.6471
" />
<path d="M13.3120 19.6471
L13.3120 19.3447
" />
<path d="M13.3120 19.3447
L13.3724 19.1028
" />
<path d="M13.3724 19.1028
L13.4329 18.9819
" />
<path d="M13.4329 18.9819
L13.4934 18.9214
" />
<path d="M13.4934 18.9214
L13.6143 18.8609
" />
<path d="M15.1262 19.2843
L15.1262 20.1309
" />
<path d="M14.8238 18.8005
L14.5215 19.7076
" />
<path d="M14.5215 19.7076
L15.3076 19.7076
" />
<path d="M15.7310 19.7681
L16.3357 19.7681
" />
<path d="M15.6100 20.1309
L16.0333 18.8609
" />
<path d="M16.0333 18.8609
L16.4567 20.1309
" />
<path d="M11.7698 20.9056
L12.0117 20.9056
" />
<path d="M12.0117 20.9056
L12.1327 20.9661
" />
<path d="M12.1327 20.9661
L12.2536 21.0871
" />
<path d="M12.2536 21.0871
L12.3141 21.3290
" />
<path d="M12.3141 21.3290
L12.3141 21.7523
" />
<path d="M12.3141 21.7523
L12.2536 21.9942
" />
<path d="M12.2536 21.9942
L12.1327 22.1152
" />
<path d="M12.1327 22.1152
L12.0117 22.1756
" />
<path d="M12.0117 22.1756
L11.7698 22.1756
" />
<path d="M11.7698 22.1756
L11.6489 22.1152
" />
<path d="M11.6489 22.1152
L11.5279 21.9942
" />
<path d="M11.5279 21.9942
L11.4675 21.7523
" />
<path d="M11.4675 21.7523
L11.4675 21.3290
" />
<path d="M11.4675 21.3290
L11.5279 21.0871
" />
<path d="M11.5279 21.0871
L11.6489 20.9661
" />
<path d="M11.6489 20.9661
L11.7698 20.9056
" />
<path d="M13.4632 22.1756
L12.8584 22.1756
" />
<path d="M12.8584 22.1756
L12.8584 20.9056
" />
<path d="M13.8865 21.5104
L14.3099 21.5104
" />
<path d="M14.4913 22.1756
L13.8865 22.1756
" />
<path d="M13.8865 22.1756
L13.8865 20.9056
" />
<path d="M13.8865 20.9056
L14.4913 20.9056
" />
<path d="M15.0355 22.1756
L15.0355 20.9056
" />
<path d="M15.0355 20.9056
L15.3379 20.9056
" />
<path d="M15.3379 20.9056
L15.5193 20.9661
" />
<path d="M15.5193 20.9661
L15.6403 21.0871
" />
<path d="M15.6403 21.0871
L15.7008 21.2080
" />
<path d="M15.7008 21.2080
L15.7612 21.4499
" />
<path d="M15.7612 21.4499
L15.7612 21.6313
" />
<path d="M15.7612 21.6313
L15.7008 21.8732
" />
<path d="M15.7008 21.8732
L15.6403 21.9942
" />
<path d="M15.6403 21.9942
L15.5193 22.1152
" />
<path d="M15.5193 22.1152
L15.3379 22.1756
" />
<path d="M15.3379 22.1756
L15.0355 22.1756
" />
</g></g>
<g style="fill:#840000; fill-opacity:0.0; 
stroke:#840000; stroke-width:0.1524; stroke-opacity:1; 
stroke-linecap:round; stroke-linejoin:round;">
<path d="M12.3444 28.1940
L12.3444 30.7340
" />
</g>
<g style="fill:#006464; fill-opacity:0.0; 
stroke:#006464; stroke-width:0.1524; stroke-opacity:1; 
stroke-linecap:round; stroke-linejoin:round;">
<g transform="rotate(-90.000000 12.3444 27.6860)">
<text x="12.3444" y="28.3210"
textLength="4.0737" font-size="1.6933" lengthAdjust="spacingAndGlyphs"
text-anchor="start" opacity="0">GND</text>
</g>
<g class="stroked-text"><desc>GND</desc>
<path d="M11.7144 26.6181
L11.6539 26.7391
" />
<path d="M11.6539 26.7391
L11.6539 26.9205
" />
<path d="M11.6539 26.9205
L11.7144 27.1019
" />
<path d="M11.7144 27.1019
L11.8354 27.2229
" />
<path d="M11.8354 27.2229
L11.9563 27.2834
" />
<path d="M11.9563 27.2834
L12.1982 27.3438
" />
<path d="M12.1982 27.3438
L12.3796 27.3438
" />
<path d="M12.3796 27.3438
L12.6215 27.2834
" />
<path d="M12.6215 27.2834
L12.7425 27.2229
" />
<path d="M12.7425 27.2229
L12.8635 27.1019
" />
<path d="M12.8635 27.1019
L12.9239 26.9205
" />
<path d="M12.9239 26.9205
L12.9239 26.7996
" />
<path d="M12.9239 26.7996
L12.8635 26.6181
" />
<path d="M12.8635 26.6181
L12.8030 26.5577
" />
<path d="M12.8030 26.5577
L12.3796 26.5577
" />
<path d="M12.3796 26.5577
L12.3796 26.7996
" />
<path d="M12.9239 26.0134
L11.6539 26.0134
" />
<path d="M11.6539 26.0134
L12.9239 25.2877
" />
<path d="M12.9239 25.2877
L11.6539 25.2877
" />
<path d="M12.9239 24.6829
L11.6539 24.6829
" />
<path d="M11.6539 24.6829
L11.6539 24.3805
" />
<path d="M11.6539 24.3805
L11.7144 24.1991
" />
<path d="M11.7144 24.1991
L11.8354 24.0781
" />
<path d="M11.8354 24.0781
L11.9563 24.0176
" />
<path d="M11.9563 24.0176
L12.1982 23.9572
" />
<path d="M12.1982 23.9572
L12.3796 23.9572
" />
<path d="M12.3796 23.9572
L12.6215 24.0176
" />
<path d="M12.6215 24.0176
L12.7425 24.0781
" />
<path d="M12.7425 24.0781
L12.8635 24.1991
" />
<path d="M12.8635 24.1991
L12.9239 24.3805
" />
<path d="M12.9239 24.3805
L12.9239 24.6829
" />
</g></g>
<g style="fill:#A90000; fill-opacity:0.0; 
stroke:#A90000; stroke-width:0.1524; stroke-opacity:1; 
stroke-linecap:round; stroke-linejoin:round;">
<g transform="rotate(-90.000000 12.0904 29.4640)">
<text x="12.0904" y="29.4640"
textLength="1.4127" font-size="1.6933" lengthAdjust="spacingAndGlyphs"
text-anchor="middle" opacity="0">1</text>
</g>
<g class="stroked-text"><desc>1</desc>
<path d="M11.9269 29.1010
L11.9269 29.8267
" />
<path d="M11.9269 29.4639
L10.6569 29.4639
" />
<path d="M10.6569 29.4639
L10.8384 29.5848
" />
<path d="M10.8384 29.5848
L10.9593 29.7058
" />
<path d="M10.9593 29.7058
L11.0198 29.8267
" />
</g></g>
<g style="fill:#840000; fill-opacity:0.0; 
stroke:#840000; stroke-width:0.1524; stroke-opacity:1; 
stroke-linecap:round; stroke-linejoin:round;">
<path d="M7.2644 15.4940
L4.7244 15.4940
" />
</g>
<g style="fill:#006464; fill-opacity:0.0; 
stroke:#006464; stroke-width:0.1524; stroke-opacity:1; 
stroke-linecap:round; stroke-linejoin:round;">
<text x="7.7724" y="16.1290"
textLength="2.4916" font-size="1.6933" lengthAdjust="spacingAndGlyphs"
text-anchor="start" opacity="0">D_{3}</text>
<g class="stroked-text"><desc>D_{3}</desc>
<path d="M8.1749 16.0735
L8.1749 14.8035
" />
<path d="M8.1749 14.8035
L8.4773 14.8035
" />
<path d="M8.4773 14.8035
L8.6587 14.8640
" />
<path d="M8.6587 14.8640
L8.7797 14.9850
" />
<path d="M8.7797 14.9850
L8.8402 15.1059
" />
<path d="M8.8402 15.1059
L8.9006 15.3478
" />
<path d="M8.9006 15.3478
L8.9006 15.5292
" />
<path d="M8.9006 15.5292
L8.8402 15.7711
" />
<path d="M8.8402 15.7711
L8.7797 15.8921
" />
<path d="M8.7797 15.8921
L8.6587 16.0131
" />
<path d="M8.6587 16.0131
L8.4773 16.0735
" />
<path d="M8.4773 16.0735
L8.1749 16.0735
" />
<path d="M9.2877 15.1978
L9.9166 15.1978
" />
<path d="M9.9166 15.1978
L9.5780 15.5849
" />
<path d="M9.5780 15.5849
L9.7231 15.5849
" />
<path d="M9.7231 15.5849
L9.8199 15.6333
" />
<path d="M9.8199 15.6333
L9.8683 15.6816
" />
<path d="M9.8683 15.6816
L9.9166 15.7784
" />
<path d="M9.9166 15.7784
L9.9166 16.0203
" />
<path d="M9.9166 16.0203
L9.8683 16.1171
" />
<path d="M9.8683 16.1171
L9.8199 16.1655
" />
<path d="M9.8199 16.1655
L9.7231 16.2138
" />
<path d="M9.7231 16.2138
L9.4328 16.2138
" />
<path d="M9.4328 16.2138
L9.3361 16.1655
" />
<path d="M9.3361 16.1655
L9.2877 16.1171
" />
</g></g>
<g style="fill:#A90000; fill-opacity:0.0; 
stroke:#A90000; stroke-width:0.1524; stroke-opacity:1; 
stroke-linecap:round; stroke-linejoin:round;">
<text x="5.9944" y="15.2400"
textLength="2.6222" font-size="1.6933" lengthAdjust="spacingAndGlyphs"
text-anchor="middle" opacity="0">10</text>
<g class="stroked-text"><desc>10</desc>
<path d="M5.7525 15.0765
L5.0268 15.0765
" />
<path d="M5.3896 15.0765
L5.3896 13.8065
" />
<path d="M5.3896 13.8065
L5.2687 13.9880
" />
<path d="M5.2687 13.9880
L5.1477 14.1089
" />
<path d="M5.1477 14.1089
L5.0268 14.1694
" />
<path d="M6.5386 13.8065
L6.6596 13.8065
" />
<path d="M6.6596 13.8065
L6.7805 13.8670
" />
<path d="M6.7805 13.8670
L6.8410 13.9275
" />
<path d="M6.8410 13.9275
L6.9015 14.0484
" />
<path d="M6.9015 14.0484
L6.9620 14.2903
" />
<path d="M6.9620 14.2903
L6.9620 14.5927
" />
<path d="M6.9620 14.5927
L6.9015 14.8346
" />
<path d="M6.9015 14.8346
L6.8410 14.9556
" />
<path d="M6.8410 14.9556
L6.7805 15.0161
" />
<path d="M6.7805 15.0161
L6.6596 15.0765
" />
<path d="M6.6596 15.0765
L6.5386 15.0765
" />
<path d="M6.5386 15.0765
L6.4177 15.0161
" />
<path d="M6.4177 15.0161
L6.3572 14.9556
" />
<path d="M6.3572 14.9556
L6.2967 14.8346
" />
<path d="M6.2967 14.8346
L6.2363 14.5927
" />
<path d="M6.2363 14.5927
L6.2363 14.2903
" />
<path d="M6.2363 14.2903
L6.2967 14.0484
" />
<path d="M6.2967 14.0484
L6.3572 13.9275
" />
<path d="M6.3572 13.9275
L6.4177 13.8670
" />
<path d="M6.4177 13.8670
L6.5386 13.8065
" />
</g></g>
<g style="fill:#840000; fill-opacity:0.0; 
stroke:#840000; stroke-width:0.1524; stroke-opacity:1; 
stroke-linecap:round; stroke-linejoin:round;">
<path d="M7.2644 18.0340
L4.7244 18.0340
" />
</g>
<g style="fill:#006464; fill-opacity:0.0; 
stroke:#006464; stroke-width:0.1524; stroke-opacity:1; 
stroke-linecap:round; stroke-linejoin:round;">
<text x="7.7724" y="18.6690"
textLength="2.4916" font-size="1.6933" lengthAdjust="spacingAndGlyphs"
text-anchor="start" opacity="0">D_{4}</text>
<g class="stroked-text"><desc>D_{4}</desc>
<path d="M8.1749 18.6135
L8.1749 17.3435
" />
<path d="M8.1749 17.3435
L8.4773 17.3435
" />
<path d="M8.4773 17.3435
L8.6587 17.4040
" />
<path d="M8.6587 17.4040
L8.7797 17.5250
" />
<path d="M8.7797 17.5250
L8.8402 17.6459
" />
<path d="M8.8402 17.6459
L8.9006 17.8878
" />
<path d="M8.9006 17.8878
L8.9006 18.0692
" />
<path d="M8.9006 18.0692
L8.8402 18.3111
" />
<path d="M8.8402 18.3111
L8.7797 18.4321
" />
<path d="M8.7797 18.4321
L8.6587 18.5531
" />
<path d="M8.6587 18.5531
L8.4773 18.6135
" />
<path d="M8.4773 18.6135
L8.1749 18.6135
" />
<path d="M9.8199 18.0765
L9.8199 18.7538
" />
<path d="M9.5780 17.6895
L9.3361 18.4152
" />
<path d="M9.3361 18.4152
L9.9650 18.4152
" />
</g></g>
<g style="fill:#A90000; fill-opacity:0.0; 
stroke:#A90000; stroke-width:0.1524; stroke-opacity:1; 
stroke-linecap:round; stroke-linejoin:round;">
<text x="5.9944" y="17.7800"
textLength="2.6222" font-size="1.6933" lengthAdjust="spacingAndGlyphs"
text-anchor="middle" opacity="0">11</text>
<g class="stroked-text"><desc>11</desc>
<path d="M5.7525 17.6165
L5.0268 17.6165
" />
<path d="M5.3896 17.6165
L5.3896 16.3465
" />
<path d="M5.3896 16.3465
L5.2687 16.5280
" />
<path d="M5.2687 16.5280
L5.1477 16.6489
" />
<path d="M5.1477 16.6489
L5.0268 16.7094
" />
<path d="M6.9620 17.6165
L6.2363 17.6165
" />
<path d="M6.5991 17.6165
L6.5991 16.3465
" />
<path d="M6.5991 16.3465
L6.4782 16.5280
" />
<path d="M6.4782 16.5280
L6.3572 16.6489
" />
<path d="M6.3572 16.6489
L6.2363 16.7094
" />
</g></g>
<g style="fill:#840000; fill-opacity:0.0; 
stroke:#840000; stroke-width:0.1524; stroke-opacity:1; 
stroke-linecap:round; stroke-linejoin:round;">
<path d="M7.2644 20.5740
L4.7244 20.5740
" />
</g>
<g style="fill:#006464; fill-opacity:0.0; 
stroke:#006464; stroke-width:0.1524; stroke-opacity:1; 
stroke-linecap:round; stroke-linejoin:round;">
<text x="7.7724" y="21.2090"
textLength="2.4916" font-size="1.6933" lengthAdjust="spacingAndGlyphs"
text-anchor="start" opacity="0">D_{5}</text>
<g class="stroked-text"><desc>D_{5}</desc>
<path d="M8.1749 21.1535
L8.1749 19.8835
" />
<path d="M8.1749 19.8835
L8.4773 19.8835
" />
<path d="M8.4773 19.8835
L8.6587 19.9440
" />
<path d="M8.6587 19.9440
L8.7797 20.0650
" />
<path d="M8.7797 20.0650
L8.8402 20.1859
" />
<path d="M8.8402 20.1859
L8.9006 20.4278
" />
<path d="M8.9006 20.4278
L8.9006 20.6092
" />
<path d="M8.9006 20.6092
L8.8402 20.8511
" />
<path d="M8.8402 20.8511
L8.7797 20.9721
" />
<path d="M8.7797 20.9721
L8.6587 21.0931
" />
<path d="M8.6587 21.0931
L8.4773 21.1535
" />
<path d="M8.4773 21.1535
L8.1749 21.1535
" />
<path d="M9.8683 20.2778
L9.3845 20.2778
" />
<path d="M9.3845 20.2778
L9.3361 20.7616
" />
<path d="M9.3361 20.7616
L9.3845 20.7133
" />
<path d="M9.3845 20.7133
L9.4812 20.6649
" />
<path d="M9.4812 20.6649
L9.7231 20.6649
" />
<path d="M9.7231 20.6649
L9.8199 20.7133
" />
<path d="M9.8199 20.7133
L9.8683 20.7616
" />
<path d="M9.8683 20.7616
L9.9166 20.8584
" />
<path d="M9.9166 20.8584
L9.9166 21.1003
" />
<path d="M9.9166 21.1003
L9.8683 21.1971
" />
<path d="M9.8683 21.1971
L9.8199 21.2455
" />
<path d="M9.8199 21.2455
L9.7231 21.2938
" />
<path d="M9.7231 21.2938
L9.4812 21.2938
" />
<path d="M9.4812 21.2938
L9.3845 21.2455
" />
<path d="M9.3845 21.2455
L9.3361 21.1971
" />
</g></g>
<g style="fill:#A90000; fill-opacity:0.0; 
stroke:#A90000; stroke-width:0.1524; stroke-opacity:1; 
stroke-linecap:round; stroke-linejoin:round;">
<text x="5.9944" y="20.3200"
textLength="2.6222" font-size="1.6933" lengthAdjust="spacingAndGlyphs"
text-anchor="middle" opacity="0">12</text>
<g class="stroked-text"><desc>12</desc>
<path d="M5.7525 20.1565
L5.0268 20.1565
" />
<path d="M5.3896 20.1565
L5.3896 18.8865
" />
<path d="M5.3896 18.8865
L5.2687 19.0680
" />
<path d="M5.2687 19.0680
L5.1477 19.1889
" />
<path d="M5.1477 19.1889
L5.0268 19.2494
" />
<path d="M6.2363 19.0075
L6.2967 18.9470
" />
<path d="M6.2967 18.9470
L6.4177 18.8865
" />
<path d="M6.4177 18.8865
L6.7201 18.8865
" />
<path d="M6.7201 18.8865
L6.8410 18.9470
" />
<path d="M6.8410 18.9470
L6.9015 19.0075
" />
<path d="M6.9015 19.0075
L6.9620 19.1284
" />
<path d="M6.9620 19.1284
L6.9620 19.2494
" />
<path d="M6.9620 19.2494
L6.9015 19.4308
" />
<path d="M6.9015 19.4308
L6.1758 20.1565
" />
<path d="M6.1758 20.1565
L6.9620 20.1565
" />
</g></g>
<g style="fill:#840000; fill-opacity:0.0; 
stroke:#840000; stroke-width:0.1524; stroke-opacity:1; 
stroke-linecap:round; stroke-linejoin:round;">
<path d="M7.2644 23.1140
L4.7244 23.1140
" />
</g>
<g style="fill:#006464; fill-opacity:0.0; 
stroke:#006464; stroke-width:0.1524; stroke-opacity:1; 
stroke-linecap:round; stroke-linejoin:round;">
<text x="7.7724" y="23.7490"
textLength="2.4916" font-size="1.6933" lengthAdjust="spacingAndGlyphs"
text-anchor="start" opacity="0">D_{6}</text>
<g class="stroked-text"><desc>D_{6}</desc>
<path d="M8.1749 23.6935
L8.1749 22.4235
" />
<path d="M8.1749 22.4235
L8.4773 22.4235
" />
<path d="M8.4773 22.4235
L8.6587 22.4840
" />
<path d="M8.6587 22.4840
L8.7797 22.6050
" />
<path d="M8.7797 22.6050
L8.8402 22.7259
" />
<path d="M8.8402 22.7259
L8.9006 22.9678
" />
<path d="M8.9006 22.9678
L8.9006 23.1492
" />
<path d="M8.9006 23.1492
L8.8402 23.3911
" />
<path d="M8.8402 23.3911
L8.7797 23.5121
" />
<path d="M8.7797 23.5121
L8.6587 23.6331
" />
<path d="M8.6587 23.6331
L8.4773 23.6935
" />
<path d="M8.4773 23.6935
L8.1749 23.6935
" />
<path d="M9.8199 22.8178
L9.6264 22.8178
" />
<path d="M9.6264 22.8178
L9.5296 22.8662
" />
<path d="M9.5296 22.8662
L9.4812 22.9146
" />
<path d="M9.4812 22.9146
L9.3845 23.0597
" />
<path d="M9.3845 23.0597
L9.3361 23.2533
" />
<path d="M9.3361 23.2533
L9.3361 23.6403
" />
<path d="M9.3361 23.6403
L9.3845 23.7371
" />
<path d="M9.3845 23.7371
L9.4328 23.7855
" />
<path d="M9.4328 23.7855
L9.5296 23.8338
" />
<path d="M9.5296 23.8338
L9.7231 23.8338
" />
<path d="M9.7231 23.8338
L9.8199 23.7855
" />
<path d="M9.8199 23.7855
L9.8683 23.7371
" />
<path d="M9.8683 23.7371
L9.9166 23.6403
" />
<path d="M9.9166 23.6403
L9.9166 23.3984
" />
<path d="M9.9166 23.3984
L9.8683 23.3016
" />
<path d="M9.8683 23.3016
L9.8199 23.2533
" />
<path d="M9.8199 23.2533
L9.7231 23.2049
" />
<path d="M9.7231 23.2049
L9.5296 23.2049
" />
<path d="M9.5296 23.2049
L9.4328 23.2533
" />
<path d="M9.4328 23.2533
L9.3845 23.3016
" />
<path d="M9.3845 23.3016
L9.3361 23.3984
" />
</g></g>
<g style="fill:#A90000; fill-opacity:0.0; 
stroke:#A90000; stroke-width:0.1524; stroke-opacity:1; 
stroke-linecap:round; stroke-linejoin:round;">
<text x="5.9944" y="22.8600"
textLength="2.6222" font-size="1.6933" lengthAdjust="spacingAndGlyphs"
text-anchor="middle" opacity="0">13</text>
<g class="stroked-text"><desc>13</desc>
<path d="M5.7525 22.6965
L5.0268 22.6965
" />
<path d="M5.3896 22.6965
L5.3896 21.4265
" />
<path d="M5.3896 21.4265
L5.2687 21.6080
" />
<path d="M5.2687 21.6080
L5.1477 21.7289
" />
<path d="M5.1477 21.7289
L5.0268 21.7894
" />
<path d="M6.1758 21.4265
L6.9620 21.4265
" />
<path d="M6.9620 21.4265
L6.5386 21.9103
" />
<path d="M6.5386 21.9103
L6.7201 21.9103
" />
<path d="M6.7201 21.9103
L6.8410 21.9708
" />
<path d="M6.8410 21.9708
L6.9015 22.0313
" />
<path d="M6.9015 22.0313
L6.9620 22.1522
" />
<path d="M6.9620 22.1522
L6.9620 22.4546
" />
<path d="M6.9620 22.4546
L6.9015 22.5756
" />
<path d="M6.9015 22.5756
L6.8410 22.6361
" />
<path d="M6.8410 22.6361
L6.7201 22.6965
" />
<path d="M6.7201 22.6965
L6.3572 22.6965
" />
<path d="M6.3572 22.6965
L6.2363 22.6361
" />
<path d="M6.2363 22.6361
L6.1758 22.5756
" />
</g></g>
<g style="fill:#840000; fill-opacity:0.0; 
stroke:#840000; stroke-width:0.1524; stroke-opacity:1; 
stroke-linecap:round; stroke-linejoin:round;">
<path d="M7.2644 25.6540
L4.7244 25.6540
" />
</g>
<g style="fill:#006464; fill-opacity:0.0; 
stroke:#006464; stroke-width:0.1524; stroke-opacity:1; 
stroke-linecap:round; stroke-linejoin:round;">
<text x="7.7724" y="26.2890"
textLength="2.4916" font-size="1.6933" lengthAdjust="spacingAndGlyphs"
text-anchor="start" opacity="0">D_{7}</text>
<g class="stroked-text"><desc>D_{7}</desc>
<path d="M8.1749 26.2335
L8.1749 24.9635
" />
<path d="M8.1749 24.9635
L8.4773 24.9635
" />
<path d="M8.4773 24.9635
L8.6587 25.0240
" />
<path d="M8.6587 25.0240
L8.7797 25.1450
" />
<path d="M8.7797 25.1450
L8.8402 25.2659
" />
<path d="M8.8402 25.2659
L8.9006 25.5078
" />
<path d="M8.9006 25.5078
L8.9006 25.6892
" />
<path d="M8.9006 25.6892
L8.8402 25.9311
" />
<path d="M8.8402 25.9311
L8.7797 26.0521
" />
<path d="M8.7797 26.0521
L8.6587 26.1731
" />
<path d="M8.6587 26.1731
L8.4773 26.2335
" />
<path d="M8.4773 26.2335
L8.1749 26.2335
" />
<path d="M9.2877 25.3578
L9.9650 25.3578
" />
<path d="M9.9650 25.3578
L9.5296 26.3738
" />
</g></g>
<g style="fill:#A90000; fill-opacity:0.0; 
stroke:#A90000; stroke-width:0.1524; stroke-opacity:1; 
stroke-linecap:round; stroke-linejoin:round;">
<text x="5.9944" y="25.4000"
textLength="2.6222" font-size="1.6933" lengthAdjust="spacingAndGlyphs"
text-anchor="middle" opacity="0">14</text>
<g class="stroked-text"><desc>14</desc>
<path d="M5.7525 25.2365
L5.0268 25.2365
" />
<path d="M5.3896 25.2365
L5.3896 23.9665
" />
<path d="M5.3896 23.9665
L5.2687 24.1480
" />
<path d="M5.2687 24.1480
L5.1477 24.2689
" />
<path d="M5.1477 24.2689
L5.0268 24.3294
" />
<path d="M6.8410 24.3899
L6.8410 25.2365
" />
<path d="M6.5386 23.9061
L6.2363 24.8132
" />
<path d="M6.2363 24.8132
L7.0224 24.8132
" />
</g></g>
<g style="fill:#840000; fill-opacity:0.0; 
stroke:#840000; stroke-width:0.1524; stroke-opacity:1; 
stroke-linecap:round; stroke-linejoin:round;">
<path d="M12.3444 5.3340
L12.3444 2.7940
" />
</g>
<g style="fill:#006464; fill-opacity:0.0; 
stroke:#006464; stroke-width:0.1524; stroke-opacity:1; 
stroke-linecap:round; stroke-linejoin:round;">
<g transform="rotate(-90.000000 12.3444 5.8420)">
<text x="12.3444" y="6.4770"
textLength="3.5898" font-size="1.6933" lengthAdjust="spacingAndGlyphs"
text-anchor="end" opacity="0">Vdd</text>
</g>
<g class="stroked-text"><desc>Vdd</desc>
<path d="M11.6539 9.2078
L12.9239 8.7845
" />
<path d="M12.9239 8.7845
L11.6539 8.3611
" />
<path d="M12.9239 7.3935
L11.6539 7.3935
" />
<path d="M12.8635 7.3935
L12.9239 7.5144
" />
<path d="M12.9239 7.5144
L12.9239 7.7563
" />
<path d="M12.9239 7.7563
L12.8635 7.8773
" />
<path d="M12.8635 7.8773
L12.8030 7.9378
" />
<path d="M12.8030 7.9378
L12.6820 7.9982
" />
<path d="M12.6820 7.9982
L12.3192 7.9982
" />
<path d="M12.3192 7.9982
L12.1982 7.9378
" />
<path d="M12.1982 7.9378
L12.1377 7.8773
" />
<path d="M12.1377 7.8773
L12.0773 7.7563
" />
<path d="M12.0773 7.7563
L12.0773 7.5144
" />
<path d="M12.0773 7.5144
L12.1377 7.3935
" />
<path d="M12.9239 6.2445
L11.6539 6.2445
" />
<path d="M12.8635 6.2445
L12.9239 6.3654
" />
<path d="M12.9239 6.3654
L12.9239 6.6073
" />
<path d="M12.9239 6.6073
L12.8635 6.7283
" />
<path d="M12.8635 6.7283
L12.8030 6.7888
" />
<path d="M12.8030 6.7888
L12.6820 6.8492
" />
<path d="M12.6820 6.8492
L12.3192 6.8492
" />
<path d="M12.3192 6.8492
L12.1982 6.7888
" />
<path d="M12.1982 6.7888
L12.1377 6.7283
" />
<path d="M12.1377 6.7283
L12.0773 6.6073
" />
<path d="M12.0773 6.6073
L12.0773 6.3654
" />
<path d="M12.0773 6.3654
L12.1377 6.2445
" />
</g></g>
<g style="fill:#A90000; fill-opacity:0.0; 
stroke:#A90000; stroke-width:0.1524; stroke-opacity:1; 
stroke-linecap:round; stroke-linejoin:round;">
<g transform="rotate(-90.000000 12.0904 4.0640)">
<text x="12.0904" y="4.0640"
textLength="1.4127" font-size="1.6933" lengthAdjust="spacingAndGlyphs"
text-anchor="middle" opacity="0">2</text>
</g>
<g class="stroked-text"><desc>2</desc>
<path d="M10.7779 4.4267
L10.7174 4.3663
" />
<path d="M10.7174 4.3663
L10.6569 4.2453
" />
<path d="M10.6569 4.2453
L10.6569 3.9429
" />
<path d="M10.6569 3.9429
L10.7174 3.8220
" />
<path d="M10.7174 3.8220
L10.7779 3.7615
" />
<path d="M10.7779 3.7615
L10.8988 3.7010
" />
<path d="M10.8988 3.7010
L11.0198 3.7010
" />
<path d="M11.0198 3.7010
L11.2012 3.7615
" />
<path d="M11.2012 3.7615
L11.9269 4.4872
" />
<path d="M11.9269 4.4872
L11.9269 3.7010
" />
</g></g>
<g style="fill:#840000; fill-opacity:0.0; 
stroke:#840000; stroke-width:0.1524; stroke-opacity:1; 
stroke-linecap:round; stroke-linejoin:round;">
<path d="M17.4244 7.8740
L19.9644 7.8740
" />
</g>
<g style="fill:#006464; fill-opacity:0.0; 
stroke:#006464; stroke-width:0.1524; stroke-opacity:1; 
stroke-linecap:round; stroke-linejoin:round;">
<text x="16.9164" y="8.5090"
textLength="2.6827" font-size="1.6933" lengthAdjust="spacingAndGlyphs"
text-anchor="end" opacity="0">RS</text>
<g class="stroked-text"><desc>RS</desc>
<path d="M15.3647 8.4535
L14.9414 7.8488
" />
<path d="M14.6390 8.4535
L14.6390 7.1835
" />
<path d="M14.6390 7.1835
L15.1228 7.1835
" />
<path d="M15.1228 7.1835
L15.2438 7.2440
" />
<path d="M15.2438 7.2440
L15.3043 7.3045
" />
<path d="M15.3043 7.3045
L15.3647 7.4254
" />
<path d="M15.3647 7.4254
L15.3647 7.6069
" />
<path d="M15.3647 7.6069
L15.3043 7.7278
" />
<path d="M15.3043 7.7278
L15.2438 7.7883
" />
<path d="M15.2438 7.7883
L15.1228 7.8488
" />
<path d="M15.1228 7.8488
L14.6390 7.8488
" />
<path d="M15.8486 8.3931
L16.0300 8.4535
" />
<path d="M16.0300 8.4535
L16.3324 8.4535
" />
<path d="M16.3324 8.4535
L16.4533 8.3931
" />
<path d="M16.4533 8.3931
L16.5138 8.3326
" />
<path d="M16.5138 8.3326
L16.5743 8.2116
" />
<path d="M16.5743 8.2116
L16.5743 8.0907
" />
<path d="M16.5743 8.0907
L16.5138 7.9697
" />
<path d="M16.5138 7.9697
L16.4533 7.9092
" />
<path d="M16.4533 7.9092
L16.3324 7.8488
" />
<path d="M16.3324 7.8488
L16.0905 7.7883
" />
<path d="M16.0905 7.7883
L15.9695 7.7278
" />
<path d="M15.9695 7.7278
L15.9090 7.6673
" />
<path d="M15.9090 7.6673
L15.8486 7.5464
" />
<path d="M15.8486 7.5464
L15.8486 7.4254
" />
<path d="M15.8486 7.4254
L15.9090 7.3045
" />
<path d="M15.9090 7.3045
L15.9695 7.2440
" />
<path d="M15.9695 7.2440
L16.0905 7.1835
" />
<path d="M16.0905 7.1835
L16.3928 7.1835
" />
<path d="M16.3928 7.1835
L16.5743 7.2440
" />
</g></g>
<g style="fill:#A90000; fill-opacity:0.0; 
stroke:#A90000; stroke-width:0.1524; stroke-opacity:1; 
stroke-linecap:round; stroke-linejoin:round;">
<text x="18.6944" y="7.6200"
textLength="1.4127" font-size="1.6933" lengthAdjust="spacingAndGlyphs"
text-anchor="middle" opacity="0">4</text>
<g class="stroked-text"><desc>4</desc>
<path d="M18.9363 6.6099
L18.9363 7.4565
" />
<path d="M18.6339 6.1261
L18.3316 7.0332
" />
<path d="M18.3316 7.0332
L19.1177 7.0332
" />
</g></g>
<g style="fill:#840000; fill-opacity:0.0; 
stroke:#840000; stroke-width:0.1524; stroke-opacity:1; 
stroke-linecap:round; stroke-linejoin:round;">
<path d="M17.4244 10.4140
L19.9644 10.4140
" />
</g>
<g style="fill:#006464; fill-opacity:0.0; 
stroke:#006464; stroke-width:0.1524; stroke-opacity:1; 
stroke-linecap:round; stroke-linejoin:round;">
<text x="16.9164" y="11.0490"
textLength="2.9246" font-size="1.6933" lengthAdjust="spacingAndGlyphs"
text-anchor="end" opacity="0">R~{W}</text>
<g class="stroked-text"><desc>R~{W}</desc>
<path d="M15.1228 10.9935
L14.6995 10.3888
" />
<path d="M14.3971 10.9935
L14.3971 9.7235
" />
<path d="M14.3971 9.7235
L14.8809 9.7235
" />
<path d="M14.8809 9.7235
L15.0019 9.7840
" />
<path d="M15.0019 9.7840
L15.0624 9.8445
" />
<path d="M15.0624 9.8445
L15.1228 9.9654
" />
<path d="M15.1228 9.9654
L15.1228 10.1469
" />
<path d="M15.1228 10.1469
L15.0624 10.2678
" />
<path d="M15.0624 10.2678
L15.0019 10.3283
" />
<path d="M15.0019 10.3283
L14.8809 10.3888
" />
<path d="M14.8809 10.3888
L14.3971 10.3888
" />
<path d="M15.5462 9.7235
L15.8486 10.9935
" />
<path d="M15.8486 10.9935
L16.0905 10.0864
" />
<path d="M16.0905 10.0864
L16.3324 10.9935
" />
<path d="M16.3324 10.9935
L16.6348 9.7235
" />
<path d="M15.4918 9.3710
L16.6892 9.3710
" />
</g></g>
<g style="fill:#A90000; fill-opacity:0.0; 
stroke:#A90000; stroke-width:0.1524; stroke-opacity:1; 
stroke-linecap:round; stroke-linejoin:round;">
<text x="18.6944" y="10.1600"
textLength="1.4127" font-size="1.6933" lengthAdjust="spacingAndGlyphs"
text-anchor="middle" opacity="0">5</text>
<g class="stroked-text"><desc>5</desc>
<path d="M18.9968 8.7265
L18.3920 8.7265
" />
<path d="M18.3920 8.7265
L18.3316 9.3313
" />
<path d="M18.3316 9.3313
L18.3920 9.2708
" />
<path d="M18.3920 9.2708
L18.5130 9.2103
" />
<path d="M18.5130 9.2103
L18.8154 9.2103
" />
<path d="M18.8154 9.2103
L18.9363 9.2708
" />
<path d="M18.9363 9.2708
L18.9968 9.3313
" />
<path d="M18.9968 9.3313
L19.0573 9.4522
" />
<path d="M19.0573 9.4522
L19.0573 9.7546
" />
<path d="M19.0573 9.7546
L18.9968 9.8756
" />
<path d="M18.9968 9.8756
L18.9363 9.9361
" />
<path d="M18.9363 9.9361
L18.8154 9.9965
" />
<path d="M18.8154 9.9965
L18.5130 9.9965
" />
<path d="M18.5130 9.9965
L18.3920 9.9361
" />
<path d="M18.3920 9.9361
L18.3316 9.8756
" />
</g></g>
<g style="fill:#840000; fill-opacity:0.0; 
stroke:#840000; stroke-width:0.1524; stroke-opacity:1; 
stroke-linecap:round; stroke-linejoin:round;">
<path d="M17.4244 12.9540
L19.9644 12.9540
" />
</g>
<g style="fill:#006464; fill-opacity:0.0; 
stroke:#006464; stroke-width:0.1524; stroke-opacity:1; 
stroke-linecap:round; stroke-linejoin:round;">
<text x="16.9164" y="13.5890"
textLength="1.3522" font-size="1.6933" lengthAdjust="spacingAndGlyphs"
text-anchor="end" opacity="0">E</text>
<g class="stroked-text"><desc>E</desc>
<path d="M15.9695 12.8683
L16.3929 12.8683
" />
<path d="M16.5743 13.5335
L15.9695 13.5335
" />
<path d="M15.9695 13.5335
L15.9695 12.2635
" />
<path d="M15.9695 12.2635
L16.5743 12.2635
" />
</g></g>
<g style="fill:#A90000; fill-opacity:0.0; 
stroke:#A90000; stroke-width:0.1524; stroke-opacity:1; 
stroke-linecap:round; stroke-linejoin:round;">
<text x="18.6944" y="12.7000"
textLength="1.4127" font-size="1.6933" lengthAdjust="spacingAndGlyphs"
text-anchor="middle" opacity="0">6</text>
<g class="stroked-text"><desc>6</desc>
<path d="M18.9363 11.2665
L18.6944 11.2665
" />
<path d="M18.6944 11.2665
L18.5735 11.3270
" />
<path d="M18.5735 11.3270
L18.5130 11.3875
" />
<path d="M18.5130 11.3875
L18.3920 11.5689
" />
<path d="M18.3920 11.5689
L18.3316 11.8108
" />
<path d="M18.3316 11.8108
L18.3316 12.2946
" />
<path d="M18.3316 12.2946
L18.3920 12.4156
" />
<path d="M18.3920 12.4156
L18.4525 12.4761
" />
<path d="M18.4525 12.4761
L18.5735 12.5365
" />
<path d="M18.5735 12.5365
L18.8154 12.5365
" />
<path d="M18.8154 12.5365
L18.9363 12.4761
" />
<path d="M18.9363 12.4761
L18.9968 12.4156
" />
<path d="M18.9968 12.4156
L19.0573 12.2946
" />
<path d="M19.0573 12.2946
L19.0573 11.9922
" />
<path d="M19.0573 11.9922
L18.9968 11.8713
" />
<path d="M18.9968 11.8713
L18.9363 11.8108
" />
<path d="M18.9363 11.8108
L18.8154 11.7503
" />
<path d="M18.8154 11.7503
L18.5735 11.7503
" />
<path d="M18.5735 11.7503
L18.4525 11.8108
" />
<path d="M18.4525 11.8108
L18.3920 11.8713
" />
<path d="M18.3920 11.8713
L18.3316 11.9922
" />
</g></g>
<g style="fill:#840000; fill-opacity:0.0; 
stroke:#840000; stroke-width:0.1524; stroke-opacity:1; 
stroke-linecap:round; stroke-linejoin:round;">
<path d="M7.2644 7.8740
L4.7244 7.8740
" />
</g>
<g style="fill:#006464; fill-opacity:0.0; 
stroke:#006464; stroke-width:0.1524; stroke-opacity:1; 
stroke-linecap:round; stroke-linejoin:round;">
<text x="7.7724" y="8.5090"
textLength="2.4916" font-size="1.6933" lengthAdjust="spacingAndGlyphs"
text-anchor="start" opacity="0">D_{0}</text>
<g class="stroked-text"><desc>D_{0}</desc>
<path d="M8.1749 8.4535
L8.1749 7.1835
" />
<path d="M8.1749 7.1835
L8.4773 7.1835
" />
<path d="M8.4773 7.1835
L8.6587 7.2440
" />
<path d="M8.6587 7.2440
L8.7797 7.3650
" />
<path d="M8.7797 7.3650
L8.8402 7.4859
" />
<path d="M8.8402 7.4859
L8.9006 7.7278
" />
<path d="M8.9006 7.7278
L8.9006 7.9092
" />
<path d="M8.9006 7.9092
L8.8402 8.1511
" />
<path d="M8.8402 8.1511
L8.7797 8.2721
" />
<path d="M8.7797 8.2721
L8.6587 8.3931
" />
<path d="M8.6587 8.3931
L8.4773 8.4535
" />
<path d="M8.4773 8.4535
L8.1749 8.4535
" />
<path d="M9.5780 7.5778
L9.6747 7.5778
" />
<path d="M9.6747 7.5778
L9.7715 7.6262
" />
<path d="M9.7715 7.6262
L9.8199 7.6746
" />
<path d="M9.8199 7.6746
L9.8683 7.7714
" />
<path d="M9.8683 7.7714
L9.9166 7.9649
" />
<path d="M9.9166 7.9649
L9.9166 8.2068
" />
<path d="M9.9166 8.2068
L9.8683 8.4003
" />
<path d="M9.8683 8.4003
L9.8199 8.4971
" />
<path d="M9.8199 8.4971
L9.7715 8.5455
" />
<path d="M9.7715 8.5455
L9.6747 8.5938
" />
<path d="M9.6747 8.5938
L9.5780 8.5938
" />
<path d="M9.5780 8.5938
L9.4812 8.5455
" />
<path d="M9.4812 8.5455
L9.4328 8.4971
" />
<path d="M9.4328 8.4971
L9.3845 8.4003
" />
<path d="M9.3845 8.4003
L9.3361 8.2068
" />
<path d="M9.3361 8.2068
L9.3361 7.9649
" />
<path d="M9.3361 7.9649
L9.3845 7.7714
" />
<path d="M9.3845 7.7714
L9.4328 7.6746
" />
<path d="M9.4328 7.6746
L9.4812 7.6262
" />
<path d="M9.4812 7.6262
L9.5780 7.5778
" />
</g></g>
<g style="fill:#A90000; fill-opacity:0.0; 
stroke:#A90000; stroke-width:0.1524; stroke-opacity:1; 
stroke-linecap:round; stroke-linejoin:round;">
<text x="5.9944" y="7.6200"
textLength="1.4127" font-size="1.6933" lengthAdjust="spacingAndGlyphs"
text-anchor="middle" opacity="0">7</text>
<g class="stroked-text"><desc>7</desc>
<path d="M5.5711 6.1865
L6.4177 6.1865
" />
<path d="M6.4177 6.1865
L5.8735 7.4565
" />
</g></g>
<g style="fill:#840000; fill-opacity:0.0; 
stroke:#840000; stroke-width:0.1524; stroke-opacity:1; 
stroke-linecap:round; stroke-linejoin:round;">
<path d="M7.2644 10.4140
L4.7244 10.4140
" />
</g>
<g style="fill:#006464; fill-opacity:0.0; 
stroke:#006464; stroke-width:0.1524; stroke-opacity:1; 
stroke-linecap:round; stroke-linejoin:round;">
<text x="7.7724" y="11.0490"
textLength="2.4916" font-size="1.6933" lengthAdjust="spacingAndGlyphs"
text-anchor="start" opacity="0">D_{1}</text>
<g class="stroked-text"><desc>D_{1}</desc>
<path d="M8.1749 10.9935
L8.1749 9.7235
" />
<path d="M8.1749 9.7235
L8.4773 9.7235
" />
<path d="M8.4773 9.7235
L8.6587 9.7840
" />
<path d="M8.6587 9.7840
L8.7797 9.9050
" />
<path d="M8.7797 9.9050
L8.8402 10.0259
" />
<path d="M8.8402 10.0259
L8.9006 10.2678
" />
<path d="M8.9006 10.2678
L8.9006 10.4492
" />
<path d="M8.9006 10.4492
L8.8402 10.6911
" />
<path d="M8.8402 10.6911
L8.7797 10.8121
" />
<path d="M8.7797 10.8121
L8.6587 10.9331
" />
<path d="M8.6587 10.9331
L8.4773 10.9935
" />
<path d="M8.4773 10.9935
L8.1749 10.9935
" />
<path d="M9.9166 11.1338
L9.3361 11.1338
" />
<path d="M9.6264 11.1338
L9.6264 10.1178
" />
<path d="M9.6264 10.1178
L9.5296 10.2630
" />
<path d="M9.5296 10.2630
L9.4328 10.3597
" />
<path d="M9.4328 10.3597
L9.3361 10.4081
" />
</g></g>
<g style="fill:#A90000; fill-opacity:0.0; 
stroke:#A90000; stroke-width:0.1524; stroke-opacity:1; 
stroke-linecap:round; stroke-linejoin:round;">
<text x="5.9944" y="10.1600"
textLength="1.4127" font-size="1.6933" lengthAdjust="spacingAndGlyphs"
text-anchor="middle" opacity="0">8</text>
<g class="stroked-text"><desc>8</desc>
<path d="M5.8735 9.2708
L5.7525 9.2103
" />
<path d="M5.7525 9.2103
L5.6920 9.1499
" />
<path d="M5.6920 9.1499
L5.6316 9.0289
" />
<path d="M5.6316 9.0289
L5.6316 8.9684
" />
<path d="M5.6316 8.9684
L5.6920 8.8475
" />
<path d="M5.6920 8.8475
L5.7525 8.7870
" />
<path d="M5.7525 8.7870
L5.8735 8.7265
" />
<path d="M5.8735 8.7265
L6.1154 8.7265
" />
<path d="M6.1154 8.7265
L6.2363 8.7870
" />
<path d="M6.2363 8.7870
L6.2968 8.8475
" />
<path d="M6.2968 8.8475
L6.3573 8.9684
" />
<path d="M6.3573 8.9684
L6.3573 9.0289
" />
<path d="M6.3573 9.0289
L6.2968 9.1499
" />
<path d="M6.2968 9.1499
L6.2363 9.2103
" />
<path d="M6.2363 9.2103
L6.1154 9.2708
" />
<path d="M6.1154 9.2708
L5.8735 9.2708
" />
<path d="M5.8735 9.2708
L5.7525 9.3313
" />
<path d="M5.7525 9.3313
L5.6920 9.3918
" />
<path d="M5.6920 9.3918
L5.6316 9.5127
" />
<path d="M5.6316 9.5127
L5.6316 9.7546
" />
<path d="M5.6316 9.7546
L5.6920 9.8756
" />
<path d="M5.6920 9.8756
L5.7525 9.9361
" />
<path d="M5.7525 9.9361
L5.8735 9.9965
" />
<path d="M5.8735 9.9965
L6.1154 9.9965
" />
<path d="M6.1154 9.9965
L6.2363 9.9361
" />
<path d="M6.2363 9.9361
L6.2968 9.8756
" />
<path d="M6.2968 9.8756
L6.3573 9.7546
" />
<path d="M6.3573 9.7546
L6.3573 9.5127
" />
<path d="M6.3573 9.5127
L6.2968 9.3918
" />
<path d="M6.2968 9.3918
L6.2363 9.3313
" />
<path d="M6.2363 9.3313
L6.1154 9.2708
" />
</g></g>
<g style="fill:#840000; fill-opacity:0.0; 
stroke:#840000; stroke-width:0.1524; stroke-opacity:1; 
stroke-linecap:round; stroke-linejoin:round;">
<path d="M7.2644 12.9540
L4.7244 12.9540
" />
</g>
<g style="fill:#006464; fill-opacity:0.0; 
stroke:#006464; stroke-width:0.1524; stroke-opacity:1; 
stroke-linecap:round; stroke-linejoin:round;">
<text x="7.7724" y="13.5890"
textLength="2.4916" font-size="1.6933" lengthAdjust="spacingAndGlyphs"
text-anchor="start" opacity="0">D_{2}</text>
<g class="stroked-text"><desc>D_{2}</desc>
<path d="M8.1749 13.5335
L8.1749 12.2635
" />
<path d="M8.1749 12.2635
L8.4773 12.2635
" />
<path d="M8.4773 12.2635
L8.6587 12.3240
" />
<path d="M8.6587 12.3240
L8.7797 12.4450
" />
<path d="M8.7797 12.4450
L8.8402 12.5659
" />
<path d="M8.8402 12.5659
L8.9006 12.8078
" />
<path d="M8.9006 12.8078
L8.9006 12.9892
" />
<path d="M8.9006 12.9892
L8.8402 13.2311
" />
<path d="M8.8402 13.2311
L8.7797 13.3521
" />
<path d="M8.7797 13.3521
L8.6587 13.4731
" />
<path d="M8.6587 13.4731
L8.4773 13.5335
" />
<path d="M8.4773 13.5335
L8.1749 13.5335
" />
<path d="M9.3361 12.7546
L9.3845 12.7062
" />
<path d="M9.3845 12.7062
L9.4812 12.6578
" />
<path d="M9.4812 12.6578
L9.7231 12.6578
" />
<path d="M9.7231 12.6578
L9.8199 12.7062
" />
<path d="M9.8199 12.7062
L9.8683 12.7546
" />
<path d="M9.8683 12.7546
L9.9166 12.8514
" />
<path d="M9.9166 12.8514
L9.9166 12.9481
" />
<path d="M9.9166 12.9481
L9.8683 13.0933
" />
<path d="M9.8683 13.0933
L9.2877 13.6738
" />
<path d="M9.2877 13.6738
L9.9166 13.6738
" />
</g></g>
<g style="fill:#A90000; fill-opacity:0.0; 
stroke:#A90000; stroke-width:0.1524; stroke-opacity:1; 
stroke-linecap:round; stroke-linejoin:round;">
<text x="5.9944" y="12.7000"
textLength="1.4127" font-size="1.6933" lengthAdjust="spacingAndGlyphs"
text-anchor="middle" opacity="0">9</text>
<g class="stroked-text"><desc>9</desc>
<path d="M5.7525 12.5365
L5.9944 12.5365
" />
<path d="M5.9944 12.5365
L6.1154 12.4761
" />
<path d="M6.1154 12.4761
L6.1758 12.4156
" />
<path d="M6.1758 12.4156
L6.2968 12.2341
" />
<path d="M6.2968 12.2341
L6.3573 11.9922
" />
<path d="M6.3573 11.9922
L6.3573 11.5084
" />
<path d="M6.3573 11.5084
L6.2968 11.3875
" />
<path d="M6.2968 11.3875
L6.2363 11.3270
" />
<path d="M6.2363 11.3270
L6.1154 11.2665
" />
<path d="M6.1154 11.2665
L5.8735 11.2665
" />
<path d="M5.8735 11.2665
L5.7525 11.3270
" />
<path d="M5.7525 11.3270
L5.6920 11.3875
" />
<path d="M5.6920 11.3875
L5.6316 11.5084
" />
<path d="M5.6316 11.5084
L5.6316 11.8108
" />
<path d="M5.6316 11.8108
L5.6920 11.9318
" />
<path d="M5.6920 11.9318
L5.7525 11.9922
" />
<path d="M5.7525 11.9922
L5.8735 12.0527
" />
<path d="M5.8735 12.0527
L6.1154 12.0527
" />
<path d="M6.1154 12.0527
L6.2363 11.9922
" />
<path d="M6.2363 11.9922
L6.2968 11.9318
" />
<path d="M6.2968 11.9318
L6.3573 11.8108
" />
</g></g>
<g style="fill:#840084; fill-opacity:0.0; 
stroke:#840084; stroke-width:0.1524; stroke-opacity:1; 
stroke-linecap:round; stroke-linejoin:round;">
</g>
<g style="fill:#006464; fill-opacity:0.0; 
stroke:#006464; stroke-width:0.1524; stroke-opacity:1; 
stroke-linecap:round; stroke-linejoin:round;">
</g>
<g style="fill:#006464; fill-opacity:0.0; 
stroke:#006464; stroke-width:0.1588; stroke-opacity:1; 
stroke-linecap:round; stroke-linejoin:round;">
<text x="7.2644" y="4.6990"
textLength="4.8791" font-size="1.6933" lengthAdjust="spacingAndGlyphs"
text-anchor="middle" opacity="0">LCD?</text>
<g class="stroked-text"><desc>LCD?</desc>
<path d="M5.8432 4.6432
L5.2384 4.6432
" />
<path d="M5.2384 4.6432
L5.2384 3.3732
" />
<path d="M6.9922 4.5223
L6.9318 4.5828
" />
<path d="M6.9318 4.5828
L6.7503 4.6432
" />
<path d="M6.7503 4.6432
L6.6294 4.6432
" />
<path d="M6.6294 4.6432
L6.4480 4.5828
" />
<path d="M6.4480 4.5828
L6.3270 4.4618
" />
<path d="M6.3270 4.4618
L6.2665 4.3408
" />
<path d="M6.2665 4.3408
L6.2061 4.0989
" />
<path d="M6.2061 4.0989
L6.2061 3.9175
" />
<path d="M6.2061 3.9175
L6.2665 3.6756
" />
<path d="M6.2665 3.6756
L6.3270 3.5547
" />
<path d="M6.3270 3.5547
L6.4480 3.4337
" />
<path d="M6.4480 3.4337
L6.6294 3.3732
" />
<path d="M6.6294 3.3732
L6.7503 3.3732
" />
<path d="M6.7503 3.3732
L6.9318 3.4337
" />
<path d="M6.9318 3.4337
L6.9922 3.4942
" />
<path d="M7.5365 4.6432
L7.5365 3.3732
" />
<path d="M7.5365 3.3732
L7.8389 3.3732
" />
<path d="M7.8389 3.3732
L8.0203 3.4337
" />
<path d="M8.0203 3.4337
L8.1413 3.5547
" />
<path d="M8.1413 3.5547
L8.2018 3.6756
" />
<path d="M8.2018 3.6756
L8.2622 3.9175
" />
<path d="M8.2622 3.9175
L8.2622 4.0989
" />
<path d="M8.2622 4.0989
L8.2018 4.3408
" />
<path d="M8.2018 4.3408
L8.1413 4.4618
" />
<path d="M8.1413 4.4618
L8.0203 4.5828
" />
<path d="M8.0203 4.5828
L7.8389 4.6432
" />
<path d="M7.8389 4.6432
L7.5365 4.6432
" />
<path d="M8.9880 4.5223
L9.0484 4.5828
" />
<path d="M9.0484 4.5828
L8.9880 4.6432
" />
<path d="M8.9880 4.6432
L8.9275 4.5828
" />
<path d="M8.9275 4.5828
L8.9880 4.5223
" />
<path d="M8.9880 4.5223
L8.9880 4.6432
" />
<path d="M8.7461 3.4337
L8.8670 3.3732
" />
<path d="M8.8670 3.3732
L9.1694 3.3732
" />
<path d="M9.1694 3.3732
L9.2903 3.4337
" />
<path d="M9.2903 3.4337
L9.3508 3.5547
" />
<path d="M9.3508 3.5547
L9.3508 3.6756
" />
<path d="M9.3508 3.6756
L9.2903 3.7966
" />
<path d="M9.2903 3.7966
L9.2299 3.8570
" />
<path d="M9.2299 3.8570
L9.1089 3.9175
" />
<path d="M9.1089 3.9175
L9.0484 3.9780
" />
<path d="M9.0484 3.9780
L8.9880 4.0989
" />
<path d="M8.9880 4.0989
L8.9880 4.1594
" />
</g></g> 
</svg>
