<?xml version="1.0" standalone="no"?>
 <!DOCTYPE svg PUBLIC "-//W3C//DTD SVG 1.1//EN" 
 "http://www.w3.org/Graphics/SVG/1.1/DTD/svg11.dtd"> 
<svg
  xmlns:svg="http://www.w3.org/2000/svg"
  xmlns="http://www.w3.org/2000/svg"
  xmlns:xlink="http://www.w3.org/1999/xlink"
  version="1.1"
  width="24.6888mm" height="33.5280mm" viewBox="0.0000 0.0000 24.6888 33.5280">
<title>SVG Image created as 2004a-oled.svg date 2023/09/25 15:20:43 </title>
  <desc>Image generated by Eeschema-SVG </desc>
<g style="fill:#000000; fill-opacity:1.0000;stroke:#000000; stroke-opacity:1.0000;
stroke-linecap:round; stroke-linejoin:round;"
 transform="translate(0 0) scale(1 1)">
</g>
<g style="fill:#840000; fill-opacity:0.0; 
stroke:#840000; stroke-width:0.0000; stroke-opacity:1; 
stroke-linecap:round; stroke-linejoin:round;">
</g>
<g style="fill:#FFFFC2; fill-opacity:0.0; 
stroke:#FFFFC2; stroke-width:0.0000; stroke-opacity:1; 
stroke-linecap:round; stroke-linejoin:round;">
</g>
<g style="fill:#FFFFC2; fill-opacity:1.0000; 
stroke:#FFFFC2; stroke-width:0.0000; stroke-opacity:1; 
stroke-linecap:round; stroke-linejoin:round;">
<rect x="12.344400" y="16.764000" width="10.160000" height="22.860000" rx="0.000000" />
</g>
<g style="fill:#840084; fill-opacity:1.0000; 
stroke:#840084; stroke-width:0.0000; stroke-opacity:1; 
stroke-linecap:round; stroke-linejoin:round;">
</g>
<g style="fill:#840000; fill-opacity:1.0000; 
stroke:#840000; stroke-width:0.0000; stroke-opacity:1; 
stroke-linecap:round; stroke-linejoin:round;">
</g>
<g style="fill:#840000; fill-opacity:0.0; 
stroke:#840000; stroke-width:0.1524; stroke-opacity:1; 
stroke-linecap:round; stroke-linejoin:round;">
<rect x="12.344400" y="16.764000" width="10.160000" height="22.860000" rx="0.000000" />
</g>
<g style="fill:#840000; fill-opacity:0.0; 
stroke:#840000; stroke-width:0.1588; stroke-opacity:1; 
stroke-linecap:round; stroke-linejoin:round;">
<text x="18.6944" y="32.6391"
textLength="12.0152" font-size="1.6933" lengthAdjust="spacingAndGlyphs"
text-anchor="middle" opacity="0">2004A
OLED</text>
<g class="stroked-text"><desc>2004A
OLED</desc>
<path d="M15.9730 30.4119
L16.0334 30.3514
" />
<path d="M16.0334 30.3514
L16.1544 30.2909
" />
<path d="M16.1544 30.2909
L16.4568 30.2909
" />
<path d="M16.4568 30.2909
L16.5777 30.3514
" />
<path d="M16.5777 30.3514
L16.6382 30.4119
" />
<path d="M16.6382 30.4119
L16.6987 30.5328
" />
<path d="M16.6987 30.5328
L16.6987 30.6538
" />
<path d="M16.6987 30.6538
L16.6382 30.8352
" />
<path d="M16.6382 30.8352
L15.9125 31.5609
" />
<path d="M15.9125 31.5609
L16.6987 31.5609
" />
<path d="M17.4848 30.2909
L17.6058 30.2909
" />
<path d="M17.6058 30.2909
L17.7267 30.3514
" />
<path d="M17.7267 30.3514
L17.7872 30.4119
" />
<path d="M17.7872 30.4119
L17.8477 30.5328
" />
<path d="M17.8477 30.5328
L17.9082 30.7747
" />
<path d="M17.9082 30.7747
L17.9082 31.0771
" />
<path d="M17.9082 31.0771
L17.8477 31.3190
" />
<path d="M17.8477 31.3190
L17.7872 31.4400
" />
<path d="M17.7872 31.4400
L17.7267 31.5005
" />
<path d="M17.7267 31.5005
L17.6058 31.5609
" />
<path d="M17.6058 31.5609
L17.4848 31.5609
" />
<path d="M17.4848 31.5609
L17.3639 31.5005
" />
<path d="M17.3639 31.5005
L17.3034 31.4400
" />
<path d="M17.3034 31.4400
L17.2429 31.3190
" />
<path d="M17.2429 31.3190
L17.1825 31.0771
" />
<path d="M17.1825 31.0771
L17.1825 30.7747
" />
<path d="M17.1825 30.7747
L17.2429 30.5328
" />
<path d="M17.2429 30.5328
L17.3034 30.4119
" />
<path d="M17.3034 30.4119
L17.3639 30.3514
" />
<path d="M17.3639 30.3514
L17.4848 30.2909
" />
<path d="M18.6943 30.2909
L18.8153 30.2909
" />
<path d="M18.8153 30.2909
L18.9362 30.3514
" />
<path d="M18.9362 30.3514
L18.9967 30.4119
" />
<path d="M18.9967 30.4119
L19.0572 30.5328
" />
<path d="M19.0572 30.5328
L19.1177 30.7747
" />
<path d="M19.1177 30.7747
L19.1177 31.0771
" />
<path d="M19.1177 31.0771
L19.0572 31.3190
" />
<path d="M19.0572 31.3190
L18.9967 31.4400
" />
<path d="M18.9967 31.4400
L18.9362 31.5005
" />
<path d="M18.9362 31.5005
L18.8153 31.5609
" />
<path d="M18.8153 31.5609
L18.6943 31.5609
" />
<path d="M18.6943 31.5609
L18.5734 31.5005
" />
<path d="M18.5734 31.5005
L18.5129 31.4400
" />
<path d="M18.5129 31.4400
L18.4524 31.3190
" />
<path d="M18.4524 31.3190
L18.3920 31.0771
" />
<path d="M18.3920 31.0771
L18.3920 30.7747
" />
<path d="M18.3920 30.7747
L18.4524 30.5328
" />
<path d="M18.4524 30.5328
L18.5129 30.4119
" />
<path d="M18.5129 30.4119
L18.5734 30.3514
" />
<path d="M18.5734 30.3514
L18.6943 30.2909
" />
<path d="M20.2062 30.7143
L20.2062 31.5609
" />
<path d="M19.9038 30.2305
L19.6015 31.1376
" />
<path d="M19.6015 31.1376
L20.3876 31.1376
" />
<path d="M20.8110 31.1981
L21.4157 31.1981
" />
<path d="M20.6900 31.5609
L21.1133 30.2909
" />
<path d="M21.1133 30.2909
L21.5367 31.5609
" />
<path d="M16.8498 32.3356
L17.0917 32.3356
" />
<path d="M17.0917 32.3356
L17.2127 32.3961
" />
<path d="M17.2127 32.3961
L17.3336 32.5171
" />
<path d="M17.3336 32.5171
L17.3941 32.7590
" />
<path d="M17.3941 32.7590
L17.3941 33.1823
" />
<path d="M17.3941 33.1823
L17.3336 33.4242
" />
<path d="M17.3336 33.4242
L17.2127 33.5452
" />
<path d="M17.2127 33.5452
L17.0917 33.6056
" />
<path d="M17.0917 33.6056
L16.8498 33.6056
" />
<path d="M16.8498 33.6056
L16.7289 33.5452
" />
<path d="M16.7289 33.5452
L16.6079 33.4242
" />
<path d="M16.6079 33.4242
L16.5475 33.1823
" />
<path d="M16.5475 33.1823
L16.5475 32.7590
" />
<path d="M16.5475 32.7590
L16.6079 32.5171
" />
<path d="M16.6079 32.5171
L16.7289 32.3961
" />
<path d="M16.7289 32.3961
L16.8498 32.3356
" />
<path d="M18.5432 33.6056
L17.9384 33.6056
" />
<path d="M17.9384 33.6056
L17.9384 32.3356
" />
<path d="M18.9665 32.9404
L19.3899 32.9404
" />
<path d="M19.5713 33.6056
L18.9665 33.6056
" />
<path d="M18.9665 33.6056
L18.9665 32.3356
" />
<path d="M18.9665 32.3356
L19.5713 32.3356
" />
<path d="M20.1155 33.6056
L20.1155 32.3356
" />
<path d="M20.1155 32.3356
L20.4179 32.3356
" />
<path d="M20.4179 32.3356
L20.5993 32.3961
" />
<path d="M20.5993 32.3961
L20.7203 32.5171
" />
<path d="M20.7203 32.5171
L20.7808 32.6380
" />
<path d="M20.7808 32.6380
L20.8412 32.8799
" />
<path d="M20.8412 32.8799
L20.8412 33.0613
" />
<path d="M20.8412 33.0613
L20.7808 33.3032
" />
<path d="M20.7808 33.3032
L20.7203 33.4242
" />
<path d="M20.7203 33.4242
L20.5993 33.5452
" />
<path d="M20.5993 33.5452
L20.4179 33.6056
" />
<path d="M20.4179 33.6056
L20.1155 33.6056
" />
</g></g>
<g style="fill:#840000; fill-opacity:0.0; 
stroke:#840000; stroke-width:0.1524; stroke-opacity:1; 
stroke-linecap:round; stroke-linejoin:round;">
<path d="M17.4244 39.6240
L17.4244 42.1640
" />
</g>
<g style="fill:#006464; fill-opacity:0.0; 
stroke:#006464; stroke-width:0.1524; stroke-opacity:1; 
stroke-linecap:round; stroke-linejoin:round;">
<g transform="rotate(-90.000000 17.4244 39.1160)">
<text x="17.4244" y="39.7510"
textLength="4.0737" font-size="1.6933" lengthAdjust="spacingAndGlyphs"
text-anchor="start" opacity="0">GND</text>
</g>
<g class="stroked-text"><desc>GND</desc>
<path d="M16.7944 38.0481
L16.7339 38.1691
" />
<path d="M16.7339 38.1691
L16.7339 38.3505
" />
<path d="M16.7339 38.3505
L16.7944 38.5319
" />
<path d="M16.7944 38.5319
L16.9154 38.6529
" />
<path d="M16.9154 38.6529
L17.0363 38.7134
" />
<path d="M17.0363 38.7134
L17.2782 38.7738
" />
<path d="M17.2782 38.7738
L17.4596 38.7738
" />
<path d="M17.4596 38.7738
L17.7015 38.7134
" />
<path d="M17.7015 38.7134
L17.8225 38.6529
" />
<path d="M17.8225 38.6529
L17.9435 38.5319
" />
<path d="M17.9435 38.5319
L18.0039 38.3505
" />
<path d="M18.0039 38.3505
L18.0039 38.2296
" />
<path d="M18.0039 38.2296
L17.9435 38.0481
" />
<path d="M17.9435 38.0481
L17.8830 37.9877
" />
<path d="M17.8830 37.9877
L17.4596 37.9877
" />
<path d="M17.4596 37.9877
L17.4596 38.2296
" />
<path d="M18.0039 37.4434
L16.7339 37.4434
" />
<path d="M16.7339 37.4434
L18.0039 36.7177
" />
<path d="M18.0039 36.7177
L16.7339 36.7177
" />
<path d="M18.0039 36.1129
L16.7339 36.1129
" />
<path d="M16.7339 36.1129
L16.7339 35.8105
" />
<path d="M16.7339 35.8105
L16.7944 35.6291
" />
<path d="M16.7944 35.6291
L16.9154 35.5081
" />
<path d="M16.9154 35.5081
L17.0363 35.4476
" />
<path d="M17.0363 35.4476
L17.2782 35.3872
" />
<path d="M17.2782 35.3872
L17.4596 35.3872
" />
<path d="M17.4596 35.3872
L17.7015 35.4476
" />
<path d="M17.7015 35.4476
L17.8225 35.5081
" />
<path d="M17.8225 35.5081
L17.9435 35.6291
" />
<path d="M17.9435 35.6291
L18.0039 35.8105
" />
<path d="M18.0039 35.8105
L18.0039 36.1129
" />
</g></g>
<g style="fill:#A90000; fill-opacity:0.0; 
stroke:#A90000; stroke-width:0.1524; stroke-opacity:1; 
stroke-linecap:round; stroke-linejoin:round;">
<g transform="rotate(-90.000000 17.1704 40.8940)">
<text x="17.1704" y="40.8940"
textLength="1.4127" font-size="1.6933" lengthAdjust="spacingAndGlyphs"
text-anchor="middle" opacity="0">1</text>
</g>
<g class="stroked-text"><desc>1</desc>
<path d="M17.0069 40.5310
L17.0069 41.2567
" />
<path d="M17.0069 40.8939
L15.7369 40.8939
" />
<path d="M15.7369 40.8939
L15.9184 41.0148
" />
<path d="M15.9184 41.0148
L16.0393 41.1358
" />
<path d="M16.0393 41.1358
L16.0998 41.2567
" />
</g></g>
<g style="fill:#840000; fill-opacity:0.0; 
stroke:#840000; stroke-width:0.1524; stroke-opacity:1; 
stroke-linecap:round; stroke-linejoin:round;">
<path d="M12.3444 26.9240
L9.8044 26.9240
" />
</g>
<g style="fill:#006464; fill-opacity:0.0; 
stroke:#006464; stroke-width:0.1524; stroke-opacity:1; 
stroke-linecap:round; stroke-linejoin:round;">
<text x="12.8524" y="27.5590"
textLength="2.4916" font-size="1.6933" lengthAdjust="spacingAndGlyphs"
text-anchor="start" opacity="0">D_{3}</text>
<g class="stroked-text"><desc>D_{3}</desc>
<path d="M13.2549 27.5035
L13.2549 26.2335
" />
<path d="M13.2549 26.2335
L13.5573 26.2335
" />
<path d="M13.5573 26.2335
L13.7387 26.2940
" />
<path d="M13.7387 26.2940
L13.8597 26.4150
" />
<path d="M13.8597 26.4150
L13.9202 26.5359
" />
<path d="M13.9202 26.5359
L13.9806 26.7778
" />
<path d="M13.9806 26.7778
L13.9806 26.9592
" />
<path d="M13.9806 26.9592
L13.9202 27.2011
" />
<path d="M13.9202 27.2011
L13.8597 27.3221
" />
<path d="M13.8597 27.3221
L13.7387 27.4431
" />
<path d="M13.7387 27.4431
L13.5573 27.5035
" />
<path d="M13.5573 27.5035
L13.2549 27.5035
" />
<path d="M14.3677 26.6278
L14.9966 26.6278
" />
<path d="M14.9966 26.6278
L14.6580 27.0149
" />
<path d="M14.6580 27.0149
L14.8031 27.0149
" />
<path d="M14.8031 27.0149
L14.8999 27.0633
" />
<path d="M14.8999 27.0633
L14.9483 27.1116
" />
<path d="M14.9483 27.1116
L14.9966 27.2084
" />
<path d="M14.9966 27.2084
L14.9966 27.4503
" />
<path d="M14.9966 27.4503
L14.9483 27.5471
" />
<path d="M14.9483 27.5471
L14.8999 27.5955
" />
<path d="M14.8999 27.5955
L14.8031 27.6438
" />
<path d="M14.8031 27.6438
L14.5128 27.6438
" />
<path d="M14.5128 27.6438
L14.4161 27.5955
" />
<path d="M14.4161 27.5955
L14.3677 27.5471
" />
</g></g>
<g style="fill:#A90000; fill-opacity:0.0; 
stroke:#A90000; stroke-width:0.1524; stroke-opacity:1; 
stroke-linecap:round; stroke-linejoin:round;">
<text x="11.0744" y="26.6700"
textLength="2.6222" font-size="1.6933" lengthAdjust="spacingAndGlyphs"
text-anchor="middle" opacity="0">10</text>
<g class="stroked-text"><desc>10</desc>
<path d="M10.8325 26.5065
L10.1068 26.5065
" />
<path d="M10.4696 26.5065
L10.4696 25.2365
" />
<path d="M10.4696 25.2365
L10.3487 25.4180
" />
<path d="M10.3487 25.4180
L10.2277 25.5389
" />
<path d="M10.2277 25.5389
L10.1068 25.5994
" />
<path d="M11.6186 25.2365
L11.7396 25.2365
" />
<path d="M11.7396 25.2365
L11.8605 25.2970
" />
<path d="M11.8605 25.2970
L11.9210 25.3575
" />
<path d="M11.9210 25.3575
L11.9815 25.4784
" />
<path d="M11.9815 25.4784
L12.0420 25.7203
" />
<path d="M12.0420 25.7203
L12.0420 26.0227
" />
<path d="M12.0420 26.0227
L11.9815 26.2646
" />
<path d="M11.9815 26.2646
L11.9210 26.3856
" />
<path d="M11.9210 26.3856
L11.8605 26.4461
" />
<path d="M11.8605 26.4461
L11.7396 26.5065
" />
<path d="M11.7396 26.5065
L11.6186 26.5065
" />
<path d="M11.6186 26.5065
L11.4977 26.4461
" />
<path d="M11.4977 26.4461
L11.4372 26.3856
" />
<path d="M11.4372 26.3856
L11.3767 26.2646
" />
<path d="M11.3767 26.2646
L11.3163 26.0227
" />
<path d="M11.3163 26.0227
L11.3163 25.7203
" />
<path d="M11.3163 25.7203
L11.3767 25.4784
" />
<path d="M11.3767 25.4784
L11.4372 25.3575
" />
<path d="M11.4372 25.3575
L11.4977 25.2970
" />
<path d="M11.4977 25.2970
L11.6186 25.2365
" />
</g></g>
<g style="fill:#840000; fill-opacity:0.0; 
stroke:#840000; stroke-width:0.1524; stroke-opacity:1; 
stroke-linecap:round; stroke-linejoin:round;">
<path d="M12.3444 29.4640
L9.8044 29.4640
" />
</g>
<g style="fill:#006464; fill-opacity:0.0; 
stroke:#006464; stroke-width:0.1524; stroke-opacity:1; 
stroke-linecap:round; stroke-linejoin:round;">
<text x="12.8524" y="30.0990"
textLength="2.4916" font-size="1.6933" lengthAdjust="spacingAndGlyphs"
text-anchor="start" opacity="0">D_{4}</text>
<g class="stroked-text"><desc>D_{4}</desc>
<path d="M13.2549 30.0435
L13.2549 28.7735
" />
<path d="M13.2549 28.7735
L13.5573 28.7735
" />
<path d="M13.5573 28.7735
L13.7387 28.8340
" />
<path d="M13.7387 28.8340
L13.8597 28.9550
" />
<path d="M13.8597 28.9550
L13.9202 29.0759
" />
<path d="M13.9202 29.0759
L13.9806 29.3178
" />
<path d="M13.9806 29.3178
L13.9806 29.4992
" />
<path d="M13.9806 29.4992
L13.9202 29.7411
" />
<path d="M13.9202 29.7411
L13.8597 29.8621
" />
<path d="M13.8597 29.8621
L13.7387 29.9831
" />
<path d="M13.7387 29.9831
L13.5573 30.0435
" />
<path d="M13.5573 30.0435
L13.2549 30.0435
" />
<path d="M14.8999 29.5065
L14.8999 30.1838
" />
<path d="M14.6580 29.1195
L14.4161 29.8452
" />
<path d="M14.4161 29.8452
L15.0450 29.8452
" />
</g></g>
<g style="fill:#A90000; fill-opacity:0.0; 
stroke:#A90000; stroke-width:0.1524; stroke-opacity:1; 
stroke-linecap:round; stroke-linejoin:round;">
<text x="11.0744" y="29.2100"
textLength="2.6222" font-size="1.6933" lengthAdjust="spacingAndGlyphs"
text-anchor="middle" opacity="0">11</text>
<g class="stroked-text"><desc>11</desc>
<path d="M10.8325 29.0465
L10.1068 29.0465
" />
<path d="M10.4696 29.0465
L10.4696 27.7765
" />
<path d="M10.4696 27.7765
L10.3487 27.9580
" />
<path d="M10.3487 27.9580
L10.2277 28.0789
" />
<path d="M10.2277 28.0789
L10.1068 28.1394
" />
<path d="M12.0420 29.0465
L11.3163 29.0465
" />
<path d="M11.6791 29.0465
L11.6791 27.7765
" />
<path d="M11.6791 27.7765
L11.5582 27.9580
" />
<path d="M11.5582 27.9580
L11.4372 28.0789
" />
<path d="M11.4372 28.0789
L11.3163 28.1394
" />
</g></g>
<g style="fill:#840000; fill-opacity:0.0; 
stroke:#840000; stroke-width:0.1524; stroke-opacity:1; 
stroke-linecap:round; stroke-linejoin:round;">
<path d="M12.3444 32.0040
L9.8044 32.0040
" />
</g>
<g style="fill:#006464; fill-opacity:0.0; 
stroke:#006464; stroke-width:0.1524; stroke-opacity:1; 
stroke-linecap:round; stroke-linejoin:round;">
<text x="12.8524" y="32.6390"
textLength="2.4916" font-size="1.6933" lengthAdjust="spacingAndGlyphs"
text-anchor="start" opacity="0">D_{5}</text>
<g class="stroked-text"><desc>D_{5}</desc>
<path d="M13.2549 32.5835
L13.2549 31.3135
" />
<path d="M13.2549 31.3135
L13.5573 31.3135
" />
<path d="M13.5573 31.3135
L13.7387 31.3740
" />
<path d="M13.7387 31.3740
L13.8597 31.4950
" />
<path d="M13.8597 31.4950
L13.9202 31.6159
" />
<path d="M13.9202 31.6159
L13.9806 31.8578
" />
<path d="M13.9806 31.8578
L13.9806 32.0392
" />
<path d="M13.9806 32.0392
L13.9202 32.2811
" />
<path d="M13.9202 32.2811
L13.8597 32.4021
" />
<path d="M13.8597 32.4021
L13.7387 32.5231
" />
<path d="M13.7387 32.5231
L13.5573 32.5835
" />
<path d="M13.5573 32.5835
L13.2549 32.5835
" />
<path d="M14.9483 31.7078
L14.4645 31.7078
" />
<path d="M14.4645 31.7078
L14.4161 32.1916
" />
<path d="M14.4161 32.1916
L14.4645 32.1433
" />
<path d="M14.4645 32.1433
L14.5612 32.0949
" />
<path d="M14.5612 32.0949
L14.8031 32.0949
" />
<path d="M14.8031 32.0949
L14.8999 32.1433
" />
<path d="M14.8999 32.1433
L14.9483 32.1916
" />
<path d="M14.9483 32.1916
L14.9966 32.2884
" />
<path d="M14.9966 32.2884
L14.9966 32.5303
" />
<path d="M14.9966 32.5303
L14.9483 32.6271
" />
<path d="M14.9483 32.6271
L14.8999 32.6755
" />
<path d="M14.8999 32.6755
L14.8031 32.7238
" />
<path d="M14.8031 32.7238
L14.5612 32.7238
" />
<path d="M14.5612 32.7238
L14.4645 32.6755
" />
<path d="M14.4645 32.6755
L14.4161 32.6271
" />
</g></g>
<g style="fill:#A90000; fill-opacity:0.0; 
stroke:#A90000; stroke-width:0.1524; stroke-opacity:1; 
stroke-linecap:round; stroke-linejoin:round;">
<text x="11.0744" y="31.7500"
textLength="2.6222" font-size="1.6933" lengthAdjust="spacingAndGlyphs"
text-anchor="middle" opacity="0">12</text>
<g class="stroked-text"><desc>12</desc>
<path d="M10.8325 31.5865
L10.1068 31.5865
" />
<path d="M10.4696 31.5865
L10.4696 30.3165
" />
<path d="M10.4696 30.3165
L10.3487 30.4980
" />
<path d="M10.3487 30.4980
L10.2277 30.6189
" />
<path d="M10.2277 30.6189
L10.1068 30.6794
" />
<path d="M11.3163 30.4375
L11.3767 30.3770
" />
<path d="M11.3767 30.3770
L11.4977 30.3165
" />
<path d="M11.4977 30.3165
L11.8001 30.3165
" />
<path d="M11.8001 30.3165
L11.9210 30.3770
" />
<path d="M11.9210 30.3770
L11.9815 30.4375
" />
<path d="M11.9815 30.4375
L12.0420 30.5584
" />
<path d="M12.0420 30.5584
L12.0420 30.6794
" />
<path d="M12.0420 30.6794
L11.9815 30.8608
" />
<path d="M11.9815 30.8608
L11.2558 31.5865
" />
<path d="M11.2558 31.5865
L12.0420 31.5865
" />
</g></g>
<g style="fill:#840000; fill-opacity:0.0; 
stroke:#840000; stroke-width:0.1524; stroke-opacity:1; 
stroke-linecap:round; stroke-linejoin:round;">
<path d="M12.3444 34.5440
L9.8044 34.5440
" />
</g>
<g style="fill:#006464; fill-opacity:0.0; 
stroke:#006464; stroke-width:0.1524; stroke-opacity:1; 
stroke-linecap:round; stroke-linejoin:round;">
<text x="12.8524" y="35.1790"
textLength="2.4916" font-size="1.6933" lengthAdjust="spacingAndGlyphs"
text-anchor="start" opacity="0">D_{6}</text>
<g class="stroked-text"><desc>D_{6}</desc>
<path d="M13.2549 35.1235
L13.2549 33.8535
" />
<path d="M13.2549 33.8535
L13.5573 33.8535
" />
<path d="M13.5573 33.8535
L13.7387 33.9140
" />
<path d="M13.7387 33.9140
L13.8597 34.0350
" />
<path d="M13.8597 34.0350
L13.9202 34.1559
" />
<path d="M13.9202 34.1559
L13.9806 34.3978
" />
<path d="M13.9806 34.3978
L13.9806 34.5792
" />
<path d="M13.9806 34.5792
L13.9202 34.8211
" />
<path d="M13.9202 34.8211
L13.8597 34.9421
" />
<path d="M13.8597 34.9421
L13.7387 35.0631
" />
<path d="M13.7387 35.0631
L13.5573 35.1235
" />
<path d="M13.5573 35.1235
L13.2549 35.1235
" />
<path d="M14.8999 34.2478
L14.7064 34.2478
" />
<path d="M14.7064 34.2478
L14.6096 34.2962
" />
<path d="M14.6096 34.2962
L14.5612 34.3446
" />
<path d="M14.5612 34.3446
L14.4645 34.4897
" />
<path d="M14.4645 34.4897
L14.4161 34.6833
" />
<path d="M14.4161 34.6833
L14.4161 35.0703
" />
<path d="M14.4161 35.0703
L14.4645 35.1671
" />
<path d="M14.4645 35.1671
L14.5128 35.2155
" />
<path d="M14.5128 35.2155
L14.6096 35.2638
" />
<path d="M14.6096 35.2638
L14.8031 35.2638
" />
<path d="M14.8031 35.2638
L14.8999 35.2155
" />
<path d="M14.8999 35.2155
L14.9483 35.1671
" />
<path d="M14.9483 35.1671
L14.9966 35.0703
" />
<path d="M14.9966 35.0703
L14.9966 34.8284
" />
<path d="M14.9966 34.8284
L14.9483 34.7316
" />
<path d="M14.9483 34.7316
L14.8999 34.6833
" />
<path d="M14.8999 34.6833
L14.8031 34.6349
" />
<path d="M14.8031 34.6349
L14.6096 34.6349
" />
<path d="M14.6096 34.6349
L14.5128 34.6833
" />
<path d="M14.5128 34.6833
L14.4645 34.7316
" />
<path d="M14.4645 34.7316
L14.4161 34.8284
" />
</g></g>
<g style="fill:#A90000; fill-opacity:0.0; 
stroke:#A90000; stroke-width:0.1524; stroke-opacity:1; 
stroke-linecap:round; stroke-linejoin:round;">
<text x="11.0744" y="34.2900"
textLength="2.6222" font-size="1.6933" lengthAdjust="spacingAndGlyphs"
text-anchor="middle" opacity="0">13</text>
<g class="stroked-text"><desc>13</desc>
<path d="M10.8325 34.1265
L10.1068 34.1265
" />
<path d="M10.4696 34.1265
L10.4696 32.8565
" />
<path d="M10.4696 32.8565
L10.3487 33.0380
" />
<path d="M10.3487 33.0380
L10.2277 33.1589
" />
<path d="M10.2277 33.1589
L10.1068 33.2194
" />
<path d="M11.2558 32.8565
L12.0420 32.8565
" />
<path d="M12.0420 32.8565
L11.6186 33.3403
" />
<path d="M11.6186 33.3403
L11.8001 33.3403
" />
<path d="M11.8001 33.3403
L11.9210 33.4008
" />
<path d="M11.9210 33.4008
L11.9815 33.4613
" />
<path d="M11.9815 33.4613
L12.0420 33.5822
" />
<path d="M12.0420 33.5822
L12.0420 33.8846
" />
<path d="M12.0420 33.8846
L11.9815 34.0056
" />
<path d="M11.9815 34.0056
L11.9210 34.0661
" />
<path d="M11.9210 34.0661
L11.8001 34.1265
" />
<path d="M11.8001 34.1265
L11.4372 34.1265
" />
<path d="M11.4372 34.1265
L11.3163 34.0661
" />
<path d="M11.3163 34.0661
L11.2558 34.0056
" />
</g></g>
<g style="fill:#840000; fill-opacity:0.0; 
stroke:#840000; stroke-width:0.1524; stroke-opacity:1; 
stroke-linecap:round; stroke-linejoin:round;">
<path d="M12.3444 37.0840
L9.8044 37.0840
" />
</g>
<g style="fill:#006464; fill-opacity:0.0; 
stroke:#006464; stroke-width:0.1524; stroke-opacity:1; 
stroke-linecap:round; stroke-linejoin:round;">
<text x="12.8524" y="37.7190"
textLength="2.4916" font-size="1.6933" lengthAdjust="spacingAndGlyphs"
text-anchor="start" opacity="0">D_{7}</text>
<g class="stroked-text"><desc>D_{7}</desc>
<path d="M13.2549 37.6635
L13.2549 36.3935
" />
<path d="M13.2549 36.3935
L13.5573 36.3935
" />
<path d="M13.5573 36.3935
L13.7387 36.4540
" />
<path d="M13.7387 36.4540
L13.8597 36.5750
" />
<path d="M13.8597 36.5750
L13.9202 36.6959
" />
<path d="M13.9202 36.6959
L13.9806 36.9378
" />
<path d="M13.9806 36.9378
L13.9806 37.1192
" />
<path d="M13.9806 37.1192
L13.9202 37.3611
" />
<path d="M13.9202 37.3611
L13.8597 37.4821
" />
<path d="M13.8597 37.4821
L13.7387 37.6031
" />
<path d="M13.7387 37.6031
L13.5573 37.6635
" />
<path d="M13.5573 37.6635
L13.2549 37.6635
" />
<path d="M14.3677 36.7878
L15.0450 36.7878
" />
<path d="M15.0450 36.7878
L14.6096 37.8038
" />
</g></g>
<g style="fill:#A90000; fill-opacity:0.0; 
stroke:#A90000; stroke-width:0.1524; stroke-opacity:1; 
stroke-linecap:round; stroke-linejoin:round;">
<text x="11.0744" y="36.8300"
textLength="2.6222" font-size="1.6933" lengthAdjust="spacingAndGlyphs"
text-anchor="middle" opacity="0">14</text>
<g class="stroked-text"><desc>14</desc>
<path d="M10.8325 36.6665
L10.1068 36.6665
" />
<path d="M10.4696 36.6665
L10.4696 35.3965
" />
<path d="M10.4696 35.3965
L10.3487 35.5780
" />
<path d="M10.3487 35.5780
L10.2277 35.6989
" />
<path d="M10.2277 35.6989
L10.1068 35.7594
" />
<path d="M11.9210 35.8199
L11.9210 36.6665
" />
<path d="M11.6186 35.3361
L11.3163 36.2432
" />
<path d="M11.3163 36.2432
L12.1024 36.2432
" />
</g></g>
<g style="fill:#840000; fill-opacity:0.0; 
stroke:#840000; stroke-width:0.1524; stroke-opacity:1; 
stroke-linecap:round; stroke-linejoin:round;">
<path d="M17.4244 16.7640
L17.4244 14.2240
" />
</g>
<g style="fill:#006464; fill-opacity:0.0; 
stroke:#006464; stroke-width:0.1524; stroke-opacity:1; 
stroke-linecap:round; stroke-linejoin:round;">
<g transform="rotate(-90.000000 17.4244 17.2720)">
<text x="17.4244" y="17.9070"
textLength="3.5898" font-size="1.6933" lengthAdjust="spacingAndGlyphs"
text-anchor="end" opacity="0">Vdd</text>
</g>
<g class="stroked-text"><desc>Vdd</desc>
<path d="M16.7339 20.6378
L18.0039 20.2145
" />
<path d="M18.0039 20.2145
L16.7339 19.7911
" />
<path d="M18.0039 18.8235
L16.7339 18.8235
" />
<path d="M17.9435 18.8235
L18.0039 18.9444
" />
<path d="M18.0039 18.9444
L18.0039 19.1863
" />
<path d="M18.0039 19.1863
L17.9435 19.3073
" />
<path d="M17.9435 19.3073
L17.8830 19.3678
" />
<path d="M17.8830 19.3678
L17.7620 19.4282
" />
<path d="M17.7620 19.4282
L17.3992 19.4282
" />
<path d="M17.3992 19.4282
L17.2782 19.3678
" />
<path d="M17.2782 19.3678
L17.2177 19.3073
" />
<path d="M17.2177 19.3073
L17.1573 19.1863
" />
<path d="M17.1573 19.1863
L17.1573 18.9444
" />
<path d="M17.1573 18.9444
L17.2177 18.8235
" />
<path d="M18.0039 17.6745
L16.7339 17.6745
" />
<path d="M17.9435 17.6745
L18.0039 17.7954
" />
<path d="M18.0039 17.7954
L18.0039 18.0373
" />
<path d="M18.0039 18.0373
L17.9435 18.1583
" />
<path d="M17.9435 18.1583
L17.8830 18.2188
" />
<path d="M17.8830 18.2188
L17.7620 18.2792
" />
<path d="M17.7620 18.2792
L17.3992 18.2792
" />
<path d="M17.3992 18.2792
L17.2782 18.2188
" />
<path d="M17.2782 18.2188
L17.2177 18.1583
" />
<path d="M17.2177 18.1583
L17.1573 18.0373
" />
<path d="M17.1573 18.0373
L17.1573 17.7954
" />
<path d="M17.1573 17.7954
L17.2177 17.6745
" />
</g></g>
<g style="fill:#A90000; fill-opacity:0.0; 
stroke:#A90000; stroke-width:0.1524; stroke-opacity:1; 
stroke-linecap:round; stroke-linejoin:round;">
<g transform="rotate(-90.000000 17.1704 15.4940)">
<text x="17.1704" y="15.4940"
textLength="1.4127" font-size="1.6933" lengthAdjust="spacingAndGlyphs"
text-anchor="middle" opacity="0">2</text>
</g>
<g class="stroked-text"><desc>2</desc>
<path d="M15.8579 15.8567
L15.7974 15.7963
" />
<path d="M15.7974 15.7963
L15.7369 15.6753
" />
<path d="M15.7369 15.6753
L15.7369 15.3729
" />
<path d="M15.7369 15.3729
L15.7974 15.2520
" />
<path d="M15.7974 15.2520
L15.8579 15.1915
" />
<path d="M15.8579 15.1915
L15.9788 15.1310
" />
<path d="M15.9788 15.1310
L16.0998 15.1310
" />
<path d="M16.0998 15.1310
L16.2812 15.1915
" />
<path d="M16.2812 15.1915
L17.0069 15.9172
" />
<path d="M17.0069 15.9172
L17.0069 15.1310
" />
</g></g>
<g style="fill:#840000; fill-opacity:0.0; 
stroke:#840000; stroke-width:0.1524; stroke-opacity:1; 
stroke-linecap:round; stroke-linejoin:round;">
<path d="M22.5044 19.3040
L25.0444 19.3040
" />
</g>
<g style="fill:#006464; fill-opacity:0.0; 
stroke:#006464; stroke-width:0.1524; stroke-opacity:1; 
stroke-linecap:round; stroke-linejoin:round;">
<text x="21.9964" y="19.9390"
textLength="2.6827" font-size="1.6933" lengthAdjust="spacingAndGlyphs"
text-anchor="end" opacity="0">RS</text>
<g class="stroked-text"><desc>RS</desc>
<path d="M20.4447 19.8835
L20.0214 19.2788
" />
<path d="M19.7190 19.8835
L19.7190 18.6135
" />
<path d="M19.7190 18.6135
L20.2028 18.6135
" />
<path d="M20.2028 18.6135
L20.3238 18.6740
" />
<path d="M20.3238 18.6740
L20.3843 18.7345
" />
<path d="M20.3843 18.7345
L20.4447 18.8554
" />
<path d="M20.4447 18.8554
L20.4447 19.0369
" />
<path d="M20.4447 19.0369
L20.3843 19.1578
" />
<path d="M20.3843 19.1578
L20.3238 19.2183
" />
<path d="M20.3238 19.2183
L20.2028 19.2788
" />
<path d="M20.2028 19.2788
L19.7190 19.2788
" />
<path d="M20.9286 19.8231
L21.1100 19.8835
" />
<path d="M21.1100 19.8835
L21.4124 19.8835
" />
<path d="M21.4124 19.8835
L21.5333 19.8231
" />
<path d="M21.5333 19.8231
L21.5938 19.7626
" />
<path d="M21.5938 19.7626
L21.6543 19.6416
" />
<path d="M21.6543 19.6416
L21.6543 19.5207
" />
<path d="M21.6543 19.5207
L21.5938 19.3997
" />
<path d="M21.5938 19.3997
L21.5333 19.3392
" />
<path d="M21.5333 19.3392
L21.4124 19.2788
" />
<path d="M21.4124 19.2788
L21.1705 19.2183
" />
<path d="M21.1705 19.2183
L21.0495 19.1578
" />
<path d="M21.0495 19.1578
L20.9890 19.0973
" />
<path d="M20.9890 19.0973
L20.9286 18.9764
" />
<path d="M20.9286 18.9764
L20.9286 18.8554
" />
<path d="M20.9286 18.8554
L20.9890 18.7345
" />
<path d="M20.9890 18.7345
L21.0495 18.6740
" />
<path d="M21.0495 18.6740
L21.1705 18.6135
" />
<path d="M21.1705 18.6135
L21.4728 18.6135
" />
<path d="M21.4728 18.6135
L21.6543 18.6740
" />
</g></g>
<g style="fill:#A90000; fill-opacity:0.0; 
stroke:#A90000; stroke-width:0.1524; stroke-opacity:1; 
stroke-linecap:round; stroke-linejoin:round;">
<text x="23.7744" y="19.0500"
textLength="1.4127" font-size="1.6933" lengthAdjust="spacingAndGlyphs"
text-anchor="middle" opacity="0">4</text>
<g class="stroked-text"><desc>4</desc>
<path d="M24.0163 18.0399
L24.0163 18.8865
" />
<path d="M23.7139 17.5561
L23.4116 18.4632
" />
<path d="M23.4116 18.4632
L24.1977 18.4632
" />
</g></g>
<g style="fill:#840000; fill-opacity:0.0; 
stroke:#840000; stroke-width:0.1524; stroke-opacity:1; 
stroke-linecap:round; stroke-linejoin:round;">
<path d="M22.5044 21.8440
L25.0444 21.8440
" />
</g>
<g style="fill:#006464; fill-opacity:0.0; 
stroke:#006464; stroke-width:0.1524; stroke-opacity:1; 
stroke-linecap:round; stroke-linejoin:round;">
<text x="21.9964" y="22.4790"
textLength="2.9246" font-size="1.6933" lengthAdjust="spacingAndGlyphs"
text-anchor="end" opacity="0">R~{W}</text>
<g class="stroked-text"><desc>R~{W}</desc>
<path d="M20.2028 22.4235
L19.7795 21.8188
" />
<path d="M19.4771 22.4235
L19.4771 21.1535
" />
<path d="M19.4771 21.1535
L19.9609 21.1535
" />
<path d="M19.9609 21.1535
L20.0819 21.2140
" />
<path d="M20.0819 21.2140
L20.1424 21.2745
" />
<path d="M20.1424 21.2745
L20.2028 21.3954
" />
<path d="M20.2028 21.3954
L20.2028 21.5769
" />
<path d="M20.2028 21.5769
L20.1424 21.6978
" />
<path d="M20.1424 21.6978
L20.0819 21.7583
" />
<path d="M20.0819 21.7583
L19.9609 21.8188
" />
<path d="M19.9609 21.8188
L19.4771 21.8188
" />
<path d="M20.6262 21.1535
L20.9286 22.4235
" />
<path d="M20.9286 22.4235
L21.1705 21.5164
" />
<path d="M21.1705 21.5164
L21.4124 22.4235
" />
<path d="M21.4124 22.4235
L21.7148 21.1535
" />
<path d="M20.5718 20.8010
L21.7692 20.8010
" />
</g></g>
<g style="fill:#A90000; fill-opacity:0.0; 
stroke:#A90000; stroke-width:0.1524; stroke-opacity:1; 
stroke-linecap:round; stroke-linejoin:round;">
<text x="23.7744" y="21.5900"
textLength="1.4127" font-size="1.6933" lengthAdjust="spacingAndGlyphs"
text-anchor="middle" opacity="0">5</text>
<g class="stroked-text"><desc>5</desc>
<path d="M24.0768 20.1565
L23.4720 20.1565
" />
<path d="M23.4720 20.1565
L23.4116 20.7613
" />
<path d="M23.4116 20.7613
L23.4720 20.7008
" />
<path d="M23.4720 20.7008
L23.5930 20.6403
" />
<path d="M23.5930 20.6403
L23.8954 20.6403
" />
<path d="M23.8954 20.6403
L24.0163 20.7008
" />
<path d="M24.0163 20.7008
L24.0768 20.7613
" />
<path d="M24.0768 20.7613
L24.1373 20.8822
" />
<path d="M24.1373 20.8822
L24.1373 21.1846
" />
<path d="M24.1373 21.1846
L24.0768 21.3056
" />
<path d="M24.0768 21.3056
L24.0163 21.3661
" />
<path d="M24.0163 21.3661
L23.8954 21.4265
" />
<path d="M23.8954 21.4265
L23.5930 21.4265
" />
<path d="M23.5930 21.4265
L23.4720 21.3661
" />
<path d="M23.4720 21.3661
L23.4116 21.3056
" />
</g></g>
<g style="fill:#840000; fill-opacity:0.0; 
stroke:#840000; stroke-width:0.1524; stroke-opacity:1; 
stroke-linecap:round; stroke-linejoin:round;">
<path d="M22.5044 24.3840
L25.0444 24.3840
" />
</g>
<g style="fill:#006464; fill-opacity:0.0; 
stroke:#006464; stroke-width:0.1524; stroke-opacity:1; 
stroke-linecap:round; stroke-linejoin:round;">
<text x="21.9964" y="25.0190"
textLength="1.3522" font-size="1.6933" lengthAdjust="spacingAndGlyphs"
text-anchor="end" opacity="0">E</text>
<g class="stroked-text"><desc>E</desc>
<path d="M21.0495 24.2983
L21.4729 24.2983
" />
<path d="M21.6543 24.9635
L21.0495 24.9635
" />
<path d="M21.0495 24.9635
L21.0495 23.6935
" />
<path d="M21.0495 23.6935
L21.6543 23.6935
" />
</g></g>
<g style="fill:#A90000; fill-opacity:0.0; 
stroke:#A90000; stroke-width:0.1524; stroke-opacity:1; 
stroke-linecap:round; stroke-linejoin:round;">
<text x="23.7744" y="24.1300"
textLength="1.4127" font-size="1.6933" lengthAdjust="spacingAndGlyphs"
text-anchor="middle" opacity="0">6</text>
<g class="stroked-text"><desc>6</desc>
<path d="M24.0163 22.6965
L23.7744 22.6965
" />
<path d="M23.7744 22.6965
L23.6535 22.7570
" />
<path d="M23.6535 22.7570
L23.5930 22.8175
" />
<path d="M23.5930 22.8175
L23.4720 22.9989
" />
<path d="M23.4720 22.9989
L23.4116 23.2408
" />
<path d="M23.4116 23.2408
L23.4116 23.7246
" />
<path d="M23.4116 23.7246
L23.4720 23.8456
" />
<path d="M23.4720 23.8456
L23.5325 23.9061
" />
<path d="M23.5325 23.9061
L23.6535 23.9665
" />
<path d="M23.6535 23.9665
L23.8954 23.9665
" />
<path d="M23.8954 23.9665
L24.0163 23.9061
" />
<path d="M24.0163 23.9061
L24.0768 23.8456
" />
<path d="M24.0768 23.8456
L24.1373 23.7246
" />
<path d="M24.1373 23.7246
L24.1373 23.4222
" />
<path d="M24.1373 23.4222
L24.0768 23.3013
" />
<path d="M24.0768 23.3013
L24.0163 23.2408
" />
<path d="M24.0163 23.2408
L23.8954 23.1803
" />
<path d="M23.8954 23.1803
L23.6535 23.1803
" />
<path d="M23.6535 23.1803
L23.5325 23.2408
" />
<path d="M23.5325 23.2408
L23.4720 23.3013
" />
<path d="M23.4720 23.3013
L23.4116 23.4222
" />
</g></g>
<g style="fill:#840000; fill-opacity:0.0; 
stroke:#840000; stroke-width:0.1524; stroke-opacity:1; 
stroke-linecap:round; stroke-linejoin:round;">
<path d="M12.3444 19.3040
L9.8044 19.3040
" />
</g>
<g style="fill:#006464; fill-opacity:0.0; 
stroke:#006464; stroke-width:0.1524; stroke-opacity:1; 
stroke-linecap:round; stroke-linejoin:round;">
<text x="12.8524" y="19.9390"
textLength="2.4916" font-size="1.6933" lengthAdjust="spacingAndGlyphs"
text-anchor="start" opacity="0">D_{0}</text>
<g class="stroked-text"><desc>D_{0}</desc>
<path d="M13.2549 19.8835
L13.2549 18.6135
" />
<path d="M13.2549 18.6135
L13.5573 18.6135
" />
<path d="M13.5573 18.6135
L13.7387 18.6740
" />
<path d="M13.7387 18.6740
L13.8597 18.7950
" />
<path d="M13.8597 18.7950
L13.9202 18.9159
" />
<path d="M13.9202 18.9159
L13.9806 19.1578
" />
<path d="M13.9806 19.1578
L13.9806 19.3392
" />
<path d="M13.9806 19.3392
L13.9202 19.5811
" />
<path d="M13.9202 19.5811
L13.8597 19.7021
" />
<path d="M13.8597 19.7021
L13.7387 19.8231
" />
<path d="M13.7387 19.8231
L13.5573 19.8835
" />
<path d="M13.5573 19.8835
L13.2549 19.8835
" />
<path d="M14.6580 19.0078
L14.7547 19.0078
" />
<path d="M14.7547 19.0078
L14.8515 19.0562
" />
<path d="M14.8515 19.0562
L14.8999 19.1046
" />
<path d="M14.8999 19.1046
L14.9483 19.2014
" />
<path d="M14.9483 19.2014
L14.9966 19.3949
" />
<path d="M14.9966 19.3949
L14.9966 19.6368
" />
<path d="M14.9966 19.6368
L14.9483 19.8303
" />
<path d="M14.9483 19.8303
L14.8999 19.9271
" />
<path d="M14.8999 19.9271
L14.8515 19.9755
" />
<path d="M14.8515 19.9755
L14.7547 20.0238
" />
<path d="M14.7547 20.0238
L14.6580 20.0238
" />
<path d="M14.6580 20.0238
L14.5612 19.9755
" />
<path d="M14.5612 19.9755
L14.5128 19.9271
" />
<path d="M14.5128 19.9271
L14.4645 19.8303
" />
<path d="M14.4645 19.8303
L14.4161 19.6368
" />
<path d="M14.4161 19.6368
L14.4161 19.3949
" />
<path d="M14.4161 19.3949
L14.4645 19.2014
" />
<path d="M14.4645 19.2014
L14.5128 19.1046
" />
<path d="M14.5128 19.1046
L14.5612 19.0562
" />
<path d="M14.5612 19.0562
L14.6580 19.0078
" />
</g></g>
<g style="fill:#A90000; fill-opacity:0.0; 
stroke:#A90000; stroke-width:0.1524; stroke-opacity:1; 
stroke-linecap:round; stroke-linejoin:round;">
<text x="11.0744" y="19.0500"
textLength="1.4127" font-size="1.6933" lengthAdjust="spacingAndGlyphs"
text-anchor="middle" opacity="0">7</text>
<g class="stroked-text"><desc>7</desc>
<path d="M10.6511 17.6165
L11.4977 17.6165
" />
<path d="M11.4977 17.6165
L10.9535 18.8865
" />
</g></g>
<g style="fill:#840000; fill-opacity:0.0; 
stroke:#840000; stroke-width:0.1524; stroke-opacity:1; 
stroke-linecap:round; stroke-linejoin:round;">
<path d="M12.3444 21.8440
L9.8044 21.8440
" />
</g>
<g style="fill:#006464; fill-opacity:0.0; 
stroke:#006464; stroke-width:0.1524; stroke-opacity:1; 
stroke-linecap:round; stroke-linejoin:round;">
<text x="12.8524" y="22.4790"
textLength="2.4916" font-size="1.6933" lengthAdjust="spacingAndGlyphs"
text-anchor="start" opacity="0">D_{1}</text>
<g class="stroked-text"><desc>D_{1}</desc>
<path d="M13.2549 22.4235
L13.2549 21.1535
" />
<path d="M13.2549 21.1535
L13.5573 21.1535
" />
<path d="M13.5573 21.1535
L13.7387 21.2140
" />
<path d="M13.7387 21.2140
L13.8597 21.3350
" />
<path d="M13.8597 21.3350
L13.9202 21.4559
" />
<path d="M13.9202 21.4559
L13.9806 21.6978
" />
<path d="M13.9806 21.6978
L13.9806 21.8792
" />
<path d="M13.9806 21.8792
L13.9202 22.1211
" />
<path d="M13.9202 22.1211
L13.8597 22.2421
" />
<path d="M13.8597 22.2421
L13.7387 22.3631
" />
<path d="M13.7387 22.3631
L13.5573 22.4235
" />
<path d="M13.5573 22.4235
L13.2549 22.4235
" />
<path d="M14.9966 22.5638
L14.4161 22.5638
" />
<path d="M14.7064 22.5638
L14.7064 21.5478
" />
<path d="M14.7064 21.5478
L14.6096 21.6930
" />
<path d="M14.6096 21.6930
L14.5128 21.7897
" />
<path d="M14.5128 21.7897
L14.4161 21.8381
" />
</g></g>
<g style="fill:#A90000; fill-opacity:0.0; 
stroke:#A90000; stroke-width:0.1524; stroke-opacity:1; 
stroke-linecap:round; stroke-linejoin:round;">
<text x="11.0744" y="21.5900"
textLength="1.4127" font-size="1.6933" lengthAdjust="spacingAndGlyphs"
text-anchor="middle" opacity="0">8</text>
<g class="stroked-text"><desc>8</desc>
<path d="M10.9535 20.7008
L10.8325 20.6403
" />
<path d="M10.8325 20.6403
L10.7720 20.5799
" />
<path d="M10.7720 20.5799
L10.7116 20.4589
" />
<path d="M10.7116 20.4589
L10.7116 20.3984
" />
<path d="M10.7116 20.3984
L10.7720 20.2775
" />
<path d="M10.7720 20.2775
L10.8325 20.2170
" />
<path d="M10.8325 20.2170
L10.9535 20.1565
" />
<path d="M10.9535 20.1565
L11.1954 20.1565
" />
<path d="M11.1954 20.1565
L11.3163 20.2170
" />
<path d="M11.3163 20.2170
L11.3768 20.2775
" />
<path d="M11.3768 20.2775
L11.4373 20.3984
" />
<path d="M11.4373 20.3984
L11.4373 20.4589
" />
<path d="M11.4373 20.4589
L11.3768 20.5799
" />
<path d="M11.3768 20.5799
L11.3163 20.6403
" />
<path d="M11.3163 20.6403
L11.1954 20.7008
" />
<path d="M11.1954 20.7008
L10.9535 20.7008
" />
<path d="M10.9535 20.7008
L10.8325 20.7613
" />
<path d="M10.8325 20.7613
L10.7720 20.8218
" />
<path d="M10.7720 20.8218
L10.7116 20.9427
" />
<path d="M10.7116 20.9427
L10.7116 21.1846
" />
<path d="M10.7116 21.1846
L10.7720 21.3056
" />
<path d="M10.7720 21.3056
L10.8325 21.3661
" />
<path d="M10.8325 21.3661
L10.9535 21.4265
" />
<path d="M10.9535 21.4265
L11.1954 21.4265
" />
<path d="M11.1954 21.4265
L11.3163 21.3661
" />
<path d="M11.3163 21.3661
L11.3768 21.3056
" />
<path d="M11.3768 21.3056
L11.4373 21.1846
" />
<path d="M11.4373 21.1846
L11.4373 20.9427
" />
<path d="M11.4373 20.9427
L11.3768 20.8218
" />
<path d="M11.3768 20.8218
L11.3163 20.7613
" />
<path d="M11.3163 20.7613
L11.1954 20.7008
" />
</g></g>
<g style="fill:#840000; fill-opacity:0.0; 
stroke:#840000; stroke-width:0.1524; stroke-opacity:1; 
stroke-linecap:round; stroke-linejoin:round;">
<path d="M12.3444 24.3840
L9.8044 24.3840
" />
</g>
<g style="fill:#006464; fill-opacity:0.0; 
stroke:#006464; stroke-width:0.1524; stroke-opacity:1; 
stroke-linecap:round; stroke-linejoin:round;">
<text x="12.8524" y="25.0190"
textLength="2.4916" font-size="1.6933" lengthAdjust="spacingAndGlyphs"
text-anchor="start" opacity="0">D_{2}</text>
<g class="stroked-text"><desc>D_{2}</desc>
<path d="M13.2549 24.9635
L13.2549 23.6935
" />
<path d="M13.2549 23.6935
L13.5573 23.6935
" />
<path d="M13.5573 23.6935
L13.7387 23.7540
" />
<path d="M13.7387 23.7540
L13.8597 23.8750
" />
<path d="M13.8597 23.8750
L13.9202 23.9959
" />
<path d="M13.9202 23.9959
L13.9806 24.2378
" />
<path d="M13.9806 24.2378
L13.9806 24.4192
" />
<path d="M13.9806 24.4192
L13.9202 24.6611
" />
<path d="M13.9202 24.6611
L13.8597 24.7821
" />
<path d="M13.8597 24.7821
L13.7387 24.9031
" />
<path d="M13.7387 24.9031
L13.5573 24.9635
" />
<path d="M13.5573 24.9635
L13.2549 24.9635
" />
<path d="M14.4161 24.1846
L14.4645 24.1362
" />
<path d="M14.4645 24.1362
L14.5612 24.0878
" />
<path d="M14.5612 24.0878
L14.8031 24.0878
" />
<path d="M14.8031 24.0878
L14.8999 24.1362
" />
<path d="M14.8999 24.1362
L14.9483 24.1846
" />
<path d="M14.9483 24.1846
L14.9966 24.2814
" />
<path d="M14.9966 24.2814
L14.9966 24.3781
" />
<path d="M14.9966 24.3781
L14.9483 24.5233
" />
<path d="M14.9483 24.5233
L14.3677 25.1038
" />
<path d="M14.3677 25.1038
L14.9966 25.1038
" />
</g></g>
<g style="fill:#A90000; fill-opacity:0.0; 
stroke:#A90000; stroke-width:0.1524; stroke-opacity:1; 
stroke-linecap:round; stroke-linejoin:round;">
<text x="11.0744" y="24.1300"
textLength="1.4127" font-size="1.6933" lengthAdjust="spacingAndGlyphs"
text-anchor="middle" opacity="0">9</text>
<g class="stroked-text"><desc>9</desc>
<path d="M10.8325 23.9665
L11.0744 23.9665
" />
<path d="M11.0744 23.9665
L11.1954 23.9061
" />
<path d="M11.1954 23.9061
L11.2558 23.8456
" />
<path d="M11.2558 23.8456
L11.3768 23.6641
" />
<path d="M11.3768 23.6641
L11.4373 23.4222
" />
<path d="M11.4373 23.4222
L11.4373 22.9384
" />
<path d="M11.4373 22.9384
L11.3768 22.8175
" />
<path d="M11.3768 22.8175
L11.3163 22.7570
" />
<path d="M11.3163 22.7570
L11.1954 22.6965
" />
<path d="M11.1954 22.6965
L10.9535 22.6965
" />
<path d="M10.9535 22.6965
L10.8325 22.7570
" />
<path d="M10.8325 22.7570
L10.7720 22.8175
" />
<path d="M10.7720 22.8175
L10.7116 22.9384
" />
<path d="M10.7116 22.9384
L10.7116 23.2408
" />
<path d="M10.7116 23.2408
L10.7720 23.3618
" />
<path d="M10.7720 23.3618
L10.8325 23.4222
" />
<path d="M10.8325 23.4222
L10.9535 23.4827
" />
<path d="M10.9535 23.4827
L11.1954 23.4827
" />
<path d="M11.1954 23.4827
L11.3163 23.4222
" />
<path d="M11.3163 23.4222
L11.3768 23.3618
" />
<path d="M11.3768 23.3618
L11.4373 23.2408
" />
</g></g>
<g style="fill:#840084; fill-opacity:0.0; 
stroke:#840084; stroke-width:0.1524; stroke-opacity:1; 
stroke-linecap:round; stroke-linejoin:round;">
</g>
<g style="fill:#006464; fill-opacity:0.0; 
stroke:#006464; stroke-width:0.1524; stroke-opacity:1; 
stroke-linecap:round; stroke-linejoin:round;">
</g>
<g style="fill:#006464; fill-opacity:0.0; 
stroke:#006464; stroke-width:0.1588; stroke-opacity:1; 
stroke-linecap:round; stroke-linejoin:round;">
<text x="12.3444" y="16.1290"
textLength="4.8791" font-size="1.6933" lengthAdjust="spacingAndGlyphs"
text-anchor="middle" opacity="0">LCD?</text>
<g class="stroked-text"><desc>LCD?</desc>
<path d="M10.9232 16.0732
L10.3184 16.0732
" />
<path d="M10.3184 16.0732
L10.3184 14.8032
" />
<path d="M12.0722 15.9523
L12.0118 16.0128
" />
<path d="M12.0118 16.0128
L11.8303 16.0732
" />
<path d="M11.8303 16.0732
L11.7094 16.0732
" />
<path d="M11.7094 16.0732
L11.5280 16.0128
" />
<path d="M11.5280 16.0128
L11.4070 15.8918
" />
<path d="M11.4070 15.8918
L11.3465 15.7708
" />
<path d="M11.3465 15.7708
L11.2861 15.5289
" />
<path d="M11.2861 15.5289
L11.2861 15.3475
" />
<path d="M11.2861 15.3475
L11.3465 15.1056
" />
<path d="M11.3465 15.1056
L11.4070 14.9847
" />
<path d="M11.4070 14.9847
L11.5280 14.8637
" />
<path d="M11.5280 14.8637
L11.7094 14.8032
" />
<path d="M11.7094 14.8032
L11.8303 14.8032
" />
<path d="M11.8303 14.8032
L12.0118 14.8637
" />
<path d="M12.0118 14.8637
L12.0722 14.9242
" />
<path d="M12.6165 16.0732
L12.6165 14.8032
" />
<path d="M12.6165 14.8032
L12.9189 14.8032
" />
<path d="M12.9189 14.8032
L13.1003 14.8637
" />
<path d="M13.1003 14.8637
L13.2213 14.9847
" />
<path d="M13.2213 14.9847
L13.2818 15.1056
" />
<path d="M13.2818 15.1056
L13.3422 15.3475
" />
<path d="M13.3422 15.3475
L13.3422 15.5289
" />
<path d="M13.3422 15.5289
L13.2818 15.7708
" />
<path d="M13.2818 15.7708
L13.2213 15.8918
" />
<path d="M13.2213 15.8918
L13.1003 16.0128
" />
<path d="M13.1003 16.0128
L12.9189 16.0732
" />
<path d="M12.9189 16.0732
L12.6165 16.0732
" />
<path d="M14.0680 15.9523
L14.1284 16.0128
" />
<path d="M14.1284 16.0128
L14.0680 16.0732
" />
<path d="M14.0680 16.0732
L14.0075 16.0128
" />
<path d="M14.0075 16.0128
L14.0680 15.9523
" />
<path d="M14.0680 15.9523
L14.0680 16.0732
" />
<path d="M13.8261 14.8637
L13.9470 14.8032
" />
<path d="M13.9470 14.8032
L14.2494 14.8032
" />
<path d="M14.2494 14.8032
L14.3703 14.8637
" />
<path d="M14.3703 14.8637
L14.4308 14.9847
" />
<path d="M14.4308 14.9847
L14.4308 15.1056
" />
<path d="M14.4308 15.1056
L14.3703 15.2266
" />
<path d="M14.3703 15.2266
L14.3099 15.2870
" />
<path d="M14.3099 15.2870
L14.1889 15.3475
" />
<path d="M14.1889 15.3475
L14.1284 15.4080
" />
<path d="M14.1284 15.4080
L14.0680 15.5289
" />
<path d="M14.0680 15.5289
L14.0680 15.5894
" />
</g></g> 
</svg>
