<?xml version="1.0" standalone="no"?>
 <!DOCTYPE svg PUBLIC "-//W3C//DTD SVG 1.1//EN" 
 "http://www.w3.org/Graphics/SVG/1.1/DTD/svg11.dtd"> 
<svg
  xmlns:svg="http://www.w3.org/2000/svg"
  xmlns="http://www.w3.org/2000/svg"
  xmlns:xlink="http://www.w3.org/1999/xlink"
  version="1.1"
  width="44.0944mm" height="19.2278mm" viewBox="0.0000 0.0000 44.0944 19.2278">
<title>SVG Image created as 74hc14_small_3.svg date 2023/09/25 15:20:42 </title>
  <desc>Image generated by Eeschema-SVG </desc>
<g style="fill:#000000; fill-opacity:1.0000;stroke:#000000; stroke-opacity:1.0000;
stroke-linecap:round; stroke-linejoin:round;"
 transform="translate(0 0) scale(1 1)">
</g>
<g style="fill:#840000; fill-opacity:0.0; 
stroke:#840000; stroke-width:0.0000; stroke-opacity:1; 
stroke-linecap:round; stroke-linejoin:round;">
</g>
<g style="fill:#FFFFC2; fill-opacity:0.0; 
stroke:#FFFFC2; stroke-width:0.0000; stroke-opacity:1; 
stroke-linecap:round; stroke-linejoin:round;">
</g>
<g style="fill:#FFFFC2; fill-opacity:1.0000; 
stroke:#FFFFC2; stroke-width:0.0000; stroke-opacity:1; 
stroke-linecap:round; stroke-linejoin:round;">
<path style="fill:#FFFFC2; fill-opacity:1.0000; 
stroke:#FFFFC2; stroke-width:0.0000; stroke-opacity:1; 
stroke-linecap:round; stroke-linejoin:round;fill-rule:evenodd;"
d="M 20.7772,7.0739
20.7772,12.1539
24.5872,9.6139
Z" /> 
</g>
<g style="fill:#840084; fill-opacity:1.0000; 
stroke:#840084; stroke-width:0.0000; stroke-opacity:1; 
stroke-linecap:round; stroke-linejoin:round;">
</g>
<g style="fill:#840000; fill-opacity:1.0000; 
stroke:#840000; stroke-width:0.0000; stroke-opacity:1; 
stroke-linecap:round; stroke-linejoin:round;">
</g>
<g style="fill:#840000; fill-opacity:0.0; 
stroke:#840000; stroke-width:0.2540; stroke-opacity:1; 
stroke-linecap:round; stroke-linejoin:round;">
<path style="fill:#840000; fill-opacity:0.0; 
stroke:#840000; stroke-width:0.2540; stroke-opacity:1; 
stroke-linecap:round; stroke-linejoin:round;fill:none"
d="M 20.7772,7.0739
20.7772,12.1539
24.5872,9.6139
Z" /> 
</g>
<g style="fill:#840000; fill-opacity:0.0; 
stroke:#840000; stroke-width:0.1524; stroke-opacity:1; 
stroke-linecap:round; stroke-linejoin:round;">
<path style="fill:#840000; fill-opacity:0.0; 
stroke:#840000; stroke-width:0.1524; stroke-opacity:1; 
stroke-linecap:round; stroke-linejoin:round;fill:none"
d="M 21.3004,9.9417
22.1327,9.9398
22.3518,9.2986
" /> 
<path style="fill:#840000; fill-opacity:0.0; 
stroke:#840000; stroke-width:0.1524; stroke-opacity:1; 
stroke-linecap:round; stroke-linejoin:round;fill:none"
d="M 21.6048,9.8447
21.8435,9.2145
22.6664,9.2092
" /> 
<path d="M20.7772 9.6139
L19.5072 9.6139
" />
</g>
<g style="fill:#A90000; fill-opacity:0.0; 
stroke:#A90000; stroke-width:0.1524; stroke-opacity:1; 
stroke-linecap:round; stroke-linejoin:round;">
<text x="20.1422" y="9.3599"
textLength="1.4127" font-size="1.6933" lengthAdjust="spacingAndGlyphs"
text-anchor="middle" opacity="0">5</text>
<g class="stroked-text"><desc>5</desc>
<path d="M20.4446 7.9264
L19.8398 7.9264
" />
<path d="M19.8398 7.9264
L19.7794 8.5312
" />
<path d="M19.7794 8.5312
L19.8398 8.4707
" />
<path d="M19.8398 8.4707
L19.9608 8.4102
" />
<path d="M19.9608 8.4102
L20.2632 8.4102
" />
<path d="M20.2632 8.4102
L20.3841 8.4707
" />
<path d="M20.3841 8.4707
L20.4446 8.5312
" />
<path d="M20.4446 8.5312
L20.5051 8.6521
" />
<path d="M20.5051 8.6521
L20.5051 8.9545
" />
<path d="M20.5051 8.9545
L20.4446 9.0755
" />
<path d="M20.4446 9.0755
L20.3841 9.1360
" />
<path d="M20.3841 9.1360
L20.2632 9.1964
" />
<path d="M20.2632 9.1964
L19.9608 9.1964
" />
<path d="M19.9608 9.1964
L19.8398 9.1360
" />
<path d="M19.8398 9.1360
L19.7794 9.0755
" />
</g></g>
<g style="fill:#840000; fill-opacity:0.0; 
stroke:#840000; stroke-width:0.1524; stroke-opacity:1; 
stroke-linecap:round; stroke-linejoin:round;">
<circle cx="25.2222" cy="9.6139" r="0.6350" /> 
<path d="M25.8572 9.6139
L25.8572 9.6139
" />
</g>
<g style="fill:#A90000; fill-opacity:0.0; 
stroke:#A90000; stroke-width:0.1524; stroke-opacity:1; 
stroke-linecap:round; stroke-linejoin:round;">
<text x="25.2222" y="9.3599"
textLength="1.4127" font-size="1.6933" lengthAdjust="spacingAndGlyphs"
text-anchor="middle" opacity="0">6</text>
<g class="stroked-text"><desc>6</desc>
<path d="M25.4641 7.9264
L25.2222 7.9264
" />
<path d="M25.2222 7.9264
L25.1013 7.9869
" />
<path d="M25.1013 7.9869
L25.0408 8.0474
" />
<path d="M25.0408 8.0474
L24.9198 8.2288
" />
<path d="M24.9198 8.2288
L24.8594 8.4707
" />
<path d="M24.8594 8.4707
L24.8594 8.9545
" />
<path d="M24.8594 8.9545
L24.9198 9.0755
" />
<path d="M24.9198 9.0755
L24.9803 9.1360
" />
<path d="M24.9803 9.1360
L25.1013 9.1964
" />
<path d="M25.1013 9.1964
L25.3432 9.1964
" />
<path d="M25.3432 9.1964
L25.4641 9.1360
" />
<path d="M25.4641 9.1360
L25.5246 9.0755
" />
<path d="M25.5246 9.0755
L25.5851 8.9545
" />
<path d="M25.5851 8.9545
L25.5851 8.6521
" />
<path d="M25.5851 8.6521
L25.5246 8.5312
" />
<path d="M25.5246 8.5312
L25.4641 8.4707
" />
<path d="M25.4641 8.4707
L25.3432 8.4102
" />
<path d="M25.3432 8.4102
L25.1013 8.4102
" />
<path d="M25.1013 8.4102
L24.9803 8.4707
" />
<path d="M24.9803 8.4707
L24.9198 8.5312
" />
<path d="M24.9198 8.5312
L24.8594 8.6521
" />
</g></g>
<g style="fill:#840084; fill-opacity:0.0; 
stroke:#840084; stroke-width:0.1524; stroke-opacity:1; 
stroke-linecap:round; stroke-linejoin:round;">
</g>
<g style="fill:#006464; fill-opacity:0.0; 
stroke:#006464; stroke-width:0.1524; stroke-opacity:1; 
stroke-linecap:round; stroke-linejoin:round;">
</g>
<g style="fill:#006464; fill-opacity:0.0; 
stroke:#006464; stroke-width:0.1588; stroke-opacity:1; 
stroke-linecap:round; stroke-linejoin:round;">
<text x="22.0472" y="15.3289"
textLength="3.9115" font-size="1.6933" lengthAdjust="spacingAndGlyphs"
text-anchor="middle" opacity="0">U?C</text>
<g class="stroked-text"><desc>U?C</desc>
<path d="M20.5050 14.0031
L20.5050 15.0312
" />
<path d="M20.5050 15.0312
L20.5655 15.1522
" />
<path d="M20.5655 15.1522
L20.6260 15.2127
" />
<path d="M20.6260 15.2127
L20.7469 15.2731
" />
<path d="M20.7469 15.2731
L20.9888 15.2731
" />
<path d="M20.9888 15.2731
L21.1098 15.2127
" />
<path d="M21.1098 15.2127
L21.1703 15.1522
" />
<path d="M21.1703 15.1522
L21.2307 15.0312
" />
<path d="M21.2307 15.0312
L21.2307 14.0031
" />
<path d="M22.0170 15.1522
L22.0774 15.2127
" />
<path d="M22.0774 15.2127
L22.0170 15.2731
" />
<path d="M22.0170 15.2731
L21.9565 15.2127
" />
<path d="M21.9565 15.2127
L22.0170 15.1522
" />
<path d="M22.0170 15.1522
L22.0170 15.2731
" />
<path d="M21.7751 14.0636
L21.8960 14.0031
" />
<path d="M21.8960 14.0031
L22.1984 14.0031
" />
<path d="M22.1984 14.0031
L22.3193 14.0636
" />
<path d="M22.3193 14.0636
L22.3798 14.1846
" />
<path d="M22.3798 14.1846
L22.3798 14.3055
" />
<path d="M22.3798 14.3055
L22.3193 14.4265
" />
<path d="M22.3193 14.4265
L22.2589 14.4869
" />
<path d="M22.2589 14.4869
L22.1379 14.5474
" />
<path d="M22.1379 14.5474
L22.0774 14.6079
" />
<path d="M22.0774 14.6079
L22.0170 14.7288
" />
<path d="M22.0170 14.7288
L22.0170 14.7893
" />
<path d="M23.6498 15.1522
L23.5894 15.2127
" />
<path d="M23.5894 15.2127
L23.4079 15.2731
" />
<path d="M23.4079 15.2731
L23.2870 15.2731
" />
<path d="M23.2870 15.2731
L23.1056 15.2127
" />
<path d="M23.1056 15.2127
L22.9846 15.0917
" />
<path d="M22.9846 15.0917
L22.9241 14.9707
" />
<path d="M22.9241 14.9707
L22.8637 14.7288
" />
<path d="M22.8637 14.7288
L22.8637 14.5474
" />
<path d="M22.8637 14.5474
L22.9241 14.3055
" />
<path d="M22.9241 14.3055
L22.9846 14.1846
" />
<path d="M22.9846 14.1846
L23.1056 14.0636
" />
<path d="M23.1056 14.0636
L23.2870 14.0031
" />
<path d="M23.2870 14.0031
L23.4079 14.0031
" />
<path d="M23.4079 14.0031
L23.5894 14.0636
" />
<path d="M23.5894 14.0636
L23.6498 14.1241
" />
</g><text x="22.0472" y="17.8689"
textLength="13.8293" font-size="1.6933" lengthAdjust="spacingAndGlyphs"
text-anchor="middle" opacity="0">74HC14_small</text>
<g class="stroked-text"><desc>74HC14_small</desc>
<path d="M15.4252 16.5431
L16.2718 16.5431
" />
<path d="M16.2718 16.5431
L15.7276 17.8131
" />
<path d="M17.2999 16.9665
L17.2999 17.8131
" />
<path d="M16.9975 16.4827
L16.6952 17.3898
" />
<path d="M16.6952 17.3898
L17.4813 17.3898
" />
<path d="M17.9651 17.8131
L17.9651 16.5431
" />
<path d="M17.9651 17.1479
L18.6908 17.1479
" />
<path d="M18.6908 17.8131
L18.6908 16.5431
" />
<path d="M20.0213 17.6922
L19.9609 17.7527
" />
<path d="M19.9609 17.7527
L19.7794 17.8131
" />
<path d="M19.7794 17.8131
L19.6585 17.8131
" />
<path d="M19.6585 17.8131
L19.4771 17.7527
" />
<path d="M19.4771 17.7527
L19.3561 17.6317
" />
<path d="M19.3561 17.6317
L19.2956 17.5107
" />
<path d="M19.2956 17.5107
L19.2352 17.2688
" />
<path d="M19.2352 17.2688
L19.2352 17.0874
" />
<path d="M19.2352 17.0874
L19.2956 16.8455
" />
<path d="M19.2956 16.8455
L19.3561 16.7246
" />
<path d="M19.3561 16.7246
L19.4771 16.6036
" />
<path d="M19.4771 16.6036
L19.6585 16.5431
" />
<path d="M19.6585 16.5431
L19.7794 16.5431
" />
<path d="M19.7794 16.5431
L19.9609 16.6036
" />
<path d="M19.9609 16.6036
L20.0213 16.6641
" />
<path d="M21.2309 17.8131
L20.5052 17.8131
" />
<path d="M20.8680 17.8131
L20.8680 16.5431
" />
<path d="M20.8680 16.5431
L20.7471 16.7246
" />
<path d="M20.7471 16.7246
L20.6261 16.8455
" />
<path d="M20.6261 16.8455
L20.5052 16.9060
" />
<path d="M22.3194 16.9665
L22.3194 17.8131
" />
<path d="M22.0170 16.4827
L21.7147 17.3898
" />
<path d="M21.7147 17.3898
L22.5008 17.3898
" />
<path d="M22.6823 17.9341
L23.6499 17.9341
" />
<path d="M23.8918 17.7527
L24.0127 17.8131
" />
<path d="M24.0127 17.8131
L24.2546 17.8131
" />
<path d="M24.2546 17.8131
L24.3756 17.7527
" />
<path d="M24.3756 17.7527
L24.4360 17.6317
" />
<path d="M24.4360 17.6317
L24.4360 17.5712
" />
<path d="M24.4360 17.5712
L24.3756 17.4503
" />
<path d="M24.3756 17.4503
L24.2546 17.3898
" />
<path d="M24.2546 17.3898
L24.0732 17.3898
" />
<path d="M24.0732 17.3898
L23.9522 17.3293
" />
<path d="M23.9522 17.3293
L23.8918 17.2084
" />
<path d="M23.8918 17.2084
L23.8918 17.1479
" />
<path d="M23.8918 17.1479
L23.9522 17.0269
" />
<path d="M23.9522 17.0269
L24.0732 16.9665
" />
<path d="M24.0732 16.9665
L24.2546 16.9665
" />
<path d="M24.2546 16.9665
L24.3756 17.0269
" />
<path d="M24.9803 17.8131
L24.9803 16.9665
" />
<path d="M24.9803 17.0874
L25.0408 17.0269
" />
<path d="M25.0408 17.0269
L25.1618 16.9665
" />
<path d="M25.1618 16.9665
L25.3432 16.9665
" />
<path d="M25.3432 16.9665
L25.4641 17.0269
" />
<path d="M25.4641 17.0269
L25.5246 17.1479
" />
<path d="M25.5246 17.1479
L25.5246 17.8131
" />
<path d="M25.5246 17.1479
L25.5851 17.0269
" />
<path d="M25.5851 17.0269
L25.7060 16.9665
" />
<path d="M25.7060 16.9665
L25.8875 16.9665
" />
<path d="M25.8875 16.9665
L26.0084 17.0269
" />
<path d="M26.0084 17.0269
L26.0689 17.1479
" />
<path d="M26.0689 17.1479
L26.0689 17.8131
" />
<path d="M27.2179 17.8131
L27.2179 17.1479
" />
<path d="M27.2179 17.1479
L27.1574 17.0269
" />
<path d="M27.1574 17.0269
L27.0365 16.9665
" />
<path d="M27.0365 16.9665
L26.7946 16.9665
" />
<path d="M26.7946 16.9665
L26.6736 17.0269
" />
<path d="M27.2179 17.7527
L27.0970 17.8131
" />
<path d="M27.0970 17.8131
L26.7946 17.8131
" />
<path d="M26.7946 17.8131
L26.6736 17.7527
" />
<path d="M26.6736 17.7527
L26.6132 17.6317
" />
<path d="M26.6132 17.6317
L26.6132 17.5107
" />
<path d="M26.6132 17.5107
L26.6736 17.3898
" />
<path d="M26.6736 17.3898
L26.7946 17.3293
" />
<path d="M26.7946 17.3293
L27.0970 17.3293
" />
<path d="M27.0970 17.3293
L27.2179 17.2688
" />
<path d="M28.0041 17.8131
L27.8831 17.7527
" />
<path d="M27.8831 17.7527
L27.8226 17.6317
" />
<path d="M27.8226 17.6317
L27.8226 16.5431
" />
<path d="M28.6693 17.8131
L28.5483 17.7527
" />
<path d="M28.5483 17.7527
L28.4878 17.6317
" />
<path d="M28.4878 17.6317
L28.4878 16.5431
" />
</g></g> 
</svg>
