<?xml version="1.0" standalone="no"?>
 <!DOCTYPE svg PUBLIC "-//W3C//DTD SVG 1.1//EN" 
 "http://www.w3.org/Graphics/SVG/1.1/DTD/svg11.dtd"> 
<svg
  xmlns:svg="http://www.w3.org/2000/svg"
  xmlns="http://www.w3.org/2000/svg"
  xmlns:xlink="http://www.w3.org/1999/xlink"
  version="1.1"
  width="43.6626mm" height="17.7038mm" viewBox="0.0000 0.0000 43.6626 17.7038">
<title>SVG Image created as 74hc00_3.svg date 2023/09/21 19:34:14 </title>
  <desc>Image generated by Eeschema-SVG </desc>
<g style="fill:#000000; fill-opacity:1.0000;stroke:#000000; stroke-opacity:1.0000;
stroke-linecap:round; stroke-linejoin:round;"
 transform="translate(0 0) scale(1 1)">
</g>
<g style="fill:#840000; fill-opacity:0.0; 
stroke:#840000; stroke-width:0.0000; stroke-opacity:1; 
stroke-linecap:round; stroke-linejoin:round;">
</g>
<g style="fill:#FFFFC2; fill-opacity:0.0; 
stroke:#FFFFC2; stroke-width:0.0000; stroke-opacity:1; 
stroke-linecap:round; stroke-linejoin:round;">
</g>
<g style="fill:#FFFFC2; fill-opacity:1.0000; 
stroke:#FFFFC2; stroke-width:0.0000; stroke-opacity:1; 
stroke-linecap:round; stroke-linejoin:round;">
<path d="M19.2913 11.3918 A2.5470 2.5470 0.0 0 0 19.2913 6.3120 L 19.1013 8.8519 Z" />
</g>
<g style="fill:#FFFFC2; fill-opacity:0.0; 
stroke:#FFFFC2; stroke-width:0.0000; stroke-opacity:1; 
stroke-linecap:round; stroke-linejoin:round;">
<path d="M19.2913 11.3918 A2.5470 2.5470 0.0 0 0 19.2913 6.3120" />
</g>
<g style="fill:#FFFFC2; fill-opacity:1.0000; 
stroke:#FFFFC2; stroke-width:0.0000; stroke-opacity:1; 
stroke-linecap:round; stroke-linejoin:round;">
<path style="fill:#FFFFC2; fill-opacity:1.0000; 
stroke:#FFFFC2; stroke-width:0.0000; stroke-opacity:1; 
stroke-linecap:round; stroke-linejoin:round;fill-rule:evenodd;"
d="M 19.2913,6.3119
18.0213,6.3119
18.0213,11.3919
19.2913,11.3919
" /> 
</g>
<g style="fill:#840084; fill-opacity:1.0000; 
stroke:#840084; stroke-width:0.0000; stroke-opacity:1; 
stroke-linecap:round; stroke-linejoin:round;">
</g>
<g style="fill:#840000; fill-opacity:1.0000; 
stroke:#840000; stroke-width:0.0000; stroke-opacity:1; 
stroke-linecap:round; stroke-linejoin:round;">
</g>
<g style="fill:#840000; fill-opacity:0.0; 
stroke:#840000; stroke-width:0.2540; stroke-opacity:1; 
stroke-linecap:round; stroke-linejoin:round;">
<path d="M19.2913 11.3918 A2.5470 2.5470 0.0 0 0 19.2913 6.3120" />
<path style="fill:#840000; fill-opacity:0.0; 
stroke:#840000; stroke-width:0.2540; stroke-opacity:1; 
stroke-linecap:round; stroke-linejoin:round;fill:none"
d="M 19.2913,6.3119
18.0213,6.3119
18.0213,11.3919
19.2913,11.3919
" /> 
</g>
<g style="fill:#840000; fill-opacity:0.0; 
stroke:#840000; stroke-width:0.1524; stroke-opacity:1; 
stroke-linecap:round; stroke-linejoin:round;">
<path d="M18.0213 10.1219
L15.4813 10.1219
" />
</g>
<g style="fill:#A90000; fill-opacity:0.0; 
stroke:#A90000; stroke-width:0.1524; stroke-opacity:1; 
stroke-linecap:round; stroke-linejoin:round;">
<text x="16.7513" y="9.8679"
textLength="2.6222" font-size="1.6933" lengthAdjust="spacingAndGlyphs"
text-anchor="middle" opacity="0">10</text>
<g class="stroked-text"><desc>10</desc>
<path d="M16.5094 9.7044
L15.7837 9.7044
" />
<path d="M16.1465 9.7044
L16.1465 8.4344
" />
<path d="M16.1465 8.4344
L16.0256 8.6159
" />
<path d="M16.0256 8.6159
L15.9046 8.7368
" />
<path d="M15.9046 8.7368
L15.7837 8.7973
" />
<path d="M17.2955 8.4344
L17.4165 8.4344
" />
<path d="M17.4165 8.4344
L17.5374 8.4949
" />
<path d="M17.5374 8.4949
L17.5979 8.5554
" />
<path d="M17.5979 8.5554
L17.6584 8.6763
" />
<path d="M17.6584 8.6763
L17.7189 8.9182
" />
<path d="M17.7189 8.9182
L17.7189 9.2206
" />
<path d="M17.7189 9.2206
L17.6584 9.4625
" />
<path d="M17.6584 9.4625
L17.5979 9.5835
" />
<path d="M17.5979 9.5835
L17.5374 9.6440
" />
<path d="M17.5374 9.6440
L17.4165 9.7044
" />
<path d="M17.4165 9.7044
L17.2955 9.7044
" />
<path d="M17.2955 9.7044
L17.1746 9.6440
" />
<path d="M17.1746 9.6440
L17.1141 9.5835
" />
<path d="M17.1141 9.5835
L17.0536 9.4625
" />
<path d="M17.0536 9.4625
L16.9932 9.2206
" />
<path d="M16.9932 9.2206
L16.9932 8.9182
" />
<path d="M16.9932 8.9182
L17.0536 8.6763
" />
<path d="M17.0536 8.6763
L17.1141 8.5554
" />
<path d="M17.1141 8.5554
L17.1746 8.4949
" />
<path d="M17.1746 8.4949
L17.2955 8.4344
" />
</g></g>
<g style="fill:#840000; fill-opacity:0.0; 
stroke:#840000; stroke-width:0.1524; stroke-opacity:1; 
stroke-linecap:round; stroke-linejoin:round;">
<circle cx="22.4663" cy="8.8519" r="0.6350" /> 
<path d="M23.1013 8.8519
L24.3713 8.8519
" />
</g>
<g style="fill:#A90000; fill-opacity:0.0; 
stroke:#A90000; stroke-width:0.1524; stroke-opacity:1; 
stroke-linecap:round; stroke-linejoin:round;">
<text x="23.1013" y="8.5979"
textLength="1.4127" font-size="1.6933" lengthAdjust="spacingAndGlyphs"
text-anchor="middle" opacity="0">8</text>
<g class="stroked-text"><desc>8</desc>
<path d="M22.9804 7.7087
L22.8594 7.6482
" />
<path d="M22.8594 7.6482
L22.7989 7.5878
" />
<path d="M22.7989 7.5878
L22.7385 7.4668
" />
<path d="M22.7385 7.4668
L22.7385 7.4063
" />
<path d="M22.7385 7.4063
L22.7989 7.2854
" />
<path d="M22.7989 7.2854
L22.8594 7.2249
" />
<path d="M22.8594 7.2249
L22.9804 7.1644
" />
<path d="M22.9804 7.1644
L23.2223 7.1644
" />
<path d="M23.2223 7.1644
L23.3432 7.2249
" />
<path d="M23.3432 7.2249
L23.4037 7.2854
" />
<path d="M23.4037 7.2854
L23.4642 7.4063
" />
<path d="M23.4642 7.4063
L23.4642 7.4668
" />
<path d="M23.4642 7.4668
L23.4037 7.5878
" />
<path d="M23.4037 7.5878
L23.3432 7.6482
" />
<path d="M23.3432 7.6482
L23.2223 7.7087
" />
<path d="M23.2223 7.7087
L22.9804 7.7087
" />
<path d="M22.9804 7.7087
L22.8594 7.7692
" />
<path d="M22.8594 7.7692
L22.7989 7.8297
" />
<path d="M22.7989 7.8297
L22.7385 7.9506
" />
<path d="M22.7385 7.9506
L22.7385 8.1925
" />
<path d="M22.7385 8.1925
L22.7989 8.3135
" />
<path d="M22.7989 8.3135
L22.8594 8.3740
" />
<path d="M22.8594 8.3740
L22.9804 8.4344
" />
<path d="M22.9804 8.4344
L23.2223 8.4344
" />
<path d="M23.2223 8.4344
L23.3432 8.3740
" />
<path d="M23.3432 8.3740
L23.4037 8.3135
" />
<path d="M23.4037 8.3135
L23.4642 8.1925
" />
<path d="M23.4642 8.1925
L23.4642 7.9506
" />
<path d="M23.4642 7.9506
L23.4037 7.8297
" />
<path d="M23.4037 7.8297
L23.3432 7.7692
" />
<path d="M23.3432 7.7692
L23.2223 7.7087
" />
</g></g>
<g style="fill:#840000; fill-opacity:0.0; 
stroke:#840000; stroke-width:0.1524; stroke-opacity:1; 
stroke-linecap:round; stroke-linejoin:round;">
<path d="M18.0213 7.5819
L15.4813 7.5819
" />
</g>
<g style="fill:#A90000; fill-opacity:0.0; 
stroke:#A90000; stroke-width:0.1524; stroke-opacity:1; 
stroke-linecap:round; stroke-linejoin:round;">
<text x="16.7513" y="7.3279"
textLength="1.4127" font-size="1.6933" lengthAdjust="spacingAndGlyphs"
text-anchor="middle" opacity="0">9</text>
<g class="stroked-text"><desc>9</desc>
<path d="M16.5094 7.1644
L16.7513 7.1644
" />
<path d="M16.7513 7.1644
L16.8723 7.1040
" />
<path d="M16.8723 7.1040
L16.9327 7.0435
" />
<path d="M16.9327 7.0435
L17.0537 6.8620
" />
<path d="M17.0537 6.8620
L17.1142 6.6201
" />
<path d="M17.1142 6.6201
L17.1142 6.1363
" />
<path d="M17.1142 6.1363
L17.0537 6.0154
" />
<path d="M17.0537 6.0154
L16.9932 5.9549
" />
<path d="M16.9932 5.9549
L16.8723 5.8944
" />
<path d="M16.8723 5.8944
L16.6304 5.8944
" />
<path d="M16.6304 5.8944
L16.5094 5.9549
" />
<path d="M16.5094 5.9549
L16.4489 6.0154
" />
<path d="M16.4489 6.0154
L16.3885 6.1363
" />
<path d="M16.3885 6.1363
L16.3885 6.4387
" />
<path d="M16.3885 6.4387
L16.4489 6.5597
" />
<path d="M16.4489 6.5597
L16.5094 6.6201
" />
<path d="M16.5094 6.6201
L16.6304 6.6806
" />
<path d="M16.6304 6.6806
L16.8723 6.6806
" />
<path d="M16.8723 6.6806
L16.9932 6.6201
" />
<path d="M16.9932 6.6201
L17.0537 6.5597
" />
<path d="M17.0537 6.5597
L17.1142 6.4387
" />
</g></g>
<g style="fill:#840084; fill-opacity:0.0; 
stroke:#840084; stroke-width:0.1524; stroke-opacity:1; 
stroke-linecap:round; stroke-linejoin:round;">
</g>
<g style="fill:#006464; fill-opacity:0.0; 
stroke:#006464; stroke-width:0.1524; stroke-opacity:1; 
stroke-linecap:round; stroke-linejoin:round;">
</g>
<g style="fill:#006464; fill-opacity:0.0; 
stroke:#006464; stroke-width:0.1588; stroke-opacity:1; 
stroke-linecap:round; stroke-linejoin:round;">
<text x="28.1813" y="0.5969"
textLength="3.9115" font-size="1.6933" lengthAdjust="spacingAndGlyphs"
text-anchor="middle" opacity="0">U?C</text>
<g class="stroked-text"><desc>U?C</desc>
<path d="M26.6391 -0.7288
L26.6391 0.2992
" />
<path d="M26.6391 0.2992
L26.6996 0.4202
" />
<path d="M26.6996 0.4202
L26.7601 0.4807
" />
<path d="M26.7601 0.4807
L26.8810 0.5411
" />
<path d="M26.8810 0.5411
L27.1229 0.5411
" />
<path d="M27.1229 0.5411
L27.2439 0.4807
" />
<path d="M27.2439 0.4807
L27.3044 0.4202
" />
<path d="M27.3044 0.4202
L27.3648 0.2992
" />
<path d="M27.3648 0.2992
L27.3648 -0.7288
" />
<path d="M28.1511 0.4202
L28.2115 0.4807
" />
<path d="M28.2115 0.4807
L28.1511 0.5411
" />
<path d="M28.1511 0.5411
L28.0906 0.4807
" />
<path d="M28.0906 0.4807
L28.1511 0.4202
" />
<path d="M28.1511 0.4202
L28.1511 0.5411
" />
<path d="M27.9092 -0.6683
L28.0301 -0.7288
" />
<path d="M28.0301 -0.7288
L28.3325 -0.7288
" />
<path d="M28.3325 -0.7288
L28.4534 -0.6683
" />
<path d="M28.4534 -0.6683
L28.5139 -0.5473
" />
<path d="M28.5139 -0.5473
L28.5139 -0.4264
" />
<path d="M28.5139 -0.4264
L28.4534 -0.3054
" />
<path d="M28.4534 -0.3054
L28.3930 -0.2450
" />
<path d="M28.3930 -0.2450
L28.2720 -0.1845
" />
<path d="M28.2720 -0.1845
L28.2115 -0.1240
" />
<path d="M28.2115 -0.1240
L28.1511 -0.0031
" />
<path d="M28.1511 -0.0031
L28.1511 0.0573
" />
<path d="M29.7839 0.4202
L29.7235 0.4807
" />
<path d="M29.7235 0.4807
L29.5420 0.5411
" />
<path d="M29.5420 0.5411
L29.4211 0.5411
" />
<path d="M29.4211 0.5411
L29.2397 0.4807
" />
<path d="M29.2397 0.4807
L29.1187 0.3597
" />
<path d="M29.1187 0.3597
L29.0582 0.2387
" />
<path d="M29.0582 0.2387
L28.9978 -0.0031
" />
<path d="M28.9978 -0.0031
L28.9978 -0.1845
" />
<path d="M28.9978 -0.1845
L29.0582 -0.4264
" />
<path d="M29.0582 -0.4264
L29.1187 -0.5473
" />
<path d="M29.1187 -0.5473
L29.2397 -0.6683
" />
<path d="M29.2397 -0.6683
L29.4211 -0.7288
" />
<path d="M29.4211 -0.7288
L29.5420 -0.7288
" />
<path d="M29.5420 -0.7288
L29.7235 -0.6683
" />
<path d="M29.7235 -0.6683
L29.7839 -0.6078
" />
</g><text x="28.1813" y="3.1369"
textLength="7.6609" font-size="1.6933" lengthAdjust="spacingAndGlyphs"
text-anchor="middle" opacity="0">74HC00</text>
<g class="stroked-text"><desc>74HC00</desc>
<path d="M24.6435 1.8111
L25.4901 1.8111
" />
<path d="M25.4901 1.8111
L24.9459 3.0811
" />
<path d="M26.5182 2.2345
L26.5182 3.0811
" />
<path d="M26.2158 1.7507
L25.9135 2.6578
" />
<path d="M25.9135 2.6578
L26.6996 2.6578
" />
<path d="M27.1834 3.0811
L27.1834 1.8111
" />
<path d="M27.1834 2.4159
L27.9091 2.4159
" />
<path d="M27.9091 3.0811
L27.9091 1.8111
" />
<path d="M29.2396 2.9602
L29.1792 3.0207
" />
<path d="M29.1792 3.0207
L28.9977 3.0811
" />
<path d="M28.9977 3.0811
L28.8768 3.0811
" />
<path d="M28.8768 3.0811
L28.6954 3.0207
" />
<path d="M28.6954 3.0207
L28.5744 2.8997
" />
<path d="M28.5744 2.8997
L28.5139 2.7787
" />
<path d="M28.5139 2.7787
L28.4535 2.5368
" />
<path d="M28.4535 2.5368
L28.4535 2.3554
" />
<path d="M28.4535 2.3554
L28.5139 2.1135
" />
<path d="M28.5139 2.1135
L28.5744 1.9926
" />
<path d="M28.5744 1.9926
L28.6954 1.8716
" />
<path d="M28.6954 1.8716
L28.8768 1.8111
" />
<path d="M28.8768 1.8111
L28.9977 1.8111
" />
<path d="M28.9977 1.8111
L29.1792 1.8716
" />
<path d="M29.1792 1.8716
L29.2396 1.9321
" />
<path d="M30.0258 1.8111
L30.1468 1.8111
" />
<path d="M30.1468 1.8111
L30.2677 1.8716
" />
<path d="M30.2677 1.8716
L30.3282 1.9321
" />
<path d="M30.3282 1.9321
L30.3887 2.0530
" />
<path d="M30.3887 2.0530
L30.4492 2.2949
" />
<path d="M30.4492 2.2949
L30.4492 2.5973
" />
<path d="M30.4492 2.5973
L30.3887 2.8392
" />
<path d="M30.3887 2.8392
L30.3282 2.9602
" />
<path d="M30.3282 2.9602
L30.2677 3.0207
" />
<path d="M30.2677 3.0207
L30.1468 3.0811
" />
<path d="M30.1468 3.0811
L30.0258 3.0811
" />
<path d="M30.0258 3.0811
L29.9049 3.0207
" />
<path d="M29.9049 3.0207
L29.8444 2.9602
" />
<path d="M29.8444 2.9602
L29.7839 2.8392
" />
<path d="M29.7839 2.8392
L29.7235 2.5973
" />
<path d="M29.7235 2.5973
L29.7235 2.2949
" />
<path d="M29.7235 2.2949
L29.7839 2.0530
" />
<path d="M29.7839 2.0530
L29.8444 1.9321
" />
<path d="M29.8444 1.9321
L29.9049 1.8716
" />
<path d="M29.9049 1.8716
L30.0258 1.8111
" />
<path d="M31.2353 1.8111
L31.3563 1.8111
" />
<path d="M31.3563 1.8111
L31.4772 1.8716
" />
<path d="M31.4772 1.8716
L31.5377 1.9321
" />
<path d="M31.5377 1.9321
L31.5982 2.0530
" />
<path d="M31.5982 2.0530
L31.6587 2.2949
" />
<path d="M31.6587 2.2949
L31.6587 2.5973
" />
<path d="M31.6587 2.5973
L31.5982 2.8392
" />
<path d="M31.5982 2.8392
L31.5377 2.9602
" />
<path d="M31.5377 2.9602
L31.4772 3.0207
" />
<path d="M31.4772 3.0207
L31.3563 3.0811
" />
<path d="M31.3563 3.0811
L31.2353 3.0811
" />
<path d="M31.2353 3.0811
L31.1144 3.0207
" />
<path d="M31.1144 3.0207
L31.0539 2.9602
" />
<path d="M31.0539 2.9602
L30.9934 2.8392
" />
<path d="M30.9934 2.8392
L30.9330 2.5973
" />
<path d="M30.9330 2.5973
L30.9330 2.2949
" />
<path d="M30.9330 2.2949
L30.9934 2.0530
" />
<path d="M30.9934 2.0530
L31.0539 1.9321
" />
<path d="M31.0539 1.9321
L31.1144 1.8716
" />
<path d="M31.1144 1.8716
L31.2353 1.8111
" />
</g></g> 
</svg>
