<?xml version="1.0" standalone="no"?>
 <!DOCTYPE svg PUBLIC "-//W3C//DTD SVG 1.1//EN" 
 "http://www.w3.org/Graphics/SVG/1.1/DTD/svg11.dtd"> 
<svg
  xmlns:svg="http://www.w3.org/2000/svg"
  xmlns="http://www.w3.org/2000/svg"
  xmlns:xlink="http://www.w3.org/1999/xlink"
  version="1.1"
  width="44.0944mm" height="19.2278mm" viewBox="0.0000 0.0000 44.0944 19.2278">
<title>SVG Image created as 74hc14_small_6.svg date 2023/09/21 01:25:16 </title>
  <desc>Image generated by Eeschema-SVG </desc>
<g style="fill:#000000; fill-opacity:1.0000;stroke:#000000; stroke-opacity:1.0000;
stroke-linecap:round; stroke-linejoin:round;"
 transform="translate(0 0) scale(1 1)">
</g>
<g style="fill:#840000; fill-opacity:0.0; 
stroke:#840000; stroke-width:0.0000; stroke-opacity:1; 
stroke-linecap:round; stroke-linejoin:round;">
</g>
<g style="fill:#FFFFC2; fill-opacity:0.0; 
stroke:#FFFFC2; stroke-width:0.0000; stroke-opacity:1; 
stroke-linecap:round; stroke-linejoin:round;">
</g>
<g style="fill:#FFFFC2; fill-opacity:1.0000; 
stroke:#FFFFC2; stroke-width:0.0000; stroke-opacity:1; 
stroke-linecap:round; stroke-linejoin:round;">
<path style="fill:#FFFFC2; fill-opacity:1.0000; 
stroke:#FFFFC2; stroke-width:0.0000; stroke-opacity:1; 
stroke-linecap:round; stroke-linejoin:round;fill-rule:evenodd;"
d="M 20.7772,7.0739
20.7772,12.1539
24.5872,9.6139
Z" /> 
</g>
<g style="fill:#840084; fill-opacity:1.0000; 
stroke:#840084; stroke-width:0.0000; stroke-opacity:1; 
stroke-linecap:round; stroke-linejoin:round;">
</g>
<g style="fill:#840000; fill-opacity:1.0000; 
stroke:#840000; stroke-width:0.0000; stroke-opacity:1; 
stroke-linecap:round; stroke-linejoin:round;">
</g>
<g style="fill:#840000; fill-opacity:0.0; 
stroke:#840000; stroke-width:0.2540; stroke-opacity:1; 
stroke-linecap:round; stroke-linejoin:round;">
<path style="fill:#840000; fill-opacity:0.0; 
stroke:#840000; stroke-width:0.2540; stroke-opacity:1; 
stroke-linecap:round; stroke-linejoin:round;fill:none"
d="M 20.7772,7.0739
20.7772,12.1539
24.5872,9.6139
Z" /> 
</g>
<g style="fill:#840000; fill-opacity:0.0; 
stroke:#840000; stroke-width:0.1524; stroke-opacity:1; 
stroke-linecap:round; stroke-linejoin:round;">
<path style="fill:#840000; fill-opacity:0.0; 
stroke:#840000; stroke-width:0.1524; stroke-opacity:1; 
stroke-linecap:round; stroke-linejoin:round;fill:none"
d="M 21.3004,9.9417
22.1327,9.9398
22.3518,9.2986
" /> 
<path style="fill:#840000; fill-opacity:0.0; 
stroke:#840000; stroke-width:0.1524; stroke-opacity:1; 
stroke-linecap:round; stroke-linejoin:round;fill:none"
d="M 21.6048,9.8447
21.8435,9.2145
22.6664,9.2092
" /> 
<circle cx="25.2222" cy="9.6139" r="0.6350" /> 
<path d="M25.8572 9.6139
L25.8572 9.6139
" />
</g>
<g style="fill:#A90000; fill-opacity:0.0; 
stroke:#A90000; stroke-width:0.1524; stroke-opacity:1; 
stroke-linecap:round; stroke-linejoin:round;">
<text x="25.2222" y="9.3599"
textLength="2.6222" font-size="1.6933" lengthAdjust="spacingAndGlyphs"
text-anchor="middle" opacity="0">12</text>
<g class="stroked-text"><desc>12</desc>
<path d="M24.9803 9.1964
L24.2546 9.1964
" />
<path d="M24.6174 9.1964
L24.6174 7.9264
" />
<path d="M24.6174 7.9264
L24.4965 8.1079
" />
<path d="M24.4965 8.1079
L24.3755 8.2288
" />
<path d="M24.3755 8.2288
L24.2546 8.2893
" />
<path d="M25.4641 8.0474
L25.5245 7.9869
" />
<path d="M25.5245 7.9869
L25.6455 7.9264
" />
<path d="M25.6455 7.9264
L25.9479 7.9264
" />
<path d="M25.9479 7.9264
L26.0688 7.9869
" />
<path d="M26.0688 7.9869
L26.1293 8.0474
" />
<path d="M26.1293 8.0474
L26.1898 8.1683
" />
<path d="M26.1898 8.1683
L26.1898 8.2893
" />
<path d="M26.1898 8.2893
L26.1293 8.4707
" />
<path d="M26.1293 8.4707
L25.4036 9.1964
" />
<path d="M25.4036 9.1964
L26.1898 9.1964
" />
</g></g>
<g style="fill:#840000; fill-opacity:0.0; 
stroke:#840000; stroke-width:0.1524; stroke-opacity:1; 
stroke-linecap:round; stroke-linejoin:round;">
<path d="M20.7772 9.6139
L19.5072 9.6139
" />
</g>
<g style="fill:#A90000; fill-opacity:0.0; 
stroke:#A90000; stroke-width:0.1524; stroke-opacity:1; 
stroke-linecap:round; stroke-linejoin:round;">
<text x="20.1422" y="9.3599"
textLength="2.6222" font-size="1.6933" lengthAdjust="spacingAndGlyphs"
text-anchor="middle" opacity="0">13</text>
<g class="stroked-text"><desc>13</desc>
<path d="M19.9003 9.1964
L19.1746 9.1964
" />
<path d="M19.5374 9.1964
L19.5374 7.9264
" />
<path d="M19.5374 7.9264
L19.4165 8.1079
" />
<path d="M19.4165 8.1079
L19.2955 8.2288
" />
<path d="M19.2955 8.2288
L19.1746 8.2893
" />
<path d="M20.3236 7.9264
L21.1098 7.9264
" />
<path d="M21.1098 7.9264
L20.6864 8.4102
" />
<path d="M20.6864 8.4102
L20.8679 8.4102
" />
<path d="M20.8679 8.4102
L20.9888 8.4707
" />
<path d="M20.9888 8.4707
L21.0493 8.5312
" />
<path d="M21.0493 8.5312
L21.1098 8.6521
" />
<path d="M21.1098 8.6521
L21.1098 8.9545
" />
<path d="M21.1098 8.9545
L21.0493 9.0755
" />
<path d="M21.0493 9.0755
L20.9888 9.1360
" />
<path d="M20.9888 9.1360
L20.8679 9.1964
" />
<path d="M20.8679 9.1964
L20.5050 9.1964
" />
<path d="M20.5050 9.1964
L20.3841 9.1360
" />
<path d="M20.3841 9.1360
L20.3236 9.0755
" />
</g></g>
<g style="fill:#840084; fill-opacity:0.0; 
stroke:#840084; stroke-width:0.1524; stroke-opacity:1; 
stroke-linecap:round; stroke-linejoin:round;">
</g>
<g style="fill:#006464; fill-opacity:0.0; 
stroke:#006464; stroke-width:0.1524; stroke-opacity:1; 
stroke-linecap:round; stroke-linejoin:round;">
</g>
<g style="fill:#006464; fill-opacity:0.0; 
stroke:#006464; stroke-width:0.1588; stroke-opacity:1; 
stroke-linecap:round; stroke-linejoin:round;">
<text x="22.0472" y="15.3289"
textLength="3.7301" font-size="1.6933" lengthAdjust="spacingAndGlyphs"
text-anchor="middle" opacity="0">U?F</text>
<g class="stroked-text"><desc>U?F</desc>
<path d="M20.5957 14.0031
L20.5957 15.0312
" />
<path d="M20.5957 15.0312
L20.6562 15.1522
" />
<path d="M20.6562 15.1522
L20.7167 15.2127
" />
<path d="M20.7167 15.2127
L20.8376 15.2731
" />
<path d="M20.8376 15.2731
L21.0795 15.2731
" />
<path d="M21.0795 15.2731
L21.2005 15.2127
" />
<path d="M21.2005 15.2127
L21.2610 15.1522
" />
<path d="M21.2610 15.1522
L21.3214 15.0312
" />
<path d="M21.3214 15.0312
L21.3214 14.0031
" />
<path d="M22.1077 15.1522
L22.1681 15.2127
" />
<path d="M22.1681 15.2127
L22.1077 15.2731
" />
<path d="M22.1077 15.2731
L22.0472 15.2127
" />
<path d="M22.0472 15.2127
L22.1077 15.1522
" />
<path d="M22.1077 15.1522
L22.1077 15.2731
" />
<path d="M21.8658 14.0636
L21.9867 14.0031
" />
<path d="M21.9867 14.0031
L22.2891 14.0031
" />
<path d="M22.2891 14.0031
L22.4100 14.0636
" />
<path d="M22.4100 14.0636
L22.4705 14.1846
" />
<path d="M22.4705 14.1846
L22.4705 14.3055
" />
<path d="M22.4705 14.3055
L22.4100 14.4265
" />
<path d="M22.4100 14.4265
L22.3496 14.4869
" />
<path d="M22.3496 14.4869
L22.2286 14.5474
" />
<path d="M22.2286 14.5474
L22.1681 14.6079
" />
<path d="M22.1681 14.6079
L22.1077 14.7288
" />
<path d="M22.1077 14.7288
L22.1077 14.7893
" />
<path d="M23.4382 14.6079
L23.0148 14.6079
" />
<path d="M23.0148 15.2731
L23.0148 14.0031
" />
<path d="M23.0148 14.0031
L23.6196 14.0031
" />
</g><text x="22.0472" y="17.8689"
textLength="13.8293" font-size="1.6933" lengthAdjust="spacingAndGlyphs"
text-anchor="middle" opacity="0">74HC14_small</text>
<g class="stroked-text"><desc>74HC14_small</desc>
<path d="M15.4252 16.5431
L16.2718 16.5431
" />
<path d="M16.2718 16.5431
L15.7276 17.8131
" />
<path d="M17.2999 16.9665
L17.2999 17.8131
" />
<path d="M16.9975 16.4827
L16.6952 17.3898
" />
<path d="M16.6952 17.3898
L17.4813 17.3898
" />
<path d="M17.9651 17.8131
L17.9651 16.5431
" />
<path d="M17.9651 17.1479
L18.6908 17.1479
" />
<path d="M18.6908 17.8131
L18.6908 16.5431
" />
<path d="M20.0213 17.6922
L19.9609 17.7527
" />
<path d="M19.9609 17.7527
L19.7794 17.8131
" />
<path d="M19.7794 17.8131
L19.6585 17.8131
" />
<path d="M19.6585 17.8131
L19.4771 17.7527
" />
<path d="M19.4771 17.7527
L19.3561 17.6317
" />
<path d="M19.3561 17.6317
L19.2956 17.5107
" />
<path d="M19.2956 17.5107
L19.2352 17.2688
" />
<path d="M19.2352 17.2688
L19.2352 17.0874
" />
<path d="M19.2352 17.0874
L19.2956 16.8455
" />
<path d="M19.2956 16.8455
L19.3561 16.7246
" />
<path d="M19.3561 16.7246
L19.4771 16.6036
" />
<path d="M19.4771 16.6036
L19.6585 16.5431
" />
<path d="M19.6585 16.5431
L19.7794 16.5431
" />
<path d="M19.7794 16.5431
L19.9609 16.6036
" />
<path d="M19.9609 16.6036
L20.0213 16.6641
" />
<path d="M21.2309 17.8131
L20.5052 17.8131
" />
<path d="M20.8680 17.8131
L20.8680 16.5431
" />
<path d="M20.8680 16.5431
L20.7471 16.7246
" />
<path d="M20.7471 16.7246
L20.6261 16.8455
" />
<path d="M20.6261 16.8455
L20.5052 16.9060
" />
<path d="M22.3194 16.9665
L22.3194 17.8131
" />
<path d="M22.0170 16.4827
L21.7147 17.3898
" />
<path d="M21.7147 17.3898
L22.5008 17.3898
" />
<path d="M22.6823 17.9341
L23.6499 17.9341
" />
<path d="M23.8918 17.7527
L24.0127 17.8131
" />
<path d="M24.0127 17.8131
L24.2546 17.8131
" />
<path d="M24.2546 17.8131
L24.3756 17.7527
" />
<path d="M24.3756 17.7527
L24.4360 17.6317
" />
<path d="M24.4360 17.6317
L24.4360 17.5712
" />
<path d="M24.4360 17.5712
L24.3756 17.4503
" />
<path d="M24.3756 17.4503
L24.2546 17.3898
" />
<path d="M24.2546 17.3898
L24.0732 17.3898
" />
<path d="M24.0732 17.3898
L23.9522 17.3293
" />
<path d="M23.9522 17.3293
L23.8918 17.2084
" />
<path d="M23.8918 17.2084
L23.8918 17.1479
" />
<path d="M23.8918 17.1479
L23.9522 17.0269
" />
<path d="M23.9522 17.0269
L24.0732 16.9665
" />
<path d="M24.0732 16.9665
L24.2546 16.9665
" />
<path d="M24.2546 16.9665
L24.3756 17.0269
" />
<path d="M24.9803 17.8131
L24.9803 16.9665
" />
<path d="M24.9803 17.0874
L25.0408 17.0269
" />
<path d="M25.0408 17.0269
L25.1618 16.9665
" />
<path d="M25.1618 16.9665
L25.3432 16.9665
" />
<path d="M25.3432 16.9665
L25.4641 17.0269
" />
<path d="M25.4641 17.0269
L25.5246 17.1479
" />
<path d="M25.5246 17.1479
L25.5246 17.8131
" />
<path d="M25.5246 17.1479
L25.5851 17.0269
" />
<path d="M25.5851 17.0269
L25.7060 16.9665
" />
<path d="M25.7060 16.9665
L25.8875 16.9665
" />
<path d="M25.8875 16.9665
L26.0084 17.0269
" />
<path d="M26.0084 17.0269
L26.0689 17.1479
" />
<path d="M26.0689 17.1479
L26.0689 17.8131
" />
<path d="M27.2179 17.8131
L27.2179 17.1479
" />
<path d="M27.2179 17.1479
L27.1574 17.0269
" />
<path d="M27.1574 17.0269
L27.0365 16.9665
" />
<path d="M27.0365 16.9665
L26.7946 16.9665
" />
<path d="M26.7946 16.9665
L26.6736 17.0269
" />
<path d="M27.2179 17.7527
L27.0970 17.8131
" />
<path d="M27.0970 17.8131
L26.7946 17.8131
" />
<path d="M26.7946 17.8131
L26.6736 17.7527
" />
<path d="M26.6736 17.7527
L26.6132 17.6317
" />
<path d="M26.6132 17.6317
L26.6132 17.5107
" />
<path d="M26.6132 17.5107
L26.6736 17.3898
" />
<path d="M26.6736 17.3898
L26.7946 17.3293
" />
<path d="M26.7946 17.3293
L27.0970 17.3293
" />
<path d="M27.0970 17.3293
L27.2179 17.2688
" />
<path d="M28.0041 17.8131
L27.8831 17.7527
" />
<path d="M27.8831 17.7527
L27.8226 17.6317
" />
<path d="M27.8226 17.6317
L27.8226 16.5431
" />
<path d="M28.6693 17.8131
L28.5483 17.7527
" />
<path d="M28.5483 17.7527
L28.4878 17.6317
" />
<path d="M28.4878 17.6317
L28.4878 16.5431
" />
</g></g> 
</svg>
