<?xml version="1.0" standalone="no"?>
 <!DOCTYPE svg PUBLIC "-//W3C//DTD SVG 1.1//EN" 
 "http://www.w3.org/Graphics/SVG/1.1/DTD/svg11.dtd"> 
<svg
  xmlns:svg="http://www.w3.org/2000/svg"
  xmlns="http://www.w3.org/2000/svg"
  xmlns:xlink="http://www.w3.org/1999/xlink"
  version="1.1"
  width="44.0944mm" height="30.4800mm" viewBox="0.0000 0.0000 44.0944 30.4800">
<title>SVG Image created as 74hc14_small_7.svg date 2023/09/21 19:34:14 </title>
  <desc>Image generated by Eeschema-SVG </desc>
<g style="fill:#000000; fill-opacity:1.0000;stroke:#000000; stroke-opacity:1.0000;
stroke-linecap:round; stroke-linejoin:round;"
 transform="translate(0 0) scale(1 1)">
</g>
<g style="fill:#840000; fill-opacity:0.0; 
stroke:#840000; stroke-width:0.0000; stroke-opacity:1; 
stroke-linecap:round; stroke-linejoin:round;">
</g>
<g style="fill:#FFFFC2; fill-opacity:0.0; 
stroke:#FFFFC2; stroke-width:0.0000; stroke-opacity:1; 
stroke-linecap:round; stroke-linejoin:round;">
</g>
<g style="fill:#FFFFC2; fill-opacity:1.0000; 
stroke:#FFFFC2; stroke-width:0.0000; stroke-opacity:1; 
stroke-linecap:round; stroke-linejoin:round;">
<rect x="16.967200" y="7.620000" width="10.160000" height="15.240000" rx="0.000000" />
</g>
<g style="fill:#840084; fill-opacity:1.0000; 
stroke:#840084; stroke-width:0.0000; stroke-opacity:1; 
stroke-linecap:round; stroke-linejoin:round;">
</g>
<g style="fill:#840000; fill-opacity:1.0000; 
stroke:#840000; stroke-width:0.0000; stroke-opacity:1; 
stroke-linecap:round; stroke-linejoin:round;">
</g>
<g style="fill:#840000; fill-opacity:0.0; 
stroke:#840000; stroke-width:0.2540; stroke-opacity:1; 
stroke-linecap:round; stroke-linejoin:round;">
<rect x="16.967200" y="7.620000" width="10.160000" height="15.240000" rx="0.000000" />
</g>
<g style="fill:#840000; fill-opacity:0.0; 
stroke:#840000; stroke-width:0.1524; stroke-opacity:1; 
stroke-linecap:round; stroke-linejoin:round;">
<path d="M22.0472 7.6200
L22.0472 2.5400
" />
</g>
<g style="fill:#006464; fill-opacity:0.0; 
stroke:#006464; stroke-width:0.1524; stroke-opacity:1; 
stroke-linecap:round; stroke-linejoin:round;">
<g transform="rotate(-90.000000 22.0472 8.6360)">
<text x="22.0472" y="9.2710"
textLength="3.8318" font-size="1.6933" lengthAdjust="spacingAndGlyphs"
text-anchor="end" opacity="0">VCC</text>
</g>
<g class="stroked-text"><desc>VCC</desc>
<path d="M21.3567 12.2438
L22.6267 11.8205
" />
<path d="M22.6267 11.8205
L21.3567 11.3971
" />
<path d="M22.5058 10.2481
L22.5663 10.3085
" />
<path d="M22.5663 10.3085
L22.6267 10.4900
" />
<path d="M22.6267 10.4900
L22.6267 10.6109
" />
<path d="M22.6267 10.6109
L22.5663 10.7923
" />
<path d="M22.5663 10.7923
L22.4453 10.9133
" />
<path d="M22.4453 10.9133
L22.3243 10.9738
" />
<path d="M22.3243 10.9738
L22.0824 11.0342
" />
<path d="M22.0824 11.0342
L21.9010 11.0342
" />
<path d="M21.9010 11.0342
L21.6591 10.9738
" />
<path d="M21.6591 10.9738
L21.5382 10.9133
" />
<path d="M21.5382 10.9133
L21.4172 10.7923
" />
<path d="M21.4172 10.7923
L21.3567 10.6109
" />
<path d="M21.3567 10.6109
L21.3567 10.4900
" />
<path d="M21.3567 10.4900
L21.4172 10.3085
" />
<path d="M21.4172 10.3085
L21.4777 10.2481
" />
<path d="M22.5058 8.9781
L22.5663 9.0385
" />
<path d="M22.5663 9.0385
L22.6267 9.2200
" />
<path d="M22.6267 9.2200
L22.6267 9.3409
" />
<path d="M22.6267 9.3409
L22.5663 9.5223
" />
<path d="M22.5663 9.5223
L22.4453 9.6433
" />
<path d="M22.4453 9.6433
L22.3243 9.7038
" />
<path d="M22.3243 9.7038
L22.0824 9.7642
" />
<path d="M22.0824 9.7642
L21.9010 9.7642
" />
<path d="M21.9010 9.7642
L21.6591 9.7038
" />
<path d="M21.6591 9.7038
L21.5382 9.6433
" />
<path d="M21.5382 9.6433
L21.4172 9.5223
" />
<path d="M21.4172 9.5223
L21.3567 9.3409
" />
<path d="M21.3567 9.3409
L21.3567 9.2200
" />
<path d="M21.3567 9.2200
L21.4172 9.0385
" />
<path d="M21.4172 9.0385
L21.4777 8.9781
" />
</g></g>
<g style="fill:#A90000; fill-opacity:0.0; 
stroke:#A90000; stroke-width:0.1524; stroke-opacity:1; 
stroke-linecap:round; stroke-linejoin:round;">
<g transform="rotate(-90.000000 21.7932 5.0800)">
<text x="21.7932" y="5.0800"
textLength="2.6222" font-size="1.6933" lengthAdjust="spacingAndGlyphs"
text-anchor="middle" opacity="0">14</text>
</g>
<g class="stroked-text"><desc>14</desc>
<path d="M21.6297 5.3218
L21.6297 6.0475
" />
<path d="M21.6297 5.6847
L20.3597 5.6847
" />
<path d="M20.3597 5.6847
L20.5412 5.8056
" />
<path d="M20.5412 5.8056
L20.6621 5.9266
" />
<path d="M20.6621 5.9266
L20.7226 6.0475
" />
<path d="M20.7831 4.2333
L21.6297 4.2333
" />
<path d="M20.2993 4.5357
L21.2064 4.8380
" />
<path d="M21.2064 4.8380
L21.2064 4.0519
" />
</g></g>
<g style="fill:#840000; fill-opacity:0.0; 
stroke:#840000; stroke-width:0.1524; stroke-opacity:1; 
stroke-linecap:round; stroke-linejoin:round;">
<path d="M22.0472 22.8600
L22.0472 27.9400
" />
</g>
<g style="fill:#006464; fill-opacity:0.0; 
stroke:#006464; stroke-width:0.1524; stroke-opacity:1; 
stroke-linecap:round; stroke-linejoin:round;">
<g transform="rotate(-90.000000 22.0472 21.8440)">
<text x="22.0472" y="22.4790"
textLength="4.0737" font-size="1.6933" lengthAdjust="spacingAndGlyphs"
text-anchor="start" opacity="0">GND</text>
</g>
<g class="stroked-text"><desc>GND</desc>
<path d="M21.4172 20.7761
L21.3567 20.8971
" />
<path d="M21.3567 20.8971
L21.3567 21.0785
" />
<path d="M21.3567 21.0785
L21.4172 21.2599
" />
<path d="M21.4172 21.2599
L21.5382 21.3809
" />
<path d="M21.5382 21.3809
L21.6591 21.4414
" />
<path d="M21.6591 21.4414
L21.9010 21.5018
" />
<path d="M21.9010 21.5018
L22.0824 21.5018
" />
<path d="M22.0824 21.5018
L22.3243 21.4414
" />
<path d="M22.3243 21.4414
L22.4453 21.3809
" />
<path d="M22.4453 21.3809
L22.5663 21.2599
" />
<path d="M22.5663 21.2599
L22.6267 21.0785
" />
<path d="M22.6267 21.0785
L22.6267 20.9576
" />
<path d="M22.6267 20.9576
L22.5663 20.7761
" />
<path d="M22.5663 20.7761
L22.5058 20.7157
" />
<path d="M22.5058 20.7157
L22.0824 20.7157
" />
<path d="M22.0824 20.7157
L22.0824 20.9576
" />
<path d="M22.6267 20.1714
L21.3567 20.1714
" />
<path d="M21.3567 20.1714
L22.6267 19.4457
" />
<path d="M22.6267 19.4457
L21.3567 19.4457
" />
<path d="M22.6267 18.8409
L21.3567 18.8409
" />
<path d="M21.3567 18.8409
L21.3567 18.5385
" />
<path d="M21.3567 18.5385
L21.4172 18.3571
" />
<path d="M21.4172 18.3571
L21.5382 18.2361
" />
<path d="M21.5382 18.2361
L21.6591 18.1756
" />
<path d="M21.6591 18.1756
L21.9010 18.1152
" />
<path d="M21.9010 18.1152
L22.0824 18.1152
" />
<path d="M22.0824 18.1152
L22.3243 18.1756
" />
<path d="M22.3243 18.1756
L22.4453 18.2361
" />
<path d="M22.4453 18.2361
L22.5663 18.3571
" />
<path d="M22.5663 18.3571
L22.6267 18.5385
" />
<path d="M22.6267 18.5385
L22.6267 18.8409
" />
</g></g>
<g style="fill:#A90000; fill-opacity:0.0; 
stroke:#A90000; stroke-width:0.1524; stroke-opacity:1; 
stroke-linecap:round; stroke-linejoin:round;">
<g transform="rotate(-90.000000 21.7932 25.4000)">
<text x="21.7932" y="25.4000"
textLength="1.4127" font-size="1.6933" lengthAdjust="spacingAndGlyphs"
text-anchor="middle" opacity="0">7</text>
</g>
<g class="stroked-text"><desc>7</desc>
<path d="M20.3597 25.8232
L20.3597 24.9766
" />
<path d="M20.3597 24.9766
L21.6297 25.5208
" />
</g></g>
<g style="fill:#840084; fill-opacity:0.0; 
stroke:#840084; stroke-width:0.1524; stroke-opacity:1; 
stroke-linecap:round; stroke-linejoin:round;">
</g>
<g style="fill:#006464; fill-opacity:0.0; 
stroke:#006464; stroke-width:0.1524; stroke-opacity:1; 
stroke-linecap:round; stroke-linejoin:round;">
</g>
<g style="fill:#006464; fill-opacity:0.0; 
stroke:#006464; stroke-width:0.1588; stroke-opacity:1; 
stroke-linecap:round; stroke-linejoin:round;">
<text x="22.0472" y="20.9550"
textLength="3.9115" font-size="1.6933" lengthAdjust="spacingAndGlyphs"
text-anchor="middle" opacity="0">U?G</text>
<g class="stroked-text"><desc>U?G</desc>
<path d="M20.5050 19.6292
L20.5050 20.6573
" />
<path d="M20.5050 20.6573
L20.5655 20.7783
" />
<path d="M20.5655 20.7783
L20.6260 20.8388
" />
<path d="M20.6260 20.8388
L20.7469 20.8992
" />
<path d="M20.7469 20.8992
L20.9888 20.8992
" />
<path d="M20.9888 20.8992
L21.1098 20.8388
" />
<path d="M21.1098 20.8388
L21.1703 20.7783
" />
<path d="M21.1703 20.7783
L21.2307 20.6573
" />
<path d="M21.2307 20.6573
L21.2307 19.6292
" />
<path d="M22.0170 20.7783
L22.0774 20.8388
" />
<path d="M22.0774 20.8388
L22.0170 20.8992
" />
<path d="M22.0170 20.8992
L21.9565 20.8388
" />
<path d="M21.9565 20.8388
L22.0170 20.7783
" />
<path d="M22.0170 20.7783
L22.0170 20.8992
" />
<path d="M21.7751 19.6897
L21.8960 19.6292
" />
<path d="M21.8960 19.6292
L22.1984 19.6292
" />
<path d="M22.1984 19.6292
L22.3193 19.6897
" />
<path d="M22.3193 19.6897
L22.3798 19.8107
" />
<path d="M22.3798 19.8107
L22.3798 19.9316
" />
<path d="M22.3798 19.9316
L22.3193 20.0526
" />
<path d="M22.3193 20.0526
L22.2589 20.1130
" />
<path d="M22.2589 20.1130
L22.1379 20.1735
" />
<path d="M22.1379 20.1735
L22.0774 20.2340
" />
<path d="M22.0774 20.2340
L22.0170 20.3549
" />
<path d="M22.0170 20.3549
L22.0170 20.4154
" />
<path d="M23.5894 19.6897
L23.4684 19.6292
" />
<path d="M23.4684 19.6292
L23.2870 19.6292
" />
<path d="M23.2870 19.6292
L23.1056 19.6897
" />
<path d="M23.1056 19.6897
L22.9846 19.8107
" />
<path d="M22.9846 19.8107
L22.9241 19.9316
" />
<path d="M22.9241 19.9316
L22.8637 20.1735
" />
<path d="M22.8637 20.1735
L22.8637 20.3549
" />
<path d="M22.8637 20.3549
L22.9241 20.5968
" />
<path d="M22.9241 20.5968
L22.9846 20.7178
" />
<path d="M22.9846 20.7178
L23.1056 20.8388
" />
<path d="M23.1056 20.8388
L23.2870 20.8992
" />
<path d="M23.2870 20.8992
L23.4079 20.8992
" />
<path d="M23.4079 20.8992
L23.5894 20.8388
" />
<path d="M23.5894 20.8388
L23.6498 20.7783
" />
<path d="M23.6498 20.7783
L23.6498 20.3549
" />
<path d="M23.6498 20.3549
L23.4079 20.3549
" />
</g><text x="22.0472" y="23.4950"
textLength="13.8293" font-size="1.6933" lengthAdjust="spacingAndGlyphs"
text-anchor="middle" opacity="0">74HC14_small</text>
<g class="stroked-text"><desc>74HC14_small</desc>
<path d="M15.4252 22.1692
L16.2718 22.1692
" />
<path d="M16.2718 22.1692
L15.7276 23.4392
" />
<path d="M17.2999 22.5926
L17.2999 23.4392
" />
<path d="M16.9975 22.1088
L16.6952 23.0159
" />
<path d="M16.6952 23.0159
L17.4813 23.0159
" />
<path d="M17.9651 23.4392
L17.9651 22.1692
" />
<path d="M17.9651 22.7740
L18.6908 22.7740
" />
<path d="M18.6908 23.4392
L18.6908 22.1692
" />
<path d="M20.0213 23.3183
L19.9609 23.3788
" />
<path d="M19.9609 23.3788
L19.7794 23.4392
" />
<path d="M19.7794 23.4392
L19.6585 23.4392
" />
<path d="M19.6585 23.4392
L19.4771 23.3788
" />
<path d="M19.4771 23.3788
L19.3561 23.2578
" />
<path d="M19.3561 23.2578
L19.2956 23.1368
" />
<path d="M19.2956 23.1368
L19.2352 22.8949
" />
<path d="M19.2352 22.8949
L19.2352 22.7135
" />
<path d="M19.2352 22.7135
L19.2956 22.4716
" />
<path d="M19.2956 22.4716
L19.3561 22.3507
" />
<path d="M19.3561 22.3507
L19.4771 22.2297
" />
<path d="M19.4771 22.2297
L19.6585 22.1692
" />
<path d="M19.6585 22.1692
L19.7794 22.1692
" />
<path d="M19.7794 22.1692
L19.9609 22.2297
" />
<path d="M19.9609 22.2297
L20.0213 22.2902
" />
<path d="M21.2309 23.4392
L20.5052 23.4392
" />
<path d="M20.8680 23.4392
L20.8680 22.1692
" />
<path d="M20.8680 22.1692
L20.7471 22.3507
" />
<path d="M20.7471 22.3507
L20.6261 22.4716
" />
<path d="M20.6261 22.4716
L20.5052 22.5321
" />
<path d="M22.3194 22.5926
L22.3194 23.4392
" />
<path d="M22.0170 22.1088
L21.7147 23.0159
" />
<path d="M21.7147 23.0159
L22.5008 23.0159
" />
<path d="M22.6823 23.5602
L23.6499 23.5602
" />
<path d="M23.8918 23.3788
L24.0127 23.4392
" />
<path d="M24.0127 23.4392
L24.2546 23.4392
" />
<path d="M24.2546 23.4392
L24.3756 23.3788
" />
<path d="M24.3756 23.3788
L24.4360 23.2578
" />
<path d="M24.4360 23.2578
L24.4360 23.1973
" />
<path d="M24.4360 23.1973
L24.3756 23.0764
" />
<path d="M24.3756 23.0764
L24.2546 23.0159
" />
<path d="M24.2546 23.0159
L24.0732 23.0159
" />
<path d="M24.0732 23.0159
L23.9522 22.9554
" />
<path d="M23.9522 22.9554
L23.8918 22.8345
" />
<path d="M23.8918 22.8345
L23.8918 22.7740
" />
<path d="M23.8918 22.7740
L23.9522 22.6530
" />
<path d="M23.9522 22.6530
L24.0732 22.5926
" />
<path d="M24.0732 22.5926
L24.2546 22.5926
" />
<path d="M24.2546 22.5926
L24.3756 22.6530
" />
<path d="M24.9803 23.4392
L24.9803 22.5926
" />
<path d="M24.9803 22.7135
L25.0408 22.6530
" />
<path d="M25.0408 22.6530
L25.1618 22.5926
" />
<path d="M25.1618 22.5926
L25.3432 22.5926
" />
<path d="M25.3432 22.5926
L25.4641 22.6530
" />
<path d="M25.4641 22.6530
L25.5246 22.7740
" />
<path d="M25.5246 22.7740
L25.5246 23.4392
" />
<path d="M25.5246 22.7740
L25.5851 22.6530
" />
<path d="M25.5851 22.6530
L25.7060 22.5926
" />
<path d="M25.7060 22.5926
L25.8875 22.5926
" />
<path d="M25.8875 22.5926
L26.0084 22.6530
" />
<path d="M26.0084 22.6530
L26.0689 22.7740
" />
<path d="M26.0689 22.7740
L26.0689 23.4392
" />
<path d="M27.2179 23.4392
L27.2179 22.7740
" />
<path d="M27.2179 22.7740
L27.1574 22.6530
" />
<path d="M27.1574 22.6530
L27.0365 22.5926
" />
<path d="M27.0365 22.5926
L26.7946 22.5926
" />
<path d="M26.7946 22.5926
L26.6736 22.6530
" />
<path d="M27.2179 23.3788
L27.0970 23.4392
" />
<path d="M27.0970 23.4392
L26.7946 23.4392
" />
<path d="M26.7946 23.4392
L26.6736 23.3788
" />
<path d="M26.6736 23.3788
L26.6132 23.2578
" />
<path d="M26.6132 23.2578
L26.6132 23.1368
" />
<path d="M26.6132 23.1368
L26.6736 23.0159
" />
<path d="M26.6736 23.0159
L26.7946 22.9554
" />
<path d="M26.7946 22.9554
L27.0970 22.9554
" />
<path d="M27.0970 22.9554
L27.2179 22.8949
" />
<path d="M28.0041 23.4392
L27.8831 23.3788
" />
<path d="M27.8831 23.3788
L27.8226 23.2578
" />
<path d="M27.8226 23.2578
L27.8226 22.1692
" />
<path d="M28.6693 23.4392
L28.5483 23.3788
" />
<path d="M28.5483 23.3788
L28.4878 23.2578
" />
<path d="M28.4878 23.2578
L28.4878 22.1692
" />
</g></g> 
</svg>
