<?xml version="1.0" standalone="no"?>
 <!DOCTYPE svg PUBLIC "-//W3C//DTD SVG 1.1//EN" 
 "http://www.w3.org/Graphics/SVG/1.1/DTD/svg11.dtd"> 
<svg
  xmlns:svg="http://www.w3.org/2000/svg"
  xmlns="http://www.w3.org/2000/svg"
  xmlns:xlink="http://www.w3.org/1999/xlink"
  version="1.1"
  width="43.6626mm" height="21.0312mm" viewBox="0.0000 0.0000 43.6626 21.0312">
<title>SVG Image created as 74hc00_5_demorgan.svg date 2023/09/21 01:28:52 </title>
  <desc>Image generated by Eeschema-SVG </desc>
<g style="fill:#000000; fill-opacity:1.0000;stroke:#000000; stroke-opacity:1.0000;
stroke-linecap:round; stroke-linejoin:round;"
 transform="translate(0 0) scale(1 1)">
</g>
<g style="fill:#840000; fill-opacity:0.0; 
stroke:#840000; stroke-width:0.0000; stroke-opacity:1; 
stroke-linecap:round; stroke-linejoin:round;">
</g>
<g style="fill:#840084; fill-opacity:0.0; 
stroke:#840084; stroke-width:0.0000; stroke-opacity:1; 
stroke-linecap:round; stroke-linejoin:round;">
</g>
<g style="fill:#840000; fill-opacity:0.0; 
stroke:#840000; stroke-width:0.0000; stroke-opacity:1; 
stroke-linecap:round; stroke-linejoin:round;">
</g>
<g style="fill:#840000; fill-opacity:0.0; 
stroke:#840000; stroke-width:0.1524; stroke-opacity:1; 
stroke-linecap:round; stroke-linejoin:round;">
<path d="M21.8313 5.4356
L21.8313 2.8956
" />
</g>
<g style="fill:#006464; fill-opacity:0.0; 
stroke:#006464; stroke-width:0.1524; stroke-opacity:1; 
stroke-linecap:round; stroke-linejoin:round;">
<g transform="rotate(-90.000000 21.8313 6.4516)">
<text x="21.8313" y="7.0866"
textLength="3.8318" font-size="1.6933" lengthAdjust="spacingAndGlyphs"
text-anchor="end" opacity="0">VCC</text>
</g>
<g class="stroked-text"><desc>VCC</desc>
<path d="M21.1408 10.0594
L22.4108 9.6361
" />
<path d="M22.4108 9.6361
L21.1408 9.2127
" />
<path d="M22.2899 8.0637
L22.3504 8.1241
" />
<path d="M22.3504 8.1241
L22.4108 8.3056
" />
<path d="M22.4108 8.3056
L22.4108 8.4265
" />
<path d="M22.4108 8.4265
L22.3504 8.6079
" />
<path d="M22.3504 8.6079
L22.2294 8.7289
" />
<path d="M22.2294 8.7289
L22.1084 8.7894
" />
<path d="M22.1084 8.7894
L21.8665 8.8498
" />
<path d="M21.8665 8.8498
L21.6851 8.8498
" />
<path d="M21.6851 8.8498
L21.4432 8.7894
" />
<path d="M21.4432 8.7894
L21.3223 8.7289
" />
<path d="M21.3223 8.7289
L21.2013 8.6079
" />
<path d="M21.2013 8.6079
L21.1408 8.4265
" />
<path d="M21.1408 8.4265
L21.1408 8.3056
" />
<path d="M21.1408 8.3056
L21.2013 8.1241
" />
<path d="M21.2013 8.1241
L21.2618 8.0637
" />
<path d="M22.2899 6.7937
L22.3504 6.8541
" />
<path d="M22.3504 6.8541
L22.4108 7.0356
" />
<path d="M22.4108 7.0356
L22.4108 7.1565
" />
<path d="M22.4108 7.1565
L22.3504 7.3379
" />
<path d="M22.3504 7.3379
L22.2294 7.4589
" />
<path d="M22.2294 7.4589
L22.1084 7.5194
" />
<path d="M22.1084 7.5194
L21.8665 7.5798
" />
<path d="M21.8665 7.5798
L21.6851 7.5798
" />
<path d="M21.6851 7.5798
L21.4432 7.5194
" />
<path d="M21.4432 7.5194
L21.3223 7.4589
" />
<path d="M21.3223 7.4589
L21.2013 7.3379
" />
<path d="M21.2013 7.3379
L21.1408 7.1565
" />
<path d="M21.1408 7.1565
L21.1408 7.0356
" />
<path d="M21.1408 7.0356
L21.2013 6.8541
" />
<path d="M21.2013 6.8541
L21.2618 6.7937
" />
</g></g>
<g style="fill:#A90000; fill-opacity:0.0; 
stroke:#A90000; stroke-width:0.1524; stroke-opacity:1; 
stroke-linecap:round; stroke-linejoin:round;">
<g transform="rotate(-90.000000 21.5773 4.1656)">
<text x="21.5773" y="4.1656"
textLength="2.6222" font-size="1.6933" lengthAdjust="spacingAndGlyphs"
text-anchor="middle" opacity="0">14</text>
</g>
<g class="stroked-text"><desc>14</desc>
<path d="M21.4138 4.4074
L21.4138 5.1331
" />
<path d="M21.4138 4.7703
L20.1438 4.7703
" />
<path d="M20.1438 4.7703
L20.3253 4.8912
" />
<path d="M20.3253 4.8912
L20.4462 5.0122
" />
<path d="M20.4462 5.0122
L20.5067 5.1331
" />
<path d="M20.5672 3.3189
L21.4138 3.3189
" />
<path d="M20.0834 3.6213
L20.9905 3.9236
" />
<path d="M20.9905 3.9236
L20.9905 3.1375
" />
</g></g>
<g style="fill:#840000; fill-opacity:0.0; 
stroke:#840000; stroke-width:0.1524; stroke-opacity:1; 
stroke-linecap:round; stroke-linejoin:round;">
<path d="M21.8313 15.5956
L21.8313 18.1356
" />
</g>
<g style="fill:#006464; fill-opacity:0.0; 
stroke:#006464; stroke-width:0.1524; stroke-opacity:1; 
stroke-linecap:round; stroke-linejoin:round;">
<g transform="rotate(-90.000000 21.8313 14.5796)">
<text x="21.8313" y="15.2146"
textLength="4.0737" font-size="1.6933" lengthAdjust="spacingAndGlyphs"
text-anchor="start" opacity="0">GND</text>
</g>
<g class="stroked-text"><desc>GND</desc>
<path d="M21.2013 13.5117
L21.1408 13.6327
" />
<path d="M21.1408 13.6327
L21.1408 13.8141
" />
<path d="M21.1408 13.8141
L21.2013 13.9955
" />
<path d="M21.2013 13.9955
L21.3223 14.1165
" />
<path d="M21.3223 14.1165
L21.4432 14.1770
" />
<path d="M21.4432 14.1770
L21.6851 14.2374
" />
<path d="M21.6851 14.2374
L21.8665 14.2374
" />
<path d="M21.8665 14.2374
L22.1084 14.1770
" />
<path d="M22.1084 14.1770
L22.2294 14.1165
" />
<path d="M22.2294 14.1165
L22.3504 13.9955
" />
<path d="M22.3504 13.9955
L22.4108 13.8141
" />
<path d="M22.4108 13.8141
L22.4108 13.6932
" />
<path d="M22.4108 13.6932
L22.3504 13.5117
" />
<path d="M22.3504 13.5117
L22.2899 13.4513
" />
<path d="M22.2899 13.4513
L21.8665 13.4513
" />
<path d="M21.8665 13.4513
L21.8665 13.6932
" />
<path d="M22.4108 12.9070
L21.1408 12.9070
" />
<path d="M21.1408 12.9070
L22.4108 12.1813
" />
<path d="M22.4108 12.1813
L21.1408 12.1813
" />
<path d="M22.4108 11.5765
L21.1408 11.5765
" />
<path d="M21.1408 11.5765
L21.1408 11.2741
" />
<path d="M21.1408 11.2741
L21.2013 11.0927
" />
<path d="M21.2013 11.0927
L21.3223 10.9717
" />
<path d="M21.3223 10.9717
L21.4432 10.9112
" />
<path d="M21.4432 10.9112
L21.6851 10.8508
" />
<path d="M21.6851 10.8508
L21.8665 10.8508
" />
<path d="M21.8665 10.8508
L22.1084 10.9112
" />
<path d="M22.1084 10.9112
L22.2294 10.9717
" />
<path d="M22.2294 10.9717
L22.3504 11.0927
" />
<path d="M22.3504 11.0927
L22.4108 11.2741
" />
<path d="M22.4108 11.2741
L22.4108 11.5765
" />
</g></g>
<g style="fill:#A90000; fill-opacity:0.0; 
stroke:#A90000; stroke-width:0.1524; stroke-opacity:1; 
stroke-linecap:round; stroke-linejoin:round;">
<g transform="rotate(-90.000000 21.5773 16.8656)">
<text x="21.5773" y="16.8656"
textLength="1.4127" font-size="1.6933" lengthAdjust="spacingAndGlyphs"
text-anchor="middle" opacity="0">7</text>
</g>
<g class="stroked-text"><desc>7</desc>
<path d="M20.1438 17.2888
L20.1438 16.4422
" />
<path d="M20.1438 16.4422
L21.4138 16.9864
" />
</g></g>
<g style="fill:#840084; fill-opacity:0.0; 
stroke:#840084; stroke-width:0.1524; stroke-opacity:1; 
stroke-linecap:round; stroke-linejoin:round;">
</g>
<g style="fill:#006464; fill-opacity:0.0; 
stroke:#006464; stroke-width:0.1524; stroke-opacity:1; 
stroke-linecap:round; stroke-linejoin:round;">
</g>
<g style="fill:#006464; fill-opacity:0.0; 
stroke:#006464; stroke-width:0.1588; stroke-opacity:1; 
stroke-linecap:round; stroke-linejoin:round;">
<text x="28.1813" y="2.2606"
textLength="3.7905" font-size="1.6933" lengthAdjust="spacingAndGlyphs"
text-anchor="middle" opacity="0">U?E</text>
<g class="stroked-text"><desc>U?E</desc>
<path d="M26.6996 0.9348
L26.6996 1.9629
" />
<path d="M26.6996 1.9629
L26.7601 2.0839
" />
<path d="M26.7601 2.0839
L26.8206 2.1444
" />
<path d="M26.8206 2.1444
L26.9415 2.2048
" />
<path d="M26.9415 2.2048
L27.1834 2.2048
" />
<path d="M27.1834 2.2048
L27.3044 2.1444
" />
<path d="M27.3044 2.1444
L27.3649 2.0839
" />
<path d="M27.3649 2.0839
L27.4253 1.9629
" />
<path d="M27.4253 1.9629
L27.4253 0.9348
" />
<path d="M28.2116 2.0839
L28.2720 2.1444
" />
<path d="M28.2720 2.1444
L28.2116 2.2048
" />
<path d="M28.2116 2.2048
L28.1511 2.1444
" />
<path d="M28.1511 2.1444
L28.2116 2.0839
" />
<path d="M28.2116 2.0839
L28.2116 2.2048
" />
<path d="M27.9697 0.9953
L28.0906 0.9348
" />
<path d="M28.0906 0.9348
L28.3930 0.9348
" />
<path d="M28.3930 0.9348
L28.5139 0.9953
" />
<path d="M28.5139 0.9953
L28.5744 1.1163
" />
<path d="M28.5744 1.1163
L28.5744 1.2372
" />
<path d="M28.5744 1.2372
L28.5139 1.3582
" />
<path d="M28.5139 1.3582
L28.4535 1.4186
" />
<path d="M28.4535 1.4186
L28.3325 1.4791
" />
<path d="M28.3325 1.4791
L28.2720 1.5396
" />
<path d="M28.2720 1.5396
L28.2116 1.6605
" />
<path d="M28.2116 1.6605
L28.2116 1.7210
" />
<path d="M29.1187 1.5396
L29.5421 1.5396
" />
<path d="M29.7235 2.2048
L29.1187 2.2048
" />
<path d="M29.1187 2.2048
L29.1187 0.9348
" />
<path d="M29.1187 0.9348
L29.7235 0.9348
" />
</g><text x="28.1813" y="4.8006"
textLength="7.6609" font-size="1.6933" lengthAdjust="spacingAndGlyphs"
text-anchor="middle" opacity="0">74HC00</text>
<g class="stroked-text"><desc>74HC00</desc>
<path d="M24.6435 3.4748
L25.4901 3.4748
" />
<path d="M25.4901 3.4748
L24.9459 4.7448
" />
<path d="M26.5182 3.8982
L26.5182 4.7448
" />
<path d="M26.2158 3.4144
L25.9135 4.3215
" />
<path d="M25.9135 4.3215
L26.6996 4.3215
" />
<path d="M27.1834 4.7448
L27.1834 3.4748
" />
<path d="M27.1834 4.0796
L27.9091 4.0796
" />
<path d="M27.9091 4.7448
L27.9091 3.4748
" />
<path d="M29.2396 4.6239
L29.1792 4.6844
" />
<path d="M29.1792 4.6844
L28.9977 4.7448
" />
<path d="M28.9977 4.7448
L28.8768 4.7448
" />
<path d="M28.8768 4.7448
L28.6954 4.6844
" />
<path d="M28.6954 4.6844
L28.5744 4.5634
" />
<path d="M28.5744 4.5634
L28.5139 4.4424
" />
<path d="M28.5139 4.4424
L28.4535 4.2005
" />
<path d="M28.4535 4.2005
L28.4535 4.0191
" />
<path d="M28.4535 4.0191
L28.5139 3.7772
" />
<path d="M28.5139 3.7772
L28.5744 3.6563
" />
<path d="M28.5744 3.6563
L28.6954 3.5353
" />
<path d="M28.6954 3.5353
L28.8768 3.4748
" />
<path d="M28.8768 3.4748
L28.9977 3.4748
" />
<path d="M28.9977 3.4748
L29.1792 3.5353
" />
<path d="M29.1792 3.5353
L29.2396 3.5958
" />
<path d="M30.0258 3.4748
L30.1468 3.4748
" />
<path d="M30.1468 3.4748
L30.2677 3.5353
" />
<path d="M30.2677 3.5353
L30.3282 3.5958
" />
<path d="M30.3282 3.5958
L30.3887 3.7167
" />
<path d="M30.3887 3.7167
L30.4492 3.9586
" />
<path d="M30.4492 3.9586
L30.4492 4.2610
" />
<path d="M30.4492 4.2610
L30.3887 4.5029
" />
<path d="M30.3887 4.5029
L30.3282 4.6239
" />
<path d="M30.3282 4.6239
L30.2677 4.6844
" />
<path d="M30.2677 4.6844
L30.1468 4.7448
" />
<path d="M30.1468 4.7448
L30.0258 4.7448
" />
<path d="M30.0258 4.7448
L29.9049 4.6844
" />
<path d="M29.9049 4.6844
L29.8444 4.6239
" />
<path d="M29.8444 4.6239
L29.7839 4.5029
" />
<path d="M29.7839 4.5029
L29.7235 4.2610
" />
<path d="M29.7235 4.2610
L29.7235 3.9586
" />
<path d="M29.7235 3.9586
L29.7839 3.7167
" />
<path d="M29.7839 3.7167
L29.8444 3.5958
" />
<path d="M29.8444 3.5958
L29.9049 3.5353
" />
<path d="M29.9049 3.5353
L30.0258 3.4748
" />
<path d="M31.2353 3.4748
L31.3563 3.4748
" />
<path d="M31.3563 3.4748
L31.4772 3.5353
" />
<path d="M31.4772 3.5353
L31.5377 3.5958
" />
<path d="M31.5377 3.5958
L31.5982 3.7167
" />
<path d="M31.5982 3.7167
L31.6587 3.9586
" />
<path d="M31.6587 3.9586
L31.6587 4.2610
" />
<path d="M31.6587 4.2610
L31.5982 4.5029
" />
<path d="M31.5982 4.5029
L31.5377 4.6239
" />
<path d="M31.5377 4.6239
L31.4772 4.6844
" />
<path d="M31.4772 4.6844
L31.3563 4.7448
" />
<path d="M31.3563 4.7448
L31.2353 4.7448
" />
<path d="M31.2353 4.7448
L31.1144 4.6844
" />
<path d="M31.1144 4.6844
L31.0539 4.6239
" />
<path d="M31.0539 4.6239
L30.9934 4.5029
" />
<path d="M30.9934 4.5029
L30.9330 4.2610
" />
<path d="M30.9330 4.2610
L30.9330 3.9586
" />
<path d="M30.9330 3.9586
L30.9934 3.7167
" />
<path d="M30.9934 3.7167
L31.0539 3.5958
" />
<path d="M31.0539 3.5958
L31.1144 3.5353
" />
<path d="M31.1144 3.5353
L31.2353 3.4748
" />
</g></g> 
</svg>
