<?xml version="1.0" standalone="no"?>
 <!DOCTYPE svg PUBLIC "-//W3C//DTD SVG 1.1//EN" 
 "http://www.w3.org/Graphics/SVG/1.1/DTD/svg11.dtd"> 
<svg
  xmlns:svg="http://www.w3.org/2000/svg"
  xmlns="http://www.w3.org/2000/svg"
  xmlns:xlink="http://www.w3.org/1999/xlink"
  version="1.1"
  width="43.6626mm" height="17.7038mm" viewBox="0.0000 0.0000 43.6626 17.7038">
<title>SVG Image created as 74hc00_3_demorgan.svg date 2023/09/21 01:25:16 </title>
  <desc>Image generated by Eeschema-SVG </desc>
<g style="fill:#000000; fill-opacity:1.0000;stroke:#000000; stroke-opacity:1.0000;
stroke-linecap:round; stroke-linejoin:round;"
 transform="translate(0 0) scale(1 1)">
</g>
<g style="fill:#840000; fill-opacity:0.0; 
stroke:#840000; stroke-width:0.0000; stroke-opacity:1; 
stroke-linecap:round; stroke-linejoin:round;">
</g>
<g style="fill:#FFFFC2; fill-opacity:0.0; 
stroke:#FFFFC2; stroke-width:0.0000; stroke-opacity:1; 
stroke-linecap:round; stroke-linejoin:round;">
</g>
<g style="fill:#FFFFC2; fill-opacity:1.0000; 
stroke:#FFFFC2; stroke-width:0.0000; stroke-opacity:1; 
stroke-linecap:round; stroke-linejoin:round;">
<path d="M21.2217 12.6618 A5.1960 5.1960 0.0 0 0 25.6412 8.8519 L 20.6241 7.5003 Z" />
</g>
<g style="fill:#FFFFC2; fill-opacity:0.0; 
stroke:#FFFFC2; stroke-width:0.0000; stroke-opacity:1; 
stroke-linecap:round; stroke-linejoin:round;">
<path d="M21.2217 12.6618 A5.1960 5.1960 0.0 0 0 25.6412 8.8519" />
</g>
<g style="fill:#FFFFC2; fill-opacity:1.0000; 
stroke:#FFFFC2; stroke-width:0.0000; stroke-opacity:1; 
stroke-linecap:round; stroke-linejoin:round;">
<path style="fill:#FFFFC2; fill-opacity:1.0000; 
stroke:#FFFFC2; stroke-width:0.0000; stroke-opacity:1; 
stroke-linecap:round; stroke-linejoin:round;fill-rule:evenodd;"
d="M 18.0213,12.6619
21.1963,12.6619
" /> 
<path style="fill:#FFFFC2; fill-opacity:1.0000; 
stroke:#FFFFC2; stroke-width:0.0000; stroke-opacity:1; 
stroke-linecap:round; stroke-linejoin:round;fill-rule:evenodd;"
d="M 18.0213,5.0419
21.1963,5.0419
" /> 
<path style="fill:#FFFFC2; fill-opacity:1.0000; 
stroke:#FFFFC2; stroke-width:0.0000; stroke-opacity:1; 
stroke-linecap:round; stroke-linejoin:round;fill-rule:evenodd;"
d="M 21.1963,5.0419
18.0213,5.0419
18.0213,5.0419
18.2753,5.4483
18.8087,6.5913
19.1389,7.8105
19.2151,9.1059
19.0627,10.3505
18.6563,11.5697
18.0213,12.6619
18.0213,12.6619
21.1963,12.6619
" /> 
<path d="M25.6412 8.8519 A5.1430 5.1430 0.0 0 0 21.2217 5.0419 L 20.6660 10.1548 Z" />
</g>
<g style="fill:#FFFFC2; fill-opacity:0.0; 
stroke:#FFFFC2; stroke-width:0.0000; stroke-opacity:1; 
stroke-linecap:round; stroke-linejoin:round;">
<path d="M25.6412 8.8519 A5.1430 5.1430 0.0 0 0 21.2217 5.0419" />
</g>
<g style="fill:#840084; fill-opacity:0.0; 
stroke:#840084; stroke-width:0.0000; stroke-opacity:1; 
stroke-linecap:round; stroke-linejoin:round;">
</g>
<g style="fill:#840000; fill-opacity:0.0; 
stroke:#840000; stroke-width:0.0000; stroke-opacity:1; 
stroke-linecap:round; stroke-linejoin:round;">
</g>
<g style="fill:#840000; fill-opacity:0.0; 
stroke:#840000; stroke-width:0.2540; stroke-opacity:1; 
stroke-linecap:round; stroke-linejoin:round;">
<path d="M18.0213 12.6619 A6.5548 6.5548 0.0 0 0 18.0213 5.0419" />
<path d="M21.2217 12.6618 A5.1960 5.1960 0.0 0 0 25.6412 8.8519" />
<path style="fill:#840000; fill-opacity:0.0; 
stroke:#840000; stroke-width:0.2540; stroke-opacity:1; 
stroke-linecap:round; stroke-linejoin:round;fill:none"
d="M 18.0213,12.6619
21.1963,12.6619
" /> 
<path style="fill:#840000; fill-opacity:0.0; 
stroke:#840000; stroke-width:0.2540; stroke-opacity:1; 
stroke-linecap:round; stroke-linejoin:round;fill:none"
d="M 18.0213,5.0419
21.1963,5.0419
" /> 
</g>
<g style="fill:#840000; fill-opacity:0.0; 
stroke:#840000; stroke-width:0.0000; stroke-opacity:1; 
stroke-linecap:round; stroke-linejoin:round;">
<path style="fill:#840000; fill-opacity:0.0; 
stroke:#840000; stroke-width:0.0000; stroke-opacity:1; 
stroke-linecap:round; stroke-linejoin:round;fill:none"
d="M 21.1963,5.0419
18.0213,5.0419
18.0213,5.0419
18.2753,5.4483
18.8087,6.5913
19.1389,7.8105
19.2151,9.1059
19.0627,10.3505
18.6563,11.5697
18.0213,12.6619
18.0213,12.6619
21.1963,12.6619
" /> 
</g>
<g style="fill:#840000; fill-opacity:0.0; 
stroke:#840000; stroke-width:0.2540; stroke-opacity:1; 
stroke-linecap:round; stroke-linejoin:round;">
<path d="M25.6412 8.8519 A5.1430 5.1430 0.0 0 0 21.2217 5.0419" />
</g>
<g style="fill:#840000; fill-opacity:0.0; 
stroke:#840000; stroke-width:0.1524; stroke-opacity:1; 
stroke-linecap:round; stroke-linejoin:round;">
<circle cx="17.8943" cy="11.3919" r="0.6350" /> 
<path d="M17.2593 11.3919
L14.2113 11.3919
" />
</g>
<g style="fill:#A90000; fill-opacity:0.0; 
stroke:#A90000; stroke-width:0.1524; stroke-opacity:1; 
stroke-linecap:round; stroke-linejoin:round;">
<text x="16.3703" y="11.1379"
textLength="2.6222" font-size="1.6933" lengthAdjust="spacingAndGlyphs"
text-anchor="middle" opacity="0">10</text>
<g class="stroked-text"><desc>10</desc>
<path d="M16.1284 10.9744
L15.4027 10.9744
" />
<path d="M15.7655 10.9744
L15.7655 9.7044
" />
<path d="M15.7655 9.7044
L15.6446 9.8859
" />
<path d="M15.6446 9.8859
L15.5236 10.0068
" />
<path d="M15.5236 10.0068
L15.4027 10.0673
" />
<path d="M16.9145 9.7044
L17.0355 9.7044
" />
<path d="M17.0355 9.7044
L17.1564 9.7649
" />
<path d="M17.1564 9.7649
L17.2169 9.8254
" />
<path d="M17.2169 9.8254
L17.2774 9.9463
" />
<path d="M17.2774 9.9463
L17.3379 10.1882
" />
<path d="M17.3379 10.1882
L17.3379 10.4906
" />
<path d="M17.3379 10.4906
L17.2774 10.7325
" />
<path d="M17.2774 10.7325
L17.2169 10.8535
" />
<path d="M17.2169 10.8535
L17.1564 10.9140
" />
<path d="M17.1564 10.9140
L17.0355 10.9744
" />
<path d="M17.0355 10.9744
L16.9145 10.9744
" />
<path d="M16.9145 10.9744
L16.7936 10.9140
" />
<path d="M16.7936 10.9140
L16.7331 10.8535
" />
<path d="M16.7331 10.8535
L16.6726 10.7325
" />
<path d="M16.6726 10.7325
L16.6122 10.4906
" />
<path d="M16.6122 10.4906
L16.6122 10.1882
" />
<path d="M16.6122 10.1882
L16.6726 9.9463
" />
<path d="M16.6726 9.9463
L16.7331 9.8254
" />
<path d="M16.7331 9.8254
L16.7936 9.7649
" />
<path d="M16.7936 9.7649
L16.9145 9.7044
" />
</g></g>
<g style="fill:#840000; fill-opacity:0.0; 
stroke:#840000; stroke-width:0.1524; stroke-opacity:1; 
stroke-linecap:round; stroke-linejoin:round;">
<path d="M25.6413 8.8519
L29.4513 8.8519
" />
</g>
<g style="fill:#A90000; fill-opacity:0.0; 
stroke:#A90000; stroke-width:0.1524; stroke-opacity:1; 
stroke-linecap:round; stroke-linejoin:round;">
<text x="27.5463" y="8.5979"
textLength="1.4127" font-size="1.6933" lengthAdjust="spacingAndGlyphs"
text-anchor="middle" opacity="0">8</text>
<g class="stroked-text"><desc>8</desc>
<path d="M27.4254 7.7087
L27.3044 7.6482
" />
<path d="M27.3044 7.6482
L27.2439 7.5878
" />
<path d="M27.2439 7.5878
L27.1835 7.4668
" />
<path d="M27.1835 7.4668
L27.1835 7.4063
" />
<path d="M27.1835 7.4063
L27.2439 7.2854
" />
<path d="M27.2439 7.2854
L27.3044 7.2249
" />
<path d="M27.3044 7.2249
L27.4254 7.1644
" />
<path d="M27.4254 7.1644
L27.6673 7.1644
" />
<path d="M27.6673 7.1644
L27.7882 7.2249
" />
<path d="M27.7882 7.2249
L27.8487 7.2854
" />
<path d="M27.8487 7.2854
L27.9092 7.4063
" />
<path d="M27.9092 7.4063
L27.9092 7.4668
" />
<path d="M27.9092 7.4668
L27.8487 7.5878
" />
<path d="M27.8487 7.5878
L27.7882 7.6482
" />
<path d="M27.7882 7.6482
L27.6673 7.7087
" />
<path d="M27.6673 7.7087
L27.4254 7.7087
" />
<path d="M27.4254 7.7087
L27.3044 7.7692
" />
<path d="M27.3044 7.7692
L27.2439 7.8297
" />
<path d="M27.2439 7.8297
L27.1835 7.9506
" />
<path d="M27.1835 7.9506
L27.1835 8.1925
" />
<path d="M27.1835 8.1925
L27.2439 8.3135
" />
<path d="M27.2439 8.3135
L27.3044 8.3740
" />
<path d="M27.3044 8.3740
L27.4254 8.4344
" />
<path d="M27.4254 8.4344
L27.6673 8.4344
" />
<path d="M27.6673 8.4344
L27.7882 8.3740
" />
<path d="M27.7882 8.3740
L27.8487 8.3135
" />
<path d="M27.8487 8.3135
L27.9092 8.1925
" />
<path d="M27.9092 8.1925
L27.9092 7.9506
" />
<path d="M27.9092 7.9506
L27.8487 7.8297
" />
<path d="M27.8487 7.8297
L27.7882 7.7692
" />
<path d="M27.7882 7.7692
L27.6673 7.7087
" />
</g></g>
<g style="fill:#840000; fill-opacity:0.0; 
stroke:#840000; stroke-width:0.1524; stroke-opacity:1; 
stroke-linecap:round; stroke-linejoin:round;">
<circle cx="17.8943" cy="6.3119" r="0.6350" /> 
<path d="M17.2593 6.3119
L14.2113 6.3119
" />
</g>
<g style="fill:#A90000; fill-opacity:0.0; 
stroke:#A90000; stroke-width:0.1524; stroke-opacity:1; 
stroke-linecap:round; stroke-linejoin:round;">
<text x="16.3703" y="6.0579"
textLength="1.4127" font-size="1.6933" lengthAdjust="spacingAndGlyphs"
text-anchor="middle" opacity="0">9</text>
<g class="stroked-text"><desc>9</desc>
<path d="M16.1284 5.8944
L16.3703 5.8944
" />
<path d="M16.3703 5.8944
L16.4913 5.8340
" />
<path d="M16.4913 5.8340
L16.5517 5.7735
" />
<path d="M16.5517 5.7735
L16.6727 5.5920
" />
<path d="M16.6727 5.5920
L16.7332 5.3501
" />
<path d="M16.7332 5.3501
L16.7332 4.8663
" />
<path d="M16.7332 4.8663
L16.6727 4.7454
" />
<path d="M16.6727 4.7454
L16.6122 4.6849
" />
<path d="M16.6122 4.6849
L16.4913 4.6244
" />
<path d="M16.4913 4.6244
L16.2494 4.6244
" />
<path d="M16.2494 4.6244
L16.1284 4.6849
" />
<path d="M16.1284 4.6849
L16.0679 4.7454
" />
<path d="M16.0679 4.7454
L16.0075 4.8663
" />
<path d="M16.0075 4.8663
L16.0075 5.1687
" />
<path d="M16.0075 5.1687
L16.0679 5.2897
" />
<path d="M16.0679 5.2897
L16.1284 5.3501
" />
<path d="M16.1284 5.3501
L16.2494 5.4106
" />
<path d="M16.2494 5.4106
L16.4913 5.4106
" />
<path d="M16.4913 5.4106
L16.6122 5.3501
" />
<path d="M16.6122 5.3501
L16.6727 5.2897
" />
<path d="M16.6727 5.2897
L16.7332 5.1687
" />
</g></g>
<g style="fill:#840084; fill-opacity:0.0; 
stroke:#840084; stroke-width:0.1524; stroke-opacity:1; 
stroke-linecap:round; stroke-linejoin:round;">
</g>
<g style="fill:#006464; fill-opacity:0.0; 
stroke:#006464; stroke-width:0.1524; stroke-opacity:1; 
stroke-linecap:round; stroke-linejoin:round;">
</g>
<g style="fill:#006464; fill-opacity:0.0; 
stroke:#006464; stroke-width:0.1588; stroke-opacity:1; 
stroke-linecap:round; stroke-linejoin:round;">
<text x="28.1813" y="0.5969"
textLength="3.9115" font-size="1.6933" lengthAdjust="spacingAndGlyphs"
text-anchor="middle" opacity="0">U?C</text>
<g class="stroked-text"><desc>U?C</desc>
<path d="M26.6391 -0.7288
L26.6391 0.2992
" />
<path d="M26.6391 0.2992
L26.6996 0.4202
" />
<path d="M26.6996 0.4202
L26.7601 0.4807
" />
<path d="M26.7601 0.4807
L26.8810 0.5411
" />
<path d="M26.8810 0.5411
L27.1229 0.5411
" />
<path d="M27.1229 0.5411
L27.2439 0.4807
" />
<path d="M27.2439 0.4807
L27.3044 0.4202
" />
<path d="M27.3044 0.4202
L27.3648 0.2992
" />
<path d="M27.3648 0.2992
L27.3648 -0.7288
" />
<path d="M28.1511 0.4202
L28.2115 0.4807
" />
<path d="M28.2115 0.4807
L28.1511 0.5411
" />
<path d="M28.1511 0.5411
L28.0906 0.4807
" />
<path d="M28.0906 0.4807
L28.1511 0.4202
" />
<path d="M28.1511 0.4202
L28.1511 0.5411
" />
<path d="M27.9092 -0.6683
L28.0301 -0.7288
" />
<path d="M28.0301 -0.7288
L28.3325 -0.7288
" />
<path d="M28.3325 -0.7288
L28.4534 -0.6683
" />
<path d="M28.4534 -0.6683
L28.5139 -0.5473
" />
<path d="M28.5139 -0.5473
L28.5139 -0.4264
" />
<path d="M28.5139 -0.4264
L28.4534 -0.3054
" />
<path d="M28.4534 -0.3054
L28.3930 -0.2450
" />
<path d="M28.3930 -0.2450
L28.2720 -0.1845
" />
<path d="M28.2720 -0.1845
L28.2115 -0.1240
" />
<path d="M28.2115 -0.1240
L28.1511 -0.0031
" />
<path d="M28.1511 -0.0031
L28.1511 0.0573
" />
<path d="M29.7839 0.4202
L29.7235 0.4807
" />
<path d="M29.7235 0.4807
L29.5420 0.5411
" />
<path d="M29.5420 0.5411
L29.4211 0.5411
" />
<path d="M29.4211 0.5411
L29.2397 0.4807
" />
<path d="M29.2397 0.4807
L29.1187 0.3597
" />
<path d="M29.1187 0.3597
L29.0582 0.2387
" />
<path d="M29.0582 0.2387
L28.9978 -0.0031
" />
<path d="M28.9978 -0.0031
L28.9978 -0.1845
" />
<path d="M28.9978 -0.1845
L29.0582 -0.4264
" />
<path d="M29.0582 -0.4264
L29.1187 -0.5473
" />
<path d="M29.1187 -0.5473
L29.2397 -0.6683
" />
<path d="M29.2397 -0.6683
L29.4211 -0.7288
" />
<path d="M29.4211 -0.7288
L29.5420 -0.7288
" />
<path d="M29.5420 -0.7288
L29.7235 -0.6683
" />
<path d="M29.7235 -0.6683
L29.7839 -0.6078
" />
</g><text x="28.1813" y="3.1369"
textLength="7.6609" font-size="1.6933" lengthAdjust="spacingAndGlyphs"
text-anchor="middle" opacity="0">74HC00</text>
<g class="stroked-text"><desc>74HC00</desc>
<path d="M24.6435 1.8111
L25.4901 1.8111
" />
<path d="M25.4901 1.8111
L24.9459 3.0811
" />
<path d="M26.5182 2.2345
L26.5182 3.0811
" />
<path d="M26.2158 1.7507
L25.9135 2.6578
" />
<path d="M25.9135 2.6578
L26.6996 2.6578
" />
<path d="M27.1834 3.0811
L27.1834 1.8111
" />
<path d="M27.1834 2.4159
L27.9091 2.4159
" />
<path d="M27.9091 3.0811
L27.9091 1.8111
" />
<path d="M29.2396 2.9602
L29.1792 3.0207
" />
<path d="M29.1792 3.0207
L28.9977 3.0811
" />
<path d="M28.9977 3.0811
L28.8768 3.0811
" />
<path d="M28.8768 3.0811
L28.6954 3.0207
" />
<path d="M28.6954 3.0207
L28.5744 2.8997
" />
<path d="M28.5744 2.8997
L28.5139 2.7787
" />
<path d="M28.5139 2.7787
L28.4535 2.5368
" />
<path d="M28.4535 2.5368
L28.4535 2.3554
" />
<path d="M28.4535 2.3554
L28.5139 2.1135
" />
<path d="M28.5139 2.1135
L28.5744 1.9926
" />
<path d="M28.5744 1.9926
L28.6954 1.8716
" />
<path d="M28.6954 1.8716
L28.8768 1.8111
" />
<path d="M28.8768 1.8111
L28.9977 1.8111
" />
<path d="M28.9977 1.8111
L29.1792 1.8716
" />
<path d="M29.1792 1.8716
L29.2396 1.9321
" />
<path d="M30.0258 1.8111
L30.1468 1.8111
" />
<path d="M30.1468 1.8111
L30.2677 1.8716
" />
<path d="M30.2677 1.8716
L30.3282 1.9321
" />
<path d="M30.3282 1.9321
L30.3887 2.0530
" />
<path d="M30.3887 2.0530
L30.4492 2.2949
" />
<path d="M30.4492 2.2949
L30.4492 2.5973
" />
<path d="M30.4492 2.5973
L30.3887 2.8392
" />
<path d="M30.3887 2.8392
L30.3282 2.9602
" />
<path d="M30.3282 2.9602
L30.2677 3.0207
" />
<path d="M30.2677 3.0207
L30.1468 3.0811
" />
<path d="M30.1468 3.0811
L30.0258 3.0811
" />
<path d="M30.0258 3.0811
L29.9049 3.0207
" />
<path d="M29.9049 3.0207
L29.8444 2.9602
" />
<path d="M29.8444 2.9602
L29.7839 2.8392
" />
<path d="M29.7839 2.8392
L29.7235 2.5973
" />
<path d="M29.7235 2.5973
L29.7235 2.2949
" />
<path d="M29.7235 2.2949
L29.7839 2.0530
" />
<path d="M29.7839 2.0530
L29.8444 1.9321
" />
<path d="M29.8444 1.9321
L29.9049 1.8716
" />
<path d="M29.9049 1.8716
L30.0258 1.8111
" />
<path d="M31.2353 1.8111
L31.3563 1.8111
" />
<path d="M31.3563 1.8111
L31.4772 1.8716
" />
<path d="M31.4772 1.8716
L31.5377 1.9321
" />
<path d="M31.5377 1.9321
L31.5982 2.0530
" />
<path d="M31.5982 2.0530
L31.6587 2.2949
" />
<path d="M31.6587 2.2949
L31.6587 2.5973
" />
<path d="M31.6587 2.5973
L31.5982 2.8392
" />
<path d="M31.5982 2.8392
L31.5377 2.9602
" />
<path d="M31.5377 2.9602
L31.4772 3.0207
" />
<path d="M31.4772 3.0207
L31.3563 3.0811
" />
<path d="M31.3563 3.0811
L31.2353 3.0811
" />
<path d="M31.2353 3.0811
L31.1144 3.0207
" />
<path d="M31.1144 3.0207
L31.0539 2.9602
" />
<path d="M31.0539 2.9602
L30.9934 2.8392
" />
<path d="M30.9934 2.8392
L30.9330 2.5973
" />
<path d="M30.9330 2.5973
L30.9330 2.2949
" />
<path d="M30.9330 2.2949
L30.9934 2.0530
" />
<path d="M30.9934 2.0530
L31.0539 1.9321
" />
<path d="M31.0539 1.9321
L31.1144 1.8716
" />
<path d="M31.1144 1.8716
L31.2353 1.8111
" />
</g></g> 
</svg>
