<?xml version="1.0" standalone="no"?>
 <!DOCTYPE svg PUBLIC "-//W3C//DTD SVG 1.1//EN" 
 "http://www.w3.org/Graphics/SVG/1.1/DTD/svg11.dtd"> 
<svg
  xmlns:svg="http://www.w3.org/2000/svg"
  xmlns="http://www.w3.org/2000/svg"
  xmlns:xlink="http://www.w3.org/1999/xlink"
  version="1.1"
  width="28.2702mm" height="33.2232mm" viewBox="0.0000 0.0000 28.2702 33.2232">
<title>SVG Image created as cxo_dip-8-14.svg date 2023/09/25 15:20:43 </title>
  <desc>Image generated by Eeschema-SVG </desc>
<g style="fill:#000000; fill-opacity:1.0000;stroke:#000000; stroke-opacity:1.0000;
stroke-linecap:round; stroke-linejoin:round;"
 transform="translate(0 0) scale(1 1)">
</g>
<g style="fill:#840000; fill-opacity:0.0; 
stroke:#840000; stroke-width:0.0000; stroke-opacity:1; 
stroke-linecap:round; stroke-linejoin:round;">
</g>
<g style="fill:#FFFFC2; fill-opacity:0.0; 
stroke:#FFFFC2; stroke-width:0.0000; stroke-opacity:1; 
stroke-linecap:round; stroke-linejoin:round;">
</g>
<g style="fill:#FFFFC2; fill-opacity:1.0000; 
stroke:#FFFFC2; stroke-width:0.0000; stroke-opacity:1; 
stroke-linecap:round; stroke-linejoin:round;">
<rect x="9.055100" y="11.531600" width="10.160000" height="10.160000" rx="0.000000" />
</g>
<g style="fill:#840084; fill-opacity:1.0000; 
stroke:#840084; stroke-width:0.0000; stroke-opacity:1; 
stroke-linecap:round; stroke-linejoin:round;">
</g>
<g style="fill:#840000; fill-opacity:1.0000; 
stroke:#840000; stroke-width:0.0000; stroke-opacity:1; 
stroke-linecap:round; stroke-linejoin:round;">
</g>
<g style="fill:#840000; fill-opacity:0.0; 
stroke:#840000; stroke-width:0.2540; stroke-opacity:1; 
stroke-linecap:round; stroke-linejoin:round;">
<rect x="9.055100" y="11.531600" width="10.160000" height="10.160000" rx="0.000000" />
</g>
<g style="fill:#840000; fill-opacity:0.0; 
stroke:#840000; stroke-width:0.1524; stroke-opacity:1; 
stroke-linecap:round; stroke-linejoin:round;">
<path style="fill:#840000; fill-opacity:0.0; 
stroke:#840000; stroke-width:0.1524; stroke-opacity:1; 
stroke-linecap:round; stroke-linejoin:round;fill:none"
d="M 12.2301,17.2466
12.8651,17.2466
12.8651,15.9766
13.5001,15.9766
13.5001,17.2466
14.1351,17.2466
14.1351,15.9766
14.7701,15.9766
14.7701,17.2466
" /> 
<path d="M9.0551 16.6116
L6.5151 16.6116
" />
</g>
<g style="fill:#006464; fill-opacity:0.0; 
stroke:#006464; stroke-width:0.1524; stroke-opacity:1; 
stroke-linecap:round; stroke-linejoin:round;">
<text x="9.5631" y="17.2466"
textLength="2.6827" font-size="1.6933" lengthAdjust="spacingAndGlyphs"
text-anchor="start" opacity="0">EN</text>
<g class="stroked-text"><desc>EN</desc>
<path d="M9.9656 16.5259
L10.3890 16.5259
" />
<path d="M10.5704 17.1911
L9.9656 17.1911
" />
<path d="M9.9656 17.1911
L9.9656 15.9211
" />
<path d="M9.9656 15.9211
L10.5704 15.9211
" />
<path d="M11.1146 17.1911
L11.1146 15.9211
" />
<path d="M11.1146 15.9211
L11.8403 17.1911
" />
<path d="M11.8403 17.1911
L11.8403 15.9211
" />
</g></g>
<g style="fill:#A90000; fill-opacity:0.0; 
stroke:#A90000; stroke-width:0.1524; stroke-opacity:1; 
stroke-linecap:round; stroke-linejoin:round;">
<text x="7.7851" y="16.3576"
textLength="1.4127" font-size="1.6933" lengthAdjust="spacingAndGlyphs"
text-anchor="middle" opacity="0">1</text>
<g class="stroked-text"><desc>1</desc>
<path d="M8.1480 16.1941
L7.4223 16.1941
" />
<path d="M7.7851 16.1941
L7.7851 14.9241
" />
<path d="M7.7851 14.9241
L7.6642 15.1056
" />
<path d="M7.6642 15.1056
L7.5432 15.2265
" />
<path d="M7.5432 15.2265
L7.4223 15.2870
" />
</g></g>
<g style="fill:#840000; fill-opacity:0.0; 
stroke:#840000; stroke-width:0.1524; stroke-opacity:1; 
stroke-linecap:round; stroke-linejoin:round;">
<path d="M19.2151 14.0716
L21.7551 14.0716
" />
</g>
<g style="fill:#A90000; fill-opacity:0.0; 
stroke:#A90000; stroke-width:0.1524; stroke-opacity:1; 
stroke-linecap:round; stroke-linejoin:round;">
<text x="20.4851" y="13.8176"
textLength="2.6222" font-size="1.6933" lengthAdjust="spacingAndGlyphs"
text-anchor="middle" opacity="0">10</text>
<g class="stroked-text"><desc>10</desc>
<path d="M20.2432 13.6541
L19.5175 13.6541
" />
<path d="M19.8803 13.6541
L19.8803 12.3841
" />
<path d="M19.8803 12.3841
L19.7594 12.5656
" />
<path d="M19.7594 12.5656
L19.6384 12.6865
" />
<path d="M19.6384 12.6865
L19.5175 12.7470
" />
<path d="M21.0293 12.3841
L21.1503 12.3841
" />
<path d="M21.1503 12.3841
L21.2712 12.4446
" />
<path d="M21.2712 12.4446
L21.3317 12.5051
" />
<path d="M21.3317 12.5051
L21.3922 12.6260
" />
<path d="M21.3922 12.6260
L21.4527 12.8679
" />
<path d="M21.4527 12.8679
L21.4527 13.1703
" />
<path d="M21.4527 13.1703
L21.3922 13.4122
" />
<path d="M21.3922 13.4122
L21.3317 13.5332
" />
<path d="M21.3317 13.5332
L21.2712 13.5937
" />
<path d="M21.2712 13.5937
L21.1503 13.6541
" />
<path d="M21.1503 13.6541
L21.0293 13.6541
" />
<path d="M21.0293 13.6541
L20.9084 13.5937
" />
<path d="M20.9084 13.5937
L20.8479 13.5332
" />
<path d="M20.8479 13.5332
L20.7874 13.4122
" />
<path d="M20.7874 13.4122
L20.7270 13.1703
" />
<path d="M20.7270 13.1703
L20.7270 12.8679
" />
<path d="M20.7270 12.8679
L20.7874 12.6260
" />
<path d="M20.7874 12.6260
L20.8479 12.5051
" />
<path d="M20.8479 12.5051
L20.9084 12.4446
" />
<path d="M20.9084 12.4446
L21.0293 12.3841
" />
</g></g>
<g style="fill:#840000; fill-opacity:0.0; 
stroke:#840000; stroke-width:0.1524; stroke-opacity:1; 
stroke-linecap:round; stroke-linejoin:round;">
<path d="M16.6751 11.5316
L16.6751 8.9916
" />
</g>
<g style="fill:#A90000; fill-opacity:0.0; 
stroke:#A90000; stroke-width:0.1524; stroke-opacity:1; 
stroke-linecap:round; stroke-linejoin:round;">
<g transform="rotate(-90.000000 16.4211 10.2616)">
<text x="16.4211" y="10.2616"
textLength="2.6222" font-size="1.6933" lengthAdjust="spacingAndGlyphs"
text-anchor="middle" opacity="0">12</text>
</g>
<g class="stroked-text"><desc>12</desc>
<path d="M16.2576 10.5034
L16.2576 11.2291
" />
<path d="M16.2576 10.8663
L14.9876 10.8663
" />
<path d="M14.9876 10.8663
L15.1691 10.9872
" />
<path d="M15.1691 10.9872
L15.2900 11.1082
" />
<path d="M15.2900 11.1082
L15.3505 11.2291
" />
<path d="M15.1086 10.0196
L15.0481 9.9592
" />
<path d="M15.0481 9.9592
L14.9876 9.8382
" />
<path d="M14.9876 9.8382
L14.9876 9.5358
" />
<path d="M14.9876 9.5358
L15.0481 9.4149
" />
<path d="M15.0481 9.4149
L15.1086 9.3544
" />
<path d="M15.1086 9.3544
L15.2295 9.2939
" />
<path d="M15.2295 9.2939
L15.3505 9.2939
" />
<path d="M15.3505 9.2939
L15.5319 9.3544
" />
<path d="M15.5319 9.3544
L16.2576 10.0801
" />
<path d="M16.2576 10.0801
L16.2576 9.2939
" />
</g></g>
<g style="fill:#840000; fill-opacity:0.0; 
stroke:#840000; stroke-width:0.1524; stroke-opacity:1; 
stroke-linecap:round; stroke-linejoin:round;">
<path d="M11.5951 11.5316
L11.5951 8.9916
" />
</g>
<g style="fill:#A90000; fill-opacity:0.0; 
stroke:#A90000; stroke-width:0.1524; stroke-opacity:1; 
stroke-linecap:round; stroke-linejoin:round;">
<g transform="rotate(-90.000000 11.3411 10.2616)">
<text x="11.3411" y="10.2616"
textLength="2.6222" font-size="1.6933" lengthAdjust="spacingAndGlyphs"
text-anchor="middle" opacity="0">13</text>
</g>
<g class="stroked-text"><desc>13</desc>
<path d="M11.1776 10.5034
L11.1776 11.2291
" />
<path d="M11.1776 10.8663
L9.9076 10.8663
" />
<path d="M9.9076 10.8663
L10.0891 10.9872
" />
<path d="M10.0891 10.9872
L10.2100 11.1082
" />
<path d="M10.2100 11.1082
L10.2705 11.2291
" />
<path d="M9.9076 10.0801
L9.9076 9.2939
" />
<path d="M9.9076 9.2939
L10.3914 9.7173
" />
<path d="M10.3914 9.7173
L10.3914 9.5358
" />
<path d="M10.3914 9.5358
L10.4519 9.4149
" />
<path d="M10.4519 9.4149
L10.5124 9.3544
" />
<path d="M10.5124 9.3544
L10.6333 9.2939
" />
<path d="M10.6333 9.2939
L10.9357 9.2939
" />
<path d="M10.9357 9.2939
L11.0567 9.3544
" />
<path d="M11.0567 9.3544
L11.1172 9.4149
" />
<path d="M11.1172 9.4149
L11.1776 9.5358
" />
<path d="M11.1776 9.5358
L11.1776 9.8987
" />
<path d="M11.1776 9.8987
L11.1172 10.0196
" />
<path d="M11.1172 10.0196
L11.0567 10.0801
" />
</g></g>
<g style="fill:#840000; fill-opacity:0.0; 
stroke:#840000; stroke-width:0.1524; stroke-opacity:1; 
stroke-linecap:round; stroke-linejoin:round;">
<path d="M14.1351 11.5316
L14.1351 8.9916
" />
</g>
<g style="fill:#006464; fill-opacity:0.0; 
stroke:#006464; stroke-width:0.1524; stroke-opacity:1; 
stroke-linecap:round; stroke-linejoin:round;">
<g transform="rotate(-90.000000 14.1351 12.0396)">
<text x="14.1351" y="12.6746"
textLength="3.4690" font-size="1.6933" lengthAdjust="spacingAndGlyphs"
text-anchor="end" opacity="0">Vcc</text>
</g>
<g class="stroked-text"><desc>Vcc</desc>
<path d="M13.4446 15.2846
L14.7146 14.8613
" />
<path d="M14.7146 14.8613
L13.4446 14.4379
" />
<path d="M14.6542 13.4703
L14.7146 13.5912
" />
<path d="M14.7146 13.5912
L14.7146 13.8331
" />
<path d="M14.7146 13.8331
L14.6542 13.9541
" />
<path d="M14.6542 13.9541
L14.5937 14.0146
" />
<path d="M14.5937 14.0146
L14.4727 14.0750
" />
<path d="M14.4727 14.0750
L14.1099 14.0750
" />
<path d="M14.1099 14.0750
L13.9889 14.0146
" />
<path d="M13.9889 14.0146
L13.9284 13.9541
" />
<path d="M13.9284 13.9541
L13.8680 13.8331
" />
<path d="M13.8680 13.8331
L13.8680 13.5912
" />
<path d="M13.8680 13.5912
L13.9284 13.4703
" />
<path d="M14.6542 12.3817
L14.7146 12.5026
" />
<path d="M14.7146 12.5026
L14.7146 12.7445
" />
<path d="M14.7146 12.7445
L14.6542 12.8655
" />
<path d="M14.6542 12.8655
L14.5937 12.9260
" />
<path d="M14.5937 12.9260
L14.4727 12.9864
" />
<path d="M14.4727 12.9864
L14.1099 12.9864
" />
<path d="M14.1099 12.9864
L13.9889 12.9260
" />
<path d="M13.9889 12.9260
L13.9284 12.8655
" />
<path d="M13.9284 12.8655
L13.8680 12.7445
" />
<path d="M13.8680 12.7445
L13.8680 12.5026
" />
<path d="M13.8680 12.5026
L13.9284 12.3817
" />
</g></g>
<g style="fill:#A90000; fill-opacity:0.0; 
stroke:#A90000; stroke-width:0.1524; stroke-opacity:1; 
stroke-linecap:round; stroke-linejoin:round;">
<g transform="rotate(-90.000000 13.8811 10.2616)">
<text x="13.8811" y="10.2616"
textLength="2.6222" font-size="1.6933" lengthAdjust="spacingAndGlyphs"
text-anchor="middle" opacity="0">14</text>
</g>
<g class="stroked-text"><desc>14</desc>
<path d="M13.7176 10.5034
L13.7176 11.2291
" />
<path d="M13.7176 10.8663
L12.4476 10.8663
" />
<path d="M12.4476 10.8663
L12.6291 10.9872
" />
<path d="M12.6291 10.9872
L12.7500 11.1082
" />
<path d="M12.7500 11.1082
L12.8105 11.2291
" />
<path d="M12.8710 9.4149
L13.7176 9.4149
" />
<path d="M12.3872 9.7173
L13.2943 10.0196
" />
<path d="M13.2943 10.0196
L13.2943 9.2335
" />
</g></g>
<g style="fill:#840000; fill-opacity:0.0; 
stroke:#840000; stroke-width:0.1524; stroke-opacity:1; 
stroke-linecap:round; stroke-linejoin:round;">
<path d="M9.0551 14.0716
L6.5151 14.0716
" />
</g>
<g style="fill:#A90000; fill-opacity:0.0; 
stroke:#A90000; stroke-width:0.1524; stroke-opacity:1; 
stroke-linecap:round; stroke-linejoin:round;">
<text x="7.7851" y="13.8176"
textLength="1.4127" font-size="1.6933" lengthAdjust="spacingAndGlyphs"
text-anchor="middle" opacity="0">2</text>
<g class="stroked-text"><desc>2</desc>
<path d="M7.4223 12.5051
L7.4827 12.4446
" />
<path d="M7.4827 12.4446
L7.6037 12.3841
" />
<path d="M7.6037 12.3841
L7.9061 12.3841
" />
<path d="M7.9061 12.3841
L8.0270 12.4446
" />
<path d="M8.0270 12.4446
L8.0875 12.5051
" />
<path d="M8.0875 12.5051
L8.1480 12.6260
" />
<path d="M8.1480 12.6260
L8.1480 12.7470
" />
<path d="M8.1480 12.7470
L8.0875 12.9284
" />
<path d="M8.0875 12.9284
L7.3618 13.6541
" />
<path d="M7.3618 13.6541
L8.1480 13.6541
" />
</g></g>
<g style="fill:#840000; fill-opacity:0.0; 
stroke:#840000; stroke-width:0.1524; stroke-opacity:1; 
stroke-linecap:round; stroke-linejoin:round;">
<path d="M9.0551 19.1516
L6.5151 19.1516
" />
</g>
<g style="fill:#A90000; fill-opacity:0.0; 
stroke:#A90000; stroke-width:0.1524; stroke-opacity:1; 
stroke-linecap:round; stroke-linejoin:round;">
<text x="7.7851" y="18.8976"
textLength="1.4127" font-size="1.6933" lengthAdjust="spacingAndGlyphs"
text-anchor="middle" opacity="0">3</text>
<g class="stroked-text"><desc>3</desc>
<path d="M7.3618 17.4641
L8.1480 17.4641
" />
<path d="M8.1480 17.4641
L7.7246 17.9479
" />
<path d="M7.7246 17.9479
L7.9061 17.9479
" />
<path d="M7.9061 17.9479
L8.0270 18.0084
" />
<path d="M8.0270 18.0084
L8.0875 18.0689
" />
<path d="M8.0875 18.0689
L8.1480 18.1898
" />
<path d="M8.1480 18.1898
L8.1480 18.4922
" />
<path d="M8.1480 18.4922
L8.0875 18.6132
" />
<path d="M8.0875 18.6132
L8.0270 18.6737
" />
<path d="M8.0270 18.6737
L7.9061 18.7341
" />
<path d="M7.9061 18.7341
L7.5432 18.7341
" />
<path d="M7.5432 18.7341
L7.4223 18.6737
" />
<path d="M7.4223 18.6737
L7.3618 18.6132
" />
</g></g>
<g style="fill:#840000; fill-opacity:0.0; 
stroke:#840000; stroke-width:0.1524; stroke-opacity:1; 
stroke-linecap:round; stroke-linejoin:round;">
<path d="M11.5951 21.6916
L11.5951 24.2316
" />
</g>
<g style="fill:#A90000; fill-opacity:0.0; 
stroke:#A90000; stroke-width:0.1524; stroke-opacity:1; 
stroke-linecap:round; stroke-linejoin:round;">
<g transform="rotate(-90.000000 11.3411 22.9616)">
<text x="11.3411" y="22.9616"
textLength="1.4127" font-size="1.6933" lengthAdjust="spacingAndGlyphs"
text-anchor="middle" opacity="0">5</text>
</g>
<g class="stroked-text"><desc>5</desc>
<path d="M9.9076 22.6591
L9.9076 23.2639
" />
<path d="M9.9076 23.2639
L10.5124 23.3243
" />
<path d="M10.5124 23.3243
L10.4519 23.2639
" />
<path d="M10.4519 23.2639
L10.3914 23.1429
" />
<path d="M10.3914 23.1429
L10.3914 22.8405
" />
<path d="M10.3914 22.8405
L10.4519 22.7196
" />
<path d="M10.4519 22.7196
L10.5124 22.6591
" />
<path d="M10.5124 22.6591
L10.6333 22.5986
" />
<path d="M10.6333 22.5986
L10.9357 22.5986
" />
<path d="M10.9357 22.5986
L11.0567 22.6591
" />
<path d="M11.0567 22.6591
L11.1172 22.7196
" />
<path d="M11.1172 22.7196
L11.1776 22.8405
" />
<path d="M11.1776 22.8405
L11.1776 23.1429
" />
<path d="M11.1776 23.1429
L11.1172 23.2639
" />
<path d="M11.1172 23.2639
L11.0567 23.3243
" />
</g></g>
<g style="fill:#840000; fill-opacity:0.0; 
stroke:#840000; stroke-width:0.1524; stroke-opacity:1; 
stroke-linecap:round; stroke-linejoin:round;">
<path d="M16.6751 21.6916
L16.6751 24.2316
" />
</g>
<g style="fill:#A90000; fill-opacity:0.0; 
stroke:#A90000; stroke-width:0.1524; stroke-opacity:1; 
stroke-linecap:round; stroke-linejoin:round;">
<g transform="rotate(-90.000000 16.4211 22.9616)">
<text x="16.4211" y="22.9616"
textLength="1.4127" font-size="1.6933" lengthAdjust="spacingAndGlyphs"
text-anchor="middle" opacity="0">6</text>
</g>
<g class="stroked-text"><desc>6</desc>
<path d="M14.9876 22.7196
L14.9876 22.9615
" />
<path d="M14.9876 22.9615
L15.0481 23.0824
" />
<path d="M15.0481 23.0824
L15.1086 23.1429
" />
<path d="M15.1086 23.1429
L15.2900 23.2639
" />
<path d="M15.2900 23.2639
L15.5319 23.3243
" />
<path d="M15.5319 23.3243
L16.0157 23.3243
" />
<path d="M16.0157 23.3243
L16.1367 23.2639
" />
<path d="M16.1367 23.2639
L16.1972 23.2034
" />
<path d="M16.1972 23.2034
L16.2576 23.0824
" />
<path d="M16.2576 23.0824
L16.2576 22.8405
" />
<path d="M16.2576 22.8405
L16.1972 22.7196
" />
<path d="M16.1972 22.7196
L16.1367 22.6591
" />
<path d="M16.1367 22.6591
L16.0157 22.5986
" />
<path d="M16.0157 22.5986
L15.7133 22.5986
" />
<path d="M15.7133 22.5986
L15.5924 22.6591
" />
<path d="M15.5924 22.6591
L15.5319 22.7196
" />
<path d="M15.5319 22.7196
L15.4714 22.8405
" />
<path d="M15.4714 22.8405
L15.4714 23.0824
" />
<path d="M15.4714 23.0824
L15.5319 23.2034
" />
<path d="M15.5319 23.2034
L15.5924 23.2639
" />
<path d="M15.5924 23.2639
L15.7133 23.3243
" />
</g></g>
<g style="fill:#840000; fill-opacity:0.0; 
stroke:#840000; stroke-width:0.1524; stroke-opacity:1; 
stroke-linecap:round; stroke-linejoin:round;">
<path d="M14.1351 21.6916
L14.1351 24.2316
" />
</g>
<g style="fill:#006464; fill-opacity:0.0; 
stroke:#006464; stroke-width:0.1524; stroke-opacity:1; 
stroke-linecap:round; stroke-linejoin:round;">
<g transform="rotate(-90.000000 14.1351 21.1836)">
<text x="14.1351" y="21.8186"
textLength="4.0737" font-size="1.6933" lengthAdjust="spacingAndGlyphs"
text-anchor="start" opacity="0">GND</text>
</g>
<g class="stroked-text"><desc>GND</desc>
<path d="M13.5051 20.1157
L13.4446 20.2367
" />
<path d="M13.4446 20.2367
L13.4446 20.4181
" />
<path d="M13.4446 20.4181
L13.5051 20.5995
" />
<path d="M13.5051 20.5995
L13.6261 20.7205
" />
<path d="M13.6261 20.7205
L13.7470 20.7810
" />
<path d="M13.7470 20.7810
L13.9889 20.8414
" />
<path d="M13.9889 20.8414
L14.1703 20.8414
" />
<path d="M14.1703 20.8414
L14.4122 20.7810
" />
<path d="M14.4122 20.7810
L14.5332 20.7205
" />
<path d="M14.5332 20.7205
L14.6542 20.5995
" />
<path d="M14.6542 20.5995
L14.7146 20.4181
" />
<path d="M14.7146 20.4181
L14.7146 20.2972
" />
<path d="M14.7146 20.2972
L14.6542 20.1157
" />
<path d="M14.6542 20.1157
L14.5937 20.0553
" />
<path d="M14.5937 20.0553
L14.1703 20.0553
" />
<path d="M14.1703 20.0553
L14.1703 20.2972
" />
<path d="M14.7146 19.5110
L13.4446 19.5110
" />
<path d="M13.4446 19.5110
L14.7146 18.7853
" />
<path d="M14.7146 18.7853
L13.4446 18.7853
" />
<path d="M14.7146 18.1805
L13.4446 18.1805
" />
<path d="M13.4446 18.1805
L13.4446 17.8781
" />
<path d="M13.4446 17.8781
L13.5051 17.6967
" />
<path d="M13.5051 17.6967
L13.6261 17.5757
" />
<path d="M13.6261 17.5757
L13.7470 17.5152
" />
<path d="M13.7470 17.5152
L13.9889 17.4548
" />
<path d="M13.9889 17.4548
L14.1703 17.4548
" />
<path d="M14.1703 17.4548
L14.4122 17.5152
" />
<path d="M14.4122 17.5152
L14.5332 17.5757
" />
<path d="M14.5332 17.5757
L14.6542 17.6967
" />
<path d="M14.6542 17.6967
L14.7146 17.8781
" />
<path d="M14.7146 17.8781
L14.7146 18.1805
" />
</g></g>
<g style="fill:#A90000; fill-opacity:0.0; 
stroke:#A90000; stroke-width:0.1524; stroke-opacity:1; 
stroke-linecap:round; stroke-linejoin:round;">
<g transform="rotate(-90.000000 13.8811 22.9616)">
<text x="13.8811" y="22.9616"
textLength="1.4127" font-size="1.6933" lengthAdjust="spacingAndGlyphs"
text-anchor="middle" opacity="0">7</text>
</g>
<g class="stroked-text"><desc>7</desc>
<path d="M12.4476 23.3848
L12.4476 22.5382
" />
<path d="M12.4476 22.5382
L13.7176 23.0824
" />
</g></g>
<g style="fill:#840000; fill-opacity:0.0; 
stroke:#840000; stroke-width:0.1524; stroke-opacity:1; 
stroke-linecap:round; stroke-linejoin:round;">
<path d="M19.2151 16.6116
L21.7551 16.6116
" />
</g>
<g style="fill:#006464; fill-opacity:0.0; 
stroke:#006464; stroke-width:0.1524; stroke-opacity:1; 
stroke-linecap:round; stroke-linejoin:round;">
<text x="18.7071" y="17.2466"
textLength="3.8318" font-size="1.6933" lengthAdjust="spacingAndGlyphs"
text-anchor="end" opacity="0">OUT</text>
<g class="stroked-text"><desc>OUT</desc>
<path d="M15.5225 15.9211
L15.7644 15.9211
" />
<path d="M15.7644 15.9211
L15.8854 15.9816
" />
<path d="M15.8854 15.9816
L16.0063 16.1026
" />
<path d="M16.0063 16.1026
L16.0668 16.3445
" />
<path d="M16.0668 16.3445
L16.0668 16.7678
" />
<path d="M16.0668 16.7678
L16.0063 17.0097
" />
<path d="M16.0063 17.0097
L15.8854 17.1307
" />
<path d="M15.8854 17.1307
L15.7644 17.1911
" />
<path d="M15.7644 17.1911
L15.5225 17.1911
" />
<path d="M15.5225 17.1911
L15.4016 17.1307
" />
<path d="M15.4016 17.1307
L15.2806 17.0097
" />
<path d="M15.2806 17.0097
L15.2202 16.7678
" />
<path d="M15.2202 16.7678
L15.2202 16.3445
" />
<path d="M15.2202 16.3445
L15.2806 16.1026
" />
<path d="M15.2806 16.1026
L15.4016 15.9816
" />
<path d="M15.4016 15.9816
L15.5225 15.9211
" />
<path d="M16.6111 15.9211
L16.6111 16.9492
" />
<path d="M16.6111 16.9492
L16.6716 17.0702
" />
<path d="M16.6716 17.0702
L16.7321 17.1307
" />
<path d="M16.7321 17.1307
L16.8530 17.1911
" />
<path d="M16.8530 17.1911
L17.0949 17.1911
" />
<path d="M17.0949 17.1911
L17.2159 17.1307
" />
<path d="M17.2159 17.1307
L17.2764 17.0702
" />
<path d="M17.2764 17.0702
L17.3368 16.9492
" />
<path d="M17.3368 16.9492
L17.3368 15.9211
" />
<path d="M17.7602 15.9211
L18.4859 15.9211
" />
<path d="M18.1231 17.1911
L18.1231 15.9211
" />
</g></g>
<g style="fill:#A90000; fill-opacity:0.0; 
stroke:#A90000; stroke-width:0.1524; stroke-opacity:1; 
stroke-linecap:round; stroke-linejoin:round;">
<text x="20.4851" y="16.3576"
textLength="1.4127" font-size="1.6933" lengthAdjust="spacingAndGlyphs"
text-anchor="middle" opacity="0">8</text>
<g class="stroked-text"><desc>8</desc>
<path d="M20.3642 15.4684
L20.2432 15.4079
" />
<path d="M20.2432 15.4079
L20.1827 15.3475
" />
<path d="M20.1827 15.3475
L20.1223 15.2265
" />
<path d="M20.1223 15.2265
L20.1223 15.1660
" />
<path d="M20.1223 15.1660
L20.1827 15.0451
" />
<path d="M20.1827 15.0451
L20.2432 14.9846
" />
<path d="M20.2432 14.9846
L20.3642 14.9241
" />
<path d="M20.3642 14.9241
L20.6061 14.9241
" />
<path d="M20.6061 14.9241
L20.7270 14.9846
" />
<path d="M20.7270 14.9846
L20.7875 15.0451
" />
<path d="M20.7875 15.0451
L20.8480 15.1660
" />
<path d="M20.8480 15.1660
L20.8480 15.2265
" />
<path d="M20.8480 15.2265
L20.7875 15.3475
" />
<path d="M20.7875 15.3475
L20.7270 15.4079
" />
<path d="M20.7270 15.4079
L20.6061 15.4684
" />
<path d="M20.6061 15.4684
L20.3642 15.4684
" />
<path d="M20.3642 15.4684
L20.2432 15.5289
" />
<path d="M20.2432 15.5289
L20.1827 15.5894
" />
<path d="M20.1827 15.5894
L20.1223 15.7103
" />
<path d="M20.1223 15.7103
L20.1223 15.9522
" />
<path d="M20.1223 15.9522
L20.1827 16.0732
" />
<path d="M20.1827 16.0732
L20.2432 16.1337
" />
<path d="M20.2432 16.1337
L20.3642 16.1941
" />
<path d="M20.3642 16.1941
L20.6061 16.1941
" />
<path d="M20.6061 16.1941
L20.7270 16.1337
" />
<path d="M20.7270 16.1337
L20.7875 16.0732
" />
<path d="M20.7875 16.0732
L20.8480 15.9522
" />
<path d="M20.8480 15.9522
L20.8480 15.7103
" />
<path d="M20.8480 15.7103
L20.7875 15.5894
" />
<path d="M20.7875 15.5894
L20.7270 15.5289
" />
<path d="M20.7270 15.5289
L20.6061 15.4684
" />
</g></g>
<g style="fill:#840000; fill-opacity:0.0; 
stroke:#840000; stroke-width:0.1524; stroke-opacity:1; 
stroke-linecap:round; stroke-linejoin:round;">
<path d="M19.2151 19.1516
L21.7551 19.1516
" />
</g>
<g style="fill:#A90000; fill-opacity:0.0; 
stroke:#A90000; stroke-width:0.1524; stroke-opacity:1; 
stroke-linecap:round; stroke-linejoin:round;">
<text x="20.4851" y="18.8976"
textLength="1.4127" font-size="1.6933" lengthAdjust="spacingAndGlyphs"
text-anchor="middle" opacity="0">9</text>
<g class="stroked-text"><desc>9</desc>
<path d="M20.2432 18.7341
L20.4851 18.7341
" />
<path d="M20.4851 18.7341
L20.6061 18.6737
" />
<path d="M20.6061 18.6737
L20.6665 18.6132
" />
<path d="M20.6665 18.6132
L20.7875 18.4317
" />
<path d="M20.7875 18.4317
L20.8480 18.1898
" />
<path d="M20.8480 18.1898
L20.8480 17.7060
" />
<path d="M20.8480 17.7060
L20.7875 17.5851
" />
<path d="M20.7875 17.5851
L20.7270 17.5246
" />
<path d="M20.7270 17.5246
L20.6061 17.4641
" />
<path d="M20.6061 17.4641
L20.3642 17.4641
" />
<path d="M20.3642 17.4641
L20.2432 17.5246
" />
<path d="M20.2432 17.5246
L20.1827 17.5851
" />
<path d="M20.1827 17.5851
L20.1223 17.7060
" />
<path d="M20.1223 17.7060
L20.1223 18.0084
" />
<path d="M20.1223 18.0084
L20.1827 18.1294
" />
<path d="M20.1827 18.1294
L20.2432 18.1898
" />
<path d="M20.2432 18.1898
L20.3642 18.2503
" />
<path d="M20.3642 18.2503
L20.6061 18.2503
" />
<path d="M20.6061 18.2503
L20.7270 18.1898
" />
<path d="M20.7270 18.1898
L20.7875 18.1294
" />
<path d="M20.7875 18.1294
L20.8480 18.0084
" />
</g></g>
<g style="fill:#840084; fill-opacity:0.0; 
stroke:#840084; stroke-width:0.1524; stroke-opacity:1; 
stroke-linecap:round; stroke-linejoin:round;">
</g>
<g style="fill:#006464; fill-opacity:0.0; 
stroke:#006464; stroke-width:0.1524; stroke-opacity:1; 
stroke-linecap:round; stroke-linejoin:round;">
</g>
<g style="fill:#006464; fill-opacity:0.0; 
stroke:#006464; stroke-width:0.1588; stroke-opacity:1; 
stroke-linecap:round; stroke-linejoin:round;">
<text x="14.1351" y="17.2466"
textLength="2.6415" font-size="1.6933" lengthAdjust="spacingAndGlyphs"
text-anchor="middle" opacity="0">U?</text>
<g class="stroked-text"><desc>U?</desc>
<path d="M13.2279 15.9208
L13.2279 16.9489
" />
<path d="M13.2279 16.9489
L13.2884 17.0699
" />
<path d="M13.2884 17.0699
L13.3489 17.1304
" />
<path d="M13.3489 17.1304
L13.4698 17.1908
" />
<path d="M13.4698 17.1908
L13.7117 17.1908
" />
<path d="M13.7117 17.1908
L13.8327 17.1304
" />
<path d="M13.8327 17.1304
L13.8932 17.0699
" />
<path d="M13.8932 17.0699
L13.9536 16.9489
" />
<path d="M13.9536 16.9489
L13.9536 15.9208
" />
<path d="M14.7399 17.0699
L14.8003 17.1304
" />
<path d="M14.8003 17.1304
L14.7399 17.1908
" />
<path d="M14.7399 17.1908
L14.6794 17.1304
" />
<path d="M14.6794 17.1304
L14.7399 17.0699
" />
<path d="M14.7399 17.0699
L14.7399 17.1908
" />
<path d="M14.4980 15.9813
L14.6189 15.9208
" />
<path d="M14.6189 15.9208
L14.9213 15.9208
" />
<path d="M14.9213 15.9208
L15.0422 15.9813
" />
<path d="M15.0422 15.9813
L15.1027 16.1023
" />
<path d="M15.1027 16.1023
L15.1027 16.2232
" />
<path d="M15.1027 16.2232
L15.0422 16.3442
" />
<path d="M15.0422 16.3442
L14.9818 16.4046
" />
<path d="M14.9818 16.4046
L14.8608 16.4651
" />
<path d="M14.8608 16.4651
L14.8003 16.5256
" />
<path d="M14.8003 16.5256
L14.7399 16.6465
" />
<path d="M14.7399 16.6465
L14.7399 16.7070
" />
</g></g> 
</svg>
