<?xml version="1.0" standalone="no"?>
 <!DOCTYPE svg PUBLIC "-//W3C//DTD SVG 1.1//EN" 
 "http://www.w3.org/Graphics/SVG/1.1/DTD/svg11.dtd"> 
<svg
  xmlns:svg="http://www.w3.org/2000/svg"
  xmlns="http://www.w3.org/2000/svg"
  xmlns:xlink="http://www.w3.org/1999/xlink"
  version="1.1"
  width="27.9908mm" height="24.0792mm" viewBox="0.0000 0.0000 27.9908 24.0792">
<title>SVG Image created as esp-01.svg date 2023/09/21 01:25:16 </title>
  <desc>Image generated by Eeschema-SVG </desc>
<g style="fill:#000000; fill-opacity:1.0000;stroke:#000000; stroke-opacity:1.0000;
stroke-linecap:round; stroke-linejoin:round;"
 transform="translate(0 0) scale(1 1)">
</g>
<g style="fill:#840000; fill-opacity:0.0; 
stroke:#840000; stroke-width:0.0000; stroke-opacity:1; 
stroke-linecap:round; stroke-linejoin:round;">
</g>
<g style="fill:#FFFFC2; fill-opacity:0.0; 
stroke:#FFFFC2; stroke-width:0.0000; stroke-opacity:1; 
stroke-linecap:round; stroke-linejoin:round;">
</g>
<g style="fill:#FFFFC2; fill-opacity:1.0000; 
stroke:#FFFFC2; stroke-width:0.0000; stroke-opacity:1; 
stroke-linecap:round; stroke-linejoin:round;">
<rect x="11.455400" y="12.039600" width="15.240000" height="12.700000" rx="0.000000" />
</g>
<g style="fill:#840084; fill-opacity:1.0000; 
stroke:#840084; stroke-width:0.0000; stroke-opacity:1; 
stroke-linecap:round; stroke-linejoin:round;">
</g>
<g style="fill:#840000; fill-opacity:1.0000; 
stroke:#840000; stroke-width:0.0000; stroke-opacity:1; 
stroke-linecap:round; stroke-linejoin:round;">
</g>
<g style="fill:#840000; fill-opacity:0.0; 
stroke:#840000; stroke-width:0.1524; stroke-opacity:1; 
stroke-linecap:round; stroke-linejoin:round;">
<rect x="11.455400" y="12.039600" width="15.240000" height="12.700000" rx="0.000000" />
<path d="M11.4554 15.8496
L8.9154 15.8496
" />
</g>
<g style="fill:#006464; fill-opacity:0.0; 
stroke:#006464; stroke-width:0.1524; stroke-opacity:1; 
stroke-linecap:round; stroke-linejoin:round;">
<text x="11.9634" y="16.4846"
textLength="2.6827" font-size="1.6933" lengthAdjust="spacingAndGlyphs"
text-anchor="start" opacity="0">RX</text>
<g class="stroked-text"><desc>RX</desc>
<path d="M13.0916 16.4291
L12.6683 15.8244
" />
<path d="M12.3659 16.4291
L12.3659 15.1591
" />
<path d="M12.3659 15.1591
L12.8497 15.1591
" />
<path d="M12.8497 15.1591
L12.9707 15.2196
" />
<path d="M12.9707 15.2196
L13.0312 15.2801
" />
<path d="M13.0312 15.2801
L13.0916 15.4010
" />
<path d="M13.0916 15.4010
L13.0916 15.5825
" />
<path d="M13.0916 15.5825
L13.0312 15.7034
" />
<path d="M13.0312 15.7034
L12.9707 15.7639
" />
<path d="M12.9707 15.7639
L12.8497 15.8244
" />
<path d="M12.8497 15.8244
L12.3659 15.8244
" />
<path d="M13.5150 15.1591
L14.3616 16.4291
" />
<path d="M14.3616 15.1591
L13.5150 16.4291
" />
</g></g>
<g style="fill:#A90000; fill-opacity:0.0; 
stroke:#A90000; stroke-width:0.1524; stroke-opacity:1; 
stroke-linecap:round; stroke-linejoin:round;">
<text x="10.1854" y="15.5956"
textLength="1.4127" font-size="1.6933" lengthAdjust="spacingAndGlyphs"
text-anchor="middle" opacity="0">1</text>
<g class="stroked-text"><desc>1</desc>
<path d="M10.5483 15.4321
L9.8226 15.4321
" />
<path d="M10.1854 15.4321
L10.1854 14.1621
" />
<path d="M10.1854 14.1621
L10.0645 14.3436
" />
<path d="M10.0645 14.3436
L9.9435 14.4645
" />
<path d="M9.9435 14.4645
L9.8226 14.5250
" />
</g></g>
<g style="fill:#840000; fill-opacity:0.0; 
stroke:#840000; stroke-width:0.1524; stroke-opacity:1; 
stroke-linecap:round; stroke-linejoin:round;">
<path d="M11.4554 18.3896
L8.9154 18.3896
" />
</g>
<g style="fill:#006464; fill-opacity:0.0; 
stroke:#006464; stroke-width:0.1524; stroke-opacity:1; 
stroke-linecap:round; stroke-linejoin:round;">
<text x="11.9634" y="19.0246"
textLength="5.8880" font-size="1.6933" lengthAdjust="spacingAndGlyphs"
text-anchor="start" opacity="0">GPIO0</text>
<g class="stroked-text"><desc>GPIO0</desc>
<path d="M13.0312 17.7596
L12.9102 17.6991
" />
<path d="M12.9102 17.6991
L12.7288 17.6991
" />
<path d="M12.7288 17.6991
L12.5474 17.7596
" />
<path d="M12.5474 17.7596
L12.4264 17.8806
" />
<path d="M12.4264 17.8806
L12.3659 18.0015
" />
<path d="M12.3659 18.0015
L12.3055 18.2434
" />
<path d="M12.3055 18.2434
L12.3055 18.4248
" />
<path d="M12.3055 18.4248
L12.3659 18.6667
" />
<path d="M12.3659 18.6667
L12.4264 18.7877
" />
<path d="M12.4264 18.7877
L12.5474 18.9087
" />
<path d="M12.5474 18.9087
L12.7288 18.9691
" />
<path d="M12.7288 18.9691
L12.8497 18.9691
" />
<path d="M12.8497 18.9691
L13.0312 18.9087
" />
<path d="M13.0312 18.9087
L13.0916 18.8482
" />
<path d="M13.0916 18.8482
L13.0916 18.4248
" />
<path d="M13.0916 18.4248
L12.8497 18.4248
" />
<path d="M13.6359 18.9691
L13.6359 17.6991
" />
<path d="M13.6359 17.6991
L14.1197 17.6991
" />
<path d="M14.1197 17.6991
L14.2407 17.7596
" />
<path d="M14.2407 17.7596
L14.3012 17.8201
" />
<path d="M14.3012 17.8201
L14.3616 17.9410
" />
<path d="M14.3616 17.9410
L14.3616 18.1225
" />
<path d="M14.3616 18.1225
L14.3012 18.2434
" />
<path d="M14.3012 18.2434
L14.2407 18.3039
" />
<path d="M14.2407 18.3039
L14.1197 18.3644
" />
<path d="M14.1197 18.3644
L13.6359 18.3644
" />
<path d="M14.9059 18.9691
L14.9059 17.6991
" />
<path d="M15.7526 17.6991
L15.9945 17.6991
" />
<path d="M15.9945 17.6991
L16.1155 17.7596
" />
<path d="M16.1155 17.7596
L16.2364 17.8806
" />
<path d="M16.2364 17.8806
L16.2969 18.1225
" />
<path d="M16.2969 18.1225
L16.2969 18.5458
" />
<path d="M16.2969 18.5458
L16.2364 18.7877
" />
<path d="M16.2364 18.7877
L16.1155 18.9087
" />
<path d="M16.1155 18.9087
L15.9945 18.9691
" />
<path d="M15.9945 18.9691
L15.7526 18.9691
" />
<path d="M15.7526 18.9691
L15.6317 18.9087
" />
<path d="M15.6317 18.9087
L15.5107 18.7877
" />
<path d="M15.5107 18.7877
L15.4503 18.5458
" />
<path d="M15.4503 18.5458
L15.4503 18.1225
" />
<path d="M15.4503 18.1225
L15.5107 17.8806
" />
<path d="M15.5107 17.8806
L15.6317 17.7596
" />
<path d="M15.6317 17.7596
L15.7526 17.6991
" />
<path d="M17.0831 17.6991
L17.2041 17.6991
" />
<path d="M17.2041 17.6991
L17.3250 17.7596
" />
<path d="M17.3250 17.7596
L17.3855 17.8201
" />
<path d="M17.3855 17.8201
L17.4460 17.9410
" />
<path d="M17.4460 17.9410
L17.5065 18.1829
" />
<path d="M17.5065 18.1829
L17.5065 18.4853
" />
<path d="M17.5065 18.4853
L17.4460 18.7272
" />
<path d="M17.4460 18.7272
L17.3855 18.8482
" />
<path d="M17.3855 18.8482
L17.3250 18.9087
" />
<path d="M17.3250 18.9087
L17.2041 18.9691
" />
<path d="M17.2041 18.9691
L17.0831 18.9691
" />
<path d="M17.0831 18.9691
L16.9622 18.9087
" />
<path d="M16.9622 18.9087
L16.9017 18.8482
" />
<path d="M16.9017 18.8482
L16.8412 18.7272
" />
<path d="M16.8412 18.7272
L16.7808 18.4853
" />
<path d="M16.7808 18.4853
L16.7808 18.1829
" />
<path d="M16.7808 18.1829
L16.8412 17.9410
" />
<path d="M16.8412 17.9410
L16.9017 17.8201
" />
<path d="M16.9017 17.8201
L16.9622 17.7596
" />
<path d="M16.9622 17.7596
L17.0831 17.6991
" />
</g></g>
<g style="fill:#A90000; fill-opacity:0.0; 
stroke:#A90000; stroke-width:0.1524; stroke-opacity:1; 
stroke-linecap:round; stroke-linejoin:round;">
<text x="10.1854" y="18.1356"
textLength="1.4127" font-size="1.6933" lengthAdjust="spacingAndGlyphs"
text-anchor="middle" opacity="0">2</text>
<g class="stroked-text"><desc>2</desc>
<path d="M9.8226 16.8231
L9.8830 16.7626
" />
<path d="M9.8830 16.7626
L10.0040 16.7021
" />
<path d="M10.0040 16.7021
L10.3064 16.7021
" />
<path d="M10.3064 16.7021
L10.4273 16.7626
" />
<path d="M10.4273 16.7626
L10.4878 16.8231
" />
<path d="M10.4878 16.8231
L10.5483 16.9440
" />
<path d="M10.5483 16.9440
L10.5483 17.0650
" />
<path d="M10.5483 17.0650
L10.4878 17.2464
" />
<path d="M10.4878 17.2464
L9.7621 17.9721
" />
<path d="M9.7621 17.9721
L10.5483 17.9721
" />
</g></g>
<g style="fill:#840000; fill-opacity:0.0; 
stroke:#840000; stroke-width:0.1524; stroke-opacity:1; 
stroke-linecap:round; stroke-linejoin:round;">
<path d="M11.4554 20.9296
L8.9154 20.9296
" />
</g>
<g style="fill:#006464; fill-opacity:0.0; 
stroke:#006464; stroke-width:0.1524; stroke-opacity:1; 
stroke-linecap:round; stroke-linejoin:round;">
<text x="11.9634" y="21.5646"
textLength="5.8880" font-size="1.6933" lengthAdjust="spacingAndGlyphs"
text-anchor="start" opacity="0">GPIO2</text>
<g class="stroked-text"><desc>GPIO2</desc>
<path d="M13.0312 20.2996
L12.9102 20.2391
" />
<path d="M12.9102 20.2391
L12.7288 20.2391
" />
<path d="M12.7288 20.2391
L12.5474 20.2996
" />
<path d="M12.5474 20.2996
L12.4264 20.4206
" />
<path d="M12.4264 20.4206
L12.3659 20.5415
" />
<path d="M12.3659 20.5415
L12.3055 20.7834
" />
<path d="M12.3055 20.7834
L12.3055 20.9648
" />
<path d="M12.3055 20.9648
L12.3659 21.2067
" />
<path d="M12.3659 21.2067
L12.4264 21.3277
" />
<path d="M12.4264 21.3277
L12.5474 21.4487
" />
<path d="M12.5474 21.4487
L12.7288 21.5091
" />
<path d="M12.7288 21.5091
L12.8497 21.5091
" />
<path d="M12.8497 21.5091
L13.0312 21.4487
" />
<path d="M13.0312 21.4487
L13.0916 21.3882
" />
<path d="M13.0916 21.3882
L13.0916 20.9648
" />
<path d="M13.0916 20.9648
L12.8497 20.9648
" />
<path d="M13.6359 21.5091
L13.6359 20.2391
" />
<path d="M13.6359 20.2391
L14.1197 20.2391
" />
<path d="M14.1197 20.2391
L14.2407 20.2996
" />
<path d="M14.2407 20.2996
L14.3012 20.3601
" />
<path d="M14.3012 20.3601
L14.3616 20.4810
" />
<path d="M14.3616 20.4810
L14.3616 20.6625
" />
<path d="M14.3616 20.6625
L14.3012 20.7834
" />
<path d="M14.3012 20.7834
L14.2407 20.8439
" />
<path d="M14.2407 20.8439
L14.1197 20.9044
" />
<path d="M14.1197 20.9044
L13.6359 20.9044
" />
<path d="M14.9059 21.5091
L14.9059 20.2391
" />
<path d="M15.7526 20.2391
L15.9945 20.2391
" />
<path d="M15.9945 20.2391
L16.1155 20.2996
" />
<path d="M16.1155 20.2996
L16.2364 20.4206
" />
<path d="M16.2364 20.4206
L16.2969 20.6625
" />
<path d="M16.2969 20.6625
L16.2969 21.0858
" />
<path d="M16.2969 21.0858
L16.2364 21.3277
" />
<path d="M16.2364 21.3277
L16.1155 21.4487
" />
<path d="M16.1155 21.4487
L15.9945 21.5091
" />
<path d="M15.9945 21.5091
L15.7526 21.5091
" />
<path d="M15.7526 21.5091
L15.6317 21.4487
" />
<path d="M15.6317 21.4487
L15.5107 21.3277
" />
<path d="M15.5107 21.3277
L15.4503 21.0858
" />
<path d="M15.4503 21.0858
L15.4503 20.6625
" />
<path d="M15.4503 20.6625
L15.5107 20.4206
" />
<path d="M15.5107 20.4206
L15.6317 20.2996
" />
<path d="M15.6317 20.2996
L15.7526 20.2391
" />
<path d="M16.7808 20.3601
L16.8412 20.2996
" />
<path d="M16.8412 20.2996
L16.9622 20.2391
" />
<path d="M16.9622 20.2391
L17.2646 20.2391
" />
<path d="M17.2646 20.2391
L17.3855 20.2996
" />
<path d="M17.3855 20.2996
L17.4460 20.3601
" />
<path d="M17.4460 20.3601
L17.5065 20.4810
" />
<path d="M17.5065 20.4810
L17.5065 20.6020
" />
<path d="M17.5065 20.6020
L17.4460 20.7834
" />
<path d="M17.4460 20.7834
L16.7203 21.5091
" />
<path d="M16.7203 21.5091
L17.5065 21.5091
" />
</g></g>
<g style="fill:#A90000; fill-opacity:0.0; 
stroke:#A90000; stroke-width:0.1524; stroke-opacity:1; 
stroke-linecap:round; stroke-linejoin:round;">
<text x="10.1854" y="20.6756"
textLength="1.4127" font-size="1.6933" lengthAdjust="spacingAndGlyphs"
text-anchor="middle" opacity="0">3</text>
<g class="stroked-text"><desc>3</desc>
<path d="M9.7621 19.2421
L10.5483 19.2421
" />
<path d="M10.5483 19.2421
L10.1249 19.7259
" />
<path d="M10.1249 19.7259
L10.3064 19.7259
" />
<path d="M10.3064 19.7259
L10.4273 19.7864
" />
<path d="M10.4273 19.7864
L10.4878 19.8469
" />
<path d="M10.4878 19.8469
L10.5483 19.9678
" />
<path d="M10.5483 19.9678
L10.5483 20.2702
" />
<path d="M10.5483 20.2702
L10.4878 20.3912
" />
<path d="M10.4878 20.3912
L10.4273 20.4517
" />
<path d="M10.4273 20.4517
L10.3064 20.5121
" />
<path d="M10.3064 20.5121
L9.9435 20.5121
" />
<path d="M9.9435 20.5121
L9.8226 20.4517
" />
<path d="M9.8226 20.4517
L9.7621 20.3912
" />
</g></g>
<g style="fill:#840000; fill-opacity:0.0; 
stroke:#840000; stroke-width:0.1524; stroke-opacity:1; 
stroke-linecap:round; stroke-linejoin:round;">
<path d="M19.0754 24.7396
L19.0754 27.2796
" />
</g>
<g style="fill:#006464; fill-opacity:0.0; 
stroke:#006464; stroke-width:0.1524; stroke-opacity:1; 
stroke-linecap:round; stroke-linejoin:round;">
<g transform="rotate(-90.000000 19.0754 24.2316)">
<text x="19.0754" y="24.8666"
textLength="4.0737" font-size="1.6933" lengthAdjust="spacingAndGlyphs"
text-anchor="start" opacity="0">GND</text>
</g>
<g class="stroked-text"><desc>GND</desc>
<path d="M18.4454 23.1637
L18.3849 23.2847
" />
<path d="M18.3849 23.2847
L18.3849 23.4661
" />
<path d="M18.3849 23.4661
L18.4454 23.6475
" />
<path d="M18.4454 23.6475
L18.5664 23.7685
" />
<path d="M18.5664 23.7685
L18.6873 23.8290
" />
<path d="M18.6873 23.8290
L18.9292 23.8894
" />
<path d="M18.9292 23.8894
L19.1106 23.8894
" />
<path d="M19.1106 23.8894
L19.3525 23.8290
" />
<path d="M19.3525 23.8290
L19.4735 23.7685
" />
<path d="M19.4735 23.7685
L19.5945 23.6475
" />
<path d="M19.5945 23.6475
L19.6549 23.4661
" />
<path d="M19.6549 23.4661
L19.6549 23.3452
" />
<path d="M19.6549 23.3452
L19.5945 23.1637
" />
<path d="M19.5945 23.1637
L19.5340 23.1033
" />
<path d="M19.5340 23.1033
L19.1106 23.1033
" />
<path d="M19.1106 23.1033
L19.1106 23.3452
" />
<path d="M19.6549 22.5590
L18.3849 22.5590
" />
<path d="M18.3849 22.5590
L19.6549 21.8333
" />
<path d="M19.6549 21.8333
L18.3849 21.8333
" />
<path d="M19.6549 21.2285
L18.3849 21.2285
" />
<path d="M18.3849 21.2285
L18.3849 20.9261
" />
<path d="M18.3849 20.9261
L18.4454 20.7447
" />
<path d="M18.4454 20.7447
L18.5664 20.6237
" />
<path d="M18.5664 20.6237
L18.6873 20.5632
" />
<path d="M18.6873 20.5632
L18.9292 20.5028
" />
<path d="M18.9292 20.5028
L19.1106 20.5028
" />
<path d="M19.1106 20.5028
L19.3525 20.5632
" />
<path d="M19.3525 20.5632
L19.4735 20.6237
" />
<path d="M19.4735 20.6237
L19.5945 20.7447
" />
<path d="M19.5945 20.7447
L19.6549 20.9261
" />
<path d="M19.6549 20.9261
L19.6549 21.2285
" />
</g></g>
<g style="fill:#A90000; fill-opacity:0.0; 
stroke:#A90000; stroke-width:0.1524; stroke-opacity:1; 
stroke-linecap:round; stroke-linejoin:round;">
<g transform="rotate(-90.000000 18.8214 26.0096)">
<text x="18.8214" y="26.0096"
textLength="1.4127" font-size="1.6933" lengthAdjust="spacingAndGlyphs"
text-anchor="middle" opacity="0">4</text>
</g>
<g class="stroked-text"><desc>4</desc>
<path d="M17.8113 25.7676
L18.6579 25.7676
" />
<path d="M17.3275 26.0700
L18.2346 26.3723
" />
<path d="M18.2346 26.3723
L18.2346 25.5862
" />
</g></g>
<g style="fill:#840000; fill-opacity:0.0; 
stroke:#840000; stroke-width:0.1524; stroke-opacity:1; 
stroke-linecap:round; stroke-linejoin:round;">
<path d="M26.6954 20.9296
L29.2354 20.9296
" />
</g>
<g style="fill:#006464; fill-opacity:0.0; 
stroke:#006464; stroke-width:0.1524; stroke-opacity:1; 
stroke-linecap:round; stroke-linejoin:round;">
<text x="26.1874" y="21.5646"
textLength="2.3803" font-size="1.6933" lengthAdjust="spacingAndGlyphs"
text-anchor="end" opacity="0">TX</text>
<g class="stroked-text"><desc>TX</desc>
<path d="M24.0310 20.2391
L24.7567 20.2391
" />
<path d="M24.3939 21.5091
L24.3939 20.2391
" />
<path d="M25.0591 20.2391
L25.9057 21.5091
" />
<path d="M25.9057 20.2391
L25.0591 21.5091
" />
</g></g>
<g style="fill:#A90000; fill-opacity:0.0; 
stroke:#A90000; stroke-width:0.1524; stroke-opacity:1; 
stroke-linecap:round; stroke-linejoin:round;">
<text x="27.9654" y="20.6756"
textLength="1.4127" font-size="1.6933" lengthAdjust="spacingAndGlyphs"
text-anchor="middle" opacity="0">5</text>
<g class="stroked-text"><desc>5</desc>
<path d="M28.2678 19.2421
L27.6630 19.2421
" />
<path d="M27.6630 19.2421
L27.6026 19.8469
" />
<path d="M27.6026 19.8469
L27.6630 19.7864
" />
<path d="M27.6630 19.7864
L27.7840 19.7259
" />
<path d="M27.7840 19.7259
L28.0864 19.7259
" />
<path d="M28.0864 19.7259
L28.2073 19.7864
" />
<path d="M28.2073 19.7864
L28.2678 19.8469
" />
<path d="M28.2678 19.8469
L28.3283 19.9678
" />
<path d="M28.3283 19.9678
L28.3283 20.2702
" />
<path d="M28.3283 20.2702
L28.2678 20.3912
" />
<path d="M28.2678 20.3912
L28.2073 20.4517
" />
<path d="M28.2073 20.4517
L28.0864 20.5121
" />
<path d="M28.0864 20.5121
L27.7840 20.5121
" />
<path d="M27.7840 20.5121
L27.6630 20.4517
" />
<path d="M27.6630 20.4517
L27.6026 20.3912
" />
</g></g>
<g style="fill:#840000; fill-opacity:0.0; 
stroke:#840000; stroke-width:0.1524; stroke-opacity:1; 
stroke-linecap:round; stroke-linejoin:round;">
<path d="M26.6954 18.3896
L29.2354 18.3896
" />
</g>
<g style="fill:#006464; fill-opacity:0.0; 
stroke:#006464; stroke-width:0.1524; stroke-opacity:1; 
stroke-linecap:round; stroke-linejoin:round;">
<text x="26.1874" y="19.0246"
textLength="6.2508" font-size="1.6933" lengthAdjust="spacingAndGlyphs"
text-anchor="end" opacity="0">CH_EN</text>
<g class="stroked-text"><desc>CH_EN</desc>
<path d="M21.0676 18.8482
L21.0072 18.9087
" />
<path d="M21.0072 18.9087
L20.8257 18.9691
" />
<path d="M20.8257 18.9691
L20.7048 18.9691
" />
<path d="M20.7048 18.9691
L20.5234 18.9087
" />
<path d="M20.5234 18.9087
L20.4024 18.7877
" />
<path d="M20.4024 18.7877
L20.3419 18.6667
" />
<path d="M20.3419 18.6667
L20.2815 18.4248
" />
<path d="M20.2815 18.4248
L20.2815 18.2434
" />
<path d="M20.2815 18.2434
L20.3419 18.0015
" />
<path d="M20.3419 18.0015
L20.4024 17.8806
" />
<path d="M20.4024 17.8806
L20.5234 17.7596
" />
<path d="M20.5234 17.7596
L20.7048 17.6991
" />
<path d="M20.7048 17.6991
L20.8257 17.6991
" />
<path d="M20.8257 17.6991
L21.0072 17.7596
" />
<path d="M21.0072 17.7596
L21.0676 17.8201
" />
<path d="M21.6119 18.9691
L21.6119 17.6991
" />
<path d="M21.6119 18.3039
L22.3376 18.3039
" />
<path d="M22.3376 18.9691
L22.3376 17.6991
" />
<path d="M22.6401 19.0901
L23.6077 19.0901
" />
<path d="M23.9100 18.3039
L24.3334 18.3039
" />
<path d="M24.5148 18.9691
L23.9100 18.9691
" />
<path d="M23.9100 18.9691
L23.9100 17.6991
" />
<path d="M23.9100 17.6991
L24.5148 17.6991
" />
<path d="M25.0590 18.9691
L25.0590 17.6991
" />
<path d="M25.0590 17.6991
L25.7847 18.9691
" />
<path d="M25.7847 18.9691
L25.7847 17.6991
" />
</g></g>
<g style="fill:#A90000; fill-opacity:0.0; 
stroke:#A90000; stroke-width:0.1524; stroke-opacity:1; 
stroke-linecap:round; stroke-linejoin:round;">
<text x="27.9654" y="18.1356"
textLength="1.4127" font-size="1.6933" lengthAdjust="spacingAndGlyphs"
text-anchor="middle" opacity="0">6</text>
<g class="stroked-text"><desc>6</desc>
<path d="M28.2073 16.7021
L27.9654 16.7021
" />
<path d="M27.9654 16.7021
L27.8445 16.7626
" />
<path d="M27.8445 16.7626
L27.7840 16.8231
" />
<path d="M27.7840 16.8231
L27.6630 17.0045
" />
<path d="M27.6630 17.0045
L27.6026 17.2464
" />
<path d="M27.6026 17.2464
L27.6026 17.7302
" />
<path d="M27.6026 17.7302
L27.6630 17.8512
" />
<path d="M27.6630 17.8512
L27.7235 17.9117
" />
<path d="M27.7235 17.9117
L27.8445 17.9721
" />
<path d="M27.8445 17.9721
L28.0864 17.9721
" />
<path d="M28.0864 17.9721
L28.2073 17.9117
" />
<path d="M28.2073 17.9117
L28.2678 17.8512
" />
<path d="M28.2678 17.8512
L28.3283 17.7302
" />
<path d="M28.3283 17.7302
L28.3283 17.4278
" />
<path d="M28.3283 17.4278
L28.2678 17.3069
" />
<path d="M28.2678 17.3069
L28.2073 17.2464
" />
<path d="M28.2073 17.2464
L28.0864 17.1859
" />
<path d="M28.0864 17.1859
L27.8445 17.1859
" />
<path d="M27.8445 17.1859
L27.7235 17.2464
" />
<path d="M27.7235 17.2464
L27.6630 17.3069
" />
<path d="M27.6630 17.3069
L27.6026 17.4278
" />
</g></g>
<g style="fill:#840000; fill-opacity:0.0; 
stroke:#840000; stroke-width:0.1524; stroke-opacity:1; 
stroke-linecap:round; stroke-linejoin:round;">
<path d="M26.6954 15.8496
L29.2354 15.8496
" />
</g>
<g style="fill:#006464; fill-opacity:0.0; 
stroke:#006464; stroke-width:0.1524; stroke-opacity:1; 
stroke-linecap:round; stroke-linejoin:round;">
<text x="26.1874" y="16.4846"
textLength="3.6503" font-size="1.6933" lengthAdjust="spacingAndGlyphs"
text-anchor="end" opacity="0">~{RST}</text>
<g class="stroked-text"><desc>~{RST}</desc>
<path d="M23.6681 16.4291
L23.2448 15.8244
" />
<path d="M22.9424 16.4291
L22.9424 15.1591
" />
<path d="M22.9424 15.1591
L23.4262 15.1591
" />
<path d="M23.4262 15.1591
L23.5472 15.2196
" />
<path d="M23.5472 15.2196
L23.6077 15.2801
" />
<path d="M23.6077 15.2801
L23.6681 15.4010
" />
<path d="M23.6681 15.4010
L23.6681 15.5825
" />
<path d="M23.6681 15.5825
L23.6077 15.7034
" />
<path d="M23.6077 15.7034
L23.5472 15.7639
" />
<path d="M23.5472 15.7639
L23.4262 15.8244
" />
<path d="M23.4262 15.8244
L22.9424 15.8244
" />
<path d="M24.1520 16.3687
L24.3334 16.4291
" />
<path d="M24.3334 16.4291
L24.6358 16.4291
" />
<path d="M24.6358 16.4291
L24.7567 16.3687
" />
<path d="M24.7567 16.3687
L24.8172 16.3082
" />
<path d="M24.8172 16.3082
L24.8777 16.1872
" />
<path d="M24.8777 16.1872
L24.8777 16.0663
" />
<path d="M24.8777 16.0663
L24.8172 15.9453
" />
<path d="M24.8172 15.9453
L24.7567 15.8848
" />
<path d="M24.7567 15.8848
L24.6358 15.8244
" />
<path d="M24.6358 15.8244
L24.3939 15.7639
" />
<path d="M24.3939 15.7639
L24.2729 15.7034
" />
<path d="M24.2729 15.7034
L24.2124 15.6429
" />
<path d="M24.2124 15.6429
L24.1520 15.5220
" />
<path d="M24.1520 15.5220
L24.1520 15.4010
" />
<path d="M24.1520 15.4010
L24.2124 15.2801
" />
<path d="M24.2124 15.2801
L24.2729 15.2196
" />
<path d="M24.2729 15.2196
L24.3939 15.1591
" />
<path d="M24.3939 15.1591
L24.6962 15.1591
" />
<path d="M24.6962 15.1591
L24.8777 15.2196
" />
<path d="M25.2405 15.1591
L25.9662 15.1591
" />
<path d="M25.6034 16.4291
L25.6034 15.1591
" />
<path d="M22.7671 14.8066
L25.9602 14.8066
" />
</g></g>
<g style="fill:#A90000; fill-opacity:0.0; 
stroke:#A90000; stroke-width:0.1524; stroke-opacity:1; 
stroke-linecap:round; stroke-linejoin:round;">
<text x="27.9654" y="15.5956"
textLength="1.4127" font-size="1.6933" lengthAdjust="spacingAndGlyphs"
text-anchor="middle" opacity="0">7</text>
<g class="stroked-text"><desc>7</desc>
<path d="M27.5421 14.1621
L28.3887 14.1621
" />
<path d="M28.3887 14.1621
L27.8445 15.4321
" />
</g></g>
<g style="fill:#840000; fill-opacity:0.0; 
stroke:#840000; stroke-width:0.1524; stroke-opacity:1; 
stroke-linecap:round; stroke-linejoin:round;">
<path d="M19.0754 12.0396
L19.0754 9.4996
" />
</g>
<g style="fill:#006464; fill-opacity:0.0; 
stroke:#006464; stroke-width:0.1524; stroke-opacity:1; 
stroke-linecap:round; stroke-linejoin:round;">
<g transform="rotate(-90.000000 19.0754 12.5476)">
<text x="19.0754" y="13.1826"
textLength="3.8318" font-size="1.6933" lengthAdjust="spacingAndGlyphs"
text-anchor="end" opacity="0">VCC</text>
</g>
<g class="stroked-text"><desc>VCC</desc>
<path d="M18.3849 16.1554
L19.6549 15.7321
" />
<path d="M19.6549 15.7321
L18.3849 15.3087
" />
<path d="M19.5340 14.1597
L19.5945 14.2201
" />
<path d="M19.5945 14.2201
L19.6549 14.4016
" />
<path d="M19.6549 14.4016
L19.6549 14.5225
" />
<path d="M19.6549 14.5225
L19.5945 14.7039
" />
<path d="M19.5945 14.7039
L19.4735 14.8249
" />
<path d="M19.4735 14.8249
L19.3525 14.8854
" />
<path d="M19.3525 14.8854
L19.1106 14.9458
" />
<path d="M19.1106 14.9458
L18.9292 14.9458
" />
<path d="M18.9292 14.9458
L18.6873 14.8854
" />
<path d="M18.6873 14.8854
L18.5664 14.8249
" />
<path d="M18.5664 14.8249
L18.4454 14.7039
" />
<path d="M18.4454 14.7039
L18.3849 14.5225
" />
<path d="M18.3849 14.5225
L18.3849 14.4016
" />
<path d="M18.3849 14.4016
L18.4454 14.2201
" />
<path d="M18.4454 14.2201
L18.5059 14.1597
" />
<path d="M19.5340 12.8897
L19.5945 12.9501
" />
<path d="M19.5945 12.9501
L19.6549 13.1316
" />
<path d="M19.6549 13.1316
L19.6549 13.2525
" />
<path d="M19.6549 13.2525
L19.5945 13.4339
" />
<path d="M19.5945 13.4339
L19.4735 13.5549
" />
<path d="M19.4735 13.5549
L19.3525 13.6154
" />
<path d="M19.3525 13.6154
L19.1106 13.6758
" />
<path d="M19.1106 13.6758
L18.9292 13.6758
" />
<path d="M18.9292 13.6758
L18.6873 13.6154
" />
<path d="M18.6873 13.6154
L18.5664 13.5549
" />
<path d="M18.5664 13.5549
L18.4454 13.4339
" />
<path d="M18.4454 13.4339
L18.3849 13.2525
" />
<path d="M18.3849 13.2525
L18.3849 13.1316
" />
<path d="M18.3849 13.1316
L18.4454 12.9501
" />
<path d="M18.4454 12.9501
L18.5059 12.8897
" />
</g></g>
<g style="fill:#A90000; fill-opacity:0.0; 
stroke:#A90000; stroke-width:0.1524; stroke-opacity:1; 
stroke-linecap:round; stroke-linejoin:round;">
<g transform="rotate(-90.000000 18.8214 10.7696)">
<text x="18.8214" y="10.7696"
textLength="1.4127" font-size="1.6933" lengthAdjust="spacingAndGlyphs"
text-anchor="middle" opacity="0">8</text>
</g>
<g class="stroked-text"><desc>8</desc>
<path d="M17.9322 10.8904
L17.8717 11.0114
" />
<path d="M17.8717 11.0114
L17.8113 11.0719
" />
<path d="M17.8113 11.0719
L17.6903 11.1323
" />
<path d="M17.6903 11.1323
L17.6298 11.1323
" />
<path d="M17.6298 11.1323
L17.5089 11.0719
" />
<path d="M17.5089 11.0719
L17.4484 11.0114
" />
<path d="M17.4484 11.0114
L17.3879 10.8904
" />
<path d="M17.3879 10.8904
L17.3879 10.6485
" />
<path d="M17.3879 10.6485
L17.4484 10.5276
" />
<path d="M17.4484 10.5276
L17.5089 10.4671
" />
<path d="M17.5089 10.4671
L17.6298 10.4066
" />
<path d="M17.6298 10.4066
L17.6903 10.4066
" />
<path d="M17.6903 10.4066
L17.8113 10.4671
" />
<path d="M17.8113 10.4671
L17.8717 10.5276
" />
<path d="M17.8717 10.5276
L17.9322 10.6485
" />
<path d="M17.9322 10.6485
L17.9322 10.8904
" />
<path d="M17.9322 10.8904
L17.9927 11.0114
" />
<path d="M17.9927 11.0114
L18.0532 11.0719
" />
<path d="M18.0532 11.0719
L18.1741 11.1323
" />
<path d="M18.1741 11.1323
L18.4160 11.1323
" />
<path d="M18.4160 11.1323
L18.5370 11.0719
" />
<path d="M18.5370 11.0719
L18.5975 11.0114
" />
<path d="M18.5975 11.0114
L18.6579 10.8904
" />
<path d="M18.6579 10.8904
L18.6579 10.6485
" />
<path d="M18.6579 10.6485
L18.5975 10.5276
" />
<path d="M18.5975 10.5276
L18.5370 10.4671
" />
<path d="M18.5370 10.4671
L18.4160 10.4066
" />
<path d="M18.4160 10.4066
L18.1741 10.4066
" />
<path d="M18.1741 10.4066
L18.0532 10.4671
" />
<path d="M18.0532 10.4671
L17.9927 10.5276
" />
<path d="M17.9927 10.5276
L17.9322 10.6485
" />
</g></g>
<g style="fill:#840084; fill-opacity:0.0; 
stroke:#840084; stroke-width:0.1524; stroke-opacity:1; 
stroke-linecap:round; stroke-linejoin:round;">
</g>
<g style="fill:#006464; fill-opacity:0.0; 
stroke:#006464; stroke-width:0.1524; stroke-opacity:1; 
stroke-linecap:round; stroke-linejoin:round;">
</g>
<g style="fill:#006464; fill-opacity:0.0; 
stroke:#006464; stroke-width:0.1588; stroke-opacity:1; 
stroke-linecap:round; stroke-linejoin:round;">
<text x="26.6954" y="11.4046"
textLength="2.6415" font-size="1.6933" lengthAdjust="spacingAndGlyphs"
text-anchor="middle" opacity="0">U?</text>
<g class="stroked-text"><desc>U?</desc>
<path d="M25.7882 10.0788
L25.7882 11.1069
" />
<path d="M25.7882 11.1069
L25.8487 11.2279
" />
<path d="M25.8487 11.2279
L25.9092 11.2884
" />
<path d="M25.9092 11.2884
L26.0301 11.3488
" />
<path d="M26.0301 11.3488
L26.2720 11.3488
" />
<path d="M26.2720 11.3488
L26.3930 11.2884
" />
<path d="M26.3930 11.2884
L26.4535 11.2279
" />
<path d="M26.4535 11.2279
L26.5139 11.1069
" />
<path d="M26.5139 11.1069
L26.5139 10.0788
" />
<path d="M27.3002 11.2279
L27.3606 11.2884
" />
<path d="M27.3606 11.2884
L27.3002 11.3488
" />
<path d="M27.3002 11.3488
L27.2397 11.2884
" />
<path d="M27.2397 11.2884
L27.3002 11.2279
" />
<path d="M27.3002 11.2279
L27.3002 11.3488
" />
<path d="M27.0583 10.1393
L27.1792 10.0788
" />
<path d="M27.1792 10.0788
L27.4816 10.0788
" />
<path d="M27.4816 10.0788
L27.6025 10.1393
" />
<path d="M27.6025 10.1393
L27.6630 10.2603
" />
<path d="M27.6630 10.2603
L27.6630 10.3812
" />
<path d="M27.6630 10.3812
L27.6025 10.5022
" />
<path d="M27.6025 10.5022
L27.5421 10.5626
" />
<path d="M27.5421 10.5626
L27.4211 10.6231
" />
<path d="M27.4211 10.6231
L27.3606 10.6836
" />
<path d="M27.3606 10.6836
L27.3002 10.8045
" />
<path d="M27.3002 10.8045
L27.3002 10.8650
" />
</g></g> 
</svg>
