<?xml version="1.0" standalone="no"?>
 <!DOCTYPE svg PUBLIC "-//W3C//DTD SVG 1.1//EN" 
 "http://www.w3.org/Graphics/SVG/1.1/DTD/svg11.dtd"> 
<svg
  xmlns:svg="http://www.w3.org/2000/svg"
  xmlns="http://www.w3.org/2000/svg"
  xmlns:xlink="http://www.w3.org/1999/xlink"
  version="1.1"
  width="31.9024mm" height="24.0792mm" viewBox="0.0000 0.0000 31.9024 24.0792">
<title>SVG Image created as esp-01-v2.svg date 2023/09/21 01:25:16 </title>
  <desc>Image generated by Eeschema-SVG </desc>
<g style="fill:#000000; fill-opacity:1.0000;stroke:#000000; stroke-opacity:1.0000;
stroke-linecap:round; stroke-linejoin:round;"
 transform="translate(0 0) scale(1 1)">
</g>
<g style="fill:#840000; fill-opacity:0.0; 
stroke:#840000; stroke-width:0.0000; stroke-opacity:1; 
stroke-linecap:round; stroke-linejoin:round;">
</g>
<g style="fill:#FFFFC2; fill-opacity:0.0; 
stroke:#FFFFC2; stroke-width:0.0000; stroke-opacity:1; 
stroke-linecap:round; stroke-linejoin:round;">
</g>
<g style="fill:#FFFFC2; fill-opacity:1.0000; 
stroke:#FFFFC2; stroke-width:0.0000; stroke-opacity:1; 
stroke-linecap:round; stroke-linejoin:round;">
<rect x="13.411200" y="12.039600" width="15.240000" height="12.700000" rx="0.000000" />
</g>
<g style="fill:#840084; fill-opacity:1.0000; 
stroke:#840084; stroke-width:0.0000; stroke-opacity:1; 
stroke-linecap:round; stroke-linejoin:round;">
</g>
<g style="fill:#840000; fill-opacity:1.0000; 
stroke:#840000; stroke-width:0.0000; stroke-opacity:1; 
stroke-linecap:round; stroke-linejoin:round;">
</g>
<g style="fill:#840000; fill-opacity:0.0; 
stroke:#840000; stroke-width:0.1524; stroke-opacity:1; 
stroke-linecap:round; stroke-linejoin:round;">
<rect x="13.411200" y="12.039600" width="15.240000" height="12.700000" rx="0.000000" />
<path d="M13.4112 15.8496
L10.8712 15.8496
" />
</g>
<g style="fill:#006464; fill-opacity:0.0; 
stroke:#006464; stroke-width:0.1524; stroke-opacity:1; 
stroke-linecap:round; stroke-linejoin:round;">
<text x="13.9192" y="16.4846"
textLength="2.6827" font-size="1.6933" lengthAdjust="spacingAndGlyphs"
text-anchor="start" opacity="0">RX</text>
<g class="stroked-text"><desc>RX</desc>
<path d="M15.0474 16.4291
L14.6241 15.8244
" />
<path d="M14.3217 16.4291
L14.3217 15.1591
" />
<path d="M14.3217 15.1591
L14.8055 15.1591
" />
<path d="M14.8055 15.1591
L14.9265 15.2196
" />
<path d="M14.9265 15.2196
L14.9870 15.2801
" />
<path d="M14.9870 15.2801
L15.0474 15.4010
" />
<path d="M15.0474 15.4010
L15.0474 15.5825
" />
<path d="M15.0474 15.5825
L14.9870 15.7034
" />
<path d="M14.9870 15.7034
L14.9265 15.7639
" />
<path d="M14.9265 15.7639
L14.8055 15.8244
" />
<path d="M14.8055 15.8244
L14.3217 15.8244
" />
<path d="M15.4708 15.1591
L16.3174 16.4291
" />
<path d="M16.3174 15.1591
L15.4708 16.4291
" />
</g></g>
<g style="fill:#A90000; fill-opacity:0.0; 
stroke:#A90000; stroke-width:0.1524; stroke-opacity:1; 
stroke-linecap:round; stroke-linejoin:round;">
<text x="12.1412" y="15.5956"
textLength="1.4127" font-size="1.6933" lengthAdjust="spacingAndGlyphs"
text-anchor="middle" opacity="0">1</text>
<g class="stroked-text"><desc>1</desc>
<path d="M12.5041 15.4321
L11.7784 15.4321
" />
<path d="M12.1412 15.4321
L12.1412 14.1621
" />
<path d="M12.1412 14.1621
L12.0203 14.3436
" />
<path d="M12.0203 14.3436
L11.8993 14.4645
" />
<path d="M11.8993 14.4645
L11.7784 14.5250
" />
</g></g>
<g style="fill:#840000; fill-opacity:0.0; 
stroke:#840000; stroke-width:0.1524; stroke-opacity:1; 
stroke-linecap:round; stroke-linejoin:round;">
<path d="M28.6512 15.8496
L31.1912 15.8496
" />
</g>
<g style="fill:#006464; fill-opacity:0.0; 
stroke:#006464; stroke-width:0.1524; stroke-opacity:1; 
stroke-linecap:round; stroke-linejoin:round;">
<text x="28.1432" y="16.4846"
textLength="5.8880" font-size="1.6933" lengthAdjust="spacingAndGlyphs"
text-anchor="end" opacity="0">GPIO0</text>
<g class="stroked-text"><desc>GPIO0</desc>
<path d="M23.3258 15.2196
L23.2048 15.1591
" />
<path d="M23.2048 15.1591
L23.0234 15.1591
" />
<path d="M23.0234 15.1591
L22.8420 15.2196
" />
<path d="M22.8420 15.2196
L22.7210 15.3406
" />
<path d="M22.7210 15.3406
L22.6605 15.4615
" />
<path d="M22.6605 15.4615
L22.6001 15.7034
" />
<path d="M22.6001 15.7034
L22.6001 15.8848
" />
<path d="M22.6001 15.8848
L22.6605 16.1267
" />
<path d="M22.6605 16.1267
L22.7210 16.2477
" />
<path d="M22.7210 16.2477
L22.8420 16.3687
" />
<path d="M22.8420 16.3687
L23.0234 16.4291
" />
<path d="M23.0234 16.4291
L23.1443 16.4291
" />
<path d="M23.1443 16.4291
L23.3258 16.3687
" />
<path d="M23.3258 16.3687
L23.3862 16.3082
" />
<path d="M23.3862 16.3082
L23.3862 15.8848
" />
<path d="M23.3862 15.8848
L23.1443 15.8848
" />
<path d="M23.9305 16.4291
L23.9305 15.1591
" />
<path d="M23.9305 15.1591
L24.4143 15.1591
" />
<path d="M24.4143 15.1591
L24.5353 15.2196
" />
<path d="M24.5353 15.2196
L24.5958 15.2801
" />
<path d="M24.5958 15.2801
L24.6562 15.4010
" />
<path d="M24.6562 15.4010
L24.6562 15.5825
" />
<path d="M24.6562 15.5825
L24.5958 15.7034
" />
<path d="M24.5958 15.7034
L24.5353 15.7639
" />
<path d="M24.5353 15.7639
L24.4143 15.8244
" />
<path d="M24.4143 15.8244
L23.9305 15.8244
" />
<path d="M25.2005 16.4291
L25.2005 15.1591
" />
<path d="M26.0472 15.1591
L26.2891 15.1591
" />
<path d="M26.2891 15.1591
L26.4101 15.2196
" />
<path d="M26.4101 15.2196
L26.5310 15.3406
" />
<path d="M26.5310 15.3406
L26.5915 15.5825
" />
<path d="M26.5915 15.5825
L26.5915 16.0058
" />
<path d="M26.5915 16.0058
L26.5310 16.2477
" />
<path d="M26.5310 16.2477
L26.4101 16.3687
" />
<path d="M26.4101 16.3687
L26.2891 16.4291
" />
<path d="M26.2891 16.4291
L26.0472 16.4291
" />
<path d="M26.0472 16.4291
L25.9263 16.3687
" />
<path d="M25.9263 16.3687
L25.8053 16.2477
" />
<path d="M25.8053 16.2477
L25.7449 16.0058
" />
<path d="M25.7449 16.0058
L25.7449 15.5825
" />
<path d="M25.7449 15.5825
L25.8053 15.3406
" />
<path d="M25.8053 15.3406
L25.9263 15.2196
" />
<path d="M25.9263 15.2196
L26.0472 15.1591
" />
<path d="M27.3777 15.1591
L27.4987 15.1591
" />
<path d="M27.4987 15.1591
L27.6196 15.2196
" />
<path d="M27.6196 15.2196
L27.6801 15.2801
" />
<path d="M27.6801 15.2801
L27.7406 15.4010
" />
<path d="M27.7406 15.4010
L27.8011 15.6429
" />
<path d="M27.8011 15.6429
L27.8011 15.9453
" />
<path d="M27.8011 15.9453
L27.7406 16.1872
" />
<path d="M27.7406 16.1872
L27.6801 16.3082
" />
<path d="M27.6801 16.3082
L27.6196 16.3687
" />
<path d="M27.6196 16.3687
L27.4987 16.4291
" />
<path d="M27.4987 16.4291
L27.3777 16.4291
" />
<path d="M27.3777 16.4291
L27.2568 16.3687
" />
<path d="M27.2568 16.3687
L27.1963 16.3082
" />
<path d="M27.1963 16.3082
L27.1358 16.1872
" />
<path d="M27.1358 16.1872
L27.0754 15.9453
" />
<path d="M27.0754 15.9453
L27.0754 15.6429
" />
<path d="M27.0754 15.6429
L27.1358 15.4010
" />
<path d="M27.1358 15.4010
L27.1963 15.2801
" />
<path d="M27.1963 15.2801
L27.2568 15.2196
" />
<path d="M27.2568 15.2196
L27.3777 15.1591
" />
</g></g>
<g style="fill:#A90000; fill-opacity:0.0; 
stroke:#A90000; stroke-width:0.1524; stroke-opacity:1; 
stroke-linecap:round; stroke-linejoin:round;">
<text x="29.9212" y="15.5956"
textLength="1.4127" font-size="1.6933" lengthAdjust="spacingAndGlyphs"
text-anchor="middle" opacity="0">2</text>
<g class="stroked-text"><desc>2</desc>
<path d="M29.5584 14.2831
L29.6188 14.2226
" />
<path d="M29.6188 14.2226
L29.7398 14.1621
" />
<path d="M29.7398 14.1621
L30.0422 14.1621
" />
<path d="M30.0422 14.1621
L30.1631 14.2226
" />
<path d="M30.1631 14.2226
L30.2236 14.2831
" />
<path d="M30.2236 14.2831
L30.2841 14.4040
" />
<path d="M30.2841 14.4040
L30.2841 14.5250
" />
<path d="M30.2841 14.5250
L30.2236 14.7064
" />
<path d="M30.2236 14.7064
L29.4979 15.4321
" />
<path d="M29.4979 15.4321
L30.2841 15.4321
" />
</g></g>
<g style="fill:#840000; fill-opacity:0.0; 
stroke:#840000; stroke-width:0.1524; stroke-opacity:1; 
stroke-linecap:round; stroke-linejoin:round;">
<path d="M28.6512 18.3896
L31.1912 18.3896
" />
</g>
<g style="fill:#006464; fill-opacity:0.0; 
stroke:#006464; stroke-width:0.1524; stroke-opacity:1; 
stroke-linecap:round; stroke-linejoin:round;">
<text x="28.1432" y="19.0246"
textLength="5.8880" font-size="1.6933" lengthAdjust="spacingAndGlyphs"
text-anchor="end" opacity="0">GPIO2</text>
<g class="stroked-text"><desc>GPIO2</desc>
<path d="M23.3258 17.7596
L23.2048 17.6991
" />
<path d="M23.2048 17.6991
L23.0234 17.6991
" />
<path d="M23.0234 17.6991
L22.8420 17.7596
" />
<path d="M22.8420 17.7596
L22.7210 17.8806
" />
<path d="M22.7210 17.8806
L22.6605 18.0015
" />
<path d="M22.6605 18.0015
L22.6001 18.2434
" />
<path d="M22.6001 18.2434
L22.6001 18.4248
" />
<path d="M22.6001 18.4248
L22.6605 18.6667
" />
<path d="M22.6605 18.6667
L22.7210 18.7877
" />
<path d="M22.7210 18.7877
L22.8420 18.9087
" />
<path d="M22.8420 18.9087
L23.0234 18.9691
" />
<path d="M23.0234 18.9691
L23.1443 18.9691
" />
<path d="M23.1443 18.9691
L23.3258 18.9087
" />
<path d="M23.3258 18.9087
L23.3862 18.8482
" />
<path d="M23.3862 18.8482
L23.3862 18.4248
" />
<path d="M23.3862 18.4248
L23.1443 18.4248
" />
<path d="M23.9305 18.9691
L23.9305 17.6991
" />
<path d="M23.9305 17.6991
L24.4143 17.6991
" />
<path d="M24.4143 17.6991
L24.5353 17.7596
" />
<path d="M24.5353 17.7596
L24.5958 17.8201
" />
<path d="M24.5958 17.8201
L24.6562 17.9410
" />
<path d="M24.6562 17.9410
L24.6562 18.1225
" />
<path d="M24.6562 18.1225
L24.5958 18.2434
" />
<path d="M24.5958 18.2434
L24.5353 18.3039
" />
<path d="M24.5353 18.3039
L24.4143 18.3644
" />
<path d="M24.4143 18.3644
L23.9305 18.3644
" />
<path d="M25.2005 18.9691
L25.2005 17.6991
" />
<path d="M26.0472 17.6991
L26.2891 17.6991
" />
<path d="M26.2891 17.6991
L26.4101 17.7596
" />
<path d="M26.4101 17.7596
L26.5310 17.8806
" />
<path d="M26.5310 17.8806
L26.5915 18.1225
" />
<path d="M26.5915 18.1225
L26.5915 18.5458
" />
<path d="M26.5915 18.5458
L26.5310 18.7877
" />
<path d="M26.5310 18.7877
L26.4101 18.9087
" />
<path d="M26.4101 18.9087
L26.2891 18.9691
" />
<path d="M26.2891 18.9691
L26.0472 18.9691
" />
<path d="M26.0472 18.9691
L25.9263 18.9087
" />
<path d="M25.9263 18.9087
L25.8053 18.7877
" />
<path d="M25.8053 18.7877
L25.7449 18.5458
" />
<path d="M25.7449 18.5458
L25.7449 18.1225
" />
<path d="M25.7449 18.1225
L25.8053 17.8806
" />
<path d="M25.8053 17.8806
L25.9263 17.7596
" />
<path d="M25.9263 17.7596
L26.0472 17.6991
" />
<path d="M27.0754 17.8201
L27.1358 17.7596
" />
<path d="M27.1358 17.7596
L27.2568 17.6991
" />
<path d="M27.2568 17.6991
L27.5592 17.6991
" />
<path d="M27.5592 17.6991
L27.6801 17.7596
" />
<path d="M27.6801 17.7596
L27.7406 17.8201
" />
<path d="M27.7406 17.8201
L27.8011 17.9410
" />
<path d="M27.8011 17.9410
L27.8011 18.0620
" />
<path d="M27.8011 18.0620
L27.7406 18.2434
" />
<path d="M27.7406 18.2434
L27.0149 18.9691
" />
<path d="M27.0149 18.9691
L27.8011 18.9691
" />
</g></g>
<g style="fill:#A90000; fill-opacity:0.0; 
stroke:#A90000; stroke-width:0.1524; stroke-opacity:1; 
stroke-linecap:round; stroke-linejoin:round;">
<text x="29.9212" y="18.1356"
textLength="1.4127" font-size="1.6933" lengthAdjust="spacingAndGlyphs"
text-anchor="middle" opacity="0">3</text>
<g class="stroked-text"><desc>3</desc>
<path d="M29.4979 16.7021
L30.2841 16.7021
" />
<path d="M30.2841 16.7021
L29.8607 17.1859
" />
<path d="M29.8607 17.1859
L30.0422 17.1859
" />
<path d="M30.0422 17.1859
L30.1631 17.2464
" />
<path d="M30.1631 17.2464
L30.2236 17.3069
" />
<path d="M30.2236 17.3069
L30.2841 17.4278
" />
<path d="M30.2841 17.4278
L30.2841 17.7302
" />
<path d="M30.2841 17.7302
L30.2236 17.8512
" />
<path d="M30.2236 17.8512
L30.1631 17.9117
" />
<path d="M30.1631 17.9117
L30.0422 17.9721
" />
<path d="M30.0422 17.9721
L29.6793 17.9721
" />
<path d="M29.6793 17.9721
L29.5584 17.9117
" />
<path d="M29.5584 17.9117
L29.4979 17.8512
" />
</g></g>
<g style="fill:#840000; fill-opacity:0.0; 
stroke:#840000; stroke-width:0.1524; stroke-opacity:1; 
stroke-linecap:round; stroke-linejoin:round;">
<path d="M21.0312 24.7396
L21.0312 27.2796
" />
</g>
<g style="fill:#006464; fill-opacity:0.0; 
stroke:#006464; stroke-width:0.1524; stroke-opacity:1; 
stroke-linecap:round; stroke-linejoin:round;">
<g transform="rotate(-90.000000 21.0312 24.2316)">
<text x="21.0312" y="24.8666"
textLength="4.0737" font-size="1.6933" lengthAdjust="spacingAndGlyphs"
text-anchor="start" opacity="0">GND</text>
</g>
<g class="stroked-text"><desc>GND</desc>
<path d="M20.4012 23.1637
L20.3407 23.2847
" />
<path d="M20.3407 23.2847
L20.3407 23.4661
" />
<path d="M20.3407 23.4661
L20.4012 23.6475
" />
<path d="M20.4012 23.6475
L20.5222 23.7685
" />
<path d="M20.5222 23.7685
L20.6431 23.8290
" />
<path d="M20.6431 23.8290
L20.8850 23.8894
" />
<path d="M20.8850 23.8894
L21.0664 23.8894
" />
<path d="M21.0664 23.8894
L21.3083 23.8290
" />
<path d="M21.3083 23.8290
L21.4293 23.7685
" />
<path d="M21.4293 23.7685
L21.5503 23.6475
" />
<path d="M21.5503 23.6475
L21.6107 23.4661
" />
<path d="M21.6107 23.4661
L21.6107 23.3452
" />
<path d="M21.6107 23.3452
L21.5503 23.1637
" />
<path d="M21.5503 23.1637
L21.4898 23.1033
" />
<path d="M21.4898 23.1033
L21.0664 23.1033
" />
<path d="M21.0664 23.1033
L21.0664 23.3452
" />
<path d="M21.6107 22.5590
L20.3407 22.5590
" />
<path d="M20.3407 22.5590
L21.6107 21.8333
" />
<path d="M21.6107 21.8333
L20.3407 21.8333
" />
<path d="M21.6107 21.2285
L20.3407 21.2285
" />
<path d="M20.3407 21.2285
L20.3407 20.9261
" />
<path d="M20.3407 20.9261
L20.4012 20.7447
" />
<path d="M20.4012 20.7447
L20.5222 20.6237
" />
<path d="M20.5222 20.6237
L20.6431 20.5632
" />
<path d="M20.6431 20.5632
L20.8850 20.5028
" />
<path d="M20.8850 20.5028
L21.0664 20.5028
" />
<path d="M21.0664 20.5028
L21.3083 20.5632
" />
<path d="M21.3083 20.5632
L21.4293 20.6237
" />
<path d="M21.4293 20.6237
L21.5503 20.7447
" />
<path d="M21.5503 20.7447
L21.6107 20.9261
" />
<path d="M21.6107 20.9261
L21.6107 21.2285
" />
</g></g>
<g style="fill:#A90000; fill-opacity:0.0; 
stroke:#A90000; stroke-width:0.1524; stroke-opacity:1; 
stroke-linecap:round; stroke-linejoin:round;">
<g transform="rotate(-90.000000 20.7772 26.0096)">
<text x="20.7772" y="26.0096"
textLength="1.4127" font-size="1.6933" lengthAdjust="spacingAndGlyphs"
text-anchor="middle" opacity="0">4</text>
</g>
<g class="stroked-text"><desc>4</desc>
<path d="M19.7671 25.7676
L20.6137 25.7676
" />
<path d="M19.2833 26.0700
L20.1904 26.3723
" />
<path d="M20.1904 26.3723
L20.1904 25.5862
" />
</g></g>
<g style="fill:#840000; fill-opacity:0.0; 
stroke:#840000; stroke-width:0.1524; stroke-opacity:1; 
stroke-linecap:round; stroke-linejoin:round;">
<path d="M28.6512 20.9296
L31.1912 20.9296
" />
</g>
<g style="fill:#006464; fill-opacity:0.0; 
stroke:#006464; stroke-width:0.1524; stroke-opacity:1; 
stroke-linecap:round; stroke-linejoin:round;">
<text x="28.1432" y="21.5646"
textLength="2.3803" font-size="1.6933" lengthAdjust="spacingAndGlyphs"
text-anchor="end" opacity="0">TX</text>
<g class="stroked-text"><desc>TX</desc>
<path d="M25.9868 20.2391
L26.7125 20.2391
" />
<path d="M26.3497 21.5091
L26.3497 20.2391
" />
<path d="M27.0149 20.2391
L27.8615 21.5091
" />
<path d="M27.8615 20.2391
L27.0149 21.5091
" />
</g></g>
<g style="fill:#A90000; fill-opacity:0.0; 
stroke:#A90000; stroke-width:0.1524; stroke-opacity:1; 
stroke-linecap:round; stroke-linejoin:round;">
<text x="29.9212" y="20.6756"
textLength="1.4127" font-size="1.6933" lengthAdjust="spacingAndGlyphs"
text-anchor="middle" opacity="0">5</text>
<g class="stroked-text"><desc>5</desc>
<path d="M30.2236 19.2421
L29.6188 19.2421
" />
<path d="M29.6188 19.2421
L29.5584 19.8469
" />
<path d="M29.5584 19.8469
L29.6188 19.7864
" />
<path d="M29.6188 19.7864
L29.7398 19.7259
" />
<path d="M29.7398 19.7259
L30.0422 19.7259
" />
<path d="M30.0422 19.7259
L30.1631 19.7864
" />
<path d="M30.1631 19.7864
L30.2236 19.8469
" />
<path d="M30.2236 19.8469
L30.2841 19.9678
" />
<path d="M30.2841 19.9678
L30.2841 20.2702
" />
<path d="M30.2841 20.2702
L30.2236 20.3912
" />
<path d="M30.2236 20.3912
L30.1631 20.4517
" />
<path d="M30.1631 20.4517
L30.0422 20.5121
" />
<path d="M30.0422 20.5121
L29.7398 20.5121
" />
<path d="M29.7398 20.5121
L29.6188 20.4517
" />
<path d="M29.6188 20.4517
L29.5584 20.3912
" />
</g></g>
<g style="fill:#840000; fill-opacity:0.0; 
stroke:#840000; stroke-width:0.1524; stroke-opacity:1; 
stroke-linecap:round; stroke-linejoin:round;">
<path d="M13.4112 18.3896
L10.8712 18.3896
" />
</g>
<g style="fill:#006464; fill-opacity:0.0; 
stroke:#006464; stroke-width:0.1524; stroke-opacity:1; 
stroke-linecap:round; stroke-linejoin:round;">
<text x="13.9192" y="19.0246"
textLength="6.2508" font-size="1.6933" lengthAdjust="spacingAndGlyphs"
text-anchor="start" opacity="0">CH_EN</text>
<g class="stroked-text"><desc>CH_EN</desc>
<path d="M15.0474 18.8482
L14.9870 18.9087
" />
<path d="M14.9870 18.9087
L14.8055 18.9691
" />
<path d="M14.8055 18.9691
L14.6846 18.9691
" />
<path d="M14.6846 18.9691
L14.5032 18.9087
" />
<path d="M14.5032 18.9087
L14.3822 18.7877
" />
<path d="M14.3822 18.7877
L14.3217 18.6667
" />
<path d="M14.3217 18.6667
L14.2613 18.4248
" />
<path d="M14.2613 18.4248
L14.2613 18.2434
" />
<path d="M14.2613 18.2434
L14.3217 18.0015
" />
<path d="M14.3217 18.0015
L14.3822 17.8806
" />
<path d="M14.3822 17.8806
L14.5032 17.7596
" />
<path d="M14.5032 17.7596
L14.6846 17.6991
" />
<path d="M14.6846 17.6991
L14.8055 17.6991
" />
<path d="M14.8055 17.6991
L14.9870 17.7596
" />
<path d="M14.9870 17.7596
L15.0474 17.8201
" />
<path d="M15.5917 18.9691
L15.5917 17.6991
" />
<path d="M15.5917 18.3039
L16.3174 18.3039
" />
<path d="M16.3174 18.9691
L16.3174 17.6991
" />
<path d="M16.6199 19.0901
L17.5875 19.0901
" />
<path d="M17.8898 18.3039
L18.3132 18.3039
" />
<path d="M18.4946 18.9691
L17.8898 18.9691
" />
<path d="M17.8898 18.9691
L17.8898 17.6991
" />
<path d="M17.8898 17.6991
L18.4946 17.6991
" />
<path d="M19.0388 18.9691
L19.0388 17.6991
" />
<path d="M19.0388 17.6991
L19.7645 18.9691
" />
<path d="M19.7645 18.9691
L19.7645 17.6991
" />
</g></g>
<g style="fill:#A90000; fill-opacity:0.0; 
stroke:#A90000; stroke-width:0.1524; stroke-opacity:1; 
stroke-linecap:round; stroke-linejoin:round;">
<text x="12.1412" y="18.1356"
textLength="1.4127" font-size="1.6933" lengthAdjust="spacingAndGlyphs"
text-anchor="middle" opacity="0">6</text>
<g class="stroked-text"><desc>6</desc>
<path d="M12.3831 16.7021
L12.1412 16.7021
" />
<path d="M12.1412 16.7021
L12.0203 16.7626
" />
<path d="M12.0203 16.7626
L11.9598 16.8231
" />
<path d="M11.9598 16.8231
L11.8388 17.0045
" />
<path d="M11.8388 17.0045
L11.7784 17.2464
" />
<path d="M11.7784 17.2464
L11.7784 17.7302
" />
<path d="M11.7784 17.7302
L11.8388 17.8512
" />
<path d="M11.8388 17.8512
L11.8993 17.9117
" />
<path d="M11.8993 17.9117
L12.0203 17.9721
" />
<path d="M12.0203 17.9721
L12.2622 17.9721
" />
<path d="M12.2622 17.9721
L12.3831 17.9117
" />
<path d="M12.3831 17.9117
L12.4436 17.8512
" />
<path d="M12.4436 17.8512
L12.5041 17.7302
" />
<path d="M12.5041 17.7302
L12.5041 17.4278
" />
<path d="M12.5041 17.4278
L12.4436 17.3069
" />
<path d="M12.4436 17.3069
L12.3831 17.2464
" />
<path d="M12.3831 17.2464
L12.2622 17.1859
" />
<path d="M12.2622 17.1859
L12.0203 17.1859
" />
<path d="M12.0203 17.1859
L11.8993 17.2464
" />
<path d="M11.8993 17.2464
L11.8388 17.3069
" />
<path d="M11.8388 17.3069
L11.7784 17.4278
" />
</g></g>
<g style="fill:#840000; fill-opacity:0.0; 
stroke:#840000; stroke-width:0.1524; stroke-opacity:1; 
stroke-linecap:round; stroke-linejoin:round;">
<path d="M13.4112 20.9296
L10.8712 20.9296
" />
</g>
<g style="fill:#006464; fill-opacity:0.0; 
stroke:#006464; stroke-width:0.1524; stroke-opacity:1; 
stroke-linecap:round; stroke-linejoin:round;">
<text x="13.9192" y="21.5646"
textLength="3.6503" font-size="1.6933" lengthAdjust="spacingAndGlyphs"
text-anchor="start" opacity="0">~{RST}</text>
<g class="stroked-text"><desc>~{RST}</desc>
<path d="M15.0474 21.5091
L14.6241 20.9044
" />
<path d="M14.3217 21.5091
L14.3217 20.2391
" />
<path d="M14.3217 20.2391
L14.8055 20.2391
" />
<path d="M14.8055 20.2391
L14.9265 20.2996
" />
<path d="M14.9265 20.2996
L14.9870 20.3601
" />
<path d="M14.9870 20.3601
L15.0474 20.4810
" />
<path d="M15.0474 20.4810
L15.0474 20.6625
" />
<path d="M15.0474 20.6625
L14.9870 20.7834
" />
<path d="M14.9870 20.7834
L14.9265 20.8439
" />
<path d="M14.9265 20.8439
L14.8055 20.9044
" />
<path d="M14.8055 20.9044
L14.3217 20.9044
" />
<path d="M15.5313 21.4487
L15.7127 21.5091
" />
<path d="M15.7127 21.5091
L16.0151 21.5091
" />
<path d="M16.0151 21.5091
L16.1360 21.4487
" />
<path d="M16.1360 21.4487
L16.1965 21.3882
" />
<path d="M16.1965 21.3882
L16.2570 21.2672
" />
<path d="M16.2570 21.2672
L16.2570 21.1463
" />
<path d="M16.2570 21.1463
L16.1965 21.0253
" />
<path d="M16.1965 21.0253
L16.1360 20.9648
" />
<path d="M16.1360 20.9648
L16.0151 20.9044
" />
<path d="M16.0151 20.9044
L15.7732 20.8439
" />
<path d="M15.7732 20.8439
L15.6522 20.7834
" />
<path d="M15.6522 20.7834
L15.5917 20.7229
" />
<path d="M15.5917 20.7229
L15.5313 20.6020
" />
<path d="M15.5313 20.6020
L15.5313 20.4810
" />
<path d="M15.5313 20.4810
L15.5917 20.3601
" />
<path d="M15.5917 20.3601
L15.6522 20.2996
" />
<path d="M15.6522 20.2996
L15.7732 20.2391
" />
<path d="M15.7732 20.2391
L16.0755 20.2391
" />
<path d="M16.0755 20.2391
L16.2570 20.2996
" />
<path d="M16.6198 20.2391
L17.3455 20.2391
" />
<path d="M16.9827 21.5091
L16.9827 20.2391
" />
<path d="M14.1464 19.8866
L17.3395 19.8866
" />
</g></g>
<g style="fill:#A90000; fill-opacity:0.0; 
stroke:#A90000; stroke-width:0.1524; stroke-opacity:1; 
stroke-linecap:round; stroke-linejoin:round;">
<text x="12.1412" y="20.6756"
textLength="1.4127" font-size="1.6933" lengthAdjust="spacingAndGlyphs"
text-anchor="middle" opacity="0">7</text>
<g class="stroked-text"><desc>7</desc>
<path d="M11.7179 19.2421
L12.5645 19.2421
" />
<path d="M12.5645 19.2421
L12.0203 20.5121
" />
</g></g>
<g style="fill:#840000; fill-opacity:0.0; 
stroke:#840000; stroke-width:0.1524; stroke-opacity:1; 
stroke-linecap:round; stroke-linejoin:round;">
<path d="M21.0312 12.0396
L21.0312 9.4996
" />
</g>
<g style="fill:#006464; fill-opacity:0.0; 
stroke:#006464; stroke-width:0.1524; stroke-opacity:1; 
stroke-linecap:round; stroke-linejoin:round;">
<g transform="rotate(-90.000000 21.0312 12.5476)">
<text x="21.0312" y="13.1826"
textLength="3.8318" font-size="1.6933" lengthAdjust="spacingAndGlyphs"
text-anchor="end" opacity="0">VCC</text>
</g>
<g class="stroked-text"><desc>VCC</desc>
<path d="M20.3407 16.1554
L21.6107 15.7321
" />
<path d="M21.6107 15.7321
L20.3407 15.3087
" />
<path d="M21.4898 14.1597
L21.5503 14.2201
" />
<path d="M21.5503 14.2201
L21.6107 14.4016
" />
<path d="M21.6107 14.4016
L21.6107 14.5225
" />
<path d="M21.6107 14.5225
L21.5503 14.7039
" />
<path d="M21.5503 14.7039
L21.4293 14.8249
" />
<path d="M21.4293 14.8249
L21.3083 14.8854
" />
<path d="M21.3083 14.8854
L21.0664 14.9458
" />
<path d="M21.0664 14.9458
L20.8850 14.9458
" />
<path d="M20.8850 14.9458
L20.6431 14.8854
" />
<path d="M20.6431 14.8854
L20.5222 14.8249
" />
<path d="M20.5222 14.8249
L20.4012 14.7039
" />
<path d="M20.4012 14.7039
L20.3407 14.5225
" />
<path d="M20.3407 14.5225
L20.3407 14.4016
" />
<path d="M20.3407 14.4016
L20.4012 14.2201
" />
<path d="M20.4012 14.2201
L20.4617 14.1597
" />
<path d="M21.4898 12.8897
L21.5503 12.9501
" />
<path d="M21.5503 12.9501
L21.6107 13.1316
" />
<path d="M21.6107 13.1316
L21.6107 13.2525
" />
<path d="M21.6107 13.2525
L21.5503 13.4339
" />
<path d="M21.5503 13.4339
L21.4293 13.5549
" />
<path d="M21.4293 13.5549
L21.3083 13.6154
" />
<path d="M21.3083 13.6154
L21.0664 13.6758
" />
<path d="M21.0664 13.6758
L20.8850 13.6758
" />
<path d="M20.8850 13.6758
L20.6431 13.6154
" />
<path d="M20.6431 13.6154
L20.5222 13.5549
" />
<path d="M20.5222 13.5549
L20.4012 13.4339
" />
<path d="M20.4012 13.4339
L20.3407 13.2525
" />
<path d="M20.3407 13.2525
L20.3407 13.1316
" />
<path d="M20.3407 13.1316
L20.4012 12.9501
" />
<path d="M20.4012 12.9501
L20.4617 12.8897
" />
</g></g>
<g style="fill:#A90000; fill-opacity:0.0; 
stroke:#A90000; stroke-width:0.1524; stroke-opacity:1; 
stroke-linecap:round; stroke-linejoin:round;">
<g transform="rotate(-90.000000 20.7772 10.7696)">
<text x="20.7772" y="10.7696"
textLength="1.4127" font-size="1.6933" lengthAdjust="spacingAndGlyphs"
text-anchor="middle" opacity="0">8</text>
</g>
<g class="stroked-text"><desc>8</desc>
<path d="M19.8880 10.8904
L19.8275 11.0114
" />
<path d="M19.8275 11.0114
L19.7671 11.0719
" />
<path d="M19.7671 11.0719
L19.6461 11.1323
" />
<path d="M19.6461 11.1323
L19.5856 11.1323
" />
<path d="M19.5856 11.1323
L19.4647 11.0719
" />
<path d="M19.4647 11.0719
L19.4042 11.0114
" />
<path d="M19.4042 11.0114
L19.3437 10.8904
" />
<path d="M19.3437 10.8904
L19.3437 10.6485
" />
<path d="M19.3437 10.6485
L19.4042 10.5276
" />
<path d="M19.4042 10.5276
L19.4647 10.4671
" />
<path d="M19.4647 10.4671
L19.5856 10.4066
" />
<path d="M19.5856 10.4066
L19.6461 10.4066
" />
<path d="M19.6461 10.4066
L19.7671 10.4671
" />
<path d="M19.7671 10.4671
L19.8275 10.5276
" />
<path d="M19.8275 10.5276
L19.8880 10.6485
" />
<path d="M19.8880 10.6485
L19.8880 10.8904
" />
<path d="M19.8880 10.8904
L19.9485 11.0114
" />
<path d="M19.9485 11.0114
L20.0090 11.0719
" />
<path d="M20.0090 11.0719
L20.1299 11.1323
" />
<path d="M20.1299 11.1323
L20.3718 11.1323
" />
<path d="M20.3718 11.1323
L20.4928 11.0719
" />
<path d="M20.4928 11.0719
L20.5533 11.0114
" />
<path d="M20.5533 11.0114
L20.6137 10.8904
" />
<path d="M20.6137 10.8904
L20.6137 10.6485
" />
<path d="M20.6137 10.6485
L20.5533 10.5276
" />
<path d="M20.5533 10.5276
L20.4928 10.4671
" />
<path d="M20.4928 10.4671
L20.3718 10.4066
" />
<path d="M20.3718 10.4066
L20.1299 10.4066
" />
<path d="M20.1299 10.4066
L20.0090 10.4671
" />
<path d="M20.0090 10.4671
L19.9485 10.5276
" />
<path d="M19.9485 10.5276
L19.8880 10.6485
" />
</g></g>
<g style="fill:#840084; fill-opacity:0.0; 
stroke:#840084; stroke-width:0.1524; stroke-opacity:1; 
stroke-linecap:round; stroke-linejoin:round;">
</g>
<g style="fill:#006464; fill-opacity:0.0; 
stroke:#006464; stroke-width:0.1524; stroke-opacity:1; 
stroke-linecap:round; stroke-linejoin:round;">
</g>
<g style="fill:#006464; fill-opacity:0.0; 
stroke:#006464; stroke-width:0.1588; stroke-opacity:1; 
stroke-linecap:round; stroke-linejoin:round;">
<text x="28.6512" y="11.4046"
textLength="2.6415" font-size="1.6933" lengthAdjust="spacingAndGlyphs"
text-anchor="middle" opacity="0">U?</text>
<g class="stroked-text"><desc>U?</desc>
<path d="M27.7440 10.0788
L27.7440 11.1069
" />
<path d="M27.7440 11.1069
L27.8045 11.2279
" />
<path d="M27.8045 11.2279
L27.8650 11.2884
" />
<path d="M27.8650 11.2884
L27.9859 11.3488
" />
<path d="M27.9859 11.3488
L28.2278 11.3488
" />
<path d="M28.2278 11.3488
L28.3488 11.2884
" />
<path d="M28.3488 11.2884
L28.4093 11.2279
" />
<path d="M28.4093 11.2279
L28.4697 11.1069
" />
<path d="M28.4697 11.1069
L28.4697 10.0788
" />
<path d="M29.2560 11.2279
L29.3164 11.2884
" />
<path d="M29.3164 11.2884
L29.2560 11.3488
" />
<path d="M29.2560 11.3488
L29.1955 11.2884
" />
<path d="M29.1955 11.2884
L29.2560 11.2279
" />
<path d="M29.2560 11.2279
L29.2560 11.3488
" />
<path d="M29.0141 10.1393
L29.1350 10.0788
" />
<path d="M29.1350 10.0788
L29.4374 10.0788
" />
<path d="M29.4374 10.0788
L29.5583 10.1393
" />
<path d="M29.5583 10.1393
L29.6188 10.2603
" />
<path d="M29.6188 10.2603
L29.6188 10.3812
" />
<path d="M29.6188 10.3812
L29.5583 10.5022
" />
<path d="M29.5583 10.5022
L29.4979 10.5626
" />
<path d="M29.4979 10.5626
L29.3769 10.6231
" />
<path d="M29.3769 10.6231
L29.3164 10.6836
" />
<path d="M29.3164 10.6836
L29.2560 10.8045
" />
<path d="M29.2560 10.8045
L29.2560 10.8650
" />
</g><text x="13.4112" y="8.8646"
textLength="11.5918" font-size="1.6933" lengthAdjust="spacingAndGlyphs"
text-anchor="middle" opacity="0">ESP-01-v2</text>
<g class="stroked-text"><desc>ESP-01-v2</desc>
<path d="M8.0288 8.1436
L8.4522 8.1436
" />
<path d="M8.6336 8.8088
L8.0288 8.8088
" />
<path d="M8.0288 8.8088
L8.0288 7.5388
" />
<path d="M8.0288 7.5388
L8.6336 7.5388
" />
<path d="M9.1174 8.7484
L9.2988 8.8088
" />
<path d="M9.2988 8.8088
L9.6012 8.8088
" />
<path d="M9.6012 8.8088
L9.7221 8.7484
" />
<path d="M9.7221 8.7484
L9.7826 8.6879
" />
<path d="M9.7826 8.6879
L9.8431 8.5669
" />
<path d="M9.8431 8.5669
L9.8431 8.4460
" />
<path d="M9.8431 8.4460
L9.7826 8.3250
" />
<path d="M9.7826 8.3250
L9.7221 8.2645
" />
<path d="M9.7221 8.2645
L9.6012 8.2041
" />
<path d="M9.6012 8.2041
L9.3593 8.1436
" />
<path d="M9.3593 8.1436
L9.2383 8.0831
" />
<path d="M9.2383 8.0831
L9.1778 8.0226
" />
<path d="M9.1778 8.0226
L9.1174 7.9017
" />
<path d="M9.1174 7.9017
L9.1174 7.7807
" />
<path d="M9.1174 7.7807
L9.1778 7.6598
" />
<path d="M9.1778 7.6598
L9.2383 7.5993
" />
<path d="M9.2383 7.5993
L9.3593 7.5388
" />
<path d="M9.3593 7.5388
L9.6616 7.5388
" />
<path d="M9.6616 7.5388
L9.8431 7.5993
" />
<path d="M10.3873 8.8088
L10.3873 7.5388
" />
<path d="M10.3873 7.5388
L10.8711 7.5388
" />
<path d="M10.8711 7.5388
L10.9921 7.5993
" />
<path d="M10.9921 7.5993
L11.0526 7.6598
" />
<path d="M11.0526 7.6598
L11.1130 7.7807
" />
<path d="M11.1130 7.7807
L11.1130 7.9622
" />
<path d="M11.1130 7.9622
L11.0526 8.0831
" />
<path d="M11.0526 8.0831
L10.9921 8.1436
" />
<path d="M10.9921 8.1436
L10.8711 8.2041
" />
<path d="M10.8711 8.2041
L10.3873 8.2041
" />
<path d="M11.6573 8.3250
L12.6250 8.3250
" />
<path d="M13.4716 7.5388
L13.5926 7.5388
" />
<path d="M13.5926 7.5388
L13.7135 7.5993
" />
<path d="M13.7135 7.5993
L13.7740 7.6598
" />
<path d="M13.7740 7.6598
L13.8345 7.7807
" />
<path d="M13.8345 7.7807
L13.8950 8.0226
" />
<path d="M13.8950 8.0226
L13.8950 8.3250
" />
<path d="M13.8950 8.3250
L13.8345 8.5669
" />
<path d="M13.8345 8.5669
L13.7740 8.6879
" />
<path d="M13.7740 8.6879
L13.7135 8.7484
" />
<path d="M13.7135 8.7484
L13.5926 8.8088
" />
<path d="M13.5926 8.8088
L13.4716 8.8088
" />
<path d="M13.4716 8.8088
L13.3507 8.7484
" />
<path d="M13.3507 8.7484
L13.2902 8.6879
" />
<path d="M13.2902 8.6879
L13.2297 8.5669
" />
<path d="M13.2297 8.5669
L13.1693 8.3250
" />
<path d="M13.1693 8.3250
L13.1693 8.0226
" />
<path d="M13.1693 8.0226
L13.2297 7.7807
" />
<path d="M13.2297 7.7807
L13.2902 7.6598
" />
<path d="M13.2902 7.6598
L13.3507 7.5993
" />
<path d="M13.3507 7.5993
L13.4716 7.5388
" />
<path d="M15.1045 8.8088
L14.3788 8.8088
" />
<path d="M14.7416 8.8088
L14.7416 7.5388
" />
<path d="M14.7416 7.5388
L14.6207 7.7203
" />
<path d="M14.6207 7.7203
L14.4997 7.8412
" />
<path d="M14.4997 7.8412
L14.3788 7.9017
" />
<path d="M15.6487 8.3250
L16.6164 8.3250
" />
<path d="M17.1002 7.9622
L17.4026 8.8088
" />
<path d="M17.4026 8.8088
L17.7049 7.9622
" />
<path d="M18.1283 7.6598
L18.1887 7.5993
" />
<path d="M18.1887 7.5993
L18.3097 7.5388
" />
<path d="M18.3097 7.5388
L18.6121 7.5388
" />
<path d="M18.6121 7.5388
L18.7330 7.5993
" />
<path d="M18.7330 7.5993
L18.7935 7.6598
" />
<path d="M18.7935 7.6598
L18.8540 7.7807
" />
<path d="M18.8540 7.7807
L18.8540 7.9017
" />
<path d="M18.8540 7.9017
L18.7935 8.0831
" />
<path d="M18.7935 8.0831
L18.0678 8.8088
" />
<path d="M18.0678 8.8088
L18.8540 8.8088
" />
</g></g> 
</svg>
