<?xml version="1.0" standalone="no"?>
 <!DOCTYPE svg PUBLIC "-//W3C//DTD SVG 1.1//EN" 
 "http://www.w3.org/Graphics/SVG/1.1/DTD/svg11.dtd"> 
<svg
  xmlns:svg="http://www.w3.org/2000/svg"
  xmlns="http://www.w3.org/2000/svg"
  xmlns:xlink="http://www.w3.org/1999/xlink"
  version="1.1"
  width="31.9024mm" height="24.0792mm" viewBox="0.0000 0.0000 31.9024 24.0792">
<title>SVG Image created as esp-01-v2.svg date 2023/09/21 19:34:14 </title>
  <desc>Image generated by Eeschema-SVG </desc>
<g style="fill:#000000; fill-opacity:1.0000;stroke:#000000; stroke-opacity:1.0000;
stroke-linecap:round; stroke-linejoin:round;"
 transform="translate(0 0) scale(1 1)">
</g>
<g style="fill:#840000; fill-opacity:0.0; 
stroke:#840000; stroke-width:0.0000; stroke-opacity:1; 
stroke-linecap:round; stroke-linejoin:round;">
</g>
<g style="fill:#FFFFC2; fill-opacity:0.0; 
stroke:#FFFFC2; stroke-width:0.0000; stroke-opacity:1; 
stroke-linecap:round; stroke-linejoin:round;">
</g>
<g style="fill:#FFFFC2; fill-opacity:1.0000; 
stroke:#FFFFC2; stroke-width:0.0000; stroke-opacity:1; 
stroke-linecap:round; stroke-linejoin:round;">
<rect x="8.331200" y="5.689600" width="15.240000" height="12.700000" rx="0.000000" />
</g>
<g style="fill:#840084; fill-opacity:1.0000; 
stroke:#840084; stroke-width:0.0000; stroke-opacity:1; 
stroke-linecap:round; stroke-linejoin:round;">
</g>
<g style="fill:#840000; fill-opacity:1.0000; 
stroke:#840000; stroke-width:0.0000; stroke-opacity:1; 
stroke-linecap:round; stroke-linejoin:round;">
</g>
<g style="fill:#840000; fill-opacity:0.0; 
stroke:#840000; stroke-width:0.1524; stroke-opacity:1; 
stroke-linecap:round; stroke-linejoin:round;">
<rect x="8.331200" y="5.689600" width="15.240000" height="12.700000" rx="0.000000" />
<path d="M8.3312 9.4996
L5.7912 9.4996
" />
</g>
<g style="fill:#006464; fill-opacity:0.0; 
stroke:#006464; stroke-width:0.1524; stroke-opacity:1; 
stroke-linecap:round; stroke-linejoin:round;">
<text x="8.8392" y="10.1346"
textLength="5.2227" font-size="1.6933" lengthAdjust="spacingAndGlyphs"
text-anchor="start" opacity="0">3/RX</text>
<g class="stroked-text"><desc>3/RX</desc>
<path d="M9.1208 8.8091
L9.9070 8.8091
" />
<path d="M9.9070 8.8091
L9.4836 9.2929
" />
<path d="M9.4836 9.2929
L9.6651 9.2929
" />
<path d="M9.6651 9.2929
L9.7860 9.3534
" />
<path d="M9.7860 9.3534
L9.8465 9.4139
" />
<path d="M9.8465 9.4139
L9.9070 9.5348
" />
<path d="M9.9070 9.5348
L9.9070 9.8372
" />
<path d="M9.9070 9.8372
L9.8465 9.9582
" />
<path d="M9.8465 9.9582
L9.7860 10.0187
" />
<path d="M9.7860 10.0187
L9.6651 10.0791
" />
<path d="M9.6651 10.0791
L9.3022 10.0791
" />
<path d="M9.3022 10.0791
L9.1813 10.0187
" />
<path d="M9.1813 10.0187
L9.1208 9.9582
" />
<path d="M11.3584 8.7487
L10.2698 10.3815
" />
<path d="M12.5074 10.0791
L12.0841 9.4744
" />
<path d="M11.7817 10.0791
L11.7817 8.8091
" />
<path d="M11.7817 8.8091
L12.2655 8.8091
" />
<path d="M12.2655 8.8091
L12.3865 8.8696
" />
<path d="M12.3865 8.8696
L12.4470 8.9301
" />
<path d="M12.4470 8.9301
L12.5074 9.0510
" />
<path d="M12.5074 9.0510
L12.5074 9.2325
" />
<path d="M12.5074 9.2325
L12.4470 9.3534
" />
<path d="M12.4470 9.3534
L12.3865 9.4139
" />
<path d="M12.3865 9.4139
L12.2655 9.4744
" />
<path d="M12.2655 9.4744
L11.7817 9.4744
" />
<path d="M12.9308 8.8091
L13.7774 10.0791
" />
<path d="M13.7774 8.8091
L12.9308 10.0791
" />
</g></g>
<g style="fill:#A90000; fill-opacity:0.0; 
stroke:#A90000; stroke-width:0.1524; stroke-opacity:1; 
stroke-linecap:round; stroke-linejoin:round;">
<text x="7.0612" y="9.2456"
textLength="1.4127" font-size="1.6933" lengthAdjust="spacingAndGlyphs"
text-anchor="middle" opacity="0">1</text>
<g class="stroked-text"><desc>1</desc>
<path d="M7.4241 9.0821
L6.6984 9.0821
" />
<path d="M7.0612 9.0821
L7.0612 7.8121
" />
<path d="M7.0612 7.8121
L6.9403 7.9936
" />
<path d="M6.9403 7.9936
L6.8193 8.1145
" />
<path d="M6.8193 8.1145
L6.6984 8.1750
" />
</g></g>
<g style="fill:#840000; fill-opacity:0.0; 
stroke:#840000; stroke-width:0.1524; stroke-opacity:1; 
stroke-linecap:round; stroke-linejoin:round;">
<path d="M23.5712 9.4996
L26.1112 9.4996
" />
</g>
<g style="fill:#006464; fill-opacity:0.0; 
stroke:#006464; stroke-width:0.1524; stroke-opacity:1; 
stroke-linecap:round; stroke-linejoin:round;">
<text x="23.0632" y="10.1346"
textLength="5.8880" font-size="1.6933" lengthAdjust="spacingAndGlyphs"
text-anchor="end" opacity="0">GPIO0</text>
<g class="stroked-text"><desc>GPIO0</desc>
<path d="M18.2458 8.8696
L18.1248 8.8091
" />
<path d="M18.1248 8.8091
L17.9434 8.8091
" />
<path d="M17.9434 8.8091
L17.7620 8.8696
" />
<path d="M17.7620 8.8696
L17.6410 8.9906
" />
<path d="M17.6410 8.9906
L17.5805 9.1115
" />
<path d="M17.5805 9.1115
L17.5201 9.3534
" />
<path d="M17.5201 9.3534
L17.5201 9.5348
" />
<path d="M17.5201 9.5348
L17.5805 9.7767
" />
<path d="M17.5805 9.7767
L17.6410 9.8977
" />
<path d="M17.6410 9.8977
L17.7620 10.0187
" />
<path d="M17.7620 10.0187
L17.9434 10.0791
" />
<path d="M17.9434 10.0791
L18.0643 10.0791
" />
<path d="M18.0643 10.0791
L18.2458 10.0187
" />
<path d="M18.2458 10.0187
L18.3062 9.9582
" />
<path d="M18.3062 9.9582
L18.3062 9.5348
" />
<path d="M18.3062 9.5348
L18.0643 9.5348
" />
<path d="M18.8505 10.0791
L18.8505 8.8091
" />
<path d="M18.8505 8.8091
L19.3343 8.8091
" />
<path d="M19.3343 8.8091
L19.4553 8.8696
" />
<path d="M19.4553 8.8696
L19.5158 8.9301
" />
<path d="M19.5158 8.9301
L19.5762 9.0510
" />
<path d="M19.5762 9.0510
L19.5762 9.2325
" />
<path d="M19.5762 9.2325
L19.5158 9.3534
" />
<path d="M19.5158 9.3534
L19.4553 9.4139
" />
<path d="M19.4553 9.4139
L19.3343 9.4744
" />
<path d="M19.3343 9.4744
L18.8505 9.4744
" />
<path d="M20.1205 10.0791
L20.1205 8.8091
" />
<path d="M20.9672 8.8091
L21.2091 8.8091
" />
<path d="M21.2091 8.8091
L21.3301 8.8696
" />
<path d="M21.3301 8.8696
L21.4510 8.9906
" />
<path d="M21.4510 8.9906
L21.5115 9.2325
" />
<path d="M21.5115 9.2325
L21.5115 9.6558
" />
<path d="M21.5115 9.6558
L21.4510 9.8977
" />
<path d="M21.4510 9.8977
L21.3301 10.0187
" />
<path d="M21.3301 10.0187
L21.2091 10.0791
" />
<path d="M21.2091 10.0791
L20.9672 10.0791
" />
<path d="M20.9672 10.0791
L20.8463 10.0187
" />
<path d="M20.8463 10.0187
L20.7253 9.8977
" />
<path d="M20.7253 9.8977
L20.6649 9.6558
" />
<path d="M20.6649 9.6558
L20.6649 9.2325
" />
<path d="M20.6649 9.2325
L20.7253 8.9906
" />
<path d="M20.7253 8.9906
L20.8463 8.8696
" />
<path d="M20.8463 8.8696
L20.9672 8.8091
" />
<path d="M22.2977 8.8091
L22.4187 8.8091
" />
<path d="M22.4187 8.8091
L22.5396 8.8696
" />
<path d="M22.5396 8.8696
L22.6001 8.9301
" />
<path d="M22.6001 8.9301
L22.6606 9.0510
" />
<path d="M22.6606 9.0510
L22.7211 9.2929
" />
<path d="M22.7211 9.2929
L22.7211 9.5953
" />
<path d="M22.7211 9.5953
L22.6606 9.8372
" />
<path d="M22.6606 9.8372
L22.6001 9.9582
" />
<path d="M22.6001 9.9582
L22.5396 10.0187
" />
<path d="M22.5396 10.0187
L22.4187 10.0791
" />
<path d="M22.4187 10.0791
L22.2977 10.0791
" />
<path d="M22.2977 10.0791
L22.1768 10.0187
" />
<path d="M22.1768 10.0187
L22.1163 9.9582
" />
<path d="M22.1163 9.9582
L22.0558 9.8372
" />
<path d="M22.0558 9.8372
L21.9954 9.5953
" />
<path d="M21.9954 9.5953
L21.9954 9.2929
" />
<path d="M21.9954 9.2929
L22.0558 9.0510
" />
<path d="M22.0558 9.0510
L22.1163 8.9301
" />
<path d="M22.1163 8.9301
L22.1768 8.8696
" />
<path d="M22.1768 8.8696
L22.2977 8.8091
" />
</g></g>
<g style="fill:#A90000; fill-opacity:0.0; 
stroke:#A90000; stroke-width:0.1524; stroke-opacity:1; 
stroke-linecap:round; stroke-linejoin:round;">
<text x="24.8412" y="9.2456"
textLength="1.4127" font-size="1.6933" lengthAdjust="spacingAndGlyphs"
text-anchor="middle" opacity="0">2</text>
<g class="stroked-text"><desc>2</desc>
<path d="M24.4784 7.9331
L24.5388 7.8726
" />
<path d="M24.5388 7.8726
L24.6598 7.8121
" />
<path d="M24.6598 7.8121
L24.9622 7.8121
" />
<path d="M24.9622 7.8121
L25.0831 7.8726
" />
<path d="M25.0831 7.8726
L25.1436 7.9331
" />
<path d="M25.1436 7.9331
L25.2041 8.0540
" />
<path d="M25.2041 8.0540
L25.2041 8.1750
" />
<path d="M25.2041 8.1750
L25.1436 8.3564
" />
<path d="M25.1436 8.3564
L24.4179 9.0821
" />
<path d="M24.4179 9.0821
L25.2041 9.0821
" />
</g></g>
<g style="fill:#840000; fill-opacity:0.0; 
stroke:#840000; stroke-width:0.1524; stroke-opacity:1; 
stroke-linecap:round; stroke-linejoin:round;">
<path d="M23.5712 12.0396
L26.1112 12.0396
" />
</g>
<g style="fill:#006464; fill-opacity:0.0; 
stroke:#006464; stroke-width:0.1524; stroke-opacity:1; 
stroke-linecap:round; stroke-linejoin:round;">
<text x="23.0632" y="12.6746"
textLength="5.8880" font-size="1.6933" lengthAdjust="spacingAndGlyphs"
text-anchor="end" opacity="0">GPIO2</text>
<g class="stroked-text"><desc>GPIO2</desc>
<path d="M18.2458 11.4096
L18.1248 11.3491
" />
<path d="M18.1248 11.3491
L17.9434 11.3491
" />
<path d="M17.9434 11.3491
L17.7620 11.4096
" />
<path d="M17.7620 11.4096
L17.6410 11.5306
" />
<path d="M17.6410 11.5306
L17.5805 11.6515
" />
<path d="M17.5805 11.6515
L17.5201 11.8934
" />
<path d="M17.5201 11.8934
L17.5201 12.0748
" />
<path d="M17.5201 12.0748
L17.5805 12.3167
" />
<path d="M17.5805 12.3167
L17.6410 12.4377
" />
<path d="M17.6410 12.4377
L17.7620 12.5587
" />
<path d="M17.7620 12.5587
L17.9434 12.6191
" />
<path d="M17.9434 12.6191
L18.0643 12.6191
" />
<path d="M18.0643 12.6191
L18.2458 12.5587
" />
<path d="M18.2458 12.5587
L18.3062 12.4982
" />
<path d="M18.3062 12.4982
L18.3062 12.0748
" />
<path d="M18.3062 12.0748
L18.0643 12.0748
" />
<path d="M18.8505 12.6191
L18.8505 11.3491
" />
<path d="M18.8505 11.3491
L19.3343 11.3491
" />
<path d="M19.3343 11.3491
L19.4553 11.4096
" />
<path d="M19.4553 11.4096
L19.5158 11.4701
" />
<path d="M19.5158 11.4701
L19.5762 11.5910
" />
<path d="M19.5762 11.5910
L19.5762 11.7725
" />
<path d="M19.5762 11.7725
L19.5158 11.8934
" />
<path d="M19.5158 11.8934
L19.4553 11.9539
" />
<path d="M19.4553 11.9539
L19.3343 12.0144
" />
<path d="M19.3343 12.0144
L18.8505 12.0144
" />
<path d="M20.1205 12.6191
L20.1205 11.3491
" />
<path d="M20.9672 11.3491
L21.2091 11.3491
" />
<path d="M21.2091 11.3491
L21.3301 11.4096
" />
<path d="M21.3301 11.4096
L21.4510 11.5306
" />
<path d="M21.4510 11.5306
L21.5115 11.7725
" />
<path d="M21.5115 11.7725
L21.5115 12.1958
" />
<path d="M21.5115 12.1958
L21.4510 12.4377
" />
<path d="M21.4510 12.4377
L21.3301 12.5587
" />
<path d="M21.3301 12.5587
L21.2091 12.6191
" />
<path d="M21.2091 12.6191
L20.9672 12.6191
" />
<path d="M20.9672 12.6191
L20.8463 12.5587
" />
<path d="M20.8463 12.5587
L20.7253 12.4377
" />
<path d="M20.7253 12.4377
L20.6649 12.1958
" />
<path d="M20.6649 12.1958
L20.6649 11.7725
" />
<path d="M20.6649 11.7725
L20.7253 11.5306
" />
<path d="M20.7253 11.5306
L20.8463 11.4096
" />
<path d="M20.8463 11.4096
L20.9672 11.3491
" />
<path d="M21.9954 11.4701
L22.0558 11.4096
" />
<path d="M22.0558 11.4096
L22.1768 11.3491
" />
<path d="M22.1768 11.3491
L22.4792 11.3491
" />
<path d="M22.4792 11.3491
L22.6001 11.4096
" />
<path d="M22.6001 11.4096
L22.6606 11.4701
" />
<path d="M22.6606 11.4701
L22.7211 11.5910
" />
<path d="M22.7211 11.5910
L22.7211 11.7120
" />
<path d="M22.7211 11.7120
L22.6606 11.8934
" />
<path d="M22.6606 11.8934
L21.9349 12.6191
" />
<path d="M21.9349 12.6191
L22.7211 12.6191
" />
</g></g>
<g style="fill:#A90000; fill-opacity:0.0; 
stroke:#A90000; stroke-width:0.1524; stroke-opacity:1; 
stroke-linecap:round; stroke-linejoin:round;">
<text x="24.8412" y="11.7856"
textLength="1.4127" font-size="1.6933" lengthAdjust="spacingAndGlyphs"
text-anchor="middle" opacity="0">3</text>
<g class="stroked-text"><desc>3</desc>
<path d="M24.4179 10.3521
L25.2041 10.3521
" />
<path d="M25.2041 10.3521
L24.7807 10.8359
" />
<path d="M24.7807 10.8359
L24.9622 10.8359
" />
<path d="M24.9622 10.8359
L25.0831 10.8964
" />
<path d="M25.0831 10.8964
L25.1436 10.9569
" />
<path d="M25.1436 10.9569
L25.2041 11.0778
" />
<path d="M25.2041 11.0778
L25.2041 11.3802
" />
<path d="M25.2041 11.3802
L25.1436 11.5012
" />
<path d="M25.1436 11.5012
L25.0831 11.5617
" />
<path d="M25.0831 11.5617
L24.9622 11.6221
" />
<path d="M24.9622 11.6221
L24.5993 11.6221
" />
<path d="M24.5993 11.6221
L24.4784 11.5617
" />
<path d="M24.4784 11.5617
L24.4179 11.5012
" />
</g></g>
<g style="fill:#840000; fill-opacity:0.0; 
stroke:#840000; stroke-width:0.1524; stroke-opacity:1; 
stroke-linecap:round; stroke-linejoin:round;">
<path d="M15.9512 18.3896
L15.9512 20.9296
" />
</g>
<g style="fill:#006464; fill-opacity:0.0; 
stroke:#006464; stroke-width:0.1524; stroke-opacity:1; 
stroke-linecap:round; stroke-linejoin:round;">
<g transform="rotate(-90.000000 15.9512 17.8816)">
<text x="15.9512" y="18.5166"
textLength="4.0737" font-size="1.6933" lengthAdjust="spacingAndGlyphs"
text-anchor="start" opacity="0">GND</text>
</g>
<g class="stroked-text"><desc>GND</desc>
<path d="M15.3212 16.8137
L15.2607 16.9347
" />
<path d="M15.2607 16.9347
L15.2607 17.1161
" />
<path d="M15.2607 17.1161
L15.3212 17.2975
" />
<path d="M15.3212 17.2975
L15.4422 17.4185
" />
<path d="M15.4422 17.4185
L15.5631 17.4790
" />
<path d="M15.5631 17.4790
L15.8050 17.5394
" />
<path d="M15.8050 17.5394
L15.9864 17.5394
" />
<path d="M15.9864 17.5394
L16.2283 17.4790
" />
<path d="M16.2283 17.4790
L16.3493 17.4185
" />
<path d="M16.3493 17.4185
L16.4703 17.2975
" />
<path d="M16.4703 17.2975
L16.5307 17.1161
" />
<path d="M16.5307 17.1161
L16.5307 16.9952
" />
<path d="M16.5307 16.9952
L16.4703 16.8137
" />
<path d="M16.4703 16.8137
L16.4098 16.7533
" />
<path d="M16.4098 16.7533
L15.9864 16.7533
" />
<path d="M15.9864 16.7533
L15.9864 16.9952
" />
<path d="M16.5307 16.2090
L15.2607 16.2090
" />
<path d="M15.2607 16.2090
L16.5307 15.4833
" />
<path d="M16.5307 15.4833
L15.2607 15.4833
" />
<path d="M16.5307 14.8785
L15.2607 14.8785
" />
<path d="M15.2607 14.8785
L15.2607 14.5761
" />
<path d="M15.2607 14.5761
L15.3212 14.3947
" />
<path d="M15.3212 14.3947
L15.4422 14.2737
" />
<path d="M15.4422 14.2737
L15.5631 14.2132
" />
<path d="M15.5631 14.2132
L15.8050 14.1528
" />
<path d="M15.8050 14.1528
L15.9864 14.1528
" />
<path d="M15.9864 14.1528
L16.2283 14.2132
" />
<path d="M16.2283 14.2132
L16.3493 14.2737
" />
<path d="M16.3493 14.2737
L16.4703 14.3947
" />
<path d="M16.4703 14.3947
L16.5307 14.5761
" />
<path d="M16.5307 14.5761
L16.5307 14.8785
" />
</g></g>
<g style="fill:#A90000; fill-opacity:0.0; 
stroke:#A90000; stroke-width:0.1524; stroke-opacity:1; 
stroke-linecap:round; stroke-linejoin:round;">
<g transform="rotate(-90.000000 15.6972 19.6596)">
<text x="15.6972" y="19.6596"
textLength="1.4127" font-size="1.6933" lengthAdjust="spacingAndGlyphs"
text-anchor="middle" opacity="0">4</text>
</g>
<g class="stroked-text"><desc>4</desc>
<path d="M14.6871 19.4176
L15.5337 19.4176
" />
<path d="M14.2033 19.7200
L15.1104 20.0223
" />
<path d="M15.1104 20.0223
L15.1104 19.2362
" />
</g></g>
<g style="fill:#840000; fill-opacity:0.0; 
stroke:#840000; stroke-width:0.1524; stroke-opacity:1; 
stroke-linecap:round; stroke-linejoin:round;">
<path d="M23.5712 14.5796
L26.1112 14.5796
" />
</g>
<g style="fill:#006464; fill-opacity:0.0; 
stroke:#006464; stroke-width:0.1524; stroke-opacity:1; 
stroke-linecap:round; stroke-linejoin:round;">
<text x="23.0632" y="15.2146"
textLength="4.9203" font-size="1.6933" lengthAdjust="spacingAndGlyphs"
text-anchor="end" opacity="0">1/TX</text>
<g class="stroked-text"><desc>1/TX</desc>
<path d="M19.2135 15.1591
L18.4878 15.1591
" />
<path d="M18.8506 15.1591
L18.8506 13.8891
" />
<path d="M18.8506 13.8891
L18.7297 14.0706
" />
<path d="M18.7297 14.0706
L18.6087 14.1915
" />
<path d="M18.6087 14.1915
L18.4878 14.2520
" />
<path d="M20.6649 13.8287
L19.5763 15.4615
" />
<path d="M20.9068 13.8891
L21.6325 13.8891
" />
<path d="M21.2697 15.1591
L21.2697 13.8891
" />
<path d="M21.9349 13.8891
L22.7815 15.1591
" />
<path d="M22.7815 13.8891
L21.9349 15.1591
" />
</g></g>
<g style="fill:#A90000; fill-opacity:0.0; 
stroke:#A90000; stroke-width:0.1524; stroke-opacity:1; 
stroke-linecap:round; stroke-linejoin:round;">
<text x="24.8412" y="14.3256"
textLength="1.4127" font-size="1.6933" lengthAdjust="spacingAndGlyphs"
text-anchor="middle" opacity="0">5</text>
<g class="stroked-text"><desc>5</desc>
<path d="M25.1436 12.8921
L24.5388 12.8921
" />
<path d="M24.5388 12.8921
L24.4784 13.4969
" />
<path d="M24.4784 13.4969
L24.5388 13.4364
" />
<path d="M24.5388 13.4364
L24.6598 13.3759
" />
<path d="M24.6598 13.3759
L24.9622 13.3759
" />
<path d="M24.9622 13.3759
L25.0831 13.4364
" />
<path d="M25.0831 13.4364
L25.1436 13.4969
" />
<path d="M25.1436 13.4969
L25.2041 13.6178
" />
<path d="M25.2041 13.6178
L25.2041 13.9202
" />
<path d="M25.2041 13.9202
L25.1436 14.0412
" />
<path d="M25.1436 14.0412
L25.0831 14.1017
" />
<path d="M25.0831 14.1017
L24.9622 14.1621
" />
<path d="M24.9622 14.1621
L24.6598 14.1621
" />
<path d="M24.6598 14.1621
L24.5388 14.1017
" />
<path d="M24.5388 14.1017
L24.4784 14.0412
" />
</g></g>
<g style="fill:#840000; fill-opacity:0.0; 
stroke:#840000; stroke-width:0.1524; stroke-opacity:1; 
stroke-linecap:round; stroke-linejoin:round;">
<path d="M8.3312 12.0396
L5.7912 12.0396
" />
</g>
<g style="fill:#006464; fill-opacity:0.0; 
stroke:#006464; stroke-width:0.1524; stroke-opacity:1; 
stroke-linecap:round; stroke-linejoin:round;">
<text x="8.8392" y="12.6746"
textLength="2.6827" font-size="1.6933" lengthAdjust="spacingAndGlyphs"
text-anchor="start" opacity="0">EN</text>
<g class="stroked-text"><desc>EN</desc>
<path d="M9.2417 11.9539
L9.6651 11.9539
" />
<path d="M9.8465 12.6191
L9.2417 12.6191
" />
<path d="M9.2417 12.6191
L9.2417 11.3491
" />
<path d="M9.2417 11.3491
L9.8465 11.3491
" />
<path d="M10.3907 12.6191
L10.3907 11.3491
" />
<path d="M10.3907 11.3491
L11.1164 12.6191
" />
<path d="M11.1164 12.6191
L11.1164 11.3491
" />
</g></g>
<g style="fill:#A90000; fill-opacity:0.0; 
stroke:#A90000; stroke-width:0.1524; stroke-opacity:1; 
stroke-linecap:round; stroke-linejoin:round;">
<text x="7.0612" y="11.7856"
textLength="1.4127" font-size="1.6933" lengthAdjust="spacingAndGlyphs"
text-anchor="middle" opacity="0">6</text>
<g class="stroked-text"><desc>6</desc>
<path d="M7.3031 10.3521
L7.0612 10.3521
" />
<path d="M7.0612 10.3521
L6.9403 10.4126
" />
<path d="M6.9403 10.4126
L6.8798 10.4731
" />
<path d="M6.8798 10.4731
L6.7588 10.6545
" />
<path d="M6.7588 10.6545
L6.6984 10.8964
" />
<path d="M6.6984 10.8964
L6.6984 11.3802
" />
<path d="M6.6984 11.3802
L6.7588 11.5012
" />
<path d="M6.7588 11.5012
L6.8193 11.5617
" />
<path d="M6.8193 11.5617
L6.9403 11.6221
" />
<path d="M6.9403 11.6221
L7.1822 11.6221
" />
<path d="M7.1822 11.6221
L7.3031 11.5617
" />
<path d="M7.3031 11.5617
L7.3636 11.5012
" />
<path d="M7.3636 11.5012
L7.4241 11.3802
" />
<path d="M7.4241 11.3802
L7.4241 11.0778
" />
<path d="M7.4241 11.0778
L7.3636 10.9569
" />
<path d="M7.3636 10.9569
L7.3031 10.8964
" />
<path d="M7.3031 10.8964
L7.1822 10.8359
" />
<path d="M7.1822 10.8359
L6.9403 10.8359
" />
<path d="M6.9403 10.8359
L6.8193 10.8964
" />
<path d="M6.8193 10.8964
L6.7588 10.9569
" />
<path d="M6.7588 10.9569
L6.6984 11.0778
" />
</g></g>
<g style="fill:#840000; fill-opacity:0.0; 
stroke:#840000; stroke-width:0.1524; stroke-opacity:1; 
stroke-linecap:round; stroke-linejoin:round;">
<path d="M8.3312 14.5796
L5.7912 14.5796
" />
</g>
<g style="fill:#006464; fill-opacity:0.0; 
stroke:#006464; stroke-width:0.1524; stroke-opacity:1; 
stroke-linecap:round; stroke-linejoin:round;">
<text x="8.8392" y="15.2146"
textLength="3.6503" font-size="1.6933" lengthAdjust="spacingAndGlyphs"
text-anchor="start" opacity="0">~{RST}</text>
<g class="stroked-text"><desc>~{RST}</desc>
<path d="M9.9674 15.1591
L9.5441 14.5544
" />
<path d="M9.2417 15.1591
L9.2417 13.8891
" />
<path d="M9.2417 13.8891
L9.7255 13.8891
" />
<path d="M9.7255 13.8891
L9.8465 13.9496
" />
<path d="M9.8465 13.9496
L9.9070 14.0101
" />
<path d="M9.9070 14.0101
L9.9674 14.1310
" />
<path d="M9.9674 14.1310
L9.9674 14.3125
" />
<path d="M9.9674 14.3125
L9.9070 14.4334
" />
<path d="M9.9070 14.4334
L9.8465 14.4939
" />
<path d="M9.8465 14.4939
L9.7255 14.5544
" />
<path d="M9.7255 14.5544
L9.2417 14.5544
" />
<path d="M10.4513 15.0987
L10.6327 15.1591
" />
<path d="M10.6327 15.1591
L10.9351 15.1591
" />
<path d="M10.9351 15.1591
L11.0560 15.0987
" />
<path d="M11.0560 15.0987
L11.1165 15.0382
" />
<path d="M11.1165 15.0382
L11.1770 14.9172
" />
<path d="M11.1770 14.9172
L11.1770 14.7963
" />
<path d="M11.1770 14.7963
L11.1165 14.6753
" />
<path d="M11.1165 14.6753
L11.0560 14.6148
" />
<path d="M11.0560 14.6148
L10.9351 14.5544
" />
<path d="M10.9351 14.5544
L10.6932 14.4939
" />
<path d="M10.6932 14.4939
L10.5722 14.4334
" />
<path d="M10.5722 14.4334
L10.5117 14.3729
" />
<path d="M10.5117 14.3729
L10.4513 14.2520
" />
<path d="M10.4513 14.2520
L10.4513 14.1310
" />
<path d="M10.4513 14.1310
L10.5117 14.0101
" />
<path d="M10.5117 14.0101
L10.5722 13.9496
" />
<path d="M10.5722 13.9496
L10.6932 13.8891
" />
<path d="M10.6932 13.8891
L10.9955 13.8891
" />
<path d="M10.9955 13.8891
L11.1770 13.9496
" />
<path d="M11.5398 13.8891
L12.2655 13.8891
" />
<path d="M11.9027 15.1591
L11.9027 13.8891
" />
<path d="M9.0664 13.5366
L12.2595 13.5366
" />
</g></g>
<g style="fill:#A90000; fill-opacity:0.0; 
stroke:#A90000; stroke-width:0.1524; stroke-opacity:1; 
stroke-linecap:round; stroke-linejoin:round;">
<text x="7.0612" y="14.3256"
textLength="1.4127" font-size="1.6933" lengthAdjust="spacingAndGlyphs"
text-anchor="middle" opacity="0">7</text>
<g class="stroked-text"><desc>7</desc>
<path d="M6.6379 12.8921
L7.4845 12.8921
" />
<path d="M7.4845 12.8921
L6.9403 14.1621
" />
</g></g>
<g style="fill:#840000; fill-opacity:0.0; 
stroke:#840000; stroke-width:0.1524; stroke-opacity:1; 
stroke-linecap:round; stroke-linejoin:round;">
<path d="M15.9512 5.6896
L15.9512 3.1496
" />
</g>
<g style="fill:#006464; fill-opacity:0.0; 
stroke:#006464; stroke-width:0.1524; stroke-opacity:1; 
stroke-linecap:round; stroke-linejoin:round;">
<g transform="rotate(-90.000000 15.9512 6.1976)">
<text x="15.9512" y="6.8326"
textLength="3.8318" font-size="1.6933" lengthAdjust="spacingAndGlyphs"
text-anchor="end" opacity="0">VCC</text>
</g>
<g class="stroked-text"><desc>VCC</desc>
<path d="M15.2607 9.8054
L16.5307 9.3821
" />
<path d="M16.5307 9.3821
L15.2607 8.9587
" />
<path d="M16.4098 7.8097
L16.4703 7.8701
" />
<path d="M16.4703 7.8701
L16.5307 8.0516
" />
<path d="M16.5307 8.0516
L16.5307 8.1725
" />
<path d="M16.5307 8.1725
L16.4703 8.3539
" />
<path d="M16.4703 8.3539
L16.3493 8.4749
" />
<path d="M16.3493 8.4749
L16.2283 8.5354
" />
<path d="M16.2283 8.5354
L15.9864 8.5958
" />
<path d="M15.9864 8.5958
L15.8050 8.5958
" />
<path d="M15.8050 8.5958
L15.5631 8.5354
" />
<path d="M15.5631 8.5354
L15.4422 8.4749
" />
<path d="M15.4422 8.4749
L15.3212 8.3539
" />
<path d="M15.3212 8.3539
L15.2607 8.1725
" />
<path d="M15.2607 8.1725
L15.2607 8.0516
" />
<path d="M15.2607 8.0516
L15.3212 7.8701
" />
<path d="M15.3212 7.8701
L15.3817 7.8097
" />
<path d="M16.4098 6.5397
L16.4703 6.6001
" />
<path d="M16.4703 6.6001
L16.5307 6.7816
" />
<path d="M16.5307 6.7816
L16.5307 6.9025
" />
<path d="M16.5307 6.9025
L16.4703 7.0839
" />
<path d="M16.4703 7.0839
L16.3493 7.2049
" />
<path d="M16.3493 7.2049
L16.2283 7.2654
" />
<path d="M16.2283 7.2654
L15.9864 7.3258
" />
<path d="M15.9864 7.3258
L15.8050 7.3258
" />
<path d="M15.8050 7.3258
L15.5631 7.2654
" />
<path d="M15.5631 7.2654
L15.4422 7.2049
" />
<path d="M15.4422 7.2049
L15.3212 7.0839
" />
<path d="M15.3212 7.0839
L15.2607 6.9025
" />
<path d="M15.2607 6.9025
L15.2607 6.7816
" />
<path d="M15.2607 6.7816
L15.3212 6.6001
" />
<path d="M15.3212 6.6001
L15.3817 6.5397
" />
</g></g>
<g style="fill:#A90000; fill-opacity:0.0; 
stroke:#A90000; stroke-width:0.1524; stroke-opacity:1; 
stroke-linecap:round; stroke-linejoin:round;">
<g transform="rotate(-90.000000 15.6972 4.4196)">
<text x="15.6972" y="4.4196"
textLength="1.4127" font-size="1.6933" lengthAdjust="spacingAndGlyphs"
text-anchor="middle" opacity="0">8</text>
</g>
<g class="stroked-text"><desc>8</desc>
<path d="M14.8080 4.5404
L14.7475 4.6614
" />
<path d="M14.7475 4.6614
L14.6871 4.7219
" />
<path d="M14.6871 4.7219
L14.5661 4.7823
" />
<path d="M14.5661 4.7823
L14.5056 4.7823
" />
<path d="M14.5056 4.7823
L14.3847 4.7219
" />
<path d="M14.3847 4.7219
L14.3242 4.6614
" />
<path d="M14.3242 4.6614
L14.2637 4.5404
" />
<path d="M14.2637 4.5404
L14.2637 4.2985
" />
<path d="M14.2637 4.2985
L14.3242 4.1776
" />
<path d="M14.3242 4.1776
L14.3847 4.1171
" />
<path d="M14.3847 4.1171
L14.5056 4.0566
" />
<path d="M14.5056 4.0566
L14.5661 4.0566
" />
<path d="M14.5661 4.0566
L14.6871 4.1171
" />
<path d="M14.6871 4.1171
L14.7475 4.1776
" />
<path d="M14.7475 4.1776
L14.8080 4.2985
" />
<path d="M14.8080 4.2985
L14.8080 4.5404
" />
<path d="M14.8080 4.5404
L14.8685 4.6614
" />
<path d="M14.8685 4.6614
L14.9290 4.7219
" />
<path d="M14.9290 4.7219
L15.0499 4.7823
" />
<path d="M15.0499 4.7823
L15.2918 4.7823
" />
<path d="M15.2918 4.7823
L15.4128 4.7219
" />
<path d="M15.4128 4.7219
L15.4733 4.6614
" />
<path d="M15.4733 4.6614
L15.5337 4.5404
" />
<path d="M15.5337 4.5404
L15.5337 4.2985
" />
<path d="M15.5337 4.2985
L15.4733 4.1776
" />
<path d="M15.4733 4.1776
L15.4128 4.1171
" />
<path d="M15.4128 4.1171
L15.2918 4.0566
" />
<path d="M15.2918 4.0566
L15.0499 4.0566
" />
<path d="M15.0499 4.0566
L14.9290 4.1171
" />
<path d="M14.9290 4.1171
L14.8685 4.1776
" />
<path d="M14.8685 4.1776
L14.8080 4.2985
" />
</g></g>
<g style="fill:#840084; fill-opacity:0.0; 
stroke:#840084; stroke-width:0.1524; stroke-opacity:1; 
stroke-linecap:round; stroke-linejoin:round;">
</g>
<g style="fill:#006464; fill-opacity:0.0; 
stroke:#006464; stroke-width:0.1524; stroke-opacity:1; 
stroke-linecap:round; stroke-linejoin:round;">
</g>
<g style="fill:#006464; fill-opacity:0.0; 
stroke:#006464; stroke-width:0.1588; stroke-opacity:1; 
stroke-linecap:round; stroke-linejoin:round;">
<text x="23.5712" y="5.0546"
textLength="2.6415" font-size="1.6933" lengthAdjust="spacingAndGlyphs"
text-anchor="middle" opacity="0">U?</text>
<g class="stroked-text"><desc>U?</desc>
<path d="M22.6640 3.7288
L22.6640 4.7569
" />
<path d="M22.6640 4.7569
L22.7245 4.8779
" />
<path d="M22.7245 4.8779
L22.7850 4.9384
" />
<path d="M22.7850 4.9384
L22.9059 4.9988
" />
<path d="M22.9059 4.9988
L23.1478 4.9988
" />
<path d="M23.1478 4.9988
L23.2688 4.9384
" />
<path d="M23.2688 4.9384
L23.3293 4.8779
" />
<path d="M23.3293 4.8779
L23.3897 4.7569
" />
<path d="M23.3897 4.7569
L23.3897 3.7288
" />
<path d="M24.1760 4.8779
L24.2364 4.9384
" />
<path d="M24.2364 4.9384
L24.1760 4.9988
" />
<path d="M24.1760 4.9988
L24.1155 4.9384
" />
<path d="M24.1155 4.9384
L24.1760 4.8779
" />
<path d="M24.1760 4.8779
L24.1760 4.9988
" />
<path d="M23.9341 3.7893
L24.0550 3.7288
" />
<path d="M24.0550 3.7288
L24.3574 3.7288
" />
<path d="M24.3574 3.7288
L24.4783 3.7893
" />
<path d="M24.4783 3.7893
L24.5388 3.9103
" />
<path d="M24.5388 3.9103
L24.5388 4.0312
" />
<path d="M24.5388 4.0312
L24.4783 4.1522
" />
<path d="M24.4783 4.1522
L24.4179 4.2126
" />
<path d="M24.4179 4.2126
L24.2969 4.2731
" />
<path d="M24.2969 4.2731
L24.2364 4.3336
" />
<path d="M24.2364 4.3336
L24.1760 4.4545
" />
<path d="M24.1760 4.4545
L24.1760 4.5150
" />
</g><text x="8.3312" y="2.5146"
textLength="11.5918" font-size="1.6933" lengthAdjust="spacingAndGlyphs"
text-anchor="middle" opacity="0">ESP-01-v2</text>
<g class="stroked-text"><desc>ESP-01-v2</desc>
<path d="M2.9488 1.7936
L3.3722 1.7936
" />
<path d="M3.5536 2.4588
L2.9488 2.4588
" />
<path d="M2.9488 2.4588
L2.9488 1.1888
" />
<path d="M2.9488 1.1888
L3.5536 1.1888
" />
<path d="M4.0374 2.3984
L4.2188 2.4588
" />
<path d="M4.2188 2.4588
L4.5212 2.4588
" />
<path d="M4.5212 2.4588
L4.6421 2.3984
" />
<path d="M4.6421 2.3984
L4.7026 2.3379
" />
<path d="M4.7026 2.3379
L4.7631 2.2169
" />
<path d="M4.7631 2.2169
L4.7631 2.0960
" />
<path d="M4.7631 2.0960
L4.7026 1.9750
" />
<path d="M4.7026 1.9750
L4.6421 1.9145
" />
<path d="M4.6421 1.9145
L4.5212 1.8541
" />
<path d="M4.5212 1.8541
L4.2793 1.7936
" />
<path d="M4.2793 1.7936
L4.1583 1.7331
" />
<path d="M4.1583 1.7331
L4.0978 1.6726
" />
<path d="M4.0978 1.6726
L4.0374 1.5517
" />
<path d="M4.0374 1.5517
L4.0374 1.4307
" />
<path d="M4.0374 1.4307
L4.0978 1.3098
" />
<path d="M4.0978 1.3098
L4.1583 1.2493
" />
<path d="M4.1583 1.2493
L4.2793 1.1888
" />
<path d="M4.2793 1.1888
L4.5816 1.1888
" />
<path d="M4.5816 1.1888
L4.7631 1.2493
" />
<path d="M5.3073 2.4588
L5.3073 1.1888
" />
<path d="M5.3073 1.1888
L5.7911 1.1888
" />
<path d="M5.7911 1.1888
L5.9121 1.2493
" />
<path d="M5.9121 1.2493
L5.9726 1.3098
" />
<path d="M5.9726 1.3098
L6.0330 1.4307
" />
<path d="M6.0330 1.4307
L6.0330 1.6122
" />
<path d="M6.0330 1.6122
L5.9726 1.7331
" />
<path d="M5.9726 1.7331
L5.9121 1.7936
" />
<path d="M5.9121 1.7936
L5.7911 1.8541
" />
<path d="M5.7911 1.8541
L5.3073 1.8541
" />
<path d="M6.5773 1.9750
L7.5450 1.9750
" />
<path d="M8.3916 1.1888
L8.5126 1.1888
" />
<path d="M8.5126 1.1888
L8.6335 1.2493
" />
<path d="M8.6335 1.2493
L8.6940 1.3098
" />
<path d="M8.6940 1.3098
L8.7545 1.4307
" />
<path d="M8.7545 1.4307
L8.8150 1.6726
" />
<path d="M8.8150 1.6726
L8.8150 1.9750
" />
<path d="M8.8150 1.9750
L8.7545 2.2169
" />
<path d="M8.7545 2.2169
L8.6940 2.3379
" />
<path d="M8.6940 2.3379
L8.6335 2.3984
" />
<path d="M8.6335 2.3984
L8.5126 2.4588
" />
<path d="M8.5126 2.4588
L8.3916 2.4588
" />
<path d="M8.3916 2.4588
L8.2707 2.3984
" />
<path d="M8.2707 2.3984
L8.2102 2.3379
" />
<path d="M8.2102 2.3379
L8.1497 2.2169
" />
<path d="M8.1497 2.2169
L8.0893 1.9750
" />
<path d="M8.0893 1.9750
L8.0893 1.6726
" />
<path d="M8.0893 1.6726
L8.1497 1.4307
" />
<path d="M8.1497 1.4307
L8.2102 1.3098
" />
<path d="M8.2102 1.3098
L8.2707 1.2493
" />
<path d="M8.2707 1.2493
L8.3916 1.1888
" />
<path d="M10.0245 2.4588
L9.2988 2.4588
" />
<path d="M9.6616 2.4588
L9.6616 1.1888
" />
<path d="M9.6616 1.1888
L9.5407 1.3703
" />
<path d="M9.5407 1.3703
L9.4197 1.4912
" />
<path d="M9.4197 1.4912
L9.2988 1.5517
" />
<path d="M10.5687 1.9750
L11.5364 1.9750
" />
<path d="M12.0202 1.6122
L12.3226 2.4588
" />
<path d="M12.3226 2.4588
L12.6249 1.6122
" />
<path d="M13.0483 1.3098
L13.1087 1.2493
" />
<path d="M13.1087 1.2493
L13.2297 1.1888
" />
<path d="M13.2297 1.1888
L13.5321 1.1888
" />
<path d="M13.5321 1.1888
L13.6530 1.2493
" />
<path d="M13.6530 1.2493
L13.7135 1.3098
" />
<path d="M13.7135 1.3098
L13.7740 1.4307
" />
<path d="M13.7740 1.4307
L13.7740 1.5517
" />
<path d="M13.7740 1.5517
L13.7135 1.7331
" />
<path d="M13.7135 1.7331
L12.9878 2.4588
" />
<path d="M12.9878 2.4588
L13.7740 2.4588
" />
</g></g> 
</svg>
