<?xml version="1.0" standalone="no"?>
 <!DOCTYPE svg PUBLIC "-//W3C//DTD SVG 1.1//EN" 
 "http://www.w3.org/Graphics/SVG/1.1/DTD/svg11.dtd"> 
<svg
  xmlns:svg="http://www.w3.org/2000/svg"
  xmlns="http://www.w3.org/2000/svg"
  xmlns:xlink="http://www.w3.org/1999/xlink"
  version="1.1"
  width="27.9908mm" height="24.0792mm" viewBox="0.0000 0.0000 27.9908 24.0792">
<title>SVG Image created as esp-01.svg date 2023/09/25 15:22:48 </title>
  <desc>Image generated by Eeschema-SVG </desc>
<g style="fill:#000000; fill-opacity:1.0000;stroke:#000000; stroke-opacity:1.0000;
stroke-linecap:round; stroke-linejoin:round;"
 transform="translate(0 0) scale(1 1)">
</g>
<g style="fill:#840000; fill-opacity:0.0; 
stroke:#840000; stroke-width:0.0000; stroke-opacity:1; 
stroke-linecap:round; stroke-linejoin:round;">
</g>
<g style="fill:#FFFFC2; fill-opacity:0.0; 
stroke:#FFFFC2; stroke-width:0.0000; stroke-opacity:1; 
stroke-linecap:round; stroke-linejoin:round;">
</g>
<g style="fill:#FFFFC2; fill-opacity:1.0000; 
stroke:#FFFFC2; stroke-width:0.0000; stroke-opacity:1; 
stroke-linecap:round; stroke-linejoin:round;">
<rect x="6.375400" y="5.689600" width="15.240000" height="12.700000" rx="0.000000" />
</g>
<g style="fill:#840084; fill-opacity:1.0000; 
stroke:#840084; stroke-width:0.0000; stroke-opacity:1; 
stroke-linecap:round; stroke-linejoin:round;">
</g>
<g style="fill:#840000; fill-opacity:1.0000; 
stroke:#840000; stroke-width:0.0000; stroke-opacity:1; 
stroke-linecap:round; stroke-linejoin:round;">
</g>
<g style="fill:#840000; fill-opacity:0.0; 
stroke:#840000; stroke-width:0.1524; stroke-opacity:1; 
stroke-linecap:round; stroke-linejoin:round;">
<rect x="6.375400" y="5.689600" width="15.240000" height="12.700000" rx="0.000000" />
<path d="M6.3754 9.4996
L3.8354 9.4996
" />
</g>
<g style="fill:#006464; fill-opacity:0.0; 
stroke:#006464; stroke-width:0.1524; stroke-opacity:1; 
stroke-linecap:round; stroke-linejoin:round;">
<text x="6.8834" y="10.1346"
textLength="5.2227" font-size="1.6933" lengthAdjust="spacingAndGlyphs"
text-anchor="start" opacity="0">3/RX</text>
<g class="stroked-text"><desc>3/RX</desc>
<path d="M7.1650 8.8091
L7.9512 8.8091
" />
<path d="M7.9512 8.8091
L7.5278 9.2929
" />
<path d="M7.5278 9.2929
L7.7093 9.2929
" />
<path d="M7.7093 9.2929
L7.8302 9.3534
" />
<path d="M7.8302 9.3534
L7.8907 9.4139
" />
<path d="M7.8907 9.4139
L7.9512 9.5348
" />
<path d="M7.9512 9.5348
L7.9512 9.8372
" />
<path d="M7.9512 9.8372
L7.8907 9.9582
" />
<path d="M7.8907 9.9582
L7.8302 10.0187
" />
<path d="M7.8302 10.0187
L7.7093 10.0791
" />
<path d="M7.7093 10.0791
L7.3464 10.0791
" />
<path d="M7.3464 10.0791
L7.2255 10.0187
" />
<path d="M7.2255 10.0187
L7.1650 9.9582
" />
<path d="M9.4026 8.7487
L8.3140 10.3815
" />
<path d="M10.5516 10.0791
L10.1283 9.4744
" />
<path d="M9.8259 10.0791
L9.8259 8.8091
" />
<path d="M9.8259 8.8091
L10.3097 8.8091
" />
<path d="M10.3097 8.8091
L10.4307 8.8696
" />
<path d="M10.4307 8.8696
L10.4912 8.9301
" />
<path d="M10.4912 8.9301
L10.5516 9.0510
" />
<path d="M10.5516 9.0510
L10.5516 9.2325
" />
<path d="M10.5516 9.2325
L10.4912 9.3534
" />
<path d="M10.4912 9.3534
L10.4307 9.4139
" />
<path d="M10.4307 9.4139
L10.3097 9.4744
" />
<path d="M10.3097 9.4744
L9.8259 9.4744
" />
<path d="M10.9750 8.8091
L11.8216 10.0791
" />
<path d="M11.8216 8.8091
L10.9750 10.0791
" />
</g></g>
<g style="fill:#A90000; fill-opacity:0.0; 
stroke:#A90000; stroke-width:0.1524; stroke-opacity:1; 
stroke-linecap:round; stroke-linejoin:round;">
<text x="5.1054" y="9.2456"
textLength="1.4127" font-size="1.6933" lengthAdjust="spacingAndGlyphs"
text-anchor="middle" opacity="0">1</text>
<g class="stroked-text"><desc>1</desc>
<path d="M5.4683 9.0821
L4.7426 9.0821
" />
<path d="M5.1054 9.0821
L5.1054 7.8121
" />
<path d="M5.1054 7.8121
L4.9845 7.9936
" />
<path d="M4.9845 7.9936
L4.8635 8.1145
" />
<path d="M4.8635 8.1145
L4.7426 8.1750
" />
</g></g>
<g style="fill:#840000; fill-opacity:0.0; 
stroke:#840000; stroke-width:0.1524; stroke-opacity:1; 
stroke-linecap:round; stroke-linejoin:round;">
<path d="M6.3754 12.0396
L3.8354 12.0396
" />
</g>
<g style="fill:#006464; fill-opacity:0.0; 
stroke:#006464; stroke-width:0.1524; stroke-opacity:1; 
stroke-linecap:round; stroke-linejoin:round;">
<text x="6.8834" y="12.6746"
textLength="5.8880" font-size="1.6933" lengthAdjust="spacingAndGlyphs"
text-anchor="start" opacity="0">GPIO0</text>
<g class="stroked-text"><desc>GPIO0</desc>
<path d="M7.9512 11.4096
L7.8302 11.3491
" />
<path d="M7.8302 11.3491
L7.6488 11.3491
" />
<path d="M7.6488 11.3491
L7.4674 11.4096
" />
<path d="M7.4674 11.4096
L7.3464 11.5306
" />
<path d="M7.3464 11.5306
L7.2859 11.6515
" />
<path d="M7.2859 11.6515
L7.2255 11.8934
" />
<path d="M7.2255 11.8934
L7.2255 12.0748
" />
<path d="M7.2255 12.0748
L7.2859 12.3167
" />
<path d="M7.2859 12.3167
L7.3464 12.4377
" />
<path d="M7.3464 12.4377
L7.4674 12.5587
" />
<path d="M7.4674 12.5587
L7.6488 12.6191
" />
<path d="M7.6488 12.6191
L7.7697 12.6191
" />
<path d="M7.7697 12.6191
L7.9512 12.5587
" />
<path d="M7.9512 12.5587
L8.0116 12.4982
" />
<path d="M8.0116 12.4982
L8.0116 12.0748
" />
<path d="M8.0116 12.0748
L7.7697 12.0748
" />
<path d="M8.5559 12.6191
L8.5559 11.3491
" />
<path d="M8.5559 11.3491
L9.0397 11.3491
" />
<path d="M9.0397 11.3491
L9.1607 11.4096
" />
<path d="M9.1607 11.4096
L9.2212 11.4701
" />
<path d="M9.2212 11.4701
L9.2816 11.5910
" />
<path d="M9.2816 11.5910
L9.2816 11.7725
" />
<path d="M9.2816 11.7725
L9.2212 11.8934
" />
<path d="M9.2212 11.8934
L9.1607 11.9539
" />
<path d="M9.1607 11.9539
L9.0397 12.0144
" />
<path d="M9.0397 12.0144
L8.5559 12.0144
" />
<path d="M9.8259 12.6191
L9.8259 11.3491
" />
<path d="M10.6726 11.3491
L10.9145 11.3491
" />
<path d="M10.9145 11.3491
L11.0355 11.4096
" />
<path d="M11.0355 11.4096
L11.1564 11.5306
" />
<path d="M11.1564 11.5306
L11.2169 11.7725
" />
<path d="M11.2169 11.7725
L11.2169 12.1958
" />
<path d="M11.2169 12.1958
L11.1564 12.4377
" />
<path d="M11.1564 12.4377
L11.0355 12.5587
" />
<path d="M11.0355 12.5587
L10.9145 12.6191
" />
<path d="M10.9145 12.6191
L10.6726 12.6191
" />
<path d="M10.6726 12.6191
L10.5517 12.5587
" />
<path d="M10.5517 12.5587
L10.4307 12.4377
" />
<path d="M10.4307 12.4377
L10.3703 12.1958
" />
<path d="M10.3703 12.1958
L10.3703 11.7725
" />
<path d="M10.3703 11.7725
L10.4307 11.5306
" />
<path d="M10.4307 11.5306
L10.5517 11.4096
" />
<path d="M10.5517 11.4096
L10.6726 11.3491
" />
<path d="M12.0031 11.3491
L12.1241 11.3491
" />
<path d="M12.1241 11.3491
L12.2450 11.4096
" />
<path d="M12.2450 11.4096
L12.3055 11.4701
" />
<path d="M12.3055 11.4701
L12.3660 11.5910
" />
<path d="M12.3660 11.5910
L12.4265 11.8329
" />
<path d="M12.4265 11.8329
L12.4265 12.1353
" />
<path d="M12.4265 12.1353
L12.3660 12.3772
" />
<path d="M12.3660 12.3772
L12.3055 12.4982
" />
<path d="M12.3055 12.4982
L12.2450 12.5587
" />
<path d="M12.2450 12.5587
L12.1241 12.6191
" />
<path d="M12.1241 12.6191
L12.0031 12.6191
" />
<path d="M12.0031 12.6191
L11.8822 12.5587
" />
<path d="M11.8822 12.5587
L11.8217 12.4982
" />
<path d="M11.8217 12.4982
L11.7612 12.3772
" />
<path d="M11.7612 12.3772
L11.7008 12.1353
" />
<path d="M11.7008 12.1353
L11.7008 11.8329
" />
<path d="M11.7008 11.8329
L11.7612 11.5910
" />
<path d="M11.7612 11.5910
L11.8217 11.4701
" />
<path d="M11.8217 11.4701
L11.8822 11.4096
" />
<path d="M11.8822 11.4096
L12.0031 11.3491
" />
</g></g>
<g style="fill:#A90000; fill-opacity:0.0; 
stroke:#A90000; stroke-width:0.1524; stroke-opacity:1; 
stroke-linecap:round; stroke-linejoin:round;">
<text x="5.1054" y="11.7856"
textLength="1.4127" font-size="1.6933" lengthAdjust="spacingAndGlyphs"
text-anchor="middle" opacity="0">2</text>
<g class="stroked-text"><desc>2</desc>
<path d="M4.7426 10.4731
L4.8030 10.4126
" />
<path d="M4.8030 10.4126
L4.9240 10.3521
" />
<path d="M4.9240 10.3521
L5.2264 10.3521
" />
<path d="M5.2264 10.3521
L5.3473 10.4126
" />
<path d="M5.3473 10.4126
L5.4078 10.4731
" />
<path d="M5.4078 10.4731
L5.4683 10.5940
" />
<path d="M5.4683 10.5940
L5.4683 10.7150
" />
<path d="M5.4683 10.7150
L5.4078 10.8964
" />
<path d="M5.4078 10.8964
L4.6821 11.6221
" />
<path d="M4.6821 11.6221
L5.4683 11.6221
" />
</g></g>
<g style="fill:#840000; fill-opacity:0.0; 
stroke:#840000; stroke-width:0.1524; stroke-opacity:1; 
stroke-linecap:round; stroke-linejoin:round;">
<path d="M6.3754 14.5796
L3.8354 14.5796
" />
</g>
<g style="fill:#006464; fill-opacity:0.0; 
stroke:#006464; stroke-width:0.1524; stroke-opacity:1; 
stroke-linecap:round; stroke-linejoin:round;">
<text x="6.8834" y="15.2146"
textLength="5.8880" font-size="1.6933" lengthAdjust="spacingAndGlyphs"
text-anchor="start" opacity="0">GPIO2</text>
<g class="stroked-text"><desc>GPIO2</desc>
<path d="M7.9512 13.9496
L7.8302 13.8891
" />
<path d="M7.8302 13.8891
L7.6488 13.8891
" />
<path d="M7.6488 13.8891
L7.4674 13.9496
" />
<path d="M7.4674 13.9496
L7.3464 14.0706
" />
<path d="M7.3464 14.0706
L7.2859 14.1915
" />
<path d="M7.2859 14.1915
L7.2255 14.4334
" />
<path d="M7.2255 14.4334
L7.2255 14.6148
" />
<path d="M7.2255 14.6148
L7.2859 14.8567
" />
<path d="M7.2859 14.8567
L7.3464 14.9777
" />
<path d="M7.3464 14.9777
L7.4674 15.0987
" />
<path d="M7.4674 15.0987
L7.6488 15.1591
" />
<path d="M7.6488 15.1591
L7.7697 15.1591
" />
<path d="M7.7697 15.1591
L7.9512 15.0987
" />
<path d="M7.9512 15.0987
L8.0116 15.0382
" />
<path d="M8.0116 15.0382
L8.0116 14.6148
" />
<path d="M8.0116 14.6148
L7.7697 14.6148
" />
<path d="M8.5559 15.1591
L8.5559 13.8891
" />
<path d="M8.5559 13.8891
L9.0397 13.8891
" />
<path d="M9.0397 13.8891
L9.1607 13.9496
" />
<path d="M9.1607 13.9496
L9.2212 14.0101
" />
<path d="M9.2212 14.0101
L9.2816 14.1310
" />
<path d="M9.2816 14.1310
L9.2816 14.3125
" />
<path d="M9.2816 14.3125
L9.2212 14.4334
" />
<path d="M9.2212 14.4334
L9.1607 14.4939
" />
<path d="M9.1607 14.4939
L9.0397 14.5544
" />
<path d="M9.0397 14.5544
L8.5559 14.5544
" />
<path d="M9.8259 15.1591
L9.8259 13.8891
" />
<path d="M10.6726 13.8891
L10.9145 13.8891
" />
<path d="M10.9145 13.8891
L11.0355 13.9496
" />
<path d="M11.0355 13.9496
L11.1564 14.0706
" />
<path d="M11.1564 14.0706
L11.2169 14.3125
" />
<path d="M11.2169 14.3125
L11.2169 14.7358
" />
<path d="M11.2169 14.7358
L11.1564 14.9777
" />
<path d="M11.1564 14.9777
L11.0355 15.0987
" />
<path d="M11.0355 15.0987
L10.9145 15.1591
" />
<path d="M10.9145 15.1591
L10.6726 15.1591
" />
<path d="M10.6726 15.1591
L10.5517 15.0987
" />
<path d="M10.5517 15.0987
L10.4307 14.9777
" />
<path d="M10.4307 14.9777
L10.3703 14.7358
" />
<path d="M10.3703 14.7358
L10.3703 14.3125
" />
<path d="M10.3703 14.3125
L10.4307 14.0706
" />
<path d="M10.4307 14.0706
L10.5517 13.9496
" />
<path d="M10.5517 13.9496
L10.6726 13.8891
" />
<path d="M11.7008 14.0101
L11.7612 13.9496
" />
<path d="M11.7612 13.9496
L11.8822 13.8891
" />
<path d="M11.8822 13.8891
L12.1846 13.8891
" />
<path d="M12.1846 13.8891
L12.3055 13.9496
" />
<path d="M12.3055 13.9496
L12.3660 14.0101
" />
<path d="M12.3660 14.0101
L12.4265 14.1310
" />
<path d="M12.4265 14.1310
L12.4265 14.2520
" />
<path d="M12.4265 14.2520
L12.3660 14.4334
" />
<path d="M12.3660 14.4334
L11.6403 15.1591
" />
<path d="M11.6403 15.1591
L12.4265 15.1591
" />
</g></g>
<g style="fill:#A90000; fill-opacity:0.0; 
stroke:#A90000; stroke-width:0.1524; stroke-opacity:1; 
stroke-linecap:round; stroke-linejoin:round;">
<text x="5.1054" y="14.3256"
textLength="1.4127" font-size="1.6933" lengthAdjust="spacingAndGlyphs"
text-anchor="middle" opacity="0">3</text>
<g class="stroked-text"><desc>3</desc>
<path d="M4.6821 12.8921
L5.4683 12.8921
" />
<path d="M5.4683 12.8921
L5.0449 13.3759
" />
<path d="M5.0449 13.3759
L5.2264 13.3759
" />
<path d="M5.2264 13.3759
L5.3473 13.4364
" />
<path d="M5.3473 13.4364
L5.4078 13.4969
" />
<path d="M5.4078 13.4969
L5.4683 13.6178
" />
<path d="M5.4683 13.6178
L5.4683 13.9202
" />
<path d="M5.4683 13.9202
L5.4078 14.0412
" />
<path d="M5.4078 14.0412
L5.3473 14.1017
" />
<path d="M5.3473 14.1017
L5.2264 14.1621
" />
<path d="M5.2264 14.1621
L4.8635 14.1621
" />
<path d="M4.8635 14.1621
L4.7426 14.1017
" />
<path d="M4.7426 14.1017
L4.6821 14.0412
" />
</g></g>
<g style="fill:#840000; fill-opacity:0.0; 
stroke:#840000; stroke-width:0.1524; stroke-opacity:1; 
stroke-linecap:round; stroke-linejoin:round;">
<path d="M13.9954 18.3896
L13.9954 20.9296
" />
</g>
<g style="fill:#006464; fill-opacity:0.0; 
stroke:#006464; stroke-width:0.1524; stroke-opacity:1; 
stroke-linecap:round; stroke-linejoin:round;">
<g transform="rotate(-90.000000 13.9954 17.8816)">
<text x="13.9954" y="18.5166"
textLength="4.0737" font-size="1.6933" lengthAdjust="spacingAndGlyphs"
text-anchor="start" opacity="0">GND</text>
</g>
<g class="stroked-text"><desc>GND</desc>
<path d="M13.3654 16.8137
L13.3049 16.9347
" />
<path d="M13.3049 16.9347
L13.3049 17.1161
" />
<path d="M13.3049 17.1161
L13.3654 17.2975
" />
<path d="M13.3654 17.2975
L13.4864 17.4185
" />
<path d="M13.4864 17.4185
L13.6073 17.4790
" />
<path d="M13.6073 17.4790
L13.8492 17.5394
" />
<path d="M13.8492 17.5394
L14.0306 17.5394
" />
<path d="M14.0306 17.5394
L14.2725 17.4790
" />
<path d="M14.2725 17.4790
L14.3935 17.4185
" />
<path d="M14.3935 17.4185
L14.5145 17.2975
" />
<path d="M14.5145 17.2975
L14.5749 17.1161
" />
<path d="M14.5749 17.1161
L14.5749 16.9952
" />
<path d="M14.5749 16.9952
L14.5145 16.8137
" />
<path d="M14.5145 16.8137
L14.4540 16.7533
" />
<path d="M14.4540 16.7533
L14.0306 16.7533
" />
<path d="M14.0306 16.7533
L14.0306 16.9952
" />
<path d="M14.5749 16.2090
L13.3049 16.2090
" />
<path d="M13.3049 16.2090
L14.5749 15.4833
" />
<path d="M14.5749 15.4833
L13.3049 15.4833
" />
<path d="M14.5749 14.8785
L13.3049 14.8785
" />
<path d="M13.3049 14.8785
L13.3049 14.5761
" />
<path d="M13.3049 14.5761
L13.3654 14.3947
" />
<path d="M13.3654 14.3947
L13.4864 14.2737
" />
<path d="M13.4864 14.2737
L13.6073 14.2132
" />
<path d="M13.6073 14.2132
L13.8492 14.1528
" />
<path d="M13.8492 14.1528
L14.0306 14.1528
" />
<path d="M14.0306 14.1528
L14.2725 14.2132
" />
<path d="M14.2725 14.2132
L14.3935 14.2737
" />
<path d="M14.3935 14.2737
L14.5145 14.3947
" />
<path d="M14.5145 14.3947
L14.5749 14.5761
" />
<path d="M14.5749 14.5761
L14.5749 14.8785
" />
</g></g>
<g style="fill:#A90000; fill-opacity:0.0; 
stroke:#A90000; stroke-width:0.1524; stroke-opacity:1; 
stroke-linecap:round; stroke-linejoin:round;">
<g transform="rotate(-90.000000 13.7414 19.6596)">
<text x="13.7414" y="19.6596"
textLength="1.4127" font-size="1.6933" lengthAdjust="spacingAndGlyphs"
text-anchor="middle" opacity="0">4</text>
</g>
<g class="stroked-text"><desc>4</desc>
<path d="M12.7313 19.4176
L13.5779 19.4176
" />
<path d="M12.2475 19.7200
L13.1546 20.0223
" />
<path d="M13.1546 20.0223
L13.1546 19.2362
" />
</g></g>
<g style="fill:#840000; fill-opacity:0.0; 
stroke:#840000; stroke-width:0.1524; stroke-opacity:1; 
stroke-linecap:round; stroke-linejoin:round;">
<path d="M21.6154 14.5796
L24.1554 14.5796
" />
</g>
<g style="fill:#006464; fill-opacity:0.0; 
stroke:#006464; stroke-width:0.1524; stroke-opacity:1; 
stroke-linecap:round; stroke-linejoin:round;">
<text x="21.1074" y="15.2146"
textLength="4.9203" font-size="1.6933" lengthAdjust="spacingAndGlyphs"
text-anchor="end" opacity="0">1/TX</text>
<g class="stroked-text"><desc>1/TX</desc>
<path d="M17.2577 15.1591
L16.5320 15.1591
" />
<path d="M16.8948 15.1591
L16.8948 13.8891
" />
<path d="M16.8948 13.8891
L16.7739 14.0706
" />
<path d="M16.7739 14.0706
L16.6529 14.1915
" />
<path d="M16.6529 14.1915
L16.5320 14.2520
" />
<path d="M18.7091 13.8287
L17.6205 15.4615
" />
<path d="M18.9510 13.8891
L19.6767 13.8891
" />
<path d="M19.3139 15.1591
L19.3139 13.8891
" />
<path d="M19.9791 13.8891
L20.8257 15.1591
" />
<path d="M20.8257 13.8891
L19.9791 15.1591
" />
</g></g>
<g style="fill:#A90000; fill-opacity:0.0; 
stroke:#A90000; stroke-width:0.1524; stroke-opacity:1; 
stroke-linecap:round; stroke-linejoin:round;">
<text x="22.8854" y="14.3256"
textLength="1.4127" font-size="1.6933" lengthAdjust="spacingAndGlyphs"
text-anchor="middle" opacity="0">5</text>
<g class="stroked-text"><desc>5</desc>
<path d="M23.1878 12.8921
L22.5830 12.8921
" />
<path d="M22.5830 12.8921
L22.5226 13.4969
" />
<path d="M22.5226 13.4969
L22.5830 13.4364
" />
<path d="M22.5830 13.4364
L22.7040 13.3759
" />
<path d="M22.7040 13.3759
L23.0064 13.3759
" />
<path d="M23.0064 13.3759
L23.1273 13.4364
" />
<path d="M23.1273 13.4364
L23.1878 13.4969
" />
<path d="M23.1878 13.4969
L23.2483 13.6178
" />
<path d="M23.2483 13.6178
L23.2483 13.9202
" />
<path d="M23.2483 13.9202
L23.1878 14.0412
" />
<path d="M23.1878 14.0412
L23.1273 14.1017
" />
<path d="M23.1273 14.1017
L23.0064 14.1621
" />
<path d="M23.0064 14.1621
L22.7040 14.1621
" />
<path d="M22.7040 14.1621
L22.5830 14.1017
" />
<path d="M22.5830 14.1017
L22.5226 14.0412
" />
</g></g>
<g style="fill:#840000; fill-opacity:0.0; 
stroke:#840000; stroke-width:0.1524; stroke-opacity:1; 
stroke-linecap:round; stroke-linejoin:round;">
<path d="M21.6154 12.0396
L24.1554 12.0396
" />
</g>
<g style="fill:#006464; fill-opacity:0.0; 
stroke:#006464; stroke-width:0.1524; stroke-opacity:1; 
stroke-linecap:round; stroke-linejoin:round;">
<text x="21.1074" y="12.6746"
textLength="2.6827" font-size="1.6933" lengthAdjust="spacingAndGlyphs"
text-anchor="end" opacity="0">EN</text>
<g class="stroked-text"><desc>EN</desc>
<path d="M18.8300 11.9539
L19.2534 11.9539
" />
<path d="M19.4348 12.6191
L18.8300 12.6191
" />
<path d="M18.8300 12.6191
L18.8300 11.3491
" />
<path d="M18.8300 11.3491
L19.4348 11.3491
" />
<path d="M19.9790 12.6191
L19.9790 11.3491
" />
<path d="M19.9790 11.3491
L20.7047 12.6191
" />
<path d="M20.7047 12.6191
L20.7047 11.3491
" />
</g></g>
<g style="fill:#A90000; fill-opacity:0.0; 
stroke:#A90000; stroke-width:0.1524; stroke-opacity:1; 
stroke-linecap:round; stroke-linejoin:round;">
<text x="22.8854" y="11.7856"
textLength="1.4127" font-size="1.6933" lengthAdjust="spacingAndGlyphs"
text-anchor="middle" opacity="0">6</text>
<g class="stroked-text"><desc>6</desc>
<path d="M23.1273 10.3521
L22.8854 10.3521
" />
<path d="M22.8854 10.3521
L22.7645 10.4126
" />
<path d="M22.7645 10.4126
L22.7040 10.4731
" />
<path d="M22.7040 10.4731
L22.5830 10.6545
" />
<path d="M22.5830 10.6545
L22.5226 10.8964
" />
<path d="M22.5226 10.8964
L22.5226 11.3802
" />
<path d="M22.5226 11.3802
L22.5830 11.5012
" />
<path d="M22.5830 11.5012
L22.6435 11.5617
" />
<path d="M22.6435 11.5617
L22.7645 11.6221
" />
<path d="M22.7645 11.6221
L23.0064 11.6221
" />
<path d="M23.0064 11.6221
L23.1273 11.5617
" />
<path d="M23.1273 11.5617
L23.1878 11.5012
" />
<path d="M23.1878 11.5012
L23.2483 11.3802
" />
<path d="M23.2483 11.3802
L23.2483 11.0778
" />
<path d="M23.2483 11.0778
L23.1878 10.9569
" />
<path d="M23.1878 10.9569
L23.1273 10.8964
" />
<path d="M23.1273 10.8964
L23.0064 10.8359
" />
<path d="M23.0064 10.8359
L22.7645 10.8359
" />
<path d="M22.7645 10.8359
L22.6435 10.8964
" />
<path d="M22.6435 10.8964
L22.5830 10.9569
" />
<path d="M22.5830 10.9569
L22.5226 11.0778
" />
</g></g>
<g style="fill:#840000; fill-opacity:0.0; 
stroke:#840000; stroke-width:0.1524; stroke-opacity:1; 
stroke-linecap:round; stroke-linejoin:round;">
<path d="M21.6154 9.4996
L24.1554 9.4996
" />
</g>
<g style="fill:#006464; fill-opacity:0.0; 
stroke:#006464; stroke-width:0.1524; stroke-opacity:1; 
stroke-linecap:round; stroke-linejoin:round;">
<text x="21.1074" y="10.1346"
textLength="3.6503" font-size="1.6933" lengthAdjust="spacingAndGlyphs"
text-anchor="end" opacity="0">~{RST}</text>
<g class="stroked-text"><desc>~{RST}</desc>
<path d="M18.5881 10.0791
L18.1648 9.4744
" />
<path d="M17.8624 10.0791
L17.8624 8.8091
" />
<path d="M17.8624 8.8091
L18.3462 8.8091
" />
<path d="M18.3462 8.8091
L18.4672 8.8696
" />
<path d="M18.4672 8.8696
L18.5277 8.9301
" />
<path d="M18.5277 8.9301
L18.5881 9.0510
" />
<path d="M18.5881 9.0510
L18.5881 9.2325
" />
<path d="M18.5881 9.2325
L18.5277 9.3534
" />
<path d="M18.5277 9.3534
L18.4672 9.4139
" />
<path d="M18.4672 9.4139
L18.3462 9.4744
" />
<path d="M18.3462 9.4744
L17.8624 9.4744
" />
<path d="M19.0720 10.0187
L19.2534 10.0791
" />
<path d="M19.2534 10.0791
L19.5558 10.0791
" />
<path d="M19.5558 10.0791
L19.6767 10.0187
" />
<path d="M19.6767 10.0187
L19.7372 9.9582
" />
<path d="M19.7372 9.9582
L19.7977 9.8372
" />
<path d="M19.7977 9.8372
L19.7977 9.7163
" />
<path d="M19.7977 9.7163
L19.7372 9.5953
" />
<path d="M19.7372 9.5953
L19.6767 9.5348
" />
<path d="M19.6767 9.5348
L19.5558 9.4744
" />
<path d="M19.5558 9.4744
L19.3139 9.4139
" />
<path d="M19.3139 9.4139
L19.1929 9.3534
" />
<path d="M19.1929 9.3534
L19.1324 9.2929
" />
<path d="M19.1324 9.2929
L19.0720 9.1720
" />
<path d="M19.0720 9.1720
L19.0720 9.0510
" />
<path d="M19.0720 9.0510
L19.1324 8.9301
" />
<path d="M19.1324 8.9301
L19.1929 8.8696
" />
<path d="M19.1929 8.8696
L19.3139 8.8091
" />
<path d="M19.3139 8.8091
L19.6162 8.8091
" />
<path d="M19.6162 8.8091
L19.7977 8.8696
" />
<path d="M20.1605 8.8091
L20.8862 8.8091
" />
<path d="M20.5234 10.0791
L20.5234 8.8091
" />
<path d="M17.6871 8.4566
L20.8802 8.4566
" />
</g></g>
<g style="fill:#A90000; fill-opacity:0.0; 
stroke:#A90000; stroke-width:0.1524; stroke-opacity:1; 
stroke-linecap:round; stroke-linejoin:round;">
<text x="22.8854" y="9.2456"
textLength="1.4127" font-size="1.6933" lengthAdjust="spacingAndGlyphs"
text-anchor="middle" opacity="0">7</text>
<g class="stroked-text"><desc>7</desc>
<path d="M22.4621 7.8121
L23.3087 7.8121
" />
<path d="M23.3087 7.8121
L22.7645 9.0821
" />
</g></g>
<g style="fill:#840000; fill-opacity:0.0; 
stroke:#840000; stroke-width:0.1524; stroke-opacity:1; 
stroke-linecap:round; stroke-linejoin:round;">
<path d="M13.9954 5.6896
L13.9954 3.1496
" />
</g>
<g style="fill:#006464; fill-opacity:0.0; 
stroke:#006464; stroke-width:0.1524; stroke-opacity:1; 
stroke-linecap:round; stroke-linejoin:round;">
<g transform="rotate(-90.000000 13.9954 6.1976)">
<text x="13.9954" y="6.8326"
textLength="3.8318" font-size="1.6933" lengthAdjust="spacingAndGlyphs"
text-anchor="end" opacity="0">VCC</text>
</g>
<g class="stroked-text"><desc>VCC</desc>
<path d="M13.3049 9.8054
L14.5749 9.3821
" />
<path d="M14.5749 9.3821
L13.3049 8.9587
" />
<path d="M14.4540 7.8097
L14.5145 7.8701
" />
<path d="M14.5145 7.8701
L14.5749 8.0516
" />
<path d="M14.5749 8.0516
L14.5749 8.1725
" />
<path d="M14.5749 8.1725
L14.5145 8.3539
" />
<path d="M14.5145 8.3539
L14.3935 8.4749
" />
<path d="M14.3935 8.4749
L14.2725 8.5354
" />
<path d="M14.2725 8.5354
L14.0306 8.5958
" />
<path d="M14.0306 8.5958
L13.8492 8.5958
" />
<path d="M13.8492 8.5958
L13.6073 8.5354
" />
<path d="M13.6073 8.5354
L13.4864 8.4749
" />
<path d="M13.4864 8.4749
L13.3654 8.3539
" />
<path d="M13.3654 8.3539
L13.3049 8.1725
" />
<path d="M13.3049 8.1725
L13.3049 8.0516
" />
<path d="M13.3049 8.0516
L13.3654 7.8701
" />
<path d="M13.3654 7.8701
L13.4259 7.8097
" />
<path d="M14.4540 6.5397
L14.5145 6.6001
" />
<path d="M14.5145 6.6001
L14.5749 6.7816
" />
<path d="M14.5749 6.7816
L14.5749 6.9025
" />
<path d="M14.5749 6.9025
L14.5145 7.0839
" />
<path d="M14.5145 7.0839
L14.3935 7.2049
" />
<path d="M14.3935 7.2049
L14.2725 7.2654
" />
<path d="M14.2725 7.2654
L14.0306 7.3258
" />
<path d="M14.0306 7.3258
L13.8492 7.3258
" />
<path d="M13.8492 7.3258
L13.6073 7.2654
" />
<path d="M13.6073 7.2654
L13.4864 7.2049
" />
<path d="M13.4864 7.2049
L13.3654 7.0839
" />
<path d="M13.3654 7.0839
L13.3049 6.9025
" />
<path d="M13.3049 6.9025
L13.3049 6.7816
" />
<path d="M13.3049 6.7816
L13.3654 6.6001
" />
<path d="M13.3654 6.6001
L13.4259 6.5397
" />
</g></g>
<g style="fill:#A90000; fill-opacity:0.0; 
stroke:#A90000; stroke-width:0.1524; stroke-opacity:1; 
stroke-linecap:round; stroke-linejoin:round;">
<g transform="rotate(-90.000000 13.7414 4.4196)">
<text x="13.7414" y="4.4196"
textLength="1.4127" font-size="1.6933" lengthAdjust="spacingAndGlyphs"
text-anchor="middle" opacity="0">8</text>
</g>
<g class="stroked-text"><desc>8</desc>
<path d="M12.8522 4.5404
L12.7917 4.6614
" />
<path d="M12.7917 4.6614
L12.7313 4.7219
" />
<path d="M12.7313 4.7219
L12.6103 4.7823
" />
<path d="M12.6103 4.7823
L12.5498 4.7823
" />
<path d="M12.5498 4.7823
L12.4289 4.7219
" />
<path d="M12.4289 4.7219
L12.3684 4.6614
" />
<path d="M12.3684 4.6614
L12.3079 4.5404
" />
<path d="M12.3079 4.5404
L12.3079 4.2985
" />
<path d="M12.3079 4.2985
L12.3684 4.1776
" />
<path d="M12.3684 4.1776
L12.4289 4.1171
" />
<path d="M12.4289 4.1171
L12.5498 4.0566
" />
<path d="M12.5498 4.0566
L12.6103 4.0566
" />
<path d="M12.6103 4.0566
L12.7313 4.1171
" />
<path d="M12.7313 4.1171
L12.7917 4.1776
" />
<path d="M12.7917 4.1776
L12.8522 4.2985
" />
<path d="M12.8522 4.2985
L12.8522 4.5404
" />
<path d="M12.8522 4.5404
L12.9127 4.6614
" />
<path d="M12.9127 4.6614
L12.9732 4.7219
" />
<path d="M12.9732 4.7219
L13.0941 4.7823
" />
<path d="M13.0941 4.7823
L13.3360 4.7823
" />
<path d="M13.3360 4.7823
L13.4570 4.7219
" />
<path d="M13.4570 4.7219
L13.5175 4.6614
" />
<path d="M13.5175 4.6614
L13.5779 4.5404
" />
<path d="M13.5779 4.5404
L13.5779 4.2985
" />
<path d="M13.5779 4.2985
L13.5175 4.1776
" />
<path d="M13.5175 4.1776
L13.4570 4.1171
" />
<path d="M13.4570 4.1171
L13.3360 4.0566
" />
<path d="M13.3360 4.0566
L13.0941 4.0566
" />
<path d="M13.0941 4.0566
L12.9732 4.1171
" />
<path d="M12.9732 4.1171
L12.9127 4.1776
" />
<path d="M12.9127 4.1776
L12.8522 4.2985
" />
</g></g>
<g style="fill:#840084; fill-opacity:0.0; 
stroke:#840084; stroke-width:0.1524; stroke-opacity:1; 
stroke-linecap:round; stroke-linejoin:round;">
</g>
<g style="fill:#006464; fill-opacity:0.0; 
stroke:#006464; stroke-width:0.1524; stroke-opacity:1; 
stroke-linecap:round; stroke-linejoin:round;">
</g>
<g style="fill:#006464; fill-opacity:0.0; 
stroke:#006464; stroke-width:0.1588; stroke-opacity:1; 
stroke-linecap:round; stroke-linejoin:round;">
<text x="21.6154" y="5.0546"
textLength="2.6415" font-size="1.6933" lengthAdjust="spacingAndGlyphs"
text-anchor="middle" opacity="0">U?</text>
<g class="stroked-text"><desc>U?</desc>
<path d="M20.7082 3.7288
L20.7082 4.7569
" />
<path d="M20.7082 4.7569
L20.7687 4.8779
" />
<path d="M20.7687 4.8779
L20.8292 4.9384
" />
<path d="M20.8292 4.9384
L20.9501 4.9988
" />
<path d="M20.9501 4.9988
L21.1920 4.9988
" />
<path d="M21.1920 4.9988
L21.3130 4.9384
" />
<path d="M21.3130 4.9384
L21.3735 4.8779
" />
<path d="M21.3735 4.8779
L21.4339 4.7569
" />
<path d="M21.4339 4.7569
L21.4339 3.7288
" />
<path d="M22.2202 4.8779
L22.2806 4.9384
" />
<path d="M22.2806 4.9384
L22.2202 4.9988
" />
<path d="M22.2202 4.9988
L22.1597 4.9384
" />
<path d="M22.1597 4.9384
L22.2202 4.8779
" />
<path d="M22.2202 4.8779
L22.2202 4.9988
" />
<path d="M21.9783 3.7893
L22.0992 3.7288
" />
<path d="M22.0992 3.7288
L22.4016 3.7288
" />
<path d="M22.4016 3.7288
L22.5225 3.7893
" />
<path d="M22.5225 3.7893
L22.5830 3.9103
" />
<path d="M22.5830 3.9103
L22.5830 4.0312
" />
<path d="M22.5830 4.0312
L22.5225 4.1522
" />
<path d="M22.5225 4.1522
L22.4621 4.2126
" />
<path d="M22.4621 4.2126
L22.3411 4.2731
" />
<path d="M22.3411 4.2731
L22.2806 4.3336
" />
<path d="M22.2806 4.3336
L22.2202 4.4545
" />
<path d="M22.2202 4.4545
L22.2202 4.5150
" />
</g></g> 
</svg>
