<?xml version="1.0" standalone="no"?>
 <!DOCTYPE svg PUBLIC "-//W3C//DTD SVG 1.1//EN" 
 "http://www.w3.org/Graphics/SVG/1.1/DTD/svg11.dtd"> 
<svg
  xmlns:svg="http://www.w3.org/2000/svg"
  xmlns="http://www.w3.org/2000/svg"
  xmlns:xlink="http://www.w3.org/1999/xlink"
  version="1.1"
  width="65.7352mm" height="60.3758mm" viewBox="0.0000 0.0000 65.7352 60.3758">
<title>SVG Image created as gal22v10.svg date 2023/09/21 01:25:16 </title>
  <desc>Image generated by Eeschema-SVG </desc>
<g style="fill:#000000; fill-opacity:1.0000;stroke:#000000; stroke-opacity:1.0000;
stroke-linecap:round; stroke-linejoin:round;"
 transform="translate(0 0) scale(1 1)">
</g>
<g style="fill:#840000; fill-opacity:0.0; 
stroke:#840000; stroke-width:0.0000; stroke-opacity:1; 
stroke-linecap:round; stroke-linejoin:round;">
</g>
<g style="fill:#FFFFC2; fill-opacity:0.0; 
stroke:#FFFFC2; stroke-width:0.0000; stroke-opacity:1; 
stroke-linecap:round; stroke-linejoin:round;">
</g>
<g style="fill:#FFFFC2; fill-opacity:1.0000; 
stroke:#FFFFC2; stroke-width:0.0000; stroke-opacity:1; 
stroke-linecap:round; stroke-linejoin:round;">
<rect x="23.977600" y="16.217900" width="17.780000" height="35.560000" rx="0.000000" />
</g>
<g style="fill:#840084; fill-opacity:1.0000; 
stroke:#840084; stroke-width:0.0000; stroke-opacity:1; 
stroke-linecap:round; stroke-linejoin:round;">
</g>
<g style="fill:#840000; fill-opacity:1.0000; 
stroke:#840000; stroke-width:0.0000; stroke-opacity:1; 
stroke-linecap:round; stroke-linejoin:round;">
</g>
<g style="fill:#840000; fill-opacity:0.0; 
stroke:#840000; stroke-width:0.2540; stroke-opacity:1; 
stroke-linecap:round; stroke-linejoin:round;">
<rect x="23.977600" y="16.217900" width="17.780000" height="35.560000" rx="0.000000" />
</g>
<g style="fill:#840000; fill-opacity:0.0; 
stroke:#840000; stroke-width:0.1524; stroke-opacity:1; 
stroke-linecap:round; stroke-linejoin:round;">
<path d="M32.8676 51.7779
L32.8676 55.5879
" />
</g>
<g style="fill:#006464; fill-opacity:0.0; 
stroke:#006464; stroke-width:0.1524; stroke-opacity:1; 
stroke-linecap:round; stroke-linejoin:round;">
<g transform="rotate(-90.000000 32.8676 50.7619)">
<text x="32.8676" y="51.3969"
textLength="4.0737" font-size="1.6933" lengthAdjust="spacingAndGlyphs"
text-anchor="start" opacity="0">GND</text>
</g>
<g class="stroked-text"><desc>GND</desc>
<path d="M32.2376 49.6940
L32.1771 49.8150
" />
<path d="M32.1771 49.8150
L32.1771 49.9964
" />
<path d="M32.1771 49.9964
L32.2376 50.1778
" />
<path d="M32.2376 50.1778
L32.3586 50.2988
" />
<path d="M32.3586 50.2988
L32.4795 50.3593
" />
<path d="M32.4795 50.3593
L32.7214 50.4197
" />
<path d="M32.7214 50.4197
L32.9028 50.4197
" />
<path d="M32.9028 50.4197
L33.1447 50.3593
" />
<path d="M33.1447 50.3593
L33.2657 50.2988
" />
<path d="M33.2657 50.2988
L33.3867 50.1778
" />
<path d="M33.3867 50.1778
L33.4471 49.9964
" />
<path d="M33.4471 49.9964
L33.4471 49.8755
" />
<path d="M33.4471 49.8755
L33.3867 49.6940
" />
<path d="M33.3867 49.6940
L33.3262 49.6336
" />
<path d="M33.3262 49.6336
L32.9028 49.6336
" />
<path d="M32.9028 49.6336
L32.9028 49.8755
" />
<path d="M33.4471 49.0893
L32.1771 49.0893
" />
<path d="M32.1771 49.0893
L33.4471 48.3636
" />
<path d="M33.4471 48.3636
L32.1771 48.3636
" />
<path d="M33.4471 47.7588
L32.1771 47.7588
" />
<path d="M32.1771 47.7588
L32.1771 47.4564
" />
<path d="M32.1771 47.4564
L32.2376 47.2750
" />
<path d="M32.2376 47.2750
L32.3586 47.1540
" />
<path d="M32.3586 47.1540
L32.4795 47.0935
" />
<path d="M32.4795 47.0935
L32.7214 47.0331
" />
<path d="M32.7214 47.0331
L32.9028 47.0331
" />
<path d="M32.9028 47.0331
L33.1447 47.0935
" />
<path d="M33.1447 47.0935
L33.2657 47.1540
" />
<path d="M33.2657 47.1540
L33.3867 47.2750
" />
<path d="M33.3867 47.2750
L33.4471 47.4564
" />
<path d="M33.4471 47.4564
L33.4471 47.7588
" />
</g></g>
<g style="fill:#A90000; fill-opacity:0.0; 
stroke:#A90000; stroke-width:0.1524; stroke-opacity:1; 
stroke-linecap:round; stroke-linejoin:round;">
<g transform="rotate(-90.000000 32.6136 53.6829)">
<text x="32.6136" y="53.6829"
textLength="2.6222" font-size="1.6933" lengthAdjust="spacingAndGlyphs"
text-anchor="middle" opacity="0">12</text>
</g>
<g class="stroked-text"><desc>12</desc>
<path d="M32.4501 53.9247
L32.4501 54.6504
" />
<path d="M32.4501 54.2876
L31.1801 54.2876
" />
<path d="M31.1801 54.2876
L31.3616 54.4085
" />
<path d="M31.3616 54.4085
L31.4825 54.5295
" />
<path d="M31.4825 54.5295
L31.5430 54.6504
" />
<path d="M31.3011 53.4409
L31.2406 53.3805
" />
<path d="M31.2406 53.3805
L31.1801 53.2595
" />
<path d="M31.1801 53.2595
L31.1801 52.9571
" />
<path d="M31.1801 52.9571
L31.2406 52.8362
" />
<path d="M31.2406 52.8362
L31.3011 52.7757
" />
<path d="M31.3011 52.7757
L31.4220 52.7152
" />
<path d="M31.4220 52.7152
L31.5430 52.7152
" />
<path d="M31.5430 52.7152
L31.7244 52.7757
" />
<path d="M31.7244 52.7757
L32.4501 53.5014
" />
<path d="M32.4501 53.5014
L32.4501 52.7152
" />
</g></g>
<g style="fill:#840000; fill-opacity:0.0; 
stroke:#840000; stroke-width:0.1524; stroke-opacity:1; 
stroke-linecap:round; stroke-linejoin:round;">
<path d="M32.8676 16.2179
L32.8676 12.4079
" />
</g>
<g style="fill:#006464; fill-opacity:0.0; 
stroke:#006464; stroke-width:0.1524; stroke-opacity:1; 
stroke-linecap:round; stroke-linejoin:round;">
<g transform="rotate(-90.000000 32.8676 17.2339)">
<text x="32.8676" y="17.8689"
textLength="3.8318" font-size="1.6933" lengthAdjust="spacingAndGlyphs"
text-anchor="end" opacity="0">VCC</text>
</g>
<g class="stroked-text"><desc>VCC</desc>
<path d="M32.1771 20.8417
L33.4471 20.4184
" />
<path d="M33.4471 20.4184
L32.1771 19.9950
" />
<path d="M33.3262 18.8460
L33.3867 18.9064
" />
<path d="M33.3867 18.9064
L33.4471 19.0879
" />
<path d="M33.4471 19.0879
L33.4471 19.2088
" />
<path d="M33.4471 19.2088
L33.3867 19.3902
" />
<path d="M33.3867 19.3902
L33.2657 19.5112
" />
<path d="M33.2657 19.5112
L33.1447 19.5717
" />
<path d="M33.1447 19.5717
L32.9028 19.6321
" />
<path d="M32.9028 19.6321
L32.7214 19.6321
" />
<path d="M32.7214 19.6321
L32.4795 19.5717
" />
<path d="M32.4795 19.5717
L32.3586 19.5112
" />
<path d="M32.3586 19.5112
L32.2376 19.3902
" />
<path d="M32.2376 19.3902
L32.1771 19.2088
" />
<path d="M32.1771 19.2088
L32.1771 19.0879
" />
<path d="M32.1771 19.0879
L32.2376 18.9064
" />
<path d="M32.2376 18.9064
L32.2981 18.8460
" />
<path d="M33.3262 17.5760
L33.3867 17.6364
" />
<path d="M33.3867 17.6364
L33.4471 17.8179
" />
<path d="M33.4471 17.8179
L33.4471 17.9388
" />
<path d="M33.4471 17.9388
L33.3867 18.1202
" />
<path d="M33.3867 18.1202
L33.2657 18.2412
" />
<path d="M33.2657 18.2412
L33.1447 18.3017
" />
<path d="M33.1447 18.3017
L32.9028 18.3621
" />
<path d="M32.9028 18.3621
L32.7214 18.3621
" />
<path d="M32.7214 18.3621
L32.4795 18.3017
" />
<path d="M32.4795 18.3017
L32.3586 18.2412
" />
<path d="M32.3586 18.2412
L32.2376 18.1202
" />
<path d="M32.2376 18.1202
L32.1771 17.9388
" />
<path d="M32.1771 17.9388
L32.1771 17.8179
" />
<path d="M32.1771 17.8179
L32.2376 17.6364
" />
<path d="M32.2376 17.6364
L32.2981 17.5760
" />
</g></g>
<g style="fill:#A90000; fill-opacity:0.0; 
stroke:#A90000; stroke-width:0.1524; stroke-opacity:1; 
stroke-linecap:round; stroke-linejoin:round;">
<g transform="rotate(-90.000000 32.6136 14.3129)">
<text x="32.6136" y="14.3129"
textLength="2.6222" font-size="1.6933" lengthAdjust="spacingAndGlyphs"
text-anchor="middle" opacity="0">24</text>
</g>
<g class="stroked-text"><desc>24</desc>
<path d="M31.3011 15.2804
L31.2406 15.2200
" />
<path d="M31.2406 15.2200
L31.1801 15.0990
" />
<path d="M31.1801 15.0990
L31.1801 14.7966
" />
<path d="M31.1801 14.7966
L31.2406 14.6757
" />
<path d="M31.2406 14.6757
L31.3011 14.6152
" />
<path d="M31.3011 14.6152
L31.4220 14.5547
" />
<path d="M31.4220 14.5547
L31.5430 14.5547
" />
<path d="M31.5430 14.5547
L31.7244 14.6152
" />
<path d="M31.7244 14.6152
L32.4501 15.3409
" />
<path d="M32.4501 15.3409
L32.4501 14.5547
" />
<path d="M31.6035 13.4662
L32.4501 13.4662
" />
<path d="M31.1197 13.7686
L32.0268 14.0709
" />
<path d="M32.0268 14.0709
L32.0268 13.2848
" />
</g></g>
<g style="fill:#840000; fill-opacity:0.0; 
stroke:#840000; stroke-width:0.1524; stroke-opacity:1; 
stroke-linecap:round; stroke-linejoin:round;">
<path d="M23.9776 17.4879
L20.1676 17.4879
" />
</g>
<g style="fill:#006464; fill-opacity:0.0; 
stroke:#006464; stroke-width:0.1524; stroke-opacity:1; 
stroke-linecap:round; stroke-linejoin:round;">
<text x="24.9936" y="18.1229"
textLength="5.7066" font-size="1.6933" lengthAdjust="spacingAndGlyphs"
text-anchor="start" opacity="0">I/CLK</text>
<g class="stroked-text"><desc>I/CLK</desc>
<path d="M25.3961 18.0674
L25.3961 16.7974
" />
<path d="M26.9081 16.7370
L25.8195 18.3698
" />
<path d="M28.0571 17.9465
L27.9967 18.0070
" />
<path d="M27.9967 18.0070
L27.8152 18.0674
" />
<path d="M27.8152 18.0674
L27.6943 18.0674
" />
<path d="M27.6943 18.0674
L27.5129 18.0070
" />
<path d="M27.5129 18.0070
L27.3919 17.8860
" />
<path d="M27.3919 17.8860
L27.3314 17.7650
" />
<path d="M27.3314 17.7650
L27.2710 17.5231
" />
<path d="M27.2710 17.5231
L27.2710 17.3417
" />
<path d="M27.2710 17.3417
L27.3314 17.0998
" />
<path d="M27.3314 17.0998
L27.3919 16.9789
" />
<path d="M27.3919 16.9789
L27.5129 16.8579
" />
<path d="M27.5129 16.8579
L27.6943 16.7974
" />
<path d="M27.6943 16.7974
L27.8152 16.7974
" />
<path d="M27.8152 16.7974
L27.9967 16.8579
" />
<path d="M27.9967 16.8579
L28.0571 16.9184
" />
<path d="M29.2062 18.0674
L28.6014 18.0674
" />
<path d="M28.6014 18.0674
L28.6014 16.7974
" />
<path d="M29.6295 18.0674
L29.6295 16.7974
" />
<path d="M30.3552 18.0674
L29.8110 17.3417
" />
<path d="M30.3552 16.7974
L29.6295 17.5231
" />
</g></g>
<g style="fill:#A90000; fill-opacity:0.0; 
stroke:#A90000; stroke-width:0.1524; stroke-opacity:1; 
stroke-linecap:round; stroke-linejoin:round;">
<text x="22.0726" y="17.2339"
textLength="1.4127" font-size="1.6933" lengthAdjust="spacingAndGlyphs"
text-anchor="middle" opacity="0">1</text>
<g class="stroked-text"><desc>1</desc>
<path d="M22.4355 17.0704
L21.7098 17.0704
" />
<path d="M22.0726 17.0704
L22.0726 15.8004
" />
<path d="M22.0726 15.8004
L21.9517 15.9819
" />
<path d="M21.9517 15.9819
L21.8307 16.1028
" />
<path d="M21.8307 16.1028
L21.7098 16.1633
" />
</g></g>
<g style="fill:#840000; fill-opacity:0.0; 
stroke:#840000; stroke-width:0.1524; stroke-opacity:1; 
stroke-linecap:round; stroke-linejoin:round;">
<path d="M23.9776 40.3479
L20.1676 40.3479
" />
</g>
<g style="fill:#006464; fill-opacity:0.0; 
stroke:#006464; stroke-width:0.1524; stroke-opacity:1; 
stroke-linecap:round; stroke-linejoin:round;">
<text x="24.9936" y="40.9829"
textLength="0.8080" font-size="1.6933" lengthAdjust="spacingAndGlyphs"
text-anchor="start" opacity="0">I</text>
<g class="stroked-text"><desc>I</desc>
<path d="M25.3961 40.9274
L25.3961 39.6574
" />
</g></g>
<g style="fill:#A90000; fill-opacity:0.0; 
stroke:#A90000; stroke-width:0.1524; stroke-opacity:1; 
stroke-linecap:round; stroke-linejoin:round;">
<text x="22.0726" y="40.0939"
textLength="2.6222" font-size="1.6933" lengthAdjust="spacingAndGlyphs"
text-anchor="middle" opacity="0">10</text>
<g class="stroked-text"><desc>10</desc>
<path d="M21.8307 39.9304
L21.1050 39.9304
" />
<path d="M21.4678 39.9304
L21.4678 38.6604
" />
<path d="M21.4678 38.6604
L21.3469 38.8419
" />
<path d="M21.3469 38.8419
L21.2259 38.9628
" />
<path d="M21.2259 38.9628
L21.1050 39.0233
" />
<path d="M22.6168 38.6604
L22.7378 38.6604
" />
<path d="M22.7378 38.6604
L22.8587 38.7209
" />
<path d="M22.8587 38.7209
L22.9192 38.7814
" />
<path d="M22.9192 38.7814
L22.9797 38.9023
" />
<path d="M22.9797 38.9023
L23.0402 39.1442
" />
<path d="M23.0402 39.1442
L23.0402 39.4466
" />
<path d="M23.0402 39.4466
L22.9797 39.6885
" />
<path d="M22.9797 39.6885
L22.9192 39.8095
" />
<path d="M22.9192 39.8095
L22.8587 39.8700
" />
<path d="M22.8587 39.8700
L22.7378 39.9304
" />
<path d="M22.7378 39.9304
L22.6168 39.9304
" />
<path d="M22.6168 39.9304
L22.4959 39.8700
" />
<path d="M22.4959 39.8700
L22.4354 39.8095
" />
<path d="M22.4354 39.8095
L22.3749 39.6885
" />
<path d="M22.3749 39.6885
L22.3145 39.4466
" />
<path d="M22.3145 39.4466
L22.3145 39.1442
" />
<path d="M22.3145 39.1442
L22.3749 38.9023
" />
<path d="M22.3749 38.9023
L22.4354 38.7814
" />
<path d="M22.4354 38.7814
L22.4959 38.7209
" />
<path d="M22.4959 38.7209
L22.6168 38.6604
" />
</g></g>
<g style="fill:#840000; fill-opacity:0.0; 
stroke:#840000; stroke-width:0.1524; stroke-opacity:1; 
stroke-linecap:round; stroke-linejoin:round;">
<path d="M23.9776 42.8879
L20.1676 42.8879
" />
</g>
<g style="fill:#006464; fill-opacity:0.0; 
stroke:#006464; stroke-width:0.1524; stroke-opacity:1; 
stroke-linecap:round; stroke-linejoin:round;">
<text x="24.9936" y="43.5229"
textLength="0.8080" font-size="1.6933" lengthAdjust="spacingAndGlyphs"
text-anchor="start" opacity="0">I</text>
<g class="stroked-text"><desc>I</desc>
<path d="M25.3961 43.4674
L25.3961 42.1974
" />
</g></g>
<g style="fill:#A90000; fill-opacity:0.0; 
stroke:#A90000; stroke-width:0.1524; stroke-opacity:1; 
stroke-linecap:round; stroke-linejoin:round;">
<text x="22.0726" y="42.6339"
textLength="2.6222" font-size="1.6933" lengthAdjust="spacingAndGlyphs"
text-anchor="middle" opacity="0">11</text>
<g class="stroked-text"><desc>11</desc>
<path d="M21.8307 42.4704
L21.1050 42.4704
" />
<path d="M21.4678 42.4704
L21.4678 41.2004
" />
<path d="M21.4678 41.2004
L21.3469 41.3819
" />
<path d="M21.3469 41.3819
L21.2259 41.5028
" />
<path d="M21.2259 41.5028
L21.1050 41.5633
" />
<path d="M23.0402 42.4704
L22.3145 42.4704
" />
<path d="M22.6773 42.4704
L22.6773 41.2004
" />
<path d="M22.6773 41.2004
L22.5564 41.3819
" />
<path d="M22.5564 41.3819
L22.4354 41.5028
" />
<path d="M22.4354 41.5028
L22.3145 41.5633
" />
</g></g>
<g style="fill:#840000; fill-opacity:0.0; 
stroke:#840000; stroke-width:0.1524; stroke-opacity:1; 
stroke-linecap:round; stroke-linejoin:round;">
<path d="M23.9776 45.4279
L20.1676 45.4279
" />
</g>
<g style="fill:#006464; fill-opacity:0.0; 
stroke:#006464; stroke-width:0.1524; stroke-opacity:1; 
stroke-linecap:round; stroke-linejoin:round;">
<text x="24.9936" y="46.0629"
textLength="0.8080" font-size="1.6933" lengthAdjust="spacingAndGlyphs"
text-anchor="start" opacity="0">I</text>
<g class="stroked-text"><desc>I</desc>
<path d="M25.3961 46.0074
L25.3961 44.7374
" />
</g></g>
<g style="fill:#A90000; fill-opacity:0.0; 
stroke:#A90000; stroke-width:0.1524; stroke-opacity:1; 
stroke-linecap:round; stroke-linejoin:round;">
<text x="22.0726" y="45.1739"
textLength="2.6222" font-size="1.6933" lengthAdjust="spacingAndGlyphs"
text-anchor="middle" opacity="0">13</text>
<g class="stroked-text"><desc>13</desc>
<path d="M21.8307 45.0104
L21.1050 45.0104
" />
<path d="M21.4678 45.0104
L21.4678 43.7404
" />
<path d="M21.4678 43.7404
L21.3469 43.9219
" />
<path d="M21.3469 43.9219
L21.2259 44.0428
" />
<path d="M21.2259 44.0428
L21.1050 44.1033
" />
<path d="M22.2540 43.7404
L23.0402 43.7404
" />
<path d="M23.0402 43.7404
L22.6168 44.2242
" />
<path d="M22.6168 44.2242
L22.7983 44.2242
" />
<path d="M22.7983 44.2242
L22.9192 44.2847
" />
<path d="M22.9192 44.2847
L22.9797 44.3452
" />
<path d="M22.9797 44.3452
L23.0402 44.4661
" />
<path d="M23.0402 44.4661
L23.0402 44.7685
" />
<path d="M23.0402 44.7685
L22.9797 44.8895
" />
<path d="M22.9797 44.8895
L22.9192 44.9500
" />
<path d="M22.9192 44.9500
L22.7983 45.0104
" />
<path d="M22.7983 45.0104
L22.4354 45.0104
" />
<path d="M22.4354 45.0104
L22.3145 44.9500
" />
<path d="M22.3145 44.9500
L22.2540 44.8895
" />
</g></g>
<g style="fill:#840000; fill-opacity:0.0; 
stroke:#840000; stroke-width:0.1524; stroke-opacity:1; 
stroke-linecap:round; stroke-linejoin:round;">
<path d="M41.7576 40.3479
L45.5676 40.3479
" />
</g>
<g style="fill:#006464; fill-opacity:0.0; 
stroke:#006464; stroke-width:0.1524; stroke-opacity:1; 
stroke-linecap:round; stroke-linejoin:round;">
<text x="40.7416" y="40.9829"
textLength="6.1300" font-size="1.6933" lengthAdjust="spacingAndGlyphs"
text-anchor="end" opacity="0">I/O/Q</text>
<g class="stroked-text"><desc>I/O/Q</desc>
<path d="M35.0169 40.9274
L35.0169 39.6574
" />
<path d="M36.5289 39.5970
L35.4403 41.2298
" />
<path d="M37.1941 39.6574
L37.4360 39.6574
" />
<path d="M37.4360 39.6574
L37.5570 39.7179
" />
<path d="M37.5570 39.7179
L37.6779 39.8389
" />
<path d="M37.6779 39.8389
L37.7384 40.0808
" />
<path d="M37.7384 40.0808
L37.7384 40.5041
" />
<path d="M37.7384 40.5041
L37.6779 40.7460
" />
<path d="M37.6779 40.7460
L37.5570 40.8670
" />
<path d="M37.5570 40.8670
L37.4360 40.9274
" />
<path d="M37.4360 40.9274
L37.1941 40.9274
" />
<path d="M37.1941 40.9274
L37.0732 40.8670
" />
<path d="M37.0732 40.8670
L36.9522 40.7460
" />
<path d="M36.9522 40.7460
L36.8918 40.5041
" />
<path d="M36.8918 40.5041
L36.8918 40.0808
" />
<path d="M36.8918 40.0808
L36.9522 39.8389
" />
<path d="M36.9522 39.8389
L37.0732 39.7179
" />
<path d="M37.0732 39.7179
L37.1941 39.6574
" />
<path d="M39.1899 39.5970
L38.1013 41.2298
" />
<path d="M40.4599 41.0484
L40.3389 40.9879
" />
<path d="M40.3389 40.9879
L40.2180 40.8670
" />
<path d="M40.2180 40.8670
L40.0366 40.6855
" />
<path d="M40.0366 40.6855
L39.9156 40.6250
" />
<path d="M39.9156 40.6250
L39.7947 40.6250
" />
<path d="M39.8551 40.9274
L39.7342 40.8670
" />
<path d="M39.7342 40.8670
L39.6132 40.7460
" />
<path d="M39.6132 40.7460
L39.5528 40.5041
" />
<path d="M39.5528 40.5041
L39.5528 40.0808
" />
<path d="M39.5528 40.0808
L39.6132 39.8389
" />
<path d="M39.6132 39.8389
L39.7342 39.7179
" />
<path d="M39.7342 39.7179
L39.8551 39.6574
" />
<path d="M39.8551 39.6574
L40.0970 39.6574
" />
<path d="M40.0970 39.6574
L40.2180 39.7179
" />
<path d="M40.2180 39.7179
L40.3389 39.8389
" />
<path d="M40.3389 39.8389
L40.3994 40.0808
" />
<path d="M40.3994 40.0808
L40.3994 40.5041
" />
<path d="M40.3994 40.5041
L40.3389 40.7460
" />
<path d="M40.3389 40.7460
L40.2180 40.8670
" />
<path d="M40.2180 40.8670
L40.0970 40.9274
" />
<path d="M40.0970 40.9274
L39.8551 40.9274
" />
</g></g>
<g style="fill:#A90000; fill-opacity:0.0; 
stroke:#A90000; stroke-width:0.1524; stroke-opacity:1; 
stroke-linecap:round; stroke-linejoin:round;">
<text x="43.6626" y="40.0939"
textLength="2.6222" font-size="1.6933" lengthAdjust="spacingAndGlyphs"
text-anchor="middle" opacity="0">14</text>
<g class="stroked-text"><desc>14</desc>
<path d="M43.4207 39.9304
L42.6950 39.9304
" />
<path d="M43.0578 39.9304
L43.0578 38.6604
" />
<path d="M43.0578 38.6604
L42.9369 38.8419
" />
<path d="M42.9369 38.8419
L42.8159 38.9628
" />
<path d="M42.8159 38.9628
L42.6950 39.0233
" />
<path d="M44.5092 39.0838
L44.5092 39.9304
" />
<path d="M44.2068 38.6000
L43.9045 39.5071
" />
<path d="M43.9045 39.5071
L44.6906 39.5071
" />
</g></g>
<g style="fill:#840000; fill-opacity:0.0; 
stroke:#840000; stroke-width:0.1524; stroke-opacity:1; 
stroke-linecap:round; stroke-linejoin:round;">
<path d="M41.7576 37.8079
L45.5676 37.8079
" />
</g>
<g style="fill:#006464; fill-opacity:0.0; 
stroke:#006464; stroke-width:0.1524; stroke-opacity:1; 
stroke-linecap:round; stroke-linejoin:round;">
<text x="40.7416" y="38.4429"
textLength="6.1300" font-size="1.6933" lengthAdjust="spacingAndGlyphs"
text-anchor="end" opacity="0">I/O/Q</text>
<g class="stroked-text"><desc>I/O/Q</desc>
<path d="M35.0169 38.3874
L35.0169 37.1174
" />
<path d="M36.5289 37.0570
L35.4403 38.6898
" />
<path d="M37.1941 37.1174
L37.4360 37.1174
" />
<path d="M37.4360 37.1174
L37.5570 37.1779
" />
<path d="M37.5570 37.1779
L37.6779 37.2989
" />
<path d="M37.6779 37.2989
L37.7384 37.5408
" />
<path d="M37.7384 37.5408
L37.7384 37.9641
" />
<path d="M37.7384 37.9641
L37.6779 38.2060
" />
<path d="M37.6779 38.2060
L37.5570 38.3270
" />
<path d="M37.5570 38.3270
L37.4360 38.3874
" />
<path d="M37.4360 38.3874
L37.1941 38.3874
" />
<path d="M37.1941 38.3874
L37.0732 38.3270
" />
<path d="M37.0732 38.3270
L36.9522 38.2060
" />
<path d="M36.9522 38.2060
L36.8918 37.9641
" />
<path d="M36.8918 37.9641
L36.8918 37.5408
" />
<path d="M36.8918 37.5408
L36.9522 37.2989
" />
<path d="M36.9522 37.2989
L37.0732 37.1779
" />
<path d="M37.0732 37.1779
L37.1941 37.1174
" />
<path d="M39.1899 37.0570
L38.1013 38.6898
" />
<path d="M40.4599 38.5084
L40.3389 38.4479
" />
<path d="M40.3389 38.4479
L40.2180 38.3270
" />
<path d="M40.2180 38.3270
L40.0366 38.1455
" />
<path d="M40.0366 38.1455
L39.9156 38.0850
" />
<path d="M39.9156 38.0850
L39.7947 38.0850
" />
<path d="M39.8551 38.3874
L39.7342 38.3270
" />
<path d="M39.7342 38.3270
L39.6132 38.2060
" />
<path d="M39.6132 38.2060
L39.5528 37.9641
" />
<path d="M39.5528 37.9641
L39.5528 37.5408
" />
<path d="M39.5528 37.5408
L39.6132 37.2989
" />
<path d="M39.6132 37.2989
L39.7342 37.1779
" />
<path d="M39.7342 37.1779
L39.8551 37.1174
" />
<path d="M39.8551 37.1174
L40.0970 37.1174
" />
<path d="M40.0970 37.1174
L40.2180 37.1779
" />
<path d="M40.2180 37.1779
L40.3389 37.2989
" />
<path d="M40.3389 37.2989
L40.3994 37.5408
" />
<path d="M40.3994 37.5408
L40.3994 37.9641
" />
<path d="M40.3994 37.9641
L40.3389 38.2060
" />
<path d="M40.3389 38.2060
L40.2180 38.3270
" />
<path d="M40.2180 38.3270
L40.0970 38.3874
" />
<path d="M40.0970 38.3874
L39.8551 38.3874
" />
</g></g>
<g style="fill:#A90000; fill-opacity:0.0; 
stroke:#A90000; stroke-width:0.1524; stroke-opacity:1; 
stroke-linecap:round; stroke-linejoin:round;">
<text x="43.6626" y="37.5539"
textLength="2.6222" font-size="1.6933" lengthAdjust="spacingAndGlyphs"
text-anchor="middle" opacity="0">15</text>
<g class="stroked-text"><desc>15</desc>
<path d="M43.4207 37.3904
L42.6950 37.3904
" />
<path d="M43.0578 37.3904
L43.0578 36.1204
" />
<path d="M43.0578 36.1204
L42.9369 36.3019
" />
<path d="M42.9369 36.3019
L42.8159 36.4228
" />
<path d="M42.8159 36.4228
L42.6950 36.4833
" />
<path d="M44.5697 36.1204
L43.9649 36.1204
" />
<path d="M43.9649 36.1204
L43.9045 36.7252
" />
<path d="M43.9045 36.7252
L43.9649 36.6647
" />
<path d="M43.9649 36.6647
L44.0859 36.6042
" />
<path d="M44.0859 36.6042
L44.3883 36.6042
" />
<path d="M44.3883 36.6042
L44.5092 36.6647
" />
<path d="M44.5092 36.6647
L44.5697 36.7252
" />
<path d="M44.5697 36.7252
L44.6302 36.8461
" />
<path d="M44.6302 36.8461
L44.6302 37.1485
" />
<path d="M44.6302 37.1485
L44.5697 37.2695
" />
<path d="M44.5697 37.2695
L44.5092 37.3300
" />
<path d="M44.5092 37.3300
L44.3883 37.3904
" />
<path d="M44.3883 37.3904
L44.0859 37.3904
" />
<path d="M44.0859 37.3904
L43.9649 37.3300
" />
<path d="M43.9649 37.3300
L43.9045 37.2695
" />
</g></g>
<g style="fill:#840000; fill-opacity:0.0; 
stroke:#840000; stroke-width:0.1524; stroke-opacity:1; 
stroke-linecap:round; stroke-linejoin:round;">
<path d="M41.7576 35.2679
L45.5676 35.2679
" />
</g>
<g style="fill:#006464; fill-opacity:0.0; 
stroke:#006464; stroke-width:0.1524; stroke-opacity:1; 
stroke-linecap:round; stroke-linejoin:round;">
<text x="40.7416" y="35.9029"
textLength="6.1300" font-size="1.6933" lengthAdjust="spacingAndGlyphs"
text-anchor="end" opacity="0">I/O/Q</text>
<g class="stroked-text"><desc>I/O/Q</desc>
<path d="M35.0169 35.8474
L35.0169 34.5774
" />
<path d="M36.5289 34.5170
L35.4403 36.1498
" />
<path d="M37.1941 34.5774
L37.4360 34.5774
" />
<path d="M37.4360 34.5774
L37.5570 34.6379
" />
<path d="M37.5570 34.6379
L37.6779 34.7589
" />
<path d="M37.6779 34.7589
L37.7384 35.0008
" />
<path d="M37.7384 35.0008
L37.7384 35.4241
" />
<path d="M37.7384 35.4241
L37.6779 35.6660
" />
<path d="M37.6779 35.6660
L37.5570 35.7870
" />
<path d="M37.5570 35.7870
L37.4360 35.8474
" />
<path d="M37.4360 35.8474
L37.1941 35.8474
" />
<path d="M37.1941 35.8474
L37.0732 35.7870
" />
<path d="M37.0732 35.7870
L36.9522 35.6660
" />
<path d="M36.9522 35.6660
L36.8918 35.4241
" />
<path d="M36.8918 35.4241
L36.8918 35.0008
" />
<path d="M36.8918 35.0008
L36.9522 34.7589
" />
<path d="M36.9522 34.7589
L37.0732 34.6379
" />
<path d="M37.0732 34.6379
L37.1941 34.5774
" />
<path d="M39.1899 34.5170
L38.1013 36.1498
" />
<path d="M40.4599 35.9684
L40.3389 35.9079
" />
<path d="M40.3389 35.9079
L40.2180 35.7870
" />
<path d="M40.2180 35.7870
L40.0366 35.6055
" />
<path d="M40.0366 35.6055
L39.9156 35.5450
" />
<path d="M39.9156 35.5450
L39.7947 35.5450
" />
<path d="M39.8551 35.8474
L39.7342 35.7870
" />
<path d="M39.7342 35.7870
L39.6132 35.6660
" />
<path d="M39.6132 35.6660
L39.5528 35.4241
" />
<path d="M39.5528 35.4241
L39.5528 35.0008
" />
<path d="M39.5528 35.0008
L39.6132 34.7589
" />
<path d="M39.6132 34.7589
L39.7342 34.6379
" />
<path d="M39.7342 34.6379
L39.8551 34.5774
" />
<path d="M39.8551 34.5774
L40.0970 34.5774
" />
<path d="M40.0970 34.5774
L40.2180 34.6379
" />
<path d="M40.2180 34.6379
L40.3389 34.7589
" />
<path d="M40.3389 34.7589
L40.3994 35.0008
" />
<path d="M40.3994 35.0008
L40.3994 35.4241
" />
<path d="M40.3994 35.4241
L40.3389 35.6660
" />
<path d="M40.3389 35.6660
L40.2180 35.7870
" />
<path d="M40.2180 35.7870
L40.0970 35.8474
" />
<path d="M40.0970 35.8474
L39.8551 35.8474
" />
</g></g>
<g style="fill:#A90000; fill-opacity:0.0; 
stroke:#A90000; stroke-width:0.1524; stroke-opacity:1; 
stroke-linecap:round; stroke-linejoin:round;">
<text x="43.6626" y="35.0139"
textLength="2.6222" font-size="1.6933" lengthAdjust="spacingAndGlyphs"
text-anchor="middle" opacity="0">16</text>
<g class="stroked-text"><desc>16</desc>
<path d="M43.4207 34.8504
L42.6950 34.8504
" />
<path d="M43.0578 34.8504
L43.0578 33.5804
" />
<path d="M43.0578 33.5804
L42.9369 33.7619
" />
<path d="M42.9369 33.7619
L42.8159 33.8828
" />
<path d="M42.8159 33.8828
L42.6950 33.9433
" />
<path d="M44.5092 33.5804
L44.2673 33.5804
" />
<path d="M44.2673 33.5804
L44.1464 33.6409
" />
<path d="M44.1464 33.6409
L44.0859 33.7014
" />
<path d="M44.0859 33.7014
L43.9649 33.8828
" />
<path d="M43.9649 33.8828
L43.9045 34.1247
" />
<path d="M43.9045 34.1247
L43.9045 34.6085
" />
<path d="M43.9045 34.6085
L43.9649 34.7295
" />
<path d="M43.9649 34.7295
L44.0254 34.7900
" />
<path d="M44.0254 34.7900
L44.1464 34.8504
" />
<path d="M44.1464 34.8504
L44.3883 34.8504
" />
<path d="M44.3883 34.8504
L44.5092 34.7900
" />
<path d="M44.5092 34.7900
L44.5697 34.7295
" />
<path d="M44.5697 34.7295
L44.6302 34.6085
" />
<path d="M44.6302 34.6085
L44.6302 34.3061
" />
<path d="M44.6302 34.3061
L44.5697 34.1852
" />
<path d="M44.5697 34.1852
L44.5092 34.1247
" />
<path d="M44.5092 34.1247
L44.3883 34.0642
" />
<path d="M44.3883 34.0642
L44.1464 34.0642
" />
<path d="M44.1464 34.0642
L44.0254 34.1247
" />
<path d="M44.0254 34.1247
L43.9649 34.1852
" />
<path d="M43.9649 34.1852
L43.9045 34.3061
" />
</g></g>
<g style="fill:#840000; fill-opacity:0.0; 
stroke:#840000; stroke-width:0.1524; stroke-opacity:1; 
stroke-linecap:round; stroke-linejoin:round;">
<path d="M41.7576 32.7279
L45.5676 32.7279
" />
</g>
<g style="fill:#006464; fill-opacity:0.0; 
stroke:#006464; stroke-width:0.1524; stroke-opacity:1; 
stroke-linecap:round; stroke-linejoin:round;">
<text x="40.7416" y="33.3629"
textLength="6.1300" font-size="1.6933" lengthAdjust="spacingAndGlyphs"
text-anchor="end" opacity="0">I/O/Q</text>
<g class="stroked-text"><desc>I/O/Q</desc>
<path d="M35.0169 33.3074
L35.0169 32.0374
" />
<path d="M36.5289 31.9770
L35.4403 33.6098
" />
<path d="M37.1941 32.0374
L37.4360 32.0374
" />
<path d="M37.4360 32.0374
L37.5570 32.0979
" />
<path d="M37.5570 32.0979
L37.6779 32.2189
" />
<path d="M37.6779 32.2189
L37.7384 32.4608
" />
<path d="M37.7384 32.4608
L37.7384 32.8841
" />
<path d="M37.7384 32.8841
L37.6779 33.1260
" />
<path d="M37.6779 33.1260
L37.5570 33.2470
" />
<path d="M37.5570 33.2470
L37.4360 33.3074
" />
<path d="M37.4360 33.3074
L37.1941 33.3074
" />
<path d="M37.1941 33.3074
L37.0732 33.2470
" />
<path d="M37.0732 33.2470
L36.9522 33.1260
" />
<path d="M36.9522 33.1260
L36.8918 32.8841
" />
<path d="M36.8918 32.8841
L36.8918 32.4608
" />
<path d="M36.8918 32.4608
L36.9522 32.2189
" />
<path d="M36.9522 32.2189
L37.0732 32.0979
" />
<path d="M37.0732 32.0979
L37.1941 32.0374
" />
<path d="M39.1899 31.9770
L38.1013 33.6098
" />
<path d="M40.4599 33.4284
L40.3389 33.3679
" />
<path d="M40.3389 33.3679
L40.2180 33.2470
" />
<path d="M40.2180 33.2470
L40.0366 33.0655
" />
<path d="M40.0366 33.0655
L39.9156 33.0050
" />
<path d="M39.9156 33.0050
L39.7947 33.0050
" />
<path d="M39.8551 33.3074
L39.7342 33.2470
" />
<path d="M39.7342 33.2470
L39.6132 33.1260
" />
<path d="M39.6132 33.1260
L39.5528 32.8841
" />
<path d="M39.5528 32.8841
L39.5528 32.4608
" />
<path d="M39.5528 32.4608
L39.6132 32.2189
" />
<path d="M39.6132 32.2189
L39.7342 32.0979
" />
<path d="M39.7342 32.0979
L39.8551 32.0374
" />
<path d="M39.8551 32.0374
L40.0970 32.0374
" />
<path d="M40.0970 32.0374
L40.2180 32.0979
" />
<path d="M40.2180 32.0979
L40.3389 32.2189
" />
<path d="M40.3389 32.2189
L40.3994 32.4608
" />
<path d="M40.3994 32.4608
L40.3994 32.8841
" />
<path d="M40.3994 32.8841
L40.3389 33.1260
" />
<path d="M40.3389 33.1260
L40.2180 33.2470
" />
<path d="M40.2180 33.2470
L40.0970 33.3074
" />
<path d="M40.0970 33.3074
L39.8551 33.3074
" />
</g></g>
<g style="fill:#A90000; fill-opacity:0.0; 
stroke:#A90000; stroke-width:0.1524; stroke-opacity:1; 
stroke-linecap:round; stroke-linejoin:round;">
<text x="43.6626" y="32.4739"
textLength="2.6222" font-size="1.6933" lengthAdjust="spacingAndGlyphs"
text-anchor="middle" opacity="0">17</text>
<g class="stroked-text"><desc>17</desc>
<path d="M43.4207 32.3104
L42.6950 32.3104
" />
<path d="M43.0578 32.3104
L43.0578 31.0404
" />
<path d="M43.0578 31.0404
L42.9369 31.2219
" />
<path d="M42.9369 31.2219
L42.8159 31.3428
" />
<path d="M42.8159 31.3428
L42.6950 31.4033
" />
<path d="M43.8440 31.0404
L44.6906 31.0404
" />
<path d="M44.6906 31.0404
L44.1464 32.3104
" />
</g></g>
<g style="fill:#840000; fill-opacity:0.0; 
stroke:#840000; stroke-width:0.1524; stroke-opacity:1; 
stroke-linecap:round; stroke-linejoin:round;">
<path d="M41.7576 30.1879
L45.5676 30.1879
" />
</g>
<g style="fill:#006464; fill-opacity:0.0; 
stroke:#006464; stroke-width:0.1524; stroke-opacity:1; 
stroke-linecap:round; stroke-linejoin:round;">
<text x="40.7416" y="30.8229"
textLength="6.1300" font-size="1.6933" lengthAdjust="spacingAndGlyphs"
text-anchor="end" opacity="0">I/O/Q</text>
<g class="stroked-text"><desc>I/O/Q</desc>
<path d="M35.0169 30.7674
L35.0169 29.4974
" />
<path d="M36.5289 29.4370
L35.4403 31.0698
" />
<path d="M37.1941 29.4974
L37.4360 29.4974
" />
<path d="M37.4360 29.4974
L37.5570 29.5579
" />
<path d="M37.5570 29.5579
L37.6779 29.6789
" />
<path d="M37.6779 29.6789
L37.7384 29.9208
" />
<path d="M37.7384 29.9208
L37.7384 30.3441
" />
<path d="M37.7384 30.3441
L37.6779 30.5860
" />
<path d="M37.6779 30.5860
L37.5570 30.7070
" />
<path d="M37.5570 30.7070
L37.4360 30.7674
" />
<path d="M37.4360 30.7674
L37.1941 30.7674
" />
<path d="M37.1941 30.7674
L37.0732 30.7070
" />
<path d="M37.0732 30.7070
L36.9522 30.5860
" />
<path d="M36.9522 30.5860
L36.8918 30.3441
" />
<path d="M36.8918 30.3441
L36.8918 29.9208
" />
<path d="M36.8918 29.9208
L36.9522 29.6789
" />
<path d="M36.9522 29.6789
L37.0732 29.5579
" />
<path d="M37.0732 29.5579
L37.1941 29.4974
" />
<path d="M39.1899 29.4370
L38.1013 31.0698
" />
<path d="M40.4599 30.8884
L40.3389 30.8279
" />
<path d="M40.3389 30.8279
L40.2180 30.7070
" />
<path d="M40.2180 30.7070
L40.0366 30.5255
" />
<path d="M40.0366 30.5255
L39.9156 30.4650
" />
<path d="M39.9156 30.4650
L39.7947 30.4650
" />
<path d="M39.8551 30.7674
L39.7342 30.7070
" />
<path d="M39.7342 30.7070
L39.6132 30.5860
" />
<path d="M39.6132 30.5860
L39.5528 30.3441
" />
<path d="M39.5528 30.3441
L39.5528 29.9208
" />
<path d="M39.5528 29.9208
L39.6132 29.6789
" />
<path d="M39.6132 29.6789
L39.7342 29.5579
" />
<path d="M39.7342 29.5579
L39.8551 29.4974
" />
<path d="M39.8551 29.4974
L40.0970 29.4974
" />
<path d="M40.0970 29.4974
L40.2180 29.5579
" />
<path d="M40.2180 29.5579
L40.3389 29.6789
" />
<path d="M40.3389 29.6789
L40.3994 29.9208
" />
<path d="M40.3994 29.9208
L40.3994 30.3441
" />
<path d="M40.3994 30.3441
L40.3389 30.5860
" />
<path d="M40.3389 30.5860
L40.2180 30.7070
" />
<path d="M40.2180 30.7070
L40.0970 30.7674
" />
<path d="M40.0970 30.7674
L39.8551 30.7674
" />
</g></g>
<g style="fill:#A90000; fill-opacity:0.0; 
stroke:#A90000; stroke-width:0.1524; stroke-opacity:1; 
stroke-linecap:round; stroke-linejoin:round;">
<text x="43.6626" y="29.9339"
textLength="2.6222" font-size="1.6933" lengthAdjust="spacingAndGlyphs"
text-anchor="middle" opacity="0">18</text>
<g class="stroked-text"><desc>18</desc>
<path d="M43.4207 29.7704
L42.6950 29.7704
" />
<path d="M43.0578 29.7704
L43.0578 28.5004
" />
<path d="M43.0578 28.5004
L42.9369 28.6819
" />
<path d="M42.9369 28.6819
L42.8159 28.8028
" />
<path d="M42.8159 28.8028
L42.6950 28.8633
" />
<path d="M44.1464 29.0447
L44.0254 28.9842
" />
<path d="M44.0254 28.9842
L43.9649 28.9238
" />
<path d="M43.9649 28.9238
L43.9045 28.8028
" />
<path d="M43.9045 28.8028
L43.9045 28.7423
" />
<path d="M43.9045 28.7423
L43.9649 28.6214
" />
<path d="M43.9649 28.6214
L44.0254 28.5609
" />
<path d="M44.0254 28.5609
L44.1464 28.5004
" />
<path d="M44.1464 28.5004
L44.3883 28.5004
" />
<path d="M44.3883 28.5004
L44.5092 28.5609
" />
<path d="M44.5092 28.5609
L44.5697 28.6214
" />
<path d="M44.5697 28.6214
L44.6302 28.7423
" />
<path d="M44.6302 28.7423
L44.6302 28.8028
" />
<path d="M44.6302 28.8028
L44.5697 28.9238
" />
<path d="M44.5697 28.9238
L44.5092 28.9842
" />
<path d="M44.5092 28.9842
L44.3883 29.0447
" />
<path d="M44.3883 29.0447
L44.1464 29.0447
" />
<path d="M44.1464 29.0447
L44.0254 29.1052
" />
<path d="M44.0254 29.1052
L43.9649 29.1657
" />
<path d="M43.9649 29.1657
L43.9045 29.2866
" />
<path d="M43.9045 29.2866
L43.9045 29.5285
" />
<path d="M43.9045 29.5285
L43.9649 29.6495
" />
<path d="M43.9649 29.6495
L44.0254 29.7100
" />
<path d="M44.0254 29.7100
L44.1464 29.7704
" />
<path d="M44.1464 29.7704
L44.3883 29.7704
" />
<path d="M44.3883 29.7704
L44.5092 29.7100
" />
<path d="M44.5092 29.7100
L44.5697 29.6495
" />
<path d="M44.5697 29.6495
L44.6302 29.5285
" />
<path d="M44.6302 29.5285
L44.6302 29.2866
" />
<path d="M44.6302 29.2866
L44.5697 29.1657
" />
<path d="M44.5697 29.1657
L44.5092 29.1052
" />
<path d="M44.5092 29.1052
L44.3883 29.0447
" />
</g></g>
<g style="fill:#840000; fill-opacity:0.0; 
stroke:#840000; stroke-width:0.1524; stroke-opacity:1; 
stroke-linecap:round; stroke-linejoin:round;">
<path d="M41.7576 27.6479
L45.5676 27.6479
" />
</g>
<g style="fill:#006464; fill-opacity:0.0; 
stroke:#006464; stroke-width:0.1524; stroke-opacity:1; 
stroke-linecap:round; stroke-linejoin:round;">
<text x="40.7416" y="28.2829"
textLength="6.1300" font-size="1.6933" lengthAdjust="spacingAndGlyphs"
text-anchor="end" opacity="0">I/O/Q</text>
<g class="stroked-text"><desc>I/O/Q</desc>
<path d="M35.0169 28.2274
L35.0169 26.9574
" />
<path d="M36.5289 26.8970
L35.4403 28.5298
" />
<path d="M37.1941 26.9574
L37.4360 26.9574
" />
<path d="M37.4360 26.9574
L37.5570 27.0179
" />
<path d="M37.5570 27.0179
L37.6779 27.1389
" />
<path d="M37.6779 27.1389
L37.7384 27.3808
" />
<path d="M37.7384 27.3808
L37.7384 27.8041
" />
<path d="M37.7384 27.8041
L37.6779 28.0460
" />
<path d="M37.6779 28.0460
L37.5570 28.1670
" />
<path d="M37.5570 28.1670
L37.4360 28.2274
" />
<path d="M37.4360 28.2274
L37.1941 28.2274
" />
<path d="M37.1941 28.2274
L37.0732 28.1670
" />
<path d="M37.0732 28.1670
L36.9522 28.0460
" />
<path d="M36.9522 28.0460
L36.8918 27.8041
" />
<path d="M36.8918 27.8041
L36.8918 27.3808
" />
<path d="M36.8918 27.3808
L36.9522 27.1389
" />
<path d="M36.9522 27.1389
L37.0732 27.0179
" />
<path d="M37.0732 27.0179
L37.1941 26.9574
" />
<path d="M39.1899 26.8970
L38.1013 28.5298
" />
<path d="M40.4599 28.3484
L40.3389 28.2879
" />
<path d="M40.3389 28.2879
L40.2180 28.1670
" />
<path d="M40.2180 28.1670
L40.0366 27.9855
" />
<path d="M40.0366 27.9855
L39.9156 27.9250
" />
<path d="M39.9156 27.9250
L39.7947 27.9250
" />
<path d="M39.8551 28.2274
L39.7342 28.1670
" />
<path d="M39.7342 28.1670
L39.6132 28.0460
" />
<path d="M39.6132 28.0460
L39.5528 27.8041
" />
<path d="M39.5528 27.8041
L39.5528 27.3808
" />
<path d="M39.5528 27.3808
L39.6132 27.1389
" />
<path d="M39.6132 27.1389
L39.7342 27.0179
" />
<path d="M39.7342 27.0179
L39.8551 26.9574
" />
<path d="M39.8551 26.9574
L40.0970 26.9574
" />
<path d="M40.0970 26.9574
L40.2180 27.0179
" />
<path d="M40.2180 27.0179
L40.3389 27.1389
" />
<path d="M40.3389 27.1389
L40.3994 27.3808
" />
<path d="M40.3994 27.3808
L40.3994 27.8041
" />
<path d="M40.3994 27.8041
L40.3389 28.0460
" />
<path d="M40.3389 28.0460
L40.2180 28.1670
" />
<path d="M40.2180 28.1670
L40.0970 28.2274
" />
<path d="M40.0970 28.2274
L39.8551 28.2274
" />
</g></g>
<g style="fill:#A90000; fill-opacity:0.0; 
stroke:#A90000; stroke-width:0.1524; stroke-opacity:1; 
stroke-linecap:round; stroke-linejoin:round;">
<text x="43.6626" y="27.3939"
textLength="2.6222" font-size="1.6933" lengthAdjust="spacingAndGlyphs"
text-anchor="middle" opacity="0">19</text>
<g class="stroked-text"><desc>19</desc>
<path d="M43.4207 27.2304
L42.6950 27.2304
" />
<path d="M43.0578 27.2304
L43.0578 25.9604
" />
<path d="M43.0578 25.9604
L42.9369 26.1419
" />
<path d="M42.9369 26.1419
L42.8159 26.2628
" />
<path d="M42.8159 26.2628
L42.6950 26.3233
" />
<path d="M44.0254 27.2304
L44.2673 27.2304
" />
<path d="M44.2673 27.2304
L44.3883 27.1700
" />
<path d="M44.3883 27.1700
L44.4487 27.1095
" />
<path d="M44.4487 27.1095
L44.5697 26.9280
" />
<path d="M44.5697 26.9280
L44.6302 26.6861
" />
<path d="M44.6302 26.6861
L44.6302 26.2023
" />
<path d="M44.6302 26.2023
L44.5697 26.0814
" />
<path d="M44.5697 26.0814
L44.5092 26.0209
" />
<path d="M44.5092 26.0209
L44.3883 25.9604
" />
<path d="M44.3883 25.9604
L44.1464 25.9604
" />
<path d="M44.1464 25.9604
L44.0254 26.0209
" />
<path d="M44.0254 26.0209
L43.9649 26.0814
" />
<path d="M43.9649 26.0814
L43.9045 26.2023
" />
<path d="M43.9045 26.2023
L43.9045 26.5047
" />
<path d="M43.9045 26.5047
L43.9649 26.6257
" />
<path d="M43.9649 26.6257
L44.0254 26.6861
" />
<path d="M44.0254 26.6861
L44.1464 26.7466
" />
<path d="M44.1464 26.7466
L44.3883 26.7466
" />
<path d="M44.3883 26.7466
L44.5092 26.6861
" />
<path d="M44.5092 26.6861
L44.5697 26.6257
" />
<path d="M44.5697 26.6257
L44.6302 26.5047
" />
</g></g>
<g style="fill:#840000; fill-opacity:0.0; 
stroke:#840000; stroke-width:0.1524; stroke-opacity:1; 
stroke-linecap:round; stroke-linejoin:round;">
<path d="M23.9776 20.0279
L20.1676 20.0279
" />
</g>
<g style="fill:#006464; fill-opacity:0.0; 
stroke:#006464; stroke-width:0.1524; stroke-opacity:1; 
stroke-linecap:round; stroke-linejoin:round;">
<text x="24.9936" y="20.6629"
textLength="0.8080" font-size="1.6933" lengthAdjust="spacingAndGlyphs"
text-anchor="start" opacity="0">I</text>
<g class="stroked-text"><desc>I</desc>
<path d="M25.3961 20.6074
L25.3961 19.3374
" />
</g></g>
<g style="fill:#A90000; fill-opacity:0.0; 
stroke:#A90000; stroke-width:0.1524; stroke-opacity:1; 
stroke-linecap:round; stroke-linejoin:round;">
<text x="22.0726" y="19.7739"
textLength="1.4127" font-size="1.6933" lengthAdjust="spacingAndGlyphs"
text-anchor="middle" opacity="0">2</text>
<g class="stroked-text"><desc>2</desc>
<path d="M21.7098 18.4614
L21.7702 18.4009
" />
<path d="M21.7702 18.4009
L21.8912 18.3404
" />
<path d="M21.8912 18.3404
L22.1936 18.3404
" />
<path d="M22.1936 18.3404
L22.3145 18.4009
" />
<path d="M22.3145 18.4009
L22.3750 18.4614
" />
<path d="M22.3750 18.4614
L22.4355 18.5823
" />
<path d="M22.4355 18.5823
L22.4355 18.7033
" />
<path d="M22.4355 18.7033
L22.3750 18.8847
" />
<path d="M22.3750 18.8847
L21.6493 19.6104
" />
<path d="M21.6493 19.6104
L22.4355 19.6104
" />
</g></g>
<g style="fill:#840000; fill-opacity:0.0; 
stroke:#840000; stroke-width:0.1524; stroke-opacity:1; 
stroke-linecap:round; stroke-linejoin:round;">
<path d="M41.7576 25.1079
L45.5676 25.1079
" />
</g>
<g style="fill:#006464; fill-opacity:0.0; 
stroke:#006464; stroke-width:0.1524; stroke-opacity:1; 
stroke-linecap:round; stroke-linejoin:round;">
<text x="40.7416" y="25.7429"
textLength="6.1300" font-size="1.6933" lengthAdjust="spacingAndGlyphs"
text-anchor="end" opacity="0">I/O/Q</text>
<g class="stroked-text"><desc>I/O/Q</desc>
<path d="M35.0169 25.6874
L35.0169 24.4174
" />
<path d="M36.5289 24.3570
L35.4403 25.9898
" />
<path d="M37.1941 24.4174
L37.4360 24.4174
" />
<path d="M37.4360 24.4174
L37.5570 24.4779
" />
<path d="M37.5570 24.4779
L37.6779 24.5989
" />
<path d="M37.6779 24.5989
L37.7384 24.8408
" />
<path d="M37.7384 24.8408
L37.7384 25.2641
" />
<path d="M37.7384 25.2641
L37.6779 25.5060
" />
<path d="M37.6779 25.5060
L37.5570 25.6270
" />
<path d="M37.5570 25.6270
L37.4360 25.6874
" />
<path d="M37.4360 25.6874
L37.1941 25.6874
" />
<path d="M37.1941 25.6874
L37.0732 25.6270
" />
<path d="M37.0732 25.6270
L36.9522 25.5060
" />
<path d="M36.9522 25.5060
L36.8918 25.2641
" />
<path d="M36.8918 25.2641
L36.8918 24.8408
" />
<path d="M36.8918 24.8408
L36.9522 24.5989
" />
<path d="M36.9522 24.5989
L37.0732 24.4779
" />
<path d="M37.0732 24.4779
L37.1941 24.4174
" />
<path d="M39.1899 24.3570
L38.1013 25.9898
" />
<path d="M40.4599 25.8084
L40.3389 25.7479
" />
<path d="M40.3389 25.7479
L40.2180 25.6270
" />
<path d="M40.2180 25.6270
L40.0366 25.4455
" />
<path d="M40.0366 25.4455
L39.9156 25.3850
" />
<path d="M39.9156 25.3850
L39.7947 25.3850
" />
<path d="M39.8551 25.6874
L39.7342 25.6270
" />
<path d="M39.7342 25.6270
L39.6132 25.5060
" />
<path d="M39.6132 25.5060
L39.5528 25.2641
" />
<path d="M39.5528 25.2641
L39.5528 24.8408
" />
<path d="M39.5528 24.8408
L39.6132 24.5989
" />
<path d="M39.6132 24.5989
L39.7342 24.4779
" />
<path d="M39.7342 24.4779
L39.8551 24.4174
" />
<path d="M39.8551 24.4174
L40.0970 24.4174
" />
<path d="M40.0970 24.4174
L40.2180 24.4779
" />
<path d="M40.2180 24.4779
L40.3389 24.5989
" />
<path d="M40.3389 24.5989
L40.3994 24.8408
" />
<path d="M40.3994 24.8408
L40.3994 25.2641
" />
<path d="M40.3994 25.2641
L40.3389 25.5060
" />
<path d="M40.3389 25.5060
L40.2180 25.6270
" />
<path d="M40.2180 25.6270
L40.0970 25.6874
" />
<path d="M40.0970 25.6874
L39.8551 25.6874
" />
</g></g>
<g style="fill:#A90000; fill-opacity:0.0; 
stroke:#A90000; stroke-width:0.1524; stroke-opacity:1; 
stroke-linecap:round; stroke-linejoin:round;">
<text x="43.6626" y="24.8539"
textLength="2.6222" font-size="1.6933" lengthAdjust="spacingAndGlyphs"
text-anchor="middle" opacity="0">20</text>
<g class="stroked-text"><desc>20</desc>
<path d="M42.6950 23.5414
L42.7554 23.4809
" />
<path d="M42.7554 23.4809
L42.8764 23.4204
" />
<path d="M42.8764 23.4204
L43.1788 23.4204
" />
<path d="M43.1788 23.4204
L43.2997 23.4809
" />
<path d="M43.2997 23.4809
L43.3602 23.5414
" />
<path d="M43.3602 23.5414
L43.4207 23.6623
" />
<path d="M43.4207 23.6623
L43.4207 23.7833
" />
<path d="M43.4207 23.7833
L43.3602 23.9647
" />
<path d="M43.3602 23.9647
L42.6345 24.6904
" />
<path d="M42.6345 24.6904
L43.4207 24.6904
" />
<path d="M44.2068 23.4204
L44.3278 23.4204
" />
<path d="M44.3278 23.4204
L44.4487 23.4809
" />
<path d="M44.4487 23.4809
L44.5092 23.5414
" />
<path d="M44.5092 23.5414
L44.5697 23.6623
" />
<path d="M44.5697 23.6623
L44.6302 23.9042
" />
<path d="M44.6302 23.9042
L44.6302 24.2066
" />
<path d="M44.6302 24.2066
L44.5697 24.4485
" />
<path d="M44.5697 24.4485
L44.5092 24.5695
" />
<path d="M44.5092 24.5695
L44.4487 24.6300
" />
<path d="M44.4487 24.6300
L44.3278 24.6904
" />
<path d="M44.3278 24.6904
L44.2068 24.6904
" />
<path d="M44.2068 24.6904
L44.0859 24.6300
" />
<path d="M44.0859 24.6300
L44.0254 24.5695
" />
<path d="M44.0254 24.5695
L43.9649 24.4485
" />
<path d="M43.9649 24.4485
L43.9045 24.2066
" />
<path d="M43.9045 24.2066
L43.9045 23.9042
" />
<path d="M43.9045 23.9042
L43.9649 23.6623
" />
<path d="M43.9649 23.6623
L44.0254 23.5414
" />
<path d="M44.0254 23.5414
L44.0859 23.4809
" />
<path d="M44.0859 23.4809
L44.2068 23.4204
" />
</g></g>
<g style="fill:#840000; fill-opacity:0.0; 
stroke:#840000; stroke-width:0.1524; stroke-opacity:1; 
stroke-linecap:round; stroke-linejoin:round;">
<path d="M41.7576 22.5679
L45.5676 22.5679
" />
</g>
<g style="fill:#006464; fill-opacity:0.0; 
stroke:#006464; stroke-width:0.1524; stroke-opacity:1; 
stroke-linecap:round; stroke-linejoin:round;">
<text x="40.7416" y="23.2029"
textLength="6.1300" font-size="1.6933" lengthAdjust="spacingAndGlyphs"
text-anchor="end" opacity="0">I/O/Q</text>
<g class="stroked-text"><desc>I/O/Q</desc>
<path d="M35.0169 23.1474
L35.0169 21.8774
" />
<path d="M36.5289 21.8170
L35.4403 23.4498
" />
<path d="M37.1941 21.8774
L37.4360 21.8774
" />
<path d="M37.4360 21.8774
L37.5570 21.9379
" />
<path d="M37.5570 21.9379
L37.6779 22.0589
" />
<path d="M37.6779 22.0589
L37.7384 22.3008
" />
<path d="M37.7384 22.3008
L37.7384 22.7241
" />
<path d="M37.7384 22.7241
L37.6779 22.9660
" />
<path d="M37.6779 22.9660
L37.5570 23.0870
" />
<path d="M37.5570 23.0870
L37.4360 23.1474
" />
<path d="M37.4360 23.1474
L37.1941 23.1474
" />
<path d="M37.1941 23.1474
L37.0732 23.0870
" />
<path d="M37.0732 23.0870
L36.9522 22.9660
" />
<path d="M36.9522 22.9660
L36.8918 22.7241
" />
<path d="M36.8918 22.7241
L36.8918 22.3008
" />
<path d="M36.8918 22.3008
L36.9522 22.0589
" />
<path d="M36.9522 22.0589
L37.0732 21.9379
" />
<path d="M37.0732 21.9379
L37.1941 21.8774
" />
<path d="M39.1899 21.8170
L38.1013 23.4498
" />
<path d="M40.4599 23.2684
L40.3389 23.2079
" />
<path d="M40.3389 23.2079
L40.2180 23.0870
" />
<path d="M40.2180 23.0870
L40.0366 22.9055
" />
<path d="M40.0366 22.9055
L39.9156 22.8450
" />
<path d="M39.9156 22.8450
L39.7947 22.8450
" />
<path d="M39.8551 23.1474
L39.7342 23.0870
" />
<path d="M39.7342 23.0870
L39.6132 22.9660
" />
<path d="M39.6132 22.9660
L39.5528 22.7241
" />
<path d="M39.5528 22.7241
L39.5528 22.3008
" />
<path d="M39.5528 22.3008
L39.6132 22.0589
" />
<path d="M39.6132 22.0589
L39.7342 21.9379
" />
<path d="M39.7342 21.9379
L39.8551 21.8774
" />
<path d="M39.8551 21.8774
L40.0970 21.8774
" />
<path d="M40.0970 21.8774
L40.2180 21.9379
" />
<path d="M40.2180 21.9379
L40.3389 22.0589
" />
<path d="M40.3389 22.0589
L40.3994 22.3008
" />
<path d="M40.3994 22.3008
L40.3994 22.7241
" />
<path d="M40.3994 22.7241
L40.3389 22.9660
" />
<path d="M40.3389 22.9660
L40.2180 23.0870
" />
<path d="M40.2180 23.0870
L40.0970 23.1474
" />
<path d="M40.0970 23.1474
L39.8551 23.1474
" />
</g></g>
<g style="fill:#A90000; fill-opacity:0.0; 
stroke:#A90000; stroke-width:0.1524; stroke-opacity:1; 
stroke-linecap:round; stroke-linejoin:round;">
<text x="43.6626" y="22.3139"
textLength="2.6222" font-size="1.6933" lengthAdjust="spacingAndGlyphs"
text-anchor="middle" opacity="0">21</text>
<g class="stroked-text"><desc>21</desc>
<path d="M42.6950 21.0014
L42.7554 20.9409
" />
<path d="M42.7554 20.9409
L42.8764 20.8804
" />
<path d="M42.8764 20.8804
L43.1788 20.8804
" />
<path d="M43.1788 20.8804
L43.2997 20.9409
" />
<path d="M43.2997 20.9409
L43.3602 21.0014
" />
<path d="M43.3602 21.0014
L43.4207 21.1223
" />
<path d="M43.4207 21.1223
L43.4207 21.2433
" />
<path d="M43.4207 21.2433
L43.3602 21.4247
" />
<path d="M43.3602 21.4247
L42.6345 22.1504
" />
<path d="M42.6345 22.1504
L43.4207 22.1504
" />
<path d="M44.6302 22.1504
L43.9045 22.1504
" />
<path d="M44.2673 22.1504
L44.2673 20.8804
" />
<path d="M44.2673 20.8804
L44.1464 21.0619
" />
<path d="M44.1464 21.0619
L44.0254 21.1828
" />
<path d="M44.0254 21.1828
L43.9045 21.2433
" />
</g></g>
<g style="fill:#840000; fill-opacity:0.0; 
stroke:#840000; stroke-width:0.1524; stroke-opacity:1; 
stroke-linecap:round; stroke-linejoin:round;">
<path d="M41.7576 20.0279
L45.5676 20.0279
" />
</g>
<g style="fill:#006464; fill-opacity:0.0; 
stroke:#006464; stroke-width:0.1524; stroke-opacity:1; 
stroke-linecap:round; stroke-linejoin:round;">
<text x="40.7416" y="20.6629"
textLength="6.1300" font-size="1.6933" lengthAdjust="spacingAndGlyphs"
text-anchor="end" opacity="0">I/O/Q</text>
<g class="stroked-text"><desc>I/O/Q</desc>
<path d="M35.0169 20.6074
L35.0169 19.3374
" />
<path d="M36.5289 19.2770
L35.4403 20.9098
" />
<path d="M37.1941 19.3374
L37.4360 19.3374
" />
<path d="M37.4360 19.3374
L37.5570 19.3979
" />
<path d="M37.5570 19.3979
L37.6779 19.5189
" />
<path d="M37.6779 19.5189
L37.7384 19.7608
" />
<path d="M37.7384 19.7608
L37.7384 20.1841
" />
<path d="M37.7384 20.1841
L37.6779 20.4260
" />
<path d="M37.6779 20.4260
L37.5570 20.5470
" />
<path d="M37.5570 20.5470
L37.4360 20.6074
" />
<path d="M37.4360 20.6074
L37.1941 20.6074
" />
<path d="M37.1941 20.6074
L37.0732 20.5470
" />
<path d="M37.0732 20.5470
L36.9522 20.4260
" />
<path d="M36.9522 20.4260
L36.8918 20.1841
" />
<path d="M36.8918 20.1841
L36.8918 19.7608
" />
<path d="M36.8918 19.7608
L36.9522 19.5189
" />
<path d="M36.9522 19.5189
L37.0732 19.3979
" />
<path d="M37.0732 19.3979
L37.1941 19.3374
" />
<path d="M39.1899 19.2770
L38.1013 20.9098
" />
<path d="M40.4599 20.7284
L40.3389 20.6679
" />
<path d="M40.3389 20.6679
L40.2180 20.5470
" />
<path d="M40.2180 20.5470
L40.0366 20.3655
" />
<path d="M40.0366 20.3655
L39.9156 20.3050
" />
<path d="M39.9156 20.3050
L39.7947 20.3050
" />
<path d="M39.8551 20.6074
L39.7342 20.5470
" />
<path d="M39.7342 20.5470
L39.6132 20.4260
" />
<path d="M39.6132 20.4260
L39.5528 20.1841
" />
<path d="M39.5528 20.1841
L39.5528 19.7608
" />
<path d="M39.5528 19.7608
L39.6132 19.5189
" />
<path d="M39.6132 19.5189
L39.7342 19.3979
" />
<path d="M39.7342 19.3979
L39.8551 19.3374
" />
<path d="M39.8551 19.3374
L40.0970 19.3374
" />
<path d="M40.0970 19.3374
L40.2180 19.3979
" />
<path d="M40.2180 19.3979
L40.3389 19.5189
" />
<path d="M40.3389 19.5189
L40.3994 19.7608
" />
<path d="M40.3994 19.7608
L40.3994 20.1841
" />
<path d="M40.3994 20.1841
L40.3389 20.4260
" />
<path d="M40.3389 20.4260
L40.2180 20.5470
" />
<path d="M40.2180 20.5470
L40.0970 20.6074
" />
<path d="M40.0970 20.6074
L39.8551 20.6074
" />
</g></g>
<g style="fill:#A90000; fill-opacity:0.0; 
stroke:#A90000; stroke-width:0.1524; stroke-opacity:1; 
stroke-linecap:round; stroke-linejoin:round;">
<text x="43.6626" y="19.7739"
textLength="2.6222" font-size="1.6933" lengthAdjust="spacingAndGlyphs"
text-anchor="middle" opacity="0">22</text>
<g class="stroked-text"><desc>22</desc>
<path d="M42.6950 18.4614
L42.7554 18.4009
" />
<path d="M42.7554 18.4009
L42.8764 18.3404
" />
<path d="M42.8764 18.3404
L43.1788 18.3404
" />
<path d="M43.1788 18.3404
L43.2997 18.4009
" />
<path d="M43.2997 18.4009
L43.3602 18.4614
" />
<path d="M43.3602 18.4614
L43.4207 18.5823
" />
<path d="M43.4207 18.5823
L43.4207 18.7033
" />
<path d="M43.4207 18.7033
L43.3602 18.8847
" />
<path d="M43.3602 18.8847
L42.6345 19.6104
" />
<path d="M42.6345 19.6104
L43.4207 19.6104
" />
<path d="M43.9045 18.4614
L43.9649 18.4009
" />
<path d="M43.9649 18.4009
L44.0859 18.3404
" />
<path d="M44.0859 18.3404
L44.3883 18.3404
" />
<path d="M44.3883 18.3404
L44.5092 18.4009
" />
<path d="M44.5092 18.4009
L44.5697 18.4614
" />
<path d="M44.5697 18.4614
L44.6302 18.5823
" />
<path d="M44.6302 18.5823
L44.6302 18.7033
" />
<path d="M44.6302 18.7033
L44.5697 18.8847
" />
<path d="M44.5697 18.8847
L43.8440 19.6104
" />
<path d="M43.8440 19.6104
L44.6302 19.6104
" />
</g></g>
<g style="fill:#840000; fill-opacity:0.0; 
stroke:#840000; stroke-width:0.1524; stroke-opacity:1; 
stroke-linecap:round; stroke-linejoin:round;">
<path d="M41.7576 17.4879
L45.5676 17.4879
" />
</g>
<g style="fill:#006464; fill-opacity:0.0; 
stroke:#006464; stroke-width:0.1524; stroke-opacity:1; 
stroke-linecap:round; stroke-linejoin:round;">
<text x="40.7416" y="18.1229"
textLength="6.1300" font-size="1.6933" lengthAdjust="spacingAndGlyphs"
text-anchor="end" opacity="0">I/O/Q</text>
<g class="stroked-text"><desc>I/O/Q</desc>
<path d="M35.0169 18.0674
L35.0169 16.7974
" />
<path d="M36.5289 16.7370
L35.4403 18.3698
" />
<path d="M37.1941 16.7974
L37.4360 16.7974
" />
<path d="M37.4360 16.7974
L37.5570 16.8579
" />
<path d="M37.5570 16.8579
L37.6779 16.9789
" />
<path d="M37.6779 16.9789
L37.7384 17.2208
" />
<path d="M37.7384 17.2208
L37.7384 17.6441
" />
<path d="M37.7384 17.6441
L37.6779 17.8860
" />
<path d="M37.6779 17.8860
L37.5570 18.0070
" />
<path d="M37.5570 18.0070
L37.4360 18.0674
" />
<path d="M37.4360 18.0674
L37.1941 18.0674
" />
<path d="M37.1941 18.0674
L37.0732 18.0070
" />
<path d="M37.0732 18.0070
L36.9522 17.8860
" />
<path d="M36.9522 17.8860
L36.8918 17.6441
" />
<path d="M36.8918 17.6441
L36.8918 17.2208
" />
<path d="M36.8918 17.2208
L36.9522 16.9789
" />
<path d="M36.9522 16.9789
L37.0732 16.8579
" />
<path d="M37.0732 16.8579
L37.1941 16.7974
" />
<path d="M39.1899 16.7370
L38.1013 18.3698
" />
<path d="M40.4599 18.1884
L40.3389 18.1279
" />
<path d="M40.3389 18.1279
L40.2180 18.0070
" />
<path d="M40.2180 18.0070
L40.0366 17.8255
" />
<path d="M40.0366 17.8255
L39.9156 17.7650
" />
<path d="M39.9156 17.7650
L39.7947 17.7650
" />
<path d="M39.8551 18.0674
L39.7342 18.0070
" />
<path d="M39.7342 18.0070
L39.6132 17.8860
" />
<path d="M39.6132 17.8860
L39.5528 17.6441
" />
<path d="M39.5528 17.6441
L39.5528 17.2208
" />
<path d="M39.5528 17.2208
L39.6132 16.9789
" />
<path d="M39.6132 16.9789
L39.7342 16.8579
" />
<path d="M39.7342 16.8579
L39.8551 16.7974
" />
<path d="M39.8551 16.7974
L40.0970 16.7974
" />
<path d="M40.0970 16.7974
L40.2180 16.8579
" />
<path d="M40.2180 16.8579
L40.3389 16.9789
" />
<path d="M40.3389 16.9789
L40.3994 17.2208
" />
<path d="M40.3994 17.2208
L40.3994 17.6441
" />
<path d="M40.3994 17.6441
L40.3389 17.8860
" />
<path d="M40.3389 17.8860
L40.2180 18.0070
" />
<path d="M40.2180 18.0070
L40.0970 18.0674
" />
<path d="M40.0970 18.0674
L39.8551 18.0674
" />
</g></g>
<g style="fill:#A90000; fill-opacity:0.0; 
stroke:#A90000; stroke-width:0.1524; stroke-opacity:1; 
stroke-linecap:round; stroke-linejoin:round;">
<text x="43.6626" y="17.2339"
textLength="2.6222" font-size="1.6933" lengthAdjust="spacingAndGlyphs"
text-anchor="middle" opacity="0">23</text>
<g class="stroked-text"><desc>23</desc>
<path d="M42.6950 15.9214
L42.7554 15.8609
" />
<path d="M42.7554 15.8609
L42.8764 15.8004
" />
<path d="M42.8764 15.8004
L43.1788 15.8004
" />
<path d="M43.1788 15.8004
L43.2997 15.8609
" />
<path d="M43.2997 15.8609
L43.3602 15.9214
" />
<path d="M43.3602 15.9214
L43.4207 16.0423
" />
<path d="M43.4207 16.0423
L43.4207 16.1633
" />
<path d="M43.4207 16.1633
L43.3602 16.3447
" />
<path d="M43.3602 16.3447
L42.6345 17.0704
" />
<path d="M42.6345 17.0704
L43.4207 17.0704
" />
<path d="M43.8440 15.8004
L44.6302 15.8004
" />
<path d="M44.6302 15.8004
L44.2068 16.2842
" />
<path d="M44.2068 16.2842
L44.3883 16.2842
" />
<path d="M44.3883 16.2842
L44.5092 16.3447
" />
<path d="M44.5092 16.3447
L44.5697 16.4052
" />
<path d="M44.5697 16.4052
L44.6302 16.5261
" />
<path d="M44.6302 16.5261
L44.6302 16.8285
" />
<path d="M44.6302 16.8285
L44.5697 16.9495
" />
<path d="M44.5697 16.9495
L44.5092 17.0100
" />
<path d="M44.5092 17.0100
L44.3883 17.0704
" />
<path d="M44.3883 17.0704
L44.0254 17.0704
" />
<path d="M44.0254 17.0704
L43.9045 17.0100
" />
<path d="M43.9045 17.0100
L43.8440 16.9495
" />
</g></g>
<g style="fill:#840000; fill-opacity:0.0; 
stroke:#840000; stroke-width:0.1524; stroke-opacity:1; 
stroke-linecap:round; stroke-linejoin:round;">
<path d="M23.9776 22.5679
L20.1676 22.5679
" />
</g>
<g style="fill:#006464; fill-opacity:0.0; 
stroke:#006464; stroke-width:0.1524; stroke-opacity:1; 
stroke-linecap:round; stroke-linejoin:round;">
<text x="24.9936" y="23.2029"
textLength="0.8080" font-size="1.6933" lengthAdjust="spacingAndGlyphs"
text-anchor="start" opacity="0">I</text>
<g class="stroked-text"><desc>I</desc>
<path d="M25.3961 23.1474
L25.3961 21.8774
" />
</g></g>
<g style="fill:#A90000; fill-opacity:0.0; 
stroke:#A90000; stroke-width:0.1524; stroke-opacity:1; 
stroke-linecap:round; stroke-linejoin:round;">
<text x="22.0726" y="22.3139"
textLength="1.4127" font-size="1.6933" lengthAdjust="spacingAndGlyphs"
text-anchor="middle" opacity="0">3</text>
<g class="stroked-text"><desc>3</desc>
<path d="M21.6493 20.8804
L22.4355 20.8804
" />
<path d="M22.4355 20.8804
L22.0121 21.3642
" />
<path d="M22.0121 21.3642
L22.1936 21.3642
" />
<path d="M22.1936 21.3642
L22.3145 21.4247
" />
<path d="M22.3145 21.4247
L22.3750 21.4852
" />
<path d="M22.3750 21.4852
L22.4355 21.6061
" />
<path d="M22.4355 21.6061
L22.4355 21.9085
" />
<path d="M22.4355 21.9085
L22.3750 22.0295
" />
<path d="M22.3750 22.0295
L22.3145 22.0900
" />
<path d="M22.3145 22.0900
L22.1936 22.1504
" />
<path d="M22.1936 22.1504
L21.8307 22.1504
" />
<path d="M21.8307 22.1504
L21.7098 22.0900
" />
<path d="M21.7098 22.0900
L21.6493 22.0295
" />
</g></g>
<g style="fill:#840000; fill-opacity:0.0; 
stroke:#840000; stroke-width:0.1524; stroke-opacity:1; 
stroke-linecap:round; stroke-linejoin:round;">
<path d="M23.9776 25.1079
L20.1676 25.1079
" />
</g>
<g style="fill:#006464; fill-opacity:0.0; 
stroke:#006464; stroke-width:0.1524; stroke-opacity:1; 
stroke-linecap:round; stroke-linejoin:round;">
<text x="24.9936" y="25.7429"
textLength="0.8080" font-size="1.6933" lengthAdjust="spacingAndGlyphs"
text-anchor="start" opacity="0">I</text>
<g class="stroked-text"><desc>I</desc>
<path d="M25.3961 25.6874
L25.3961 24.4174
" />
</g></g>
<g style="fill:#A90000; fill-opacity:0.0; 
stroke:#A90000; stroke-width:0.1524; stroke-opacity:1; 
stroke-linecap:round; stroke-linejoin:round;">
<text x="22.0726" y="24.8539"
textLength="1.4127" font-size="1.6933" lengthAdjust="spacingAndGlyphs"
text-anchor="middle" opacity="0">4</text>
<g class="stroked-text"><desc>4</desc>
<path d="M22.3145 23.8438
L22.3145 24.6904
" />
<path d="M22.0121 23.3600
L21.7098 24.2671
" />
<path d="M21.7098 24.2671
L22.4959 24.2671
" />
</g></g>
<g style="fill:#840000; fill-opacity:0.0; 
stroke:#840000; stroke-width:0.1524; stroke-opacity:1; 
stroke-linecap:round; stroke-linejoin:round;">
<path d="M23.9776 27.6479
L20.1676 27.6479
" />
</g>
<g style="fill:#006464; fill-opacity:0.0; 
stroke:#006464; stroke-width:0.1524; stroke-opacity:1; 
stroke-linecap:round; stroke-linejoin:round;">
<text x="24.9936" y="28.2829"
textLength="0.8080" font-size="1.6933" lengthAdjust="spacingAndGlyphs"
text-anchor="start" opacity="0">I</text>
<g class="stroked-text"><desc>I</desc>
<path d="M25.3961 28.2274
L25.3961 26.9574
" />
</g></g>
<g style="fill:#A90000; fill-opacity:0.0; 
stroke:#A90000; stroke-width:0.1524; stroke-opacity:1; 
stroke-linecap:round; stroke-linejoin:round;">
<text x="22.0726" y="27.3939"
textLength="1.4127" font-size="1.6933" lengthAdjust="spacingAndGlyphs"
text-anchor="middle" opacity="0">5</text>
<g class="stroked-text"><desc>5</desc>
<path d="M22.3750 25.9604
L21.7702 25.9604
" />
<path d="M21.7702 25.9604
L21.7098 26.5652
" />
<path d="M21.7098 26.5652
L21.7702 26.5047
" />
<path d="M21.7702 26.5047
L21.8912 26.4442
" />
<path d="M21.8912 26.4442
L22.1936 26.4442
" />
<path d="M22.1936 26.4442
L22.3145 26.5047
" />
<path d="M22.3145 26.5047
L22.3750 26.5652
" />
<path d="M22.3750 26.5652
L22.4355 26.6861
" />
<path d="M22.4355 26.6861
L22.4355 26.9885
" />
<path d="M22.4355 26.9885
L22.3750 27.1095
" />
<path d="M22.3750 27.1095
L22.3145 27.1700
" />
<path d="M22.3145 27.1700
L22.1936 27.2304
" />
<path d="M22.1936 27.2304
L21.8912 27.2304
" />
<path d="M21.8912 27.2304
L21.7702 27.1700
" />
<path d="M21.7702 27.1700
L21.7098 27.1095
" />
</g></g>
<g style="fill:#840000; fill-opacity:0.0; 
stroke:#840000; stroke-width:0.1524; stroke-opacity:1; 
stroke-linecap:round; stroke-linejoin:round;">
<path d="M23.9776 30.1879
L20.1676 30.1879
" />
</g>
<g style="fill:#006464; fill-opacity:0.0; 
stroke:#006464; stroke-width:0.1524; stroke-opacity:1; 
stroke-linecap:round; stroke-linejoin:round;">
<text x="24.9936" y="30.8229"
textLength="0.8080" font-size="1.6933" lengthAdjust="spacingAndGlyphs"
text-anchor="start" opacity="0">I</text>
<g class="stroked-text"><desc>I</desc>
<path d="M25.3961 30.7674
L25.3961 29.4974
" />
</g></g>
<g style="fill:#A90000; fill-opacity:0.0; 
stroke:#A90000; stroke-width:0.1524; stroke-opacity:1; 
stroke-linecap:round; stroke-linejoin:round;">
<text x="22.0726" y="29.9339"
textLength="1.4127" font-size="1.6933" lengthAdjust="spacingAndGlyphs"
text-anchor="middle" opacity="0">6</text>
<g class="stroked-text"><desc>6</desc>
<path d="M22.3145 28.5004
L22.0726 28.5004
" />
<path d="M22.0726 28.5004
L21.9517 28.5609
" />
<path d="M21.9517 28.5609
L21.8912 28.6214
" />
<path d="M21.8912 28.6214
L21.7702 28.8028
" />
<path d="M21.7702 28.8028
L21.7098 29.0447
" />
<path d="M21.7098 29.0447
L21.7098 29.5285
" />
<path d="M21.7098 29.5285
L21.7702 29.6495
" />
<path d="M21.7702 29.6495
L21.8307 29.7100
" />
<path d="M21.8307 29.7100
L21.9517 29.7704
" />
<path d="M21.9517 29.7704
L22.1936 29.7704
" />
<path d="M22.1936 29.7704
L22.3145 29.7100
" />
<path d="M22.3145 29.7100
L22.3750 29.6495
" />
<path d="M22.3750 29.6495
L22.4355 29.5285
" />
<path d="M22.4355 29.5285
L22.4355 29.2261
" />
<path d="M22.4355 29.2261
L22.3750 29.1052
" />
<path d="M22.3750 29.1052
L22.3145 29.0447
" />
<path d="M22.3145 29.0447
L22.1936 28.9842
" />
<path d="M22.1936 28.9842
L21.9517 28.9842
" />
<path d="M21.9517 28.9842
L21.8307 29.0447
" />
<path d="M21.8307 29.0447
L21.7702 29.1052
" />
<path d="M21.7702 29.1052
L21.7098 29.2261
" />
</g></g>
<g style="fill:#840000; fill-opacity:0.0; 
stroke:#840000; stroke-width:0.1524; stroke-opacity:1; 
stroke-linecap:round; stroke-linejoin:round;">
<path d="M23.9776 32.7279
L20.1676 32.7279
" />
</g>
<g style="fill:#006464; fill-opacity:0.0; 
stroke:#006464; stroke-width:0.1524; stroke-opacity:1; 
stroke-linecap:round; stroke-linejoin:round;">
<text x="24.9936" y="33.3629"
textLength="0.8080" font-size="1.6933" lengthAdjust="spacingAndGlyphs"
text-anchor="start" opacity="0">I</text>
<g class="stroked-text"><desc>I</desc>
<path d="M25.3961 33.3074
L25.3961 32.0374
" />
</g></g>
<g style="fill:#A90000; fill-opacity:0.0; 
stroke:#A90000; stroke-width:0.1524; stroke-opacity:1; 
stroke-linecap:round; stroke-linejoin:round;">
<text x="22.0726" y="32.4739"
textLength="1.4127" font-size="1.6933" lengthAdjust="spacingAndGlyphs"
text-anchor="middle" opacity="0">7</text>
<g class="stroked-text"><desc>7</desc>
<path d="M21.6493 31.0404
L22.4959 31.0404
" />
<path d="M22.4959 31.0404
L21.9517 32.3104
" />
</g></g>
<g style="fill:#840000; fill-opacity:0.0; 
stroke:#840000; stroke-width:0.1524; stroke-opacity:1; 
stroke-linecap:round; stroke-linejoin:round;">
<path d="M23.9776 35.2679
L20.1676 35.2679
" />
</g>
<g style="fill:#006464; fill-opacity:0.0; 
stroke:#006464; stroke-width:0.1524; stroke-opacity:1; 
stroke-linecap:round; stroke-linejoin:round;">
<text x="24.9936" y="35.9029"
textLength="0.8080" font-size="1.6933" lengthAdjust="spacingAndGlyphs"
text-anchor="start" opacity="0">I</text>
<g class="stroked-text"><desc>I</desc>
<path d="M25.3961 35.8474
L25.3961 34.5774
" />
</g></g>
<g style="fill:#A90000; fill-opacity:0.0; 
stroke:#A90000; stroke-width:0.1524; stroke-opacity:1; 
stroke-linecap:round; stroke-linejoin:round;">
<text x="22.0726" y="35.0139"
textLength="1.4127" font-size="1.6933" lengthAdjust="spacingAndGlyphs"
text-anchor="middle" opacity="0">8</text>
<g class="stroked-text"><desc>8</desc>
<path d="M21.9517 34.1247
L21.8307 34.0642
" />
<path d="M21.8307 34.0642
L21.7702 34.0038
" />
<path d="M21.7702 34.0038
L21.7098 33.8828
" />
<path d="M21.7098 33.8828
L21.7098 33.8223
" />
<path d="M21.7098 33.8223
L21.7702 33.7014
" />
<path d="M21.7702 33.7014
L21.8307 33.6409
" />
<path d="M21.8307 33.6409
L21.9517 33.5804
" />
<path d="M21.9517 33.5804
L22.1936 33.5804
" />
<path d="M22.1936 33.5804
L22.3145 33.6409
" />
<path d="M22.3145 33.6409
L22.3750 33.7014
" />
<path d="M22.3750 33.7014
L22.4355 33.8223
" />
<path d="M22.4355 33.8223
L22.4355 33.8828
" />
<path d="M22.4355 33.8828
L22.3750 34.0038
" />
<path d="M22.3750 34.0038
L22.3145 34.0642
" />
<path d="M22.3145 34.0642
L22.1936 34.1247
" />
<path d="M22.1936 34.1247
L21.9517 34.1247
" />
<path d="M21.9517 34.1247
L21.8307 34.1852
" />
<path d="M21.8307 34.1852
L21.7702 34.2457
" />
<path d="M21.7702 34.2457
L21.7098 34.3666
" />
<path d="M21.7098 34.3666
L21.7098 34.6085
" />
<path d="M21.7098 34.6085
L21.7702 34.7295
" />
<path d="M21.7702 34.7295
L21.8307 34.7900
" />
<path d="M21.8307 34.7900
L21.9517 34.8504
" />
<path d="M21.9517 34.8504
L22.1936 34.8504
" />
<path d="M22.1936 34.8504
L22.3145 34.7900
" />
<path d="M22.3145 34.7900
L22.3750 34.7295
" />
<path d="M22.3750 34.7295
L22.4355 34.6085
" />
<path d="M22.4355 34.6085
L22.4355 34.3666
" />
<path d="M22.4355 34.3666
L22.3750 34.2457
" />
<path d="M22.3750 34.2457
L22.3145 34.1852
" />
<path d="M22.3145 34.1852
L22.1936 34.1247
" />
</g></g>
<g style="fill:#840000; fill-opacity:0.0; 
stroke:#840000; stroke-width:0.1524; stroke-opacity:1; 
stroke-linecap:round; stroke-linejoin:round;">
<path d="M23.9776 37.8079
L20.1676 37.8079
" />
</g>
<g style="fill:#006464; fill-opacity:0.0; 
stroke:#006464; stroke-width:0.1524; stroke-opacity:1; 
stroke-linecap:round; stroke-linejoin:round;">
<text x="24.9936" y="38.4429"
textLength="0.8080" font-size="1.6933" lengthAdjust="spacingAndGlyphs"
text-anchor="start" opacity="0">I</text>
<g class="stroked-text"><desc>I</desc>
<path d="M25.3961 38.3874
L25.3961 37.1174
" />
</g></g>
<g style="fill:#A90000; fill-opacity:0.0; 
stroke:#A90000; stroke-width:0.1524; stroke-opacity:1; 
stroke-linecap:round; stroke-linejoin:round;">
<text x="22.0726" y="37.5539"
textLength="1.4127" font-size="1.6933" lengthAdjust="spacingAndGlyphs"
text-anchor="middle" opacity="0">9</text>
<g class="stroked-text"><desc>9</desc>
<path d="M21.8307 37.3904
L22.0726 37.3904
" />
<path d="M22.0726 37.3904
L22.1936 37.3300
" />
<path d="M22.1936 37.3300
L22.2540 37.2695
" />
<path d="M22.2540 37.2695
L22.3750 37.0880
" />
<path d="M22.3750 37.0880
L22.4355 36.8461
" />
<path d="M22.4355 36.8461
L22.4355 36.3623
" />
<path d="M22.4355 36.3623
L22.3750 36.2414
" />
<path d="M22.3750 36.2414
L22.3145 36.1809
" />
<path d="M22.3145 36.1809
L22.1936 36.1204
" />
<path d="M22.1936 36.1204
L21.9517 36.1204
" />
<path d="M21.9517 36.1204
L21.8307 36.1809
" />
<path d="M21.8307 36.1809
L21.7702 36.2414
" />
<path d="M21.7702 36.2414
L21.7098 36.3623
" />
<path d="M21.7098 36.3623
L21.7098 36.6647
" />
<path d="M21.7098 36.6647
L21.7702 36.7857
" />
<path d="M21.7702 36.7857
L21.8307 36.8461
" />
<path d="M21.8307 36.8461
L21.9517 36.9066
" />
<path d="M21.9517 36.9066
L22.1936 36.9066
" />
<path d="M22.1936 36.9066
L22.3145 36.8461
" />
<path d="M22.3145 36.8461
L22.3750 36.7857
" />
<path d="M22.3750 36.7857
L22.4355 36.6647
" />
</g></g>
<g style="fill:#840084; fill-opacity:0.0; 
stroke:#840084; stroke-width:0.1524; stroke-opacity:1; 
stroke-linecap:round; stroke-linejoin:round;">
</g>
<g style="fill:#006464; fill-opacity:0.0; 
stroke:#006464; stroke-width:0.1524; stroke-opacity:1; 
stroke-linecap:round; stroke-linejoin:round;">
</g>
<g style="fill:#006464; fill-opacity:0.0; 
stroke:#006464; stroke-width:0.1588; stroke-opacity:1; 
stroke-linecap:round; stroke-linejoin:round;">
<text x="25.2983" y="14.3129"
textLength="2.6415" font-size="1.6933" lengthAdjust="spacingAndGlyphs"
text-anchor="middle" opacity="0">U?</text>
<g class="stroked-text"><desc>U?</desc>
<path d="M24.3911 12.9871
L24.3911 14.0152
" />
<path d="M24.3911 14.0152
L24.4516 14.1362
" />
<path d="M24.4516 14.1362
L24.5121 14.1967
" />
<path d="M24.5121 14.1967
L24.6330 14.2571
" />
<path d="M24.6330 14.2571
L24.8749 14.2571
" />
<path d="M24.8749 14.2571
L24.9959 14.1967
" />
<path d="M24.9959 14.1967
L25.0564 14.1362
" />
<path d="M25.0564 14.1362
L25.1168 14.0152
" />
<path d="M25.1168 14.0152
L25.1168 12.9871
" />
<path d="M25.9031 14.1362
L25.9635 14.1967
" />
<path d="M25.9635 14.1967
L25.9031 14.2571
" />
<path d="M25.9031 14.2571
L25.8426 14.1967
" />
<path d="M25.8426 14.1967
L25.9031 14.1362
" />
<path d="M25.9031 14.1362
L25.9031 14.2571
" />
<path d="M25.6612 13.0476
L25.7821 12.9871
" />
<path d="M25.7821 12.9871
L26.0845 12.9871
" />
<path d="M26.0845 12.9871
L26.2054 13.0476
" />
<path d="M26.2054 13.0476
L26.2659 13.1686
" />
<path d="M26.2659 13.1686
L26.2659 13.2895
" />
<path d="M26.2659 13.2895
L26.2054 13.4105
" />
<path d="M26.2054 13.4105
L26.1450 13.4709
" />
<path d="M26.1450 13.4709
L26.0240 13.5314
" />
<path d="M26.0240 13.5314
L25.9635 13.5919
" />
<path d="M25.9635 13.5919
L25.9031 13.7128
" />
<path d="M25.9031 13.7128
L25.9031 13.7733
" />
</g><text x="38.9054" y="14.3129"
textLength="9.5357" font-size="1.6933" lengthAdjust="spacingAndGlyphs"
text-anchor="middle" opacity="0">GAL22V10</text>
<g class="stroked-text"><desc>GAL22V10</desc>
<path d="M35.2164 13.0476
L35.0954 12.9871
" />
<path d="M35.0954 12.9871
L34.9140 12.9871
" />
<path d="M34.9140 12.9871
L34.7326 13.0476
" />
<path d="M34.7326 13.0476
L34.6116 13.1686
" />
<path d="M34.6116 13.1686
L34.5511 13.2895
" />
<path d="M34.5511 13.2895
L34.4907 13.5314
" />
<path d="M34.4907 13.5314
L34.4907 13.7128
" />
<path d="M34.4907 13.7128
L34.5511 13.9547
" />
<path d="M34.5511 13.9547
L34.6116 14.0757
" />
<path d="M34.6116 14.0757
L34.7326 14.1967
" />
<path d="M34.7326 14.1967
L34.9140 14.2571
" />
<path d="M34.9140 14.2571
L35.0349 14.2571
" />
<path d="M35.0349 14.2571
L35.2164 14.1967
" />
<path d="M35.2164 14.1967
L35.2768 14.1362
" />
<path d="M35.2768 14.1362
L35.2768 13.7128
" />
<path d="M35.2768 13.7128
L35.0349 13.7128
" />
<path d="M35.7607 13.8943
L36.3654 13.8943
" />
<path d="M35.6397 14.2571
L36.0630 12.9871
" />
<path d="M36.0630 12.9871
L36.4864 14.2571
" />
<path d="M37.5145 14.2571
L36.9097 14.2571
" />
<path d="M36.9097 14.2571
L36.9097 12.9871
" />
<path d="M37.8774 13.1081
L37.9378 13.0476
" />
<path d="M37.9378 13.0476
L38.0588 12.9871
" />
<path d="M38.0588 12.9871
L38.3612 12.9871
" />
<path d="M38.3612 12.9871
L38.4821 13.0476
" />
<path d="M38.4821 13.0476
L38.5426 13.1081
" />
<path d="M38.5426 13.1081
L38.6031 13.2290
" />
<path d="M38.6031 13.2290
L38.6031 13.3500
" />
<path d="M38.6031 13.3500
L38.5426 13.5314
" />
<path d="M38.5426 13.5314
L37.8169 14.2571
" />
<path d="M37.8169 14.2571
L38.6031 14.2571
" />
<path d="M39.0869 13.1081
L39.1473 13.0476
" />
<path d="M39.1473 13.0476
L39.2683 12.9871
" />
<path d="M39.2683 12.9871
L39.5707 12.9871
" />
<path d="M39.5707 12.9871
L39.6916 13.0476
" />
<path d="M39.6916 13.0476
L39.7521 13.1081
" />
<path d="M39.7521 13.1081
L39.8126 13.2290
" />
<path d="M39.8126 13.2290
L39.8126 13.3500
" />
<path d="M39.8126 13.3500
L39.7521 13.5314
" />
<path d="M39.7521 13.5314
L39.0264 14.2571
" />
<path d="M39.0264 14.2571
L39.8126 14.2571
" />
<path d="M40.1754 12.9871
L40.5987 14.2571
" />
<path d="M40.5987 14.2571
L41.0221 12.9871
" />
<path d="M42.1107 14.2571
L41.3850 14.2571
" />
<path d="M41.7478 14.2571
L41.7478 12.9871
" />
<path d="M41.7478 12.9871
L41.6269 13.1686
" />
<path d="M41.6269 13.1686
L41.5059 13.2895
" />
<path d="M41.5059 13.2895
L41.3850 13.3500
" />
<path d="M42.8968 12.9871
L43.0178 12.9871
" />
<path d="M43.0178 12.9871
L43.1387 13.0476
" />
<path d="M43.1387 13.0476
L43.1992 13.1081
" />
<path d="M43.1992 13.1081
L43.2597 13.2290
" />
<path d="M43.2597 13.2290
L43.3202 13.4709
" />
<path d="M43.3202 13.4709
L43.3202 13.7733
" />
<path d="M43.3202 13.7733
L43.2597 14.0152
" />
<path d="M43.2597 14.0152
L43.1992 14.1362
" />
<path d="M43.1992 14.1362
L43.1387 14.1967
" />
<path d="M43.1387 14.1967
L43.0178 14.2571
" />
<path d="M43.0178 14.2571
L42.8968 14.2571
" />
<path d="M42.8968 14.2571
L42.7759 14.1967
" />
<path d="M42.7759 14.1967
L42.7154 14.1362
" />
<path d="M42.7154 14.1362
L42.6549 14.0152
" />
<path d="M42.6549 14.0152
L42.5945 13.7733
" />
<path d="M42.5945 13.7733
L42.5945 13.4709
" />
<path d="M42.5945 13.4709
L42.6549 13.2290
" />
<path d="M42.6549 13.2290
L42.7154 13.1081
" />
<path d="M42.7154 13.1081
L42.7759 13.0476
" />
<path d="M42.7759 13.0476
L42.8968 12.9871
" />
</g></g> 
</svg>
