<?xml version="1.0" standalone="no"?>
 <!DOCTYPE svg PUBLIC "-//W3C//DTD SVG 1.1//EN" 
 "http://www.w3.org/Graphics/SVG/1.1/DTD/svg11.dtd"> 
<svg
  xmlns:svg="http://www.w3.org/2000/svg"
  xmlns="http://www.w3.org/2000/svg"
  xmlns:xlink="http://www.w3.org/1999/xlink"
  version="1.1"
  width="44.7548mm" height="51.8160mm" viewBox="0.0000 0.0000 44.7548 51.8160">
<title>SVG Image created as gal20v8.svg date 2023/09/25 15:20:43 </title>
  <desc>Image generated by Eeschema-SVG </desc>
<g style="fill:#000000; fill-opacity:1.0000;stroke:#000000; stroke-opacity:1.0000;
stroke-linecap:round; stroke-linejoin:round;"
 transform="translate(0 0) scale(1 1)">
</g>
<g style="fill:#840000; fill-opacity:0.0; 
stroke:#840000; stroke-width:0.0000; stroke-opacity:1; 
stroke-linecap:round; stroke-linejoin:round;">
</g>
<g style="fill:#FFFFC2; fill-opacity:0.0; 
stroke:#FFFFC2; stroke-width:0.0000; stroke-opacity:1; 
stroke-linecap:round; stroke-linejoin:round;">
</g>
<g style="fill:#FFFFC2; fill-opacity:1.0000; 
stroke:#FFFFC2; stroke-width:0.0000; stroke-opacity:1; 
stroke-linecap:round; stroke-linejoin:round;">
<rect x="13.487400" y="11.938000" width="17.780000" height="35.560000" rx="0.000000" />
</g>
<g style="fill:#840084; fill-opacity:1.0000; 
stroke:#840084; stroke-width:0.0000; stroke-opacity:1; 
stroke-linecap:round; stroke-linejoin:round;">
</g>
<g style="fill:#840000; fill-opacity:1.0000; 
stroke:#840000; stroke-width:0.0000; stroke-opacity:1; 
stroke-linecap:round; stroke-linejoin:round;">
</g>
<g style="fill:#840000; fill-opacity:0.0; 
stroke:#840000; stroke-width:0.2540; stroke-opacity:1; 
stroke-linecap:round; stroke-linejoin:round;">
<rect x="13.487400" y="11.938000" width="17.780000" height="35.560000" rx="0.000000" />
</g>
<g style="fill:#840000; fill-opacity:0.0; 
stroke:#840000; stroke-width:0.1524; stroke-opacity:1; 
stroke-linecap:round; stroke-linejoin:round;">
<path d="M22.3774 47.4980
L22.3774 51.3080
" />
</g>
<g style="fill:#006464; fill-opacity:0.0; 
stroke:#006464; stroke-width:0.1524; stroke-opacity:1; 
stroke-linecap:round; stroke-linejoin:round;">
<g transform="rotate(-90.000000 22.3774 46.4820)">
<text x="22.3774" y="47.1170"
textLength="4.0737" font-size="1.6933" lengthAdjust="spacingAndGlyphs"
text-anchor="start" opacity="0">GND</text>
</g>
<g class="stroked-text"><desc>GND</desc>
<path d="M21.7474 45.4141
L21.6869 45.5351
" />
<path d="M21.6869 45.5351
L21.6869 45.7165
" />
<path d="M21.6869 45.7165
L21.7474 45.8979
" />
<path d="M21.7474 45.8979
L21.8684 46.0189
" />
<path d="M21.8684 46.0189
L21.9893 46.0794
" />
<path d="M21.9893 46.0794
L22.2312 46.1398
" />
<path d="M22.2312 46.1398
L22.4126 46.1398
" />
<path d="M22.4126 46.1398
L22.6545 46.0794
" />
<path d="M22.6545 46.0794
L22.7755 46.0189
" />
<path d="M22.7755 46.0189
L22.8965 45.8979
" />
<path d="M22.8965 45.8979
L22.9569 45.7165
" />
<path d="M22.9569 45.7165
L22.9569 45.5956
" />
<path d="M22.9569 45.5956
L22.8965 45.4141
" />
<path d="M22.8965 45.4141
L22.8360 45.3537
" />
<path d="M22.8360 45.3537
L22.4126 45.3537
" />
<path d="M22.4126 45.3537
L22.4126 45.5956
" />
<path d="M22.9569 44.8094
L21.6869 44.8094
" />
<path d="M21.6869 44.8094
L22.9569 44.0837
" />
<path d="M22.9569 44.0837
L21.6869 44.0837
" />
<path d="M22.9569 43.4789
L21.6869 43.4789
" />
<path d="M21.6869 43.4789
L21.6869 43.1765
" />
<path d="M21.6869 43.1765
L21.7474 42.9951
" />
<path d="M21.7474 42.9951
L21.8684 42.8741
" />
<path d="M21.8684 42.8741
L21.9893 42.8136
" />
<path d="M21.9893 42.8136
L22.2312 42.7532
" />
<path d="M22.2312 42.7532
L22.4126 42.7532
" />
<path d="M22.4126 42.7532
L22.6545 42.8136
" />
<path d="M22.6545 42.8136
L22.7755 42.8741
" />
<path d="M22.7755 42.8741
L22.8965 42.9951
" />
<path d="M22.8965 42.9951
L22.9569 43.1765
" />
<path d="M22.9569 43.1765
L22.9569 43.4789
" />
</g></g>
<g style="fill:#A90000; fill-opacity:0.0; 
stroke:#A90000; stroke-width:0.1524; stroke-opacity:1; 
stroke-linecap:round; stroke-linejoin:round;">
<g transform="rotate(-90.000000 22.1234 49.4030)">
<text x="22.1234" y="49.4030"
textLength="2.6222" font-size="1.6933" lengthAdjust="spacingAndGlyphs"
text-anchor="middle" opacity="0">12</text>
</g>
<g class="stroked-text"><desc>12</desc>
<path d="M21.9599 49.6448
L21.9599 50.3705
" />
<path d="M21.9599 50.0077
L20.6899 50.0077
" />
<path d="M20.6899 50.0077
L20.8714 50.1286
" />
<path d="M20.8714 50.1286
L20.9923 50.2496
" />
<path d="M20.9923 50.2496
L21.0528 50.3705
" />
<path d="M20.8109 49.1610
L20.7504 49.1006
" />
<path d="M20.7504 49.1006
L20.6899 48.9796
" />
<path d="M20.6899 48.9796
L20.6899 48.6772
" />
<path d="M20.6899 48.6772
L20.7504 48.5563
" />
<path d="M20.7504 48.5563
L20.8109 48.4958
" />
<path d="M20.8109 48.4958
L20.9318 48.4353
" />
<path d="M20.9318 48.4353
L21.0528 48.4353
" />
<path d="M21.0528 48.4353
L21.2342 48.4958
" />
<path d="M21.2342 48.4958
L21.9599 49.2215
" />
<path d="M21.9599 49.2215
L21.9599 48.4353
" />
</g></g>
<g style="fill:#840000; fill-opacity:0.0; 
stroke:#840000; stroke-width:0.1524; stroke-opacity:1; 
stroke-linecap:round; stroke-linejoin:round;">
<path d="M22.3774 11.9380
L22.3774 8.1280
" />
</g>
<g style="fill:#006464; fill-opacity:0.0; 
stroke:#006464; stroke-width:0.1524; stroke-opacity:1; 
stroke-linecap:round; stroke-linejoin:round;">
<g transform="rotate(-90.000000 22.3774 12.9540)">
<text x="22.3774" y="13.5890"
textLength="3.8318" font-size="1.6933" lengthAdjust="spacingAndGlyphs"
text-anchor="end" opacity="0">VCC</text>
</g>
<g class="stroked-text"><desc>VCC</desc>
<path d="M21.6869 16.5618
L22.9569 16.1385
" />
<path d="M22.9569 16.1385
L21.6869 15.7151
" />
<path d="M22.8360 14.5661
L22.8965 14.6265
" />
<path d="M22.8965 14.6265
L22.9569 14.8080
" />
<path d="M22.9569 14.8080
L22.9569 14.9289
" />
<path d="M22.9569 14.9289
L22.8965 15.1103
" />
<path d="M22.8965 15.1103
L22.7755 15.2313
" />
<path d="M22.7755 15.2313
L22.6545 15.2918
" />
<path d="M22.6545 15.2918
L22.4126 15.3522
" />
<path d="M22.4126 15.3522
L22.2312 15.3522
" />
<path d="M22.2312 15.3522
L21.9893 15.2918
" />
<path d="M21.9893 15.2918
L21.8684 15.2313
" />
<path d="M21.8684 15.2313
L21.7474 15.1103
" />
<path d="M21.7474 15.1103
L21.6869 14.9289
" />
<path d="M21.6869 14.9289
L21.6869 14.8080
" />
<path d="M21.6869 14.8080
L21.7474 14.6265
" />
<path d="M21.7474 14.6265
L21.8079 14.5661
" />
<path d="M22.8360 13.2961
L22.8965 13.3565
" />
<path d="M22.8965 13.3565
L22.9569 13.5380
" />
<path d="M22.9569 13.5380
L22.9569 13.6589
" />
<path d="M22.9569 13.6589
L22.8965 13.8403
" />
<path d="M22.8965 13.8403
L22.7755 13.9613
" />
<path d="M22.7755 13.9613
L22.6545 14.0218
" />
<path d="M22.6545 14.0218
L22.4126 14.0822
" />
<path d="M22.4126 14.0822
L22.2312 14.0822
" />
<path d="M22.2312 14.0822
L21.9893 14.0218
" />
<path d="M21.9893 14.0218
L21.8684 13.9613
" />
<path d="M21.8684 13.9613
L21.7474 13.8403
" />
<path d="M21.7474 13.8403
L21.6869 13.6589
" />
<path d="M21.6869 13.6589
L21.6869 13.5380
" />
<path d="M21.6869 13.5380
L21.7474 13.3565
" />
<path d="M21.7474 13.3565
L21.8079 13.2961
" />
</g></g>
<g style="fill:#A90000; fill-opacity:0.0; 
stroke:#A90000; stroke-width:0.1524; stroke-opacity:1; 
stroke-linecap:round; stroke-linejoin:round;">
<g transform="rotate(-90.000000 22.1234 10.0330)">
<text x="22.1234" y="10.0330"
textLength="2.6222" font-size="1.6933" lengthAdjust="spacingAndGlyphs"
text-anchor="middle" opacity="0">24</text>
</g>
<g class="stroked-text"><desc>24</desc>
<path d="M20.8109 11.0005
L20.7504 10.9401
" />
<path d="M20.7504 10.9401
L20.6899 10.8191
" />
<path d="M20.6899 10.8191
L20.6899 10.5167
" />
<path d="M20.6899 10.5167
L20.7504 10.3958
" />
<path d="M20.7504 10.3958
L20.8109 10.3353
" />
<path d="M20.8109 10.3353
L20.9318 10.2748
" />
<path d="M20.9318 10.2748
L21.0528 10.2748
" />
<path d="M21.0528 10.2748
L21.2342 10.3353
" />
<path d="M21.2342 10.3353
L21.9599 11.0610
" />
<path d="M21.9599 11.0610
L21.9599 10.2748
" />
<path d="M21.1133 9.1863
L21.9599 9.1863
" />
<path d="M20.6295 9.4887
L21.5366 9.7910
" />
<path d="M21.5366 9.7910
L21.5366 9.0049
" />
</g></g>
<g style="fill:#840000; fill-opacity:0.0; 
stroke:#840000; stroke-width:0.1524; stroke-opacity:1; 
stroke-linecap:round; stroke-linejoin:round;">
<path d="M13.4874 13.2080
L9.6774 13.2080
" />
</g>
<g style="fill:#006464; fill-opacity:0.0; 
stroke:#006464; stroke-width:0.1524; stroke-opacity:1; 
stroke-linecap:round; stroke-linejoin:round;">
<text x="14.5034" y="13.8430"
textLength="5.7066" font-size="1.6933" lengthAdjust="spacingAndGlyphs"
text-anchor="start" opacity="0">I/CLK</text>
<g class="stroked-text"><desc>I/CLK</desc>
<path d="M14.9059 13.7875
L14.9059 12.5175
" />
<path d="M16.4179 12.4571
L15.3293 14.0899
" />
<path d="M17.5669 13.6666
L17.5065 13.7271
" />
<path d="M17.5065 13.7271
L17.3250 13.7875
" />
<path d="M17.3250 13.7875
L17.2041 13.7875
" />
<path d="M17.2041 13.7875
L17.0227 13.7271
" />
<path d="M17.0227 13.7271
L16.9017 13.6061
" />
<path d="M16.9017 13.6061
L16.8412 13.4851
" />
<path d="M16.8412 13.4851
L16.7808 13.2432
" />
<path d="M16.7808 13.2432
L16.7808 13.0618
" />
<path d="M16.7808 13.0618
L16.8412 12.8199
" />
<path d="M16.8412 12.8199
L16.9017 12.6990
" />
<path d="M16.9017 12.6990
L17.0227 12.5780
" />
<path d="M17.0227 12.5780
L17.2041 12.5175
" />
<path d="M17.2041 12.5175
L17.3250 12.5175
" />
<path d="M17.3250 12.5175
L17.5065 12.5780
" />
<path d="M17.5065 12.5780
L17.5669 12.6385
" />
<path d="M18.7160 13.7875
L18.1112 13.7875
" />
<path d="M18.1112 13.7875
L18.1112 12.5175
" />
<path d="M19.1393 13.7875
L19.1393 12.5175
" />
<path d="M19.8650 13.7875
L19.3208 13.0618
" />
<path d="M19.8650 12.5175
L19.1393 13.2432
" />
</g></g>
<g style="fill:#A90000; fill-opacity:0.0; 
stroke:#A90000; stroke-width:0.1524; stroke-opacity:1; 
stroke-linecap:round; stroke-linejoin:round;">
<text x="11.5824" y="12.9540"
textLength="1.4127" font-size="1.6933" lengthAdjust="spacingAndGlyphs"
text-anchor="middle" opacity="0">1</text>
<g class="stroked-text"><desc>1</desc>
<path d="M11.9453 12.7905
L11.2196 12.7905
" />
<path d="M11.5824 12.7905
L11.5824 11.5205
" />
<path d="M11.5824 11.5205
L11.4615 11.7020
" />
<path d="M11.4615 11.7020
L11.3405 11.8229
" />
<path d="M11.3405 11.8229
L11.2196 11.8834
" />
</g></g>
<g style="fill:#840000; fill-opacity:0.0; 
stroke:#840000; stroke-width:0.1524; stroke-opacity:1; 
stroke-linecap:round; stroke-linejoin:round;">
<path d="M13.4874 36.0680
L9.6774 36.0680
" />
</g>
<g style="fill:#006464; fill-opacity:0.0; 
stroke:#006464; stroke-width:0.1524; stroke-opacity:1; 
stroke-linecap:round; stroke-linejoin:round;">
<text x="14.5034" y="36.7030"
textLength="0.8080" font-size="1.6933" lengthAdjust="spacingAndGlyphs"
text-anchor="start" opacity="0">I</text>
<g class="stroked-text"><desc>I</desc>
<path d="M14.9059 36.6475
L14.9059 35.3775
" />
</g></g>
<g style="fill:#A90000; fill-opacity:0.0; 
stroke:#A90000; stroke-width:0.1524; stroke-opacity:1; 
stroke-linecap:round; stroke-linejoin:round;">
<text x="11.5824" y="35.8140"
textLength="2.6222" font-size="1.6933" lengthAdjust="spacingAndGlyphs"
text-anchor="middle" opacity="0">10</text>
<g class="stroked-text"><desc>10</desc>
<path d="M11.3405 35.6505
L10.6148 35.6505
" />
<path d="M10.9776 35.6505
L10.9776 34.3805
" />
<path d="M10.9776 34.3805
L10.8567 34.5620
" />
<path d="M10.8567 34.5620
L10.7357 34.6829
" />
<path d="M10.7357 34.6829
L10.6148 34.7434
" />
<path d="M12.1266 34.3805
L12.2476 34.3805
" />
<path d="M12.2476 34.3805
L12.3685 34.4410
" />
<path d="M12.3685 34.4410
L12.4290 34.5015
" />
<path d="M12.4290 34.5015
L12.4895 34.6224
" />
<path d="M12.4895 34.6224
L12.5500 34.8643
" />
<path d="M12.5500 34.8643
L12.5500 35.1667
" />
<path d="M12.5500 35.1667
L12.4895 35.4086
" />
<path d="M12.4895 35.4086
L12.4290 35.5296
" />
<path d="M12.4290 35.5296
L12.3685 35.5901
" />
<path d="M12.3685 35.5901
L12.2476 35.6505
" />
<path d="M12.2476 35.6505
L12.1266 35.6505
" />
<path d="M12.1266 35.6505
L12.0057 35.5901
" />
<path d="M12.0057 35.5901
L11.9452 35.5296
" />
<path d="M11.9452 35.5296
L11.8847 35.4086
" />
<path d="M11.8847 35.4086
L11.8243 35.1667
" />
<path d="M11.8243 35.1667
L11.8243 34.8643
" />
<path d="M11.8243 34.8643
L11.8847 34.6224
" />
<path d="M11.8847 34.6224
L11.9452 34.5015
" />
<path d="M11.9452 34.5015
L12.0057 34.4410
" />
<path d="M12.0057 34.4410
L12.1266 34.3805
" />
</g></g>
<g style="fill:#840000; fill-opacity:0.0; 
stroke:#840000; stroke-width:0.1524; stroke-opacity:1; 
stroke-linecap:round; stroke-linejoin:round;">
<path d="M13.4874 38.6080
L9.6774 38.6080
" />
</g>
<g style="fill:#006464; fill-opacity:0.0; 
stroke:#006464; stroke-width:0.1524; stroke-opacity:1; 
stroke-linecap:round; stroke-linejoin:round;">
<text x="14.5034" y="39.2430"
textLength="0.8080" font-size="1.6933" lengthAdjust="spacingAndGlyphs"
text-anchor="start" opacity="0">I</text>
<g class="stroked-text"><desc>I</desc>
<path d="M14.9059 39.1875
L14.9059 37.9175
" />
</g></g>
<g style="fill:#A90000; fill-opacity:0.0; 
stroke:#A90000; stroke-width:0.1524; stroke-opacity:1; 
stroke-linecap:round; stroke-linejoin:round;">
<text x="11.5824" y="38.3540"
textLength="2.6222" font-size="1.6933" lengthAdjust="spacingAndGlyphs"
text-anchor="middle" opacity="0">11</text>
<g class="stroked-text"><desc>11</desc>
<path d="M11.3405 38.1905
L10.6148 38.1905
" />
<path d="M10.9776 38.1905
L10.9776 36.9205
" />
<path d="M10.9776 36.9205
L10.8567 37.1020
" />
<path d="M10.8567 37.1020
L10.7357 37.2229
" />
<path d="M10.7357 37.2229
L10.6148 37.2834
" />
<path d="M12.5500 38.1905
L11.8243 38.1905
" />
<path d="M12.1871 38.1905
L12.1871 36.9205
" />
<path d="M12.1871 36.9205
L12.0662 37.1020
" />
<path d="M12.0662 37.1020
L11.9452 37.2229
" />
<path d="M11.9452 37.2229
L11.8243 37.2834
" />
</g></g>
<g style="fill:#840000; fill-opacity:0.0; 
stroke:#840000; stroke-width:0.1524; stroke-opacity:1; 
stroke-linecap:round; stroke-linejoin:round;">
<path d="M13.4874 41.1480
L9.6774 41.1480
" />
</g>
<g style="fill:#006464; fill-opacity:0.0; 
stroke:#006464; stroke-width:0.1524; stroke-opacity:1; 
stroke-linecap:round; stroke-linejoin:round;">
<text x="14.5034" y="41.7830"
textLength="4.6180" font-size="1.6933" lengthAdjust="spacingAndGlyphs"
text-anchor="start" opacity="0">I/~{OE}</text>
<g class="stroked-text"><desc>I/~{OE}</desc>
<path d="M14.9059 41.7275
L14.9059 40.4575
" />
<path d="M16.4179 40.3971
L15.3293 42.0299
" />
<path d="M17.0831 40.4575
L17.3250 40.4575
" />
<path d="M17.3250 40.4575
L17.4460 40.5180
" />
<path d="M17.4460 40.5180
L17.5669 40.6390
" />
<path d="M17.5669 40.6390
L17.6274 40.8809
" />
<path d="M17.6274 40.8809
L17.6274 41.3042
" />
<path d="M17.6274 41.3042
L17.5669 41.5461
" />
<path d="M17.5669 41.5461
L17.4460 41.6671
" />
<path d="M17.4460 41.6671
L17.3250 41.7275
" />
<path d="M17.3250 41.7275
L17.0831 41.7275
" />
<path d="M17.0831 41.7275
L16.9622 41.6671
" />
<path d="M16.9622 41.6671
L16.8412 41.5461
" />
<path d="M16.8412 41.5461
L16.7808 41.3042
" />
<path d="M16.7808 41.3042
L16.7808 40.8809
" />
<path d="M16.7808 40.8809
L16.8412 40.6390
" />
<path d="M16.8412 40.6390
L16.9622 40.5180
" />
<path d="M16.9622 40.5180
L17.0831 40.4575
" />
<path d="M18.1717 41.0623
L18.5951 41.0623
" />
<path d="M18.7765 41.7275
L18.1717 41.7275
" />
<path d="M18.1717 41.7275
L18.1717 40.4575
" />
<path d="M18.1717 40.4575
L18.7765 40.4575
" />
<path d="M16.6659 40.1050
L18.8914 40.1050
" />
</g></g>
<g style="fill:#A90000; fill-opacity:0.0; 
stroke:#A90000; stroke-width:0.1524; stroke-opacity:1; 
stroke-linecap:round; stroke-linejoin:round;">
<text x="11.5824" y="40.8940"
textLength="2.6222" font-size="1.6933" lengthAdjust="spacingAndGlyphs"
text-anchor="middle" opacity="0">13</text>
<g class="stroked-text"><desc>13</desc>
<path d="M11.3405 40.7305
L10.6148 40.7305
" />
<path d="M10.9776 40.7305
L10.9776 39.4605
" />
<path d="M10.9776 39.4605
L10.8567 39.6420
" />
<path d="M10.8567 39.6420
L10.7357 39.7629
" />
<path d="M10.7357 39.7629
L10.6148 39.8234
" />
<path d="M11.7638 39.4605
L12.5500 39.4605
" />
<path d="M12.5500 39.4605
L12.1266 39.9443
" />
<path d="M12.1266 39.9443
L12.3081 39.9443
" />
<path d="M12.3081 39.9443
L12.4290 40.0048
" />
<path d="M12.4290 40.0048
L12.4895 40.0653
" />
<path d="M12.4895 40.0653
L12.5500 40.1862
" />
<path d="M12.5500 40.1862
L12.5500 40.4886
" />
<path d="M12.5500 40.4886
L12.4895 40.6096
" />
<path d="M12.4895 40.6096
L12.4290 40.6701
" />
<path d="M12.4290 40.6701
L12.3081 40.7305
" />
<path d="M12.3081 40.7305
L11.9452 40.7305
" />
<path d="M11.9452 40.7305
L11.8243 40.6701
" />
<path d="M11.8243 40.6701
L11.7638 40.6096
" />
</g></g>
<g style="fill:#840000; fill-opacity:0.0; 
stroke:#840000; stroke-width:0.1524; stroke-opacity:1; 
stroke-linecap:round; stroke-linejoin:round;">
<path d="M13.4874 43.6880
L9.6774 43.6880
" />
</g>
<g style="fill:#006464; fill-opacity:0.0; 
stroke:#006464; stroke-width:0.1524; stroke-opacity:1; 
stroke-linecap:round; stroke-linejoin:round;">
<text x="14.5034" y="44.3230"
textLength="0.8080" font-size="1.6933" lengthAdjust="spacingAndGlyphs"
text-anchor="start" opacity="0">I</text>
<g class="stroked-text"><desc>I</desc>
<path d="M14.9059 44.2675
L14.9059 42.9975
" />
</g></g>
<g style="fill:#A90000; fill-opacity:0.0; 
stroke:#A90000; stroke-width:0.1524; stroke-opacity:1; 
stroke-linecap:round; stroke-linejoin:round;">
<text x="11.5824" y="43.4340"
textLength="2.6222" font-size="1.6933" lengthAdjust="spacingAndGlyphs"
text-anchor="middle" opacity="0">14</text>
<g class="stroked-text"><desc>14</desc>
<path d="M11.3405 43.2705
L10.6148 43.2705
" />
<path d="M10.9776 43.2705
L10.9776 42.0005
" />
<path d="M10.9776 42.0005
L10.8567 42.1820
" />
<path d="M10.8567 42.1820
L10.7357 42.3029
" />
<path d="M10.7357 42.3029
L10.6148 42.3634
" />
<path d="M12.4290 42.4239
L12.4290 43.2705
" />
<path d="M12.1266 41.9401
L11.8243 42.8472
" />
<path d="M11.8243 42.8472
L12.6104 42.8472
" />
</g></g>
<g style="fill:#840000; fill-opacity:0.0; 
stroke:#840000; stroke-width:0.1524; stroke-opacity:1; 
stroke-linecap:round; stroke-linejoin:round;">
<path d="M31.2674 30.9880
L35.0774 30.9880
" />
</g>
<g style="fill:#006464; fill-opacity:0.0; 
stroke:#006464; stroke-width:0.1524; stroke-opacity:1; 
stroke-linecap:round; stroke-linejoin:round;">
<text x="30.2514" y="31.6230"
textLength="1.5337" font-size="1.6933" lengthAdjust="spacingAndGlyphs"
text-anchor="end" opacity="0">O</text>
<g class="stroked-text"><desc>O</desc>
<path d="M29.3649 30.2975
L29.6068 30.2975
" />
<path d="M29.6068 30.2975
L29.7278 30.3580
" />
<path d="M29.7278 30.3580
L29.8487 30.4790
" />
<path d="M29.8487 30.4790
L29.9092 30.7209
" />
<path d="M29.9092 30.7209
L29.9092 31.1442
" />
<path d="M29.9092 31.1442
L29.8487 31.3861
" />
<path d="M29.8487 31.3861
L29.7278 31.5071
" />
<path d="M29.7278 31.5071
L29.6068 31.5675
" />
<path d="M29.6068 31.5675
L29.3649 31.5675
" />
<path d="M29.3649 31.5675
L29.2440 31.5071
" />
<path d="M29.2440 31.5071
L29.1230 31.3861
" />
<path d="M29.1230 31.3861
L29.0626 31.1442
" />
<path d="M29.0626 31.1442
L29.0626 30.7209
" />
<path d="M29.0626 30.7209
L29.1230 30.4790
" />
<path d="M29.1230 30.4790
L29.2440 30.3580
" />
<path d="M29.2440 30.3580
L29.3649 30.2975
" />
</g></g>
<g style="fill:#A90000; fill-opacity:0.0; 
stroke:#A90000; stroke-width:0.1524; stroke-opacity:1; 
stroke-linecap:round; stroke-linejoin:round;">
<text x="33.1724" y="30.7340"
textLength="2.6222" font-size="1.6933" lengthAdjust="spacingAndGlyphs"
text-anchor="middle" opacity="0">15</text>
<g class="stroked-text"><desc>15</desc>
<path d="M32.9305 30.5705
L32.2048 30.5705
" />
<path d="M32.5676 30.5705
L32.5676 29.3005
" />
<path d="M32.5676 29.3005
L32.4467 29.4820
" />
<path d="M32.4467 29.4820
L32.3257 29.6029
" />
<path d="M32.3257 29.6029
L32.2048 29.6634
" />
<path d="M34.0795 29.3005
L33.4747 29.3005
" />
<path d="M33.4747 29.3005
L33.4143 29.9053
" />
<path d="M33.4143 29.9053
L33.4747 29.8448
" />
<path d="M33.4747 29.8448
L33.5957 29.7843
" />
<path d="M33.5957 29.7843
L33.8981 29.7843
" />
<path d="M33.8981 29.7843
L34.0190 29.8448
" />
<path d="M34.0190 29.8448
L34.0795 29.9053
" />
<path d="M34.0795 29.9053
L34.1400 30.0262
" />
<path d="M34.1400 30.0262
L34.1400 30.3286
" />
<path d="M34.1400 30.3286
L34.0795 30.4496
" />
<path d="M34.0795 30.4496
L34.0190 30.5101
" />
<path d="M34.0190 30.5101
L33.8981 30.5705
" />
<path d="M33.8981 30.5705
L33.5957 30.5705
" />
<path d="M33.5957 30.5705
L33.4747 30.5101
" />
<path d="M33.4747 30.5101
L33.4143 30.4496
" />
</g></g>
<g style="fill:#840000; fill-opacity:0.0; 
stroke:#840000; stroke-width:0.1524; stroke-opacity:1; 
stroke-linecap:round; stroke-linejoin:round;">
<path d="M31.2674 28.4480
L35.0774 28.4480
" />
</g>
<g style="fill:#006464; fill-opacity:0.0; 
stroke:#006464; stroke-width:0.1524; stroke-opacity:1; 
stroke-linecap:round; stroke-linejoin:round;">
<text x="30.2514" y="29.0830"
textLength="1.5337" font-size="1.6933" lengthAdjust="spacingAndGlyphs"
text-anchor="end" opacity="0">O</text>
<g class="stroked-text"><desc>O</desc>
<path d="M29.3649 27.7575
L29.6068 27.7575
" />
<path d="M29.6068 27.7575
L29.7278 27.8180
" />
<path d="M29.7278 27.8180
L29.8487 27.9390
" />
<path d="M29.8487 27.9390
L29.9092 28.1809
" />
<path d="M29.9092 28.1809
L29.9092 28.6042
" />
<path d="M29.9092 28.6042
L29.8487 28.8461
" />
<path d="M29.8487 28.8461
L29.7278 28.9671
" />
<path d="M29.7278 28.9671
L29.6068 29.0275
" />
<path d="M29.6068 29.0275
L29.3649 29.0275
" />
<path d="M29.3649 29.0275
L29.2440 28.9671
" />
<path d="M29.2440 28.9671
L29.1230 28.8461
" />
<path d="M29.1230 28.8461
L29.0626 28.6042
" />
<path d="M29.0626 28.6042
L29.0626 28.1809
" />
<path d="M29.0626 28.1809
L29.1230 27.9390
" />
<path d="M29.1230 27.9390
L29.2440 27.8180
" />
<path d="M29.2440 27.8180
L29.3649 27.7575
" />
</g></g>
<g style="fill:#A90000; fill-opacity:0.0; 
stroke:#A90000; stroke-width:0.1524; stroke-opacity:1; 
stroke-linecap:round; stroke-linejoin:round;">
<text x="33.1724" y="28.1940"
textLength="2.6222" font-size="1.6933" lengthAdjust="spacingAndGlyphs"
text-anchor="middle" opacity="0">16</text>
<g class="stroked-text"><desc>16</desc>
<path d="M32.9305 28.0305
L32.2048 28.0305
" />
<path d="M32.5676 28.0305
L32.5676 26.7605
" />
<path d="M32.5676 26.7605
L32.4467 26.9420
" />
<path d="M32.4467 26.9420
L32.3257 27.0629
" />
<path d="M32.3257 27.0629
L32.2048 27.1234
" />
<path d="M34.0190 26.7605
L33.7771 26.7605
" />
<path d="M33.7771 26.7605
L33.6562 26.8210
" />
<path d="M33.6562 26.8210
L33.5957 26.8815
" />
<path d="M33.5957 26.8815
L33.4747 27.0629
" />
<path d="M33.4747 27.0629
L33.4143 27.3048
" />
<path d="M33.4143 27.3048
L33.4143 27.7886
" />
<path d="M33.4143 27.7886
L33.4747 27.9096
" />
<path d="M33.4747 27.9096
L33.5352 27.9701
" />
<path d="M33.5352 27.9701
L33.6562 28.0305
" />
<path d="M33.6562 28.0305
L33.8981 28.0305
" />
<path d="M33.8981 28.0305
L34.0190 27.9701
" />
<path d="M34.0190 27.9701
L34.0795 27.9096
" />
<path d="M34.0795 27.9096
L34.1400 27.7886
" />
<path d="M34.1400 27.7886
L34.1400 27.4862
" />
<path d="M34.1400 27.4862
L34.0795 27.3653
" />
<path d="M34.0795 27.3653
L34.0190 27.3048
" />
<path d="M34.0190 27.3048
L33.8981 27.2443
" />
<path d="M33.8981 27.2443
L33.6562 27.2443
" />
<path d="M33.6562 27.2443
L33.5352 27.3048
" />
<path d="M33.5352 27.3048
L33.4747 27.3653
" />
<path d="M33.4747 27.3653
L33.4143 27.4862
" />
</g></g>
<g style="fill:#840000; fill-opacity:0.0; 
stroke:#840000; stroke-width:0.1524; stroke-opacity:1; 
stroke-linecap:round; stroke-linejoin:round;">
<path d="M31.2674 25.9080
L35.0774 25.9080
" />
</g>
<g style="fill:#006464; fill-opacity:0.0; 
stroke:#006464; stroke-width:0.1524; stroke-opacity:1; 
stroke-linecap:round; stroke-linejoin:round;">
<text x="30.2514" y="26.5430"
textLength="1.5337" font-size="1.6933" lengthAdjust="spacingAndGlyphs"
text-anchor="end" opacity="0">O</text>
<g class="stroked-text"><desc>O</desc>
<path d="M29.3649 25.2175
L29.6068 25.2175
" />
<path d="M29.6068 25.2175
L29.7278 25.2780
" />
<path d="M29.7278 25.2780
L29.8487 25.3990
" />
<path d="M29.8487 25.3990
L29.9092 25.6409
" />
<path d="M29.9092 25.6409
L29.9092 26.0642
" />
<path d="M29.9092 26.0642
L29.8487 26.3061
" />
<path d="M29.8487 26.3061
L29.7278 26.4271
" />
<path d="M29.7278 26.4271
L29.6068 26.4875
" />
<path d="M29.6068 26.4875
L29.3649 26.4875
" />
<path d="M29.3649 26.4875
L29.2440 26.4271
" />
<path d="M29.2440 26.4271
L29.1230 26.3061
" />
<path d="M29.1230 26.3061
L29.0626 26.0642
" />
<path d="M29.0626 26.0642
L29.0626 25.6409
" />
<path d="M29.0626 25.6409
L29.1230 25.3990
" />
<path d="M29.1230 25.3990
L29.2440 25.2780
" />
<path d="M29.2440 25.2780
L29.3649 25.2175
" />
</g></g>
<g style="fill:#A90000; fill-opacity:0.0; 
stroke:#A90000; stroke-width:0.1524; stroke-opacity:1; 
stroke-linecap:round; stroke-linejoin:round;">
<text x="33.1724" y="25.6540"
textLength="2.6222" font-size="1.6933" lengthAdjust="spacingAndGlyphs"
text-anchor="middle" opacity="0">17</text>
<g class="stroked-text"><desc>17</desc>
<path d="M32.9305 25.4905
L32.2048 25.4905
" />
<path d="M32.5676 25.4905
L32.5676 24.2205
" />
<path d="M32.5676 24.2205
L32.4467 24.4020
" />
<path d="M32.4467 24.4020
L32.3257 24.5229
" />
<path d="M32.3257 24.5229
L32.2048 24.5834
" />
<path d="M33.3538 24.2205
L34.2004 24.2205
" />
<path d="M34.2004 24.2205
L33.6562 25.4905
" />
</g></g>
<g style="fill:#840000; fill-opacity:0.0; 
stroke:#840000; stroke-width:0.1524; stroke-opacity:1; 
stroke-linecap:round; stroke-linejoin:round;">
<path d="M31.2674 23.3680
L35.0774 23.3680
" />
</g>
<g style="fill:#006464; fill-opacity:0.0; 
stroke:#006464; stroke-width:0.1524; stroke-opacity:1; 
stroke-linecap:round; stroke-linejoin:round;">
<text x="30.2514" y="24.0030"
textLength="1.5337" font-size="1.6933" lengthAdjust="spacingAndGlyphs"
text-anchor="end" opacity="0">O</text>
<g class="stroked-text"><desc>O</desc>
<path d="M29.3649 22.6775
L29.6068 22.6775
" />
<path d="M29.6068 22.6775
L29.7278 22.7380
" />
<path d="M29.7278 22.7380
L29.8487 22.8590
" />
<path d="M29.8487 22.8590
L29.9092 23.1009
" />
<path d="M29.9092 23.1009
L29.9092 23.5242
" />
<path d="M29.9092 23.5242
L29.8487 23.7661
" />
<path d="M29.8487 23.7661
L29.7278 23.8871
" />
<path d="M29.7278 23.8871
L29.6068 23.9475
" />
<path d="M29.6068 23.9475
L29.3649 23.9475
" />
<path d="M29.3649 23.9475
L29.2440 23.8871
" />
<path d="M29.2440 23.8871
L29.1230 23.7661
" />
<path d="M29.1230 23.7661
L29.0626 23.5242
" />
<path d="M29.0626 23.5242
L29.0626 23.1009
" />
<path d="M29.0626 23.1009
L29.1230 22.8590
" />
<path d="M29.1230 22.8590
L29.2440 22.7380
" />
<path d="M29.2440 22.7380
L29.3649 22.6775
" />
</g></g>
<g style="fill:#A90000; fill-opacity:0.0; 
stroke:#A90000; stroke-width:0.1524; stroke-opacity:1; 
stroke-linecap:round; stroke-linejoin:round;">
<text x="33.1724" y="23.1140"
textLength="2.6222" font-size="1.6933" lengthAdjust="spacingAndGlyphs"
text-anchor="middle" opacity="0">18</text>
<g class="stroked-text"><desc>18</desc>
<path d="M32.9305 22.9505
L32.2048 22.9505
" />
<path d="M32.5676 22.9505
L32.5676 21.6805
" />
<path d="M32.5676 21.6805
L32.4467 21.8620
" />
<path d="M32.4467 21.8620
L32.3257 21.9829
" />
<path d="M32.3257 21.9829
L32.2048 22.0434
" />
<path d="M33.6562 22.2248
L33.5352 22.1643
" />
<path d="M33.5352 22.1643
L33.4747 22.1039
" />
<path d="M33.4747 22.1039
L33.4143 21.9829
" />
<path d="M33.4143 21.9829
L33.4143 21.9224
" />
<path d="M33.4143 21.9224
L33.4747 21.8015
" />
<path d="M33.4747 21.8015
L33.5352 21.7410
" />
<path d="M33.5352 21.7410
L33.6562 21.6805
" />
<path d="M33.6562 21.6805
L33.8981 21.6805
" />
<path d="M33.8981 21.6805
L34.0190 21.7410
" />
<path d="M34.0190 21.7410
L34.0795 21.8015
" />
<path d="M34.0795 21.8015
L34.1400 21.9224
" />
<path d="M34.1400 21.9224
L34.1400 21.9829
" />
<path d="M34.1400 21.9829
L34.0795 22.1039
" />
<path d="M34.0795 22.1039
L34.0190 22.1643
" />
<path d="M34.0190 22.1643
L33.8981 22.2248
" />
<path d="M33.8981 22.2248
L33.6562 22.2248
" />
<path d="M33.6562 22.2248
L33.5352 22.2853
" />
<path d="M33.5352 22.2853
L33.4747 22.3458
" />
<path d="M33.4747 22.3458
L33.4143 22.4667
" />
<path d="M33.4143 22.4667
L33.4143 22.7086
" />
<path d="M33.4143 22.7086
L33.4747 22.8296
" />
<path d="M33.4747 22.8296
L33.5352 22.8901
" />
<path d="M33.5352 22.8901
L33.6562 22.9505
" />
<path d="M33.6562 22.9505
L33.8981 22.9505
" />
<path d="M33.8981 22.9505
L34.0190 22.8901
" />
<path d="M34.0190 22.8901
L34.0795 22.8296
" />
<path d="M34.0795 22.8296
L34.1400 22.7086
" />
<path d="M34.1400 22.7086
L34.1400 22.4667
" />
<path d="M34.1400 22.4667
L34.0795 22.3458
" />
<path d="M34.0795 22.3458
L34.0190 22.2853
" />
<path d="M34.0190 22.2853
L33.8981 22.2248
" />
</g></g>
<g style="fill:#840000; fill-opacity:0.0; 
stroke:#840000; stroke-width:0.1524; stroke-opacity:1; 
stroke-linecap:round; stroke-linejoin:round;">
<path d="M31.2674 20.8280
L35.0774 20.8280
" />
</g>
<g style="fill:#006464; fill-opacity:0.0; 
stroke:#006464; stroke-width:0.1524; stroke-opacity:1; 
stroke-linecap:round; stroke-linejoin:round;">
<text x="30.2514" y="21.4630"
textLength="1.5337" font-size="1.6933" lengthAdjust="spacingAndGlyphs"
text-anchor="end" opacity="0">O</text>
<g class="stroked-text"><desc>O</desc>
<path d="M29.3649 20.1375
L29.6068 20.1375
" />
<path d="M29.6068 20.1375
L29.7278 20.1980
" />
<path d="M29.7278 20.1980
L29.8487 20.3190
" />
<path d="M29.8487 20.3190
L29.9092 20.5609
" />
<path d="M29.9092 20.5609
L29.9092 20.9842
" />
<path d="M29.9092 20.9842
L29.8487 21.2261
" />
<path d="M29.8487 21.2261
L29.7278 21.3471
" />
<path d="M29.7278 21.3471
L29.6068 21.4075
" />
<path d="M29.6068 21.4075
L29.3649 21.4075
" />
<path d="M29.3649 21.4075
L29.2440 21.3471
" />
<path d="M29.2440 21.3471
L29.1230 21.2261
" />
<path d="M29.1230 21.2261
L29.0626 20.9842
" />
<path d="M29.0626 20.9842
L29.0626 20.5609
" />
<path d="M29.0626 20.5609
L29.1230 20.3190
" />
<path d="M29.1230 20.3190
L29.2440 20.1980
" />
<path d="M29.2440 20.1980
L29.3649 20.1375
" />
</g></g>
<g style="fill:#A90000; fill-opacity:0.0; 
stroke:#A90000; stroke-width:0.1524; stroke-opacity:1; 
stroke-linecap:round; stroke-linejoin:round;">
<text x="33.1724" y="20.5740"
textLength="2.6222" font-size="1.6933" lengthAdjust="spacingAndGlyphs"
text-anchor="middle" opacity="0">19</text>
<g class="stroked-text"><desc>19</desc>
<path d="M32.9305 20.4105
L32.2048 20.4105
" />
<path d="M32.5676 20.4105
L32.5676 19.1405
" />
<path d="M32.5676 19.1405
L32.4467 19.3220
" />
<path d="M32.4467 19.3220
L32.3257 19.4429
" />
<path d="M32.3257 19.4429
L32.2048 19.5034
" />
<path d="M33.5352 20.4105
L33.7771 20.4105
" />
<path d="M33.7771 20.4105
L33.8981 20.3501
" />
<path d="M33.8981 20.3501
L33.9585 20.2896
" />
<path d="M33.9585 20.2896
L34.0795 20.1081
" />
<path d="M34.0795 20.1081
L34.1400 19.8662
" />
<path d="M34.1400 19.8662
L34.1400 19.3824
" />
<path d="M34.1400 19.3824
L34.0795 19.2615
" />
<path d="M34.0795 19.2615
L34.0190 19.2010
" />
<path d="M34.0190 19.2010
L33.8981 19.1405
" />
<path d="M33.8981 19.1405
L33.6562 19.1405
" />
<path d="M33.6562 19.1405
L33.5352 19.2010
" />
<path d="M33.5352 19.2010
L33.4747 19.2615
" />
<path d="M33.4747 19.2615
L33.4143 19.3824
" />
<path d="M33.4143 19.3824
L33.4143 19.6848
" />
<path d="M33.4143 19.6848
L33.4747 19.8058
" />
<path d="M33.4747 19.8058
L33.5352 19.8662
" />
<path d="M33.5352 19.8662
L33.6562 19.9267
" />
<path d="M33.6562 19.9267
L33.8981 19.9267
" />
<path d="M33.8981 19.9267
L34.0190 19.8662
" />
<path d="M34.0190 19.8662
L34.0795 19.8058
" />
<path d="M34.0795 19.8058
L34.1400 19.6848
" />
</g></g>
<g style="fill:#840000; fill-opacity:0.0; 
stroke:#840000; stroke-width:0.1524; stroke-opacity:1; 
stroke-linecap:round; stroke-linejoin:round;">
<path d="M13.4874 15.7480
L9.6774 15.7480
" />
</g>
<g style="fill:#006464; fill-opacity:0.0; 
stroke:#006464; stroke-width:0.1524; stroke-opacity:1; 
stroke-linecap:round; stroke-linejoin:round;">
<text x="14.5034" y="16.3830"
textLength="0.8080" font-size="1.6933" lengthAdjust="spacingAndGlyphs"
text-anchor="start" opacity="0">I</text>
<g class="stroked-text"><desc>I</desc>
<path d="M14.9059 16.3275
L14.9059 15.0575
" />
</g></g>
<g style="fill:#A90000; fill-opacity:0.0; 
stroke:#A90000; stroke-width:0.1524; stroke-opacity:1; 
stroke-linecap:round; stroke-linejoin:round;">
<text x="11.5824" y="15.4940"
textLength="1.4127" font-size="1.6933" lengthAdjust="spacingAndGlyphs"
text-anchor="middle" opacity="0">2</text>
<g class="stroked-text"><desc>2</desc>
<path d="M11.2196 14.1815
L11.2800 14.1210
" />
<path d="M11.2800 14.1210
L11.4010 14.0605
" />
<path d="M11.4010 14.0605
L11.7034 14.0605
" />
<path d="M11.7034 14.0605
L11.8243 14.1210
" />
<path d="M11.8243 14.1210
L11.8848 14.1815
" />
<path d="M11.8848 14.1815
L11.9453 14.3024
" />
<path d="M11.9453 14.3024
L11.9453 14.4234
" />
<path d="M11.9453 14.4234
L11.8848 14.6048
" />
<path d="M11.8848 14.6048
L11.1591 15.3305
" />
<path d="M11.1591 15.3305
L11.9453 15.3305
" />
</g></g>
<g style="fill:#840000; fill-opacity:0.0; 
stroke:#840000; stroke-width:0.1524; stroke-opacity:1; 
stroke-linecap:round; stroke-linejoin:round;">
<path d="M31.2674 18.2880
L35.0774 18.2880
" />
</g>
<g style="fill:#006464; fill-opacity:0.0; 
stroke:#006464; stroke-width:0.1524; stroke-opacity:1; 
stroke-linecap:round; stroke-linejoin:round;">
<text x="30.2514" y="18.9230"
textLength="1.5337" font-size="1.6933" lengthAdjust="spacingAndGlyphs"
text-anchor="end" opacity="0">O</text>
<g class="stroked-text"><desc>O</desc>
<path d="M29.3649 17.5975
L29.6068 17.5975
" />
<path d="M29.6068 17.5975
L29.7278 17.6580
" />
<path d="M29.7278 17.6580
L29.8487 17.7790
" />
<path d="M29.8487 17.7790
L29.9092 18.0209
" />
<path d="M29.9092 18.0209
L29.9092 18.4442
" />
<path d="M29.9092 18.4442
L29.8487 18.6861
" />
<path d="M29.8487 18.6861
L29.7278 18.8071
" />
<path d="M29.7278 18.8071
L29.6068 18.8675
" />
<path d="M29.6068 18.8675
L29.3649 18.8675
" />
<path d="M29.3649 18.8675
L29.2440 18.8071
" />
<path d="M29.2440 18.8071
L29.1230 18.6861
" />
<path d="M29.1230 18.6861
L29.0626 18.4442
" />
<path d="M29.0626 18.4442
L29.0626 18.0209
" />
<path d="M29.0626 18.0209
L29.1230 17.7790
" />
<path d="M29.1230 17.7790
L29.2440 17.6580
" />
<path d="M29.2440 17.6580
L29.3649 17.5975
" />
</g></g>
<g style="fill:#A90000; fill-opacity:0.0; 
stroke:#A90000; stroke-width:0.1524; stroke-opacity:1; 
stroke-linecap:round; stroke-linejoin:round;">
<text x="33.1724" y="18.0340"
textLength="2.6222" font-size="1.6933" lengthAdjust="spacingAndGlyphs"
text-anchor="middle" opacity="0">20</text>
<g class="stroked-text"><desc>20</desc>
<path d="M32.2048 16.7215
L32.2652 16.6610
" />
<path d="M32.2652 16.6610
L32.3862 16.6005
" />
<path d="M32.3862 16.6005
L32.6886 16.6005
" />
<path d="M32.6886 16.6005
L32.8095 16.6610
" />
<path d="M32.8095 16.6610
L32.8700 16.7215
" />
<path d="M32.8700 16.7215
L32.9305 16.8424
" />
<path d="M32.9305 16.8424
L32.9305 16.9634
" />
<path d="M32.9305 16.9634
L32.8700 17.1448
" />
<path d="M32.8700 17.1448
L32.1443 17.8705
" />
<path d="M32.1443 17.8705
L32.9305 17.8705
" />
<path d="M33.7166 16.6005
L33.8376 16.6005
" />
<path d="M33.8376 16.6005
L33.9585 16.6610
" />
<path d="M33.9585 16.6610
L34.0190 16.7215
" />
<path d="M34.0190 16.7215
L34.0795 16.8424
" />
<path d="M34.0795 16.8424
L34.1400 17.0843
" />
<path d="M34.1400 17.0843
L34.1400 17.3867
" />
<path d="M34.1400 17.3867
L34.0795 17.6286
" />
<path d="M34.0795 17.6286
L34.0190 17.7496
" />
<path d="M34.0190 17.7496
L33.9585 17.8101
" />
<path d="M33.9585 17.8101
L33.8376 17.8705
" />
<path d="M33.8376 17.8705
L33.7166 17.8705
" />
<path d="M33.7166 17.8705
L33.5957 17.8101
" />
<path d="M33.5957 17.8101
L33.5352 17.7496
" />
<path d="M33.5352 17.7496
L33.4747 17.6286
" />
<path d="M33.4747 17.6286
L33.4143 17.3867
" />
<path d="M33.4143 17.3867
L33.4143 17.0843
" />
<path d="M33.4143 17.0843
L33.4747 16.8424
" />
<path d="M33.4747 16.8424
L33.5352 16.7215
" />
<path d="M33.5352 16.7215
L33.5957 16.6610
" />
<path d="M33.5957 16.6610
L33.7166 16.6005
" />
</g></g>
<g style="fill:#840000; fill-opacity:0.0; 
stroke:#840000; stroke-width:0.1524; stroke-opacity:1; 
stroke-linecap:round; stroke-linejoin:round;">
<path d="M31.2674 15.7480
L35.0774 15.7480
" />
</g>
<g style="fill:#006464; fill-opacity:0.0; 
stroke:#006464; stroke-width:0.1524; stroke-opacity:1; 
stroke-linecap:round; stroke-linejoin:round;">
<text x="30.2514" y="16.3830"
textLength="1.5337" font-size="1.6933" lengthAdjust="spacingAndGlyphs"
text-anchor="end" opacity="0">O</text>
<g class="stroked-text"><desc>O</desc>
<path d="M29.3649 15.0575
L29.6068 15.0575
" />
<path d="M29.6068 15.0575
L29.7278 15.1180
" />
<path d="M29.7278 15.1180
L29.8487 15.2390
" />
<path d="M29.8487 15.2390
L29.9092 15.4809
" />
<path d="M29.9092 15.4809
L29.9092 15.9042
" />
<path d="M29.9092 15.9042
L29.8487 16.1461
" />
<path d="M29.8487 16.1461
L29.7278 16.2671
" />
<path d="M29.7278 16.2671
L29.6068 16.3275
" />
<path d="M29.6068 16.3275
L29.3649 16.3275
" />
<path d="M29.3649 16.3275
L29.2440 16.2671
" />
<path d="M29.2440 16.2671
L29.1230 16.1461
" />
<path d="M29.1230 16.1461
L29.0626 15.9042
" />
<path d="M29.0626 15.9042
L29.0626 15.4809
" />
<path d="M29.0626 15.4809
L29.1230 15.2390
" />
<path d="M29.1230 15.2390
L29.2440 15.1180
" />
<path d="M29.2440 15.1180
L29.3649 15.0575
" />
</g></g>
<g style="fill:#A90000; fill-opacity:0.0; 
stroke:#A90000; stroke-width:0.1524; stroke-opacity:1; 
stroke-linecap:round; stroke-linejoin:round;">
<text x="33.1724" y="15.4940"
textLength="2.6222" font-size="1.6933" lengthAdjust="spacingAndGlyphs"
text-anchor="middle" opacity="0">21</text>
<g class="stroked-text"><desc>21</desc>
<path d="M32.2048 14.1815
L32.2652 14.1210
" />
<path d="M32.2652 14.1210
L32.3862 14.0605
" />
<path d="M32.3862 14.0605
L32.6886 14.0605
" />
<path d="M32.6886 14.0605
L32.8095 14.1210
" />
<path d="M32.8095 14.1210
L32.8700 14.1815
" />
<path d="M32.8700 14.1815
L32.9305 14.3024
" />
<path d="M32.9305 14.3024
L32.9305 14.4234
" />
<path d="M32.9305 14.4234
L32.8700 14.6048
" />
<path d="M32.8700 14.6048
L32.1443 15.3305
" />
<path d="M32.1443 15.3305
L32.9305 15.3305
" />
<path d="M34.1400 15.3305
L33.4143 15.3305
" />
<path d="M33.7771 15.3305
L33.7771 14.0605
" />
<path d="M33.7771 14.0605
L33.6562 14.2420
" />
<path d="M33.6562 14.2420
L33.5352 14.3629
" />
<path d="M33.5352 14.3629
L33.4143 14.4234
" />
</g></g>
<g style="fill:#840000; fill-opacity:0.0; 
stroke:#840000; stroke-width:0.1524; stroke-opacity:1; 
stroke-linecap:round; stroke-linejoin:round;">
<path d="M31.2674 13.2080
L35.0774 13.2080
" />
</g>
<g style="fill:#006464; fill-opacity:0.0; 
stroke:#006464; stroke-width:0.1524; stroke-opacity:1; 
stroke-linecap:round; stroke-linejoin:round;">
<text x="30.2514" y="13.8430"
textLength="1.5337" font-size="1.6933" lengthAdjust="spacingAndGlyphs"
text-anchor="end" opacity="0">O</text>
<g class="stroked-text"><desc>O</desc>
<path d="M29.3649 12.5175
L29.6068 12.5175
" />
<path d="M29.6068 12.5175
L29.7278 12.5780
" />
<path d="M29.7278 12.5780
L29.8487 12.6990
" />
<path d="M29.8487 12.6990
L29.9092 12.9409
" />
<path d="M29.9092 12.9409
L29.9092 13.3642
" />
<path d="M29.9092 13.3642
L29.8487 13.6061
" />
<path d="M29.8487 13.6061
L29.7278 13.7271
" />
<path d="M29.7278 13.7271
L29.6068 13.7875
" />
<path d="M29.6068 13.7875
L29.3649 13.7875
" />
<path d="M29.3649 13.7875
L29.2440 13.7271
" />
<path d="M29.2440 13.7271
L29.1230 13.6061
" />
<path d="M29.1230 13.6061
L29.0626 13.3642
" />
<path d="M29.0626 13.3642
L29.0626 12.9409
" />
<path d="M29.0626 12.9409
L29.1230 12.6990
" />
<path d="M29.1230 12.6990
L29.2440 12.5780
" />
<path d="M29.2440 12.5780
L29.3649 12.5175
" />
</g></g>
<g style="fill:#A90000; fill-opacity:0.0; 
stroke:#A90000; stroke-width:0.1524; stroke-opacity:1; 
stroke-linecap:round; stroke-linejoin:round;">
<text x="33.1724" y="12.9540"
textLength="2.6222" font-size="1.6933" lengthAdjust="spacingAndGlyphs"
text-anchor="middle" opacity="0">22</text>
<g class="stroked-text"><desc>22</desc>
<path d="M32.2048 11.6415
L32.2652 11.5810
" />
<path d="M32.2652 11.5810
L32.3862 11.5205
" />
<path d="M32.3862 11.5205
L32.6886 11.5205
" />
<path d="M32.6886 11.5205
L32.8095 11.5810
" />
<path d="M32.8095 11.5810
L32.8700 11.6415
" />
<path d="M32.8700 11.6415
L32.9305 11.7624
" />
<path d="M32.9305 11.7624
L32.9305 11.8834
" />
<path d="M32.9305 11.8834
L32.8700 12.0648
" />
<path d="M32.8700 12.0648
L32.1443 12.7905
" />
<path d="M32.1443 12.7905
L32.9305 12.7905
" />
<path d="M33.4143 11.6415
L33.4747 11.5810
" />
<path d="M33.4747 11.5810
L33.5957 11.5205
" />
<path d="M33.5957 11.5205
L33.8981 11.5205
" />
<path d="M33.8981 11.5205
L34.0190 11.5810
" />
<path d="M34.0190 11.5810
L34.0795 11.6415
" />
<path d="M34.0795 11.6415
L34.1400 11.7624
" />
<path d="M34.1400 11.7624
L34.1400 11.8834
" />
<path d="M34.1400 11.8834
L34.0795 12.0648
" />
<path d="M34.0795 12.0648
L33.3538 12.7905
" />
<path d="M33.3538 12.7905
L34.1400 12.7905
" />
</g></g>
<g style="fill:#840000; fill-opacity:0.0; 
stroke:#840000; stroke-width:0.1524; stroke-opacity:1; 
stroke-linecap:round; stroke-linejoin:round;">
<path d="M13.4874 46.2280
L9.6774 46.2280
" />
</g>
<g style="fill:#006464; fill-opacity:0.0; 
stroke:#006464; stroke-width:0.1524; stroke-opacity:1; 
stroke-linecap:round; stroke-linejoin:round;">
<text x="14.5034" y="46.8630"
textLength="0.8080" font-size="1.6933" lengthAdjust="spacingAndGlyphs"
text-anchor="start" opacity="0">I</text>
<g class="stroked-text"><desc>I</desc>
<path d="M14.9059 46.8075
L14.9059 45.5375
" />
</g></g>
<g style="fill:#A90000; fill-opacity:0.0; 
stroke:#A90000; stroke-width:0.1524; stroke-opacity:1; 
stroke-linecap:round; stroke-linejoin:round;">
<text x="11.5824" y="45.9740"
textLength="2.6222" font-size="1.6933" lengthAdjust="spacingAndGlyphs"
text-anchor="middle" opacity="0">23</text>
<g class="stroked-text"><desc>23</desc>
<path d="M10.6148 44.6615
L10.6752 44.6010
" />
<path d="M10.6752 44.6010
L10.7962 44.5405
" />
<path d="M10.7962 44.5405
L11.0986 44.5405
" />
<path d="M11.0986 44.5405
L11.2195 44.6010
" />
<path d="M11.2195 44.6010
L11.2800 44.6615
" />
<path d="M11.2800 44.6615
L11.3405 44.7824
" />
<path d="M11.3405 44.7824
L11.3405 44.9034
" />
<path d="M11.3405 44.9034
L11.2800 45.0848
" />
<path d="M11.2800 45.0848
L10.5543 45.8105
" />
<path d="M10.5543 45.8105
L11.3405 45.8105
" />
<path d="M11.7638 44.5405
L12.5500 44.5405
" />
<path d="M12.5500 44.5405
L12.1266 45.0243
" />
<path d="M12.1266 45.0243
L12.3081 45.0243
" />
<path d="M12.3081 45.0243
L12.4290 45.0848
" />
<path d="M12.4290 45.0848
L12.4895 45.1453
" />
<path d="M12.4895 45.1453
L12.5500 45.2662
" />
<path d="M12.5500 45.2662
L12.5500 45.5686
" />
<path d="M12.5500 45.5686
L12.4895 45.6896
" />
<path d="M12.4895 45.6896
L12.4290 45.7501
" />
<path d="M12.4290 45.7501
L12.3081 45.8105
" />
<path d="M12.3081 45.8105
L11.9452 45.8105
" />
<path d="M11.9452 45.8105
L11.8243 45.7501
" />
<path d="M11.8243 45.7501
L11.7638 45.6896
" />
</g></g>
<g style="fill:#840000; fill-opacity:0.0; 
stroke:#840000; stroke-width:0.1524; stroke-opacity:1; 
stroke-linecap:round; stroke-linejoin:round;">
<path d="M13.4874 18.2880
L9.6774 18.2880
" />
</g>
<g style="fill:#006464; fill-opacity:0.0; 
stroke:#006464; stroke-width:0.1524; stroke-opacity:1; 
stroke-linecap:round; stroke-linejoin:round;">
<text x="14.5034" y="18.9230"
textLength="0.8080" font-size="1.6933" lengthAdjust="spacingAndGlyphs"
text-anchor="start" opacity="0">I</text>
<g class="stroked-text"><desc>I</desc>
<path d="M14.9059 18.8675
L14.9059 17.5975
" />
</g></g>
<g style="fill:#A90000; fill-opacity:0.0; 
stroke:#A90000; stroke-width:0.1524; stroke-opacity:1; 
stroke-linecap:round; stroke-linejoin:round;">
<text x="11.5824" y="18.0340"
textLength="1.4127" font-size="1.6933" lengthAdjust="spacingAndGlyphs"
text-anchor="middle" opacity="0">3</text>
<g class="stroked-text"><desc>3</desc>
<path d="M11.1591 16.6005
L11.9453 16.6005
" />
<path d="M11.9453 16.6005
L11.5219 17.0843
" />
<path d="M11.5219 17.0843
L11.7034 17.0843
" />
<path d="M11.7034 17.0843
L11.8243 17.1448
" />
<path d="M11.8243 17.1448
L11.8848 17.2053
" />
<path d="M11.8848 17.2053
L11.9453 17.3262
" />
<path d="M11.9453 17.3262
L11.9453 17.6286
" />
<path d="M11.9453 17.6286
L11.8848 17.7496
" />
<path d="M11.8848 17.7496
L11.8243 17.8101
" />
<path d="M11.8243 17.8101
L11.7034 17.8705
" />
<path d="M11.7034 17.8705
L11.3405 17.8705
" />
<path d="M11.3405 17.8705
L11.2196 17.8101
" />
<path d="M11.2196 17.8101
L11.1591 17.7496
" />
</g></g>
<g style="fill:#840000; fill-opacity:0.0; 
stroke:#840000; stroke-width:0.1524; stroke-opacity:1; 
stroke-linecap:round; stroke-linejoin:round;">
<path d="M13.4874 20.8280
L9.6774 20.8280
" />
</g>
<g style="fill:#006464; fill-opacity:0.0; 
stroke:#006464; stroke-width:0.1524; stroke-opacity:1; 
stroke-linecap:round; stroke-linejoin:round;">
<text x="14.5034" y="21.4630"
textLength="0.8080" font-size="1.6933" lengthAdjust="spacingAndGlyphs"
text-anchor="start" opacity="0">I</text>
<g class="stroked-text"><desc>I</desc>
<path d="M14.9059 21.4075
L14.9059 20.1375
" />
</g></g>
<g style="fill:#A90000; fill-opacity:0.0; 
stroke:#A90000; stroke-width:0.1524; stroke-opacity:1; 
stroke-linecap:round; stroke-linejoin:round;">
<text x="11.5824" y="20.5740"
textLength="1.4127" font-size="1.6933" lengthAdjust="spacingAndGlyphs"
text-anchor="middle" opacity="0">4</text>
<g class="stroked-text"><desc>4</desc>
<path d="M11.8243 19.5639
L11.8243 20.4105
" />
<path d="M11.5219 19.0801
L11.2196 19.9872
" />
<path d="M11.2196 19.9872
L12.0057 19.9872
" />
</g></g>
<g style="fill:#840000; fill-opacity:0.0; 
stroke:#840000; stroke-width:0.1524; stroke-opacity:1; 
stroke-linecap:round; stroke-linejoin:round;">
<path d="M13.4874 23.3680
L9.6774 23.3680
" />
</g>
<g style="fill:#006464; fill-opacity:0.0; 
stroke:#006464; stroke-width:0.1524; stroke-opacity:1; 
stroke-linecap:round; stroke-linejoin:round;">
<text x="14.5034" y="24.0030"
textLength="0.8080" font-size="1.6933" lengthAdjust="spacingAndGlyphs"
text-anchor="start" opacity="0">I</text>
<g class="stroked-text"><desc>I</desc>
<path d="M14.9059 23.9475
L14.9059 22.6775
" />
</g></g>
<g style="fill:#A90000; fill-opacity:0.0; 
stroke:#A90000; stroke-width:0.1524; stroke-opacity:1; 
stroke-linecap:round; stroke-linejoin:round;">
<text x="11.5824" y="23.1140"
textLength="1.4127" font-size="1.6933" lengthAdjust="spacingAndGlyphs"
text-anchor="middle" opacity="0">5</text>
<g class="stroked-text"><desc>5</desc>
<path d="M11.8848 21.6805
L11.2800 21.6805
" />
<path d="M11.2800 21.6805
L11.2196 22.2853
" />
<path d="M11.2196 22.2853
L11.2800 22.2248
" />
<path d="M11.2800 22.2248
L11.4010 22.1643
" />
<path d="M11.4010 22.1643
L11.7034 22.1643
" />
<path d="M11.7034 22.1643
L11.8243 22.2248
" />
<path d="M11.8243 22.2248
L11.8848 22.2853
" />
<path d="M11.8848 22.2853
L11.9453 22.4062
" />
<path d="M11.9453 22.4062
L11.9453 22.7086
" />
<path d="M11.9453 22.7086
L11.8848 22.8296
" />
<path d="M11.8848 22.8296
L11.8243 22.8901
" />
<path d="M11.8243 22.8901
L11.7034 22.9505
" />
<path d="M11.7034 22.9505
L11.4010 22.9505
" />
<path d="M11.4010 22.9505
L11.2800 22.8901
" />
<path d="M11.2800 22.8901
L11.2196 22.8296
" />
</g></g>
<g style="fill:#840000; fill-opacity:0.0; 
stroke:#840000; stroke-width:0.1524; stroke-opacity:1; 
stroke-linecap:round; stroke-linejoin:round;">
<path d="M13.4874 25.9080
L9.6774 25.9080
" />
</g>
<g style="fill:#006464; fill-opacity:0.0; 
stroke:#006464; stroke-width:0.1524; stroke-opacity:1; 
stroke-linecap:round; stroke-linejoin:round;">
<text x="14.5034" y="26.5430"
textLength="0.8080" font-size="1.6933" lengthAdjust="spacingAndGlyphs"
text-anchor="start" opacity="0">I</text>
<g class="stroked-text"><desc>I</desc>
<path d="M14.9059 26.4875
L14.9059 25.2175
" />
</g></g>
<g style="fill:#A90000; fill-opacity:0.0; 
stroke:#A90000; stroke-width:0.1524; stroke-opacity:1; 
stroke-linecap:round; stroke-linejoin:round;">
<text x="11.5824" y="25.6540"
textLength="1.4127" font-size="1.6933" lengthAdjust="spacingAndGlyphs"
text-anchor="middle" opacity="0">6</text>
<g class="stroked-text"><desc>6</desc>
<path d="M11.8243 24.2205
L11.5824 24.2205
" />
<path d="M11.5824 24.2205
L11.4615 24.2810
" />
<path d="M11.4615 24.2810
L11.4010 24.3415
" />
<path d="M11.4010 24.3415
L11.2800 24.5229
" />
<path d="M11.2800 24.5229
L11.2196 24.7648
" />
<path d="M11.2196 24.7648
L11.2196 25.2486
" />
<path d="M11.2196 25.2486
L11.2800 25.3696
" />
<path d="M11.2800 25.3696
L11.3405 25.4301
" />
<path d="M11.3405 25.4301
L11.4615 25.4905
" />
<path d="M11.4615 25.4905
L11.7034 25.4905
" />
<path d="M11.7034 25.4905
L11.8243 25.4301
" />
<path d="M11.8243 25.4301
L11.8848 25.3696
" />
<path d="M11.8848 25.3696
L11.9453 25.2486
" />
<path d="M11.9453 25.2486
L11.9453 24.9462
" />
<path d="M11.9453 24.9462
L11.8848 24.8253
" />
<path d="M11.8848 24.8253
L11.8243 24.7648
" />
<path d="M11.8243 24.7648
L11.7034 24.7043
" />
<path d="M11.7034 24.7043
L11.4615 24.7043
" />
<path d="M11.4615 24.7043
L11.3405 24.7648
" />
<path d="M11.3405 24.7648
L11.2800 24.8253
" />
<path d="M11.2800 24.8253
L11.2196 24.9462
" />
</g></g>
<g style="fill:#840000; fill-opacity:0.0; 
stroke:#840000; stroke-width:0.1524; stroke-opacity:1; 
stroke-linecap:round; stroke-linejoin:round;">
<path d="M13.4874 28.4480
L9.6774 28.4480
" />
</g>
<g style="fill:#006464; fill-opacity:0.0; 
stroke:#006464; stroke-width:0.1524; stroke-opacity:1; 
stroke-linecap:round; stroke-linejoin:round;">
<text x="14.5034" y="29.0830"
textLength="0.8080" font-size="1.6933" lengthAdjust="spacingAndGlyphs"
text-anchor="start" opacity="0">I</text>
<g class="stroked-text"><desc>I</desc>
<path d="M14.9059 29.0275
L14.9059 27.7575
" />
</g></g>
<g style="fill:#A90000; fill-opacity:0.0; 
stroke:#A90000; stroke-width:0.1524; stroke-opacity:1; 
stroke-linecap:round; stroke-linejoin:round;">
<text x="11.5824" y="28.1940"
textLength="1.4127" font-size="1.6933" lengthAdjust="spacingAndGlyphs"
text-anchor="middle" opacity="0">7</text>
<g class="stroked-text"><desc>7</desc>
<path d="M11.1591 26.7605
L12.0057 26.7605
" />
<path d="M12.0057 26.7605
L11.4615 28.0305
" />
</g></g>
<g style="fill:#840000; fill-opacity:0.0; 
stroke:#840000; stroke-width:0.1524; stroke-opacity:1; 
stroke-linecap:round; stroke-linejoin:round;">
<path d="M13.4874 30.9880
L9.6774 30.9880
" />
</g>
<g style="fill:#006464; fill-opacity:0.0; 
stroke:#006464; stroke-width:0.1524; stroke-opacity:1; 
stroke-linecap:round; stroke-linejoin:round;">
<text x="14.5034" y="31.6230"
textLength="0.8080" font-size="1.6933" lengthAdjust="spacingAndGlyphs"
text-anchor="start" opacity="0">I</text>
<g class="stroked-text"><desc>I</desc>
<path d="M14.9059 31.5675
L14.9059 30.2975
" />
</g></g>
<g style="fill:#A90000; fill-opacity:0.0; 
stroke:#A90000; stroke-width:0.1524; stroke-opacity:1; 
stroke-linecap:round; stroke-linejoin:round;">
<text x="11.5824" y="30.7340"
textLength="1.4127" font-size="1.6933" lengthAdjust="spacingAndGlyphs"
text-anchor="middle" opacity="0">8</text>
<g class="stroked-text"><desc>8</desc>
<path d="M11.4615 29.8448
L11.3405 29.7843
" />
<path d="M11.3405 29.7843
L11.2800 29.7239
" />
<path d="M11.2800 29.7239
L11.2196 29.6029
" />
<path d="M11.2196 29.6029
L11.2196 29.5424
" />
<path d="M11.2196 29.5424
L11.2800 29.4215
" />
<path d="M11.2800 29.4215
L11.3405 29.3610
" />
<path d="M11.3405 29.3610
L11.4615 29.3005
" />
<path d="M11.4615 29.3005
L11.7034 29.3005
" />
<path d="M11.7034 29.3005
L11.8243 29.3610
" />
<path d="M11.8243 29.3610
L11.8848 29.4215
" />
<path d="M11.8848 29.4215
L11.9453 29.5424
" />
<path d="M11.9453 29.5424
L11.9453 29.6029
" />
<path d="M11.9453 29.6029
L11.8848 29.7239
" />
<path d="M11.8848 29.7239
L11.8243 29.7843
" />
<path d="M11.8243 29.7843
L11.7034 29.8448
" />
<path d="M11.7034 29.8448
L11.4615 29.8448
" />
<path d="M11.4615 29.8448
L11.3405 29.9053
" />
<path d="M11.3405 29.9053
L11.2800 29.9658
" />
<path d="M11.2800 29.9658
L11.2196 30.0867
" />
<path d="M11.2196 30.0867
L11.2196 30.3286
" />
<path d="M11.2196 30.3286
L11.2800 30.4496
" />
<path d="M11.2800 30.4496
L11.3405 30.5101
" />
<path d="M11.3405 30.5101
L11.4615 30.5705
" />
<path d="M11.4615 30.5705
L11.7034 30.5705
" />
<path d="M11.7034 30.5705
L11.8243 30.5101
" />
<path d="M11.8243 30.5101
L11.8848 30.4496
" />
<path d="M11.8848 30.4496
L11.9453 30.3286
" />
<path d="M11.9453 30.3286
L11.9453 30.0867
" />
<path d="M11.9453 30.0867
L11.8848 29.9658
" />
<path d="M11.8848 29.9658
L11.8243 29.9053
" />
<path d="M11.8243 29.9053
L11.7034 29.8448
" />
</g></g>
<g style="fill:#840000; fill-opacity:0.0; 
stroke:#840000; stroke-width:0.1524; stroke-opacity:1; 
stroke-linecap:round; stroke-linejoin:round;">
<path d="M13.4874 33.5280
L9.6774 33.5280
" />
</g>
<g style="fill:#006464; fill-opacity:0.0; 
stroke:#006464; stroke-width:0.1524; stroke-opacity:1; 
stroke-linecap:round; stroke-linejoin:round;">
<text x="14.5034" y="34.1630"
textLength="0.8080" font-size="1.6933" lengthAdjust="spacingAndGlyphs"
text-anchor="start" opacity="0">I</text>
<g class="stroked-text"><desc>I</desc>
<path d="M14.9059 34.1075
L14.9059 32.8375
" />
</g></g>
<g style="fill:#A90000; fill-opacity:0.0; 
stroke:#A90000; stroke-width:0.1524; stroke-opacity:1; 
stroke-linecap:round; stroke-linejoin:round;">
<text x="11.5824" y="33.2740"
textLength="1.4127" font-size="1.6933" lengthAdjust="spacingAndGlyphs"
text-anchor="middle" opacity="0">9</text>
<g class="stroked-text"><desc>9</desc>
<path d="M11.3405 33.1105
L11.5824 33.1105
" />
<path d="M11.5824 33.1105
L11.7034 33.0501
" />
<path d="M11.7034 33.0501
L11.7638 32.9896
" />
<path d="M11.7638 32.9896
L11.8848 32.8081
" />
<path d="M11.8848 32.8081
L11.9453 32.5662
" />
<path d="M11.9453 32.5662
L11.9453 32.0824
" />
<path d="M11.9453 32.0824
L11.8848 31.9615
" />
<path d="M11.8848 31.9615
L11.8243 31.9010
" />
<path d="M11.8243 31.9010
L11.7034 31.8405
" />
<path d="M11.7034 31.8405
L11.4615 31.8405
" />
<path d="M11.4615 31.8405
L11.3405 31.9010
" />
<path d="M11.3405 31.9010
L11.2800 31.9615
" />
<path d="M11.2800 31.9615
L11.2196 32.0824
" />
<path d="M11.2196 32.0824
L11.2196 32.3848
" />
<path d="M11.2196 32.3848
L11.2800 32.5058
" />
<path d="M11.2800 32.5058
L11.3405 32.5662
" />
<path d="M11.3405 32.5662
L11.4615 32.6267
" />
<path d="M11.4615 32.6267
L11.7034 32.6267
" />
<path d="M11.7034 32.6267
L11.8243 32.5662
" />
<path d="M11.8243 32.5662
L11.8848 32.5058
" />
<path d="M11.8848 32.5058
L11.9453 32.3848
" />
</g></g>
<g style="fill:#840084; fill-opacity:0.0; 
stroke:#840084; stroke-width:0.1524; stroke-opacity:1; 
stroke-linecap:round; stroke-linejoin:round;">
</g>
<g style="fill:#006464; fill-opacity:0.0; 
stroke:#006464; stroke-width:0.1524; stroke-opacity:1; 
stroke-linecap:round; stroke-linejoin:round;">
</g>
<g style="fill:#006464; fill-opacity:0.0; 
stroke:#006464; stroke-width:0.1588; stroke-opacity:1; 
stroke-linecap:round; stroke-linejoin:round;">
<text x="14.8081" y="10.0330"
textLength="2.6415" font-size="1.6933" lengthAdjust="spacingAndGlyphs"
text-anchor="middle" opacity="0">U?</text>
<g class="stroked-text"><desc>U?</desc>
<path d="M13.9009 8.7072
L13.9009 9.7353
" />
<path d="M13.9009 9.7353
L13.9614 9.8563
" />
<path d="M13.9614 9.8563
L14.0219 9.9168
" />
<path d="M14.0219 9.9168
L14.1428 9.9772
" />
<path d="M14.1428 9.9772
L14.3847 9.9772
" />
<path d="M14.3847 9.9772
L14.5057 9.9168
" />
<path d="M14.5057 9.9168
L14.5662 9.8563
" />
<path d="M14.5662 9.8563
L14.6266 9.7353
" />
<path d="M14.6266 9.7353
L14.6266 8.7072
" />
<path d="M15.4129 9.8563
L15.4733 9.9168
" />
<path d="M15.4733 9.9168
L15.4129 9.9772
" />
<path d="M15.4129 9.9772
L15.3524 9.9168
" />
<path d="M15.3524 9.9168
L15.4129 9.8563
" />
<path d="M15.4129 9.8563
L15.4129 9.9772
" />
<path d="M15.1710 8.7677
L15.2919 8.7072
" />
<path d="M15.2919 8.7072
L15.5943 8.7072
" />
<path d="M15.5943 8.7072
L15.7152 8.7677
" />
<path d="M15.7152 8.7677
L15.7757 8.8887
" />
<path d="M15.7757 8.8887
L15.7757 9.0096
" />
<path d="M15.7757 9.0096
L15.7152 9.1306
" />
<path d="M15.7152 9.1306
L15.6548 9.1910
" />
<path d="M15.6548 9.1910
L15.5338 9.2515
" />
<path d="M15.5338 9.2515
L15.4733 9.3120
" />
<path d="M15.4733 9.3120
L15.4129 9.4329
" />
<path d="M15.4129 9.4329
L15.4129 9.4934
" />
</g><text x="27.8105" y="10.0330"
textLength="8.3262" font-size="1.6933" lengthAdjust="spacingAndGlyphs"
text-anchor="middle" opacity="0">GAL20V8</text>
<g class="stroked-text"><desc>GAL20V8</desc>
<path d="M24.7262 8.7677
L24.6052 8.7072
" />
<path d="M24.6052 8.7072
L24.4238 8.7072
" />
<path d="M24.4238 8.7072
L24.2424 8.7677
" />
<path d="M24.2424 8.7677
L24.1214 8.8887
" />
<path d="M24.1214 8.8887
L24.0609 9.0096
" />
<path d="M24.0609 9.0096
L24.0005 9.2515
" />
<path d="M24.0005 9.2515
L24.0005 9.4329
" />
<path d="M24.0005 9.4329
L24.0609 9.6748
" />
<path d="M24.0609 9.6748
L24.1214 9.7958
" />
<path d="M24.1214 9.7958
L24.2424 9.9168
" />
<path d="M24.2424 9.9168
L24.4238 9.9772
" />
<path d="M24.4238 9.9772
L24.5447 9.9772
" />
<path d="M24.5447 9.9772
L24.7262 9.9168
" />
<path d="M24.7262 9.9168
L24.7866 9.8563
" />
<path d="M24.7866 9.8563
L24.7866 9.4329
" />
<path d="M24.7866 9.4329
L24.5447 9.4329
" />
<path d="M25.2705 9.6144
L25.8752 9.6144
" />
<path d="M25.1495 9.9772
L25.5728 8.7072
" />
<path d="M25.5728 8.7072
L25.9962 9.9772
" />
<path d="M27.0243 9.9772
L26.4195 9.9772
" />
<path d="M26.4195 9.9772
L26.4195 8.7072
" />
<path d="M27.3872 8.8282
L27.4476 8.7677
" />
<path d="M27.4476 8.7677
L27.5686 8.7072
" />
<path d="M27.5686 8.7072
L27.8710 8.7072
" />
<path d="M27.8710 8.7072
L27.9919 8.7677
" />
<path d="M27.9919 8.7677
L28.0524 8.8282
" />
<path d="M28.0524 8.8282
L28.1129 8.9491
" />
<path d="M28.1129 8.9491
L28.1129 9.0701
" />
<path d="M28.1129 9.0701
L28.0524 9.2515
" />
<path d="M28.0524 9.2515
L27.3267 9.9772
" />
<path d="M27.3267 9.9772
L28.1129 9.9772
" />
<path d="M28.8990 8.7072
L29.0200 8.7072
" />
<path d="M29.0200 8.7072
L29.1409 8.7677
" />
<path d="M29.1409 8.7677
L29.2014 8.8282
" />
<path d="M29.2014 8.8282
L29.2619 8.9491
" />
<path d="M29.2619 8.9491
L29.3224 9.1910
" />
<path d="M29.3224 9.1910
L29.3224 9.4934
" />
<path d="M29.3224 9.4934
L29.2619 9.7353
" />
<path d="M29.2619 9.7353
L29.2014 9.8563
" />
<path d="M29.2014 9.8563
L29.1409 9.9168
" />
<path d="M29.1409 9.9168
L29.0200 9.9772
" />
<path d="M29.0200 9.9772
L28.8990 9.9772
" />
<path d="M28.8990 9.9772
L28.7781 9.9168
" />
<path d="M28.7781 9.9168
L28.7176 9.8563
" />
<path d="M28.7176 9.8563
L28.6571 9.7353
" />
<path d="M28.6571 9.7353
L28.5967 9.4934
" />
<path d="M28.5967 9.4934
L28.5967 9.1910
" />
<path d="M28.5967 9.1910
L28.6571 8.9491
" />
<path d="M28.6571 8.9491
L28.7176 8.8282
" />
<path d="M28.7176 8.8282
L28.7781 8.7677
" />
<path d="M28.7781 8.7677
L28.8990 8.7072
" />
<path d="M29.6852 8.7072
L30.1085 9.9772
" />
<path d="M30.1085 9.9772
L30.5319 8.7072
" />
<path d="M31.1367 9.2515
L31.0157 9.1910
" />
<path d="M31.0157 9.1910
L30.9552 9.1306
" />
<path d="M30.9552 9.1306
L30.8948 9.0096
" />
<path d="M30.8948 9.0096
L30.8948 8.9491
" />
<path d="M30.8948 8.9491
L30.9552 8.8282
" />
<path d="M30.9552 8.8282
L31.0157 8.7677
" />
<path d="M31.0157 8.7677
L31.1367 8.7072
" />
<path d="M31.1367 8.7072
L31.3786 8.7072
" />
<path d="M31.3786 8.7072
L31.4995 8.7677
" />
<path d="M31.4995 8.7677
L31.5600 8.8282
" />
<path d="M31.5600 8.8282
L31.6205 8.9491
" />
<path d="M31.6205 8.9491
L31.6205 9.0096
" />
<path d="M31.6205 9.0096
L31.5600 9.1306
" />
<path d="M31.5600 9.1306
L31.4995 9.1910
" />
<path d="M31.4995 9.1910
L31.3786 9.2515
" />
<path d="M31.3786 9.2515
L31.1367 9.2515
" />
<path d="M31.1367 9.2515
L31.0157 9.3120
" />
<path d="M31.0157 9.3120
L30.9552 9.3725
" />
<path d="M30.9552 9.3725
L30.8948 9.4934
" />
<path d="M30.8948 9.4934
L30.8948 9.7353
" />
<path d="M30.8948 9.7353
L30.9552 9.8563
" />
<path d="M30.9552 9.8563
L31.0157 9.9168
" />
<path d="M31.0157 9.9168
L31.1367 9.9772
" />
<path d="M31.1367 9.9772
L31.3786 9.9772
" />
<path d="M31.3786 9.9772
L31.4995 9.9168
" />
<path d="M31.4995 9.9168
L31.5600 9.8563
" />
<path d="M31.5600 9.8563
L31.6205 9.7353
" />
<path d="M31.6205 9.7353
L31.6205 9.4934
" />
<path d="M31.6205 9.4934
L31.5600 9.3725
" />
<path d="M31.5600 9.3725
L31.4995 9.3120
" />
<path d="M31.4995 9.3120
L31.3786 9.2515
" />
</g></g> 
</svg>
