<?xml version="1.0" standalone="no"?>
 <!DOCTYPE svg PUBLIC "-//W3C//DTD SVG 1.1//EN" 
 "http://www.w3.org/Graphics/SVG/1.1/DTD/svg11.dtd"> 
<svg
  xmlns:svg="http://www.w3.org/2000/svg"
  xmlns="http://www.w3.org/2000/svg"
  xmlns:xlink="http://www.w3.org/1999/xlink"
  version="1.1"
  width="6.0960mm" height="8.8392mm" viewBox="0.0000 0.0000 6.0960 8.8392">
<title>SVG Image created as smalljumper.svg date 2023/09/25 15:20:43 </title>
  <desc>Image generated by Eeschema-SVG </desc>
<g style="fill:#000000; fill-opacity:1.0000;stroke:#000000; stroke-opacity:1.0000;
stroke-linecap:round; stroke-linejoin:round;"
 transform="translate(0 0) scale(1 1)">
</g>
<g style="fill:#840000; fill-opacity:0.0; 
stroke:#840000; stroke-width:0.0000; stroke-opacity:1; 
stroke-linecap:round; stroke-linejoin:round;">
</g>
<g style="fill:#FFFFC2; fill-opacity:0.0; 
stroke:#FFFFC2; stroke-width:0.0000; stroke-opacity:1; 
stroke-linecap:round; stroke-linejoin:round;">
</g>
<g style="fill:#FFFFC2; fill-opacity:1.0000; 
stroke:#FFFFC2; stroke-width:0.0000; stroke-opacity:1; 
stroke-linecap:round; stroke-linejoin:round;">
<rect x="0.508000" y="1.879600" width="5.080000" height="5.080000" rx="0.000000" />
</g>
<g style="fill:#840084; fill-opacity:1.0000; 
stroke:#840084; stroke-width:0.0000; stroke-opacity:1; 
stroke-linecap:round; stroke-linejoin:round;">
</g>
<g style="fill:#840000; fill-opacity:1.0000; 
stroke:#840000; stroke-width:0.0000; stroke-opacity:1; 
stroke-linecap:round; stroke-linejoin:round;">
</g>
<g style="fill:#840000; fill-opacity:0.0; 
stroke:#840000; stroke-width:0.1524; stroke-opacity:1; 
stroke-linecap:round; stroke-linejoin:round;">
<path style="fill:#840000; fill-opacity:0.0; 
stroke:#840000; stroke-width:0.1524; stroke-opacity:1; 
stroke-linecap:round; stroke-linejoin:round;fill:none"
d="M 3.0480,3.1496
3.0480,4.4196
" /> 
</g>
<g style="fill:#840000; fill-opacity:0.0; 
stroke:#840000; stroke-width:0.0000; stroke-opacity:1; 
stroke-linecap:round; stroke-linejoin:round;stroke-dasharray:0.0000,0.0000;">
</g>
<g style="fill:#840000; fill-opacity:0.0; 
stroke:#840000; stroke-width:0.0000; stroke-opacity:1; 
stroke-linecap:round; stroke-linejoin:round;stroke-dasharray:0.0000,0.0000;">
<rect x="0.508000" y="1.879600" width="5.080000" height="5.080000" rx="0.000000" />
</g>
<g style="fill:#840000; fill-opacity:0.0; 
stroke:#840000; stroke-width:0.0000; stroke-opacity:1; 
stroke-linecap:round; stroke-linejoin:round;">
</g>
<g style="fill:#840000; fill-opacity:0.0; 
stroke:#840000; stroke-width:0.1524; stroke-opacity:1; 
stroke-linecap:round; stroke-linejoin:round;">
<path d="M3.0480 3.1496
L1.7780 3.1496
" />
</g>
<g style="fill:#A90000; fill-opacity:0.0; 
stroke:#A90000; stroke-width:0.1524; stroke-opacity:1; 
stroke-linecap:round; stroke-linejoin:round;">
</g>
<g style="fill:#A90000; fill-opacity:0.0; 
stroke:#A90000; stroke-width:0.1270; stroke-opacity:1; 
stroke-linecap:round; stroke-linejoin:round;">
<text x="2.4130" y="2.8956"
textLength="0.8588" font-size="0.8466" lengthAdjust="spacingAndGlyphs"
text-anchor="middle" opacity="0">1</text>
<g class="stroked-text"><desc>1</desc>
<path d="M2.5944 2.8112
L2.2315 2.8112
" />
<path d="M2.4129 2.8112
L2.4129 2.1762
" />
<path d="M2.4129 2.1762
L2.3525 2.2669
" />
<path d="M2.3525 2.2669
L2.2920 2.3274
" />
<path d="M2.2920 2.3274
L2.2315 2.3576
" />
</g></g>
<g style="fill:#840000; fill-opacity:0.0; 
stroke:#840000; stroke-width:0.1270; stroke-opacity:1; 
stroke-linecap:round; stroke-linejoin:round;">
</g>
<g style="fill:#840000; fill-opacity:0.0; 
stroke:#840000; stroke-width:0.1524; stroke-opacity:1; 
stroke-linecap:round; stroke-linejoin:round;">
<path d="M3.0480 4.4196
L4.3180 4.4196
" />
</g>
<g style="fill:#A90000; fill-opacity:0.0; 
stroke:#A90000; stroke-width:0.1524; stroke-opacity:1; 
stroke-linecap:round; stroke-linejoin:round;">
</g>
<g style="fill:#A90000; fill-opacity:0.0; 
stroke:#A90000; stroke-width:0.1270; stroke-opacity:1; 
stroke-linecap:round; stroke-linejoin:round;">
<text x="3.6830" y="4.1656"
textLength="0.8588" font-size="0.8466" lengthAdjust="spacingAndGlyphs"
text-anchor="middle" opacity="0">2</text>
<g class="stroked-text"><desc>2</desc>
<path d="M3.5015 3.5067
L3.5317 3.4764
" />
<path d="M3.5317 3.4764
L3.5922 3.4462
" />
<path d="M3.5922 3.4462
L3.7434 3.4462
" />
<path d="M3.7434 3.4462
L3.8039 3.4764
" />
<path d="M3.8039 3.4764
L3.8341 3.5067
" />
<path d="M3.8341 3.5067
L3.8644 3.5671
" />
<path d="M3.8644 3.5671
L3.8644 3.6276
" />
<path d="M3.8644 3.6276
L3.8341 3.7183
" />
<path d="M3.8341 3.7183
L3.4713 4.0812
" />
<path d="M3.4713 4.0812
L3.8644 4.0812
" />
</g></g>
<g style="fill:#840000; fill-opacity:0.0; 
stroke:#840000; stroke-width:0.1270; stroke-opacity:1; 
stroke-linecap:round; stroke-linejoin:round;">
</g>
<g style="fill:#840000; fill-opacity:0.0; 
stroke:#840000; stroke-width:0.1524; stroke-opacity:1; 
stroke-linecap:round; stroke-linejoin:round;">
<path d="M3.0480 5.6896
L1.7780 5.6896
" />
</g>
<g style="fill:#A90000; fill-opacity:0.0; 
stroke:#A90000; stroke-width:0.1524; stroke-opacity:1; 
stroke-linecap:round; stroke-linejoin:round;">
</g>
<g style="fill:#A90000; fill-opacity:0.0; 
stroke:#A90000; stroke-width:0.1270; stroke-opacity:1; 
stroke-linecap:round; stroke-linejoin:round;">
<text x="2.4130" y="5.4356"
textLength="0.8588" font-size="0.8466" lengthAdjust="spacingAndGlyphs"
text-anchor="middle" opacity="0">3</text>
<g class="stroked-text"><desc>3</desc>
<path d="M2.2013 4.7162
L2.5944 4.7162
" />
<path d="M2.5944 4.7162
L2.3827 4.9581
" />
<path d="M2.3827 4.9581
L2.4734 4.9581
" />
<path d="M2.4734 4.9581
L2.5339 4.9883
" />
<path d="M2.5339 4.9883
L2.5641 5.0186
" />
<path d="M2.5641 5.0186
L2.5944 5.0790
" />
<path d="M2.5944 5.0790
L2.5944 5.2302
" />
<path d="M2.5944 5.2302
L2.5641 5.2907
" />
<path d="M2.5641 5.2907
L2.5339 5.3210
" />
<path d="M2.5339 5.3210
L2.4734 5.3512
" />
<path d="M2.4734 5.3512
L2.2920 5.3512
" />
<path d="M2.2920 5.3512
L2.2315 5.3210
" />
<path d="M2.2315 5.3210
L2.2013 5.2907
" />
</g></g>
<g style="fill:#840084; fill-opacity:0.0; 
stroke:#840084; stroke-width:0.1270; stroke-opacity:1; 
stroke-linecap:round; stroke-linejoin:round;">
</g>
<g style="fill:#006464; fill-opacity:0.0; 
stroke:#006464; stroke-width:0.1270; stroke-opacity:1; 
stroke-linecap:round; stroke-linejoin:round;">
</g>
<g style="fill:#006464; fill-opacity:0.0; 
stroke:#006464; stroke-width:0.1588; stroke-opacity:1; 
stroke-linecap:round; stroke-linejoin:round;">
<text x="3.0480" y="1.2446"
textLength="3.5486" font-size="1.6933" lengthAdjust="spacingAndGlyphs"
text-anchor="middle" opacity="0">JP?</text>
<g class="stroked-text"><desc>JP?</desc>
<path d="M2.0501 -0.0811
L2.0501 0.8260
" />
<path d="M2.0501 0.8260
L1.9896 1.0074
" />
<path d="M1.9896 1.0074
L1.8687 1.1284
" />
<path d="M1.8687 1.1284
L1.6872 1.1888
" />
<path d="M1.6872 1.1888
L1.5663 1.1888
" />
<path d="M2.6548 1.1888
L2.6548 -0.0811
" />
<path d="M2.6548 -0.0811
L3.1386 -0.0811
" />
<path d="M3.1386 -0.0811
L3.2596 -0.0206
" />
<path d="M3.2596 -0.0206
L3.3201 0.0398
" />
<path d="M3.3201 0.0398
L3.3805 0.1607
" />
<path d="M3.3805 0.1607
L3.3805 0.3422
" />
<path d="M3.3805 0.3422
L3.3201 0.4631
" />
<path d="M3.3201 0.4631
L3.2596 0.5236
" />
<path d="M3.2596 0.5236
L3.1386 0.5841
" />
<path d="M3.1386 0.5841
L2.6548 0.5841
" />
<path d="M4.1063 1.0679
L4.1667 1.1284
" />
<path d="M4.1667 1.1284
L4.1063 1.1888
" />
<path d="M4.1063 1.1888
L4.0458 1.1284
" />
<path d="M4.0458 1.1284
L4.1063 1.0679
" />
<path d="M4.1063 1.0679
L4.1063 1.1888
" />
<path d="M3.8644 -0.0206
L3.9853 -0.0811
" />
<path d="M3.9853 -0.0811
L4.2877 -0.0811
" />
<path d="M4.2877 -0.0811
L4.4086 -0.0206
" />
<path d="M4.4086 -0.0206
L4.4691 0.1003
" />
<path d="M4.4691 0.1003
L4.4691 0.2212
" />
<path d="M4.4691 0.2212
L4.4086 0.3422
" />
<path d="M4.4086 0.3422
L4.3482 0.4026
" />
<path d="M4.3482 0.4026
L4.2272 0.4631
" />
<path d="M4.2272 0.4631
L4.1667 0.5236
" />
<path d="M4.1667 0.5236
L4.1063 0.6445
" />
<path d="M4.1063 0.6445
L4.1063 0.7050
" />
</g></g> 
</svg>
