<?xml version="1.0" standalone="no"?>
 <!DOCTYPE svg PUBLIC "-//W3C//DTD SVG 1.1//EN" 
 "http://www.w3.org/Graphics/SVG/1.1/DTD/svg11.dtd"> 
<svg
  xmlns:svg="http://www.w3.org/2000/svg"
  xmlns="http://www.w3.org/2000/svg"
  xmlns:xlink="http://www.w3.org/1999/xlink"
  version="1.1"
  width="17.0180mm" height="25.4000mm" viewBox="0.0000 0.0000 17.0180 25.4000">
<title>SVG Image created as sw_push_dpdt_r.svg date 2023/09/25 15:20:43 </title>
  <desc>Image generated by Eeschema-SVG </desc>
<g style="fill:#000000; fill-opacity:1.0000;stroke:#000000; stroke-opacity:1.0000;
stroke-linecap:round; stroke-linejoin:round;"
 transform="translate(0 0) scale(1 1)">
</g>
<g style="fill:#840000; fill-opacity:0.0; 
stroke:#840000; stroke-width:0.0000; stroke-opacity:1; 
stroke-linecap:round; stroke-linejoin:round;">
</g>
<g style="fill:#840084; fill-opacity:0.0; 
stroke:#840084; stroke-width:0.0000; stroke-opacity:1; 
stroke-linecap:round; stroke-linejoin:round;">
</g>
<g style="fill:#840000; fill-opacity:0.0; 
stroke:#840000; stroke-width:0.0000; stroke-opacity:1; 
stroke-linecap:round; stroke-linejoin:round;">
</g>
<g style="fill:#840000; fill-opacity:0.0; 
stroke:#840000; stroke-width:0.1524; stroke-opacity:1; 
stroke-linecap:round; stroke-linejoin:round;">
<circle cx="6.4770" cy="17.7800" r="0.5080" /> 
<circle cx="6.4770" cy="7.6200" r="0.5080" /> 
<circle cx="10.5410" cy="20.3200" r="0.5080" /> 
<circle cx="10.5410" cy="10.1600" r="0.5080" /> 
<path style="fill:#840000; fill-opacity:0.0; 
stroke:#840000; stroke-width:0.1524; stroke-opacity:1; 
stroke-linecap:round; stroke-linejoin:round;fill:none"
d="M 6.9850,17.5260
11.0490,15.7480
" /> 
<path style="fill:#840000; fill-opacity:0.0; 
stroke:#840000; stroke-width:0.1524; stroke-opacity:1; 
stroke-linecap:round; stroke-linejoin:round;fill:none"
d="M 6.9850,7.3660
11.0490,5.5880
" /> 
<path style="fill:#840000; fill-opacity:0.0; 
stroke:#840000; stroke-width:0.1524; stroke-opacity:1; 
stroke-linecap:round; stroke-linejoin:round;fill:none"
d="M 8.5090,14.9860
8.5090,16.7640
" /> 
<path style="fill:#840000; fill-opacity:0.0; 
stroke:#840000; stroke-width:0.1524; stroke-opacity:1; 
stroke-linecap:round; stroke-linejoin:round;fill:none"
d="M 8.5090,13.7160
8.5090,12.7000
" /> 
<path style="fill:#840000; fill-opacity:0.0; 
stroke:#840000; stroke-width:0.1524; stroke-opacity:1; 
stroke-linecap:round; stroke-linejoin:round;fill:none"
d="M 8.5090,11.4300
8.5090,10.4140
" /> 
<path style="fill:#840000; fill-opacity:0.0; 
stroke:#840000; stroke-width:0.1524; stroke-opacity:1; 
stroke-linecap:round; stroke-linejoin:round;fill:none"
d="M 8.5090,9.1440
8.5090,8.1280
" /> 
<path style="fill:#840000; fill-opacity:0.0; 
stroke:#840000; stroke-width:0.1524; stroke-opacity:1; 
stroke-linecap:round; stroke-linejoin:round;fill:none"
d="M 8.5090,4.8260
8.5090,6.6040
" /> 
<circle cx="10.5410" cy="15.2400" r="0.5080" /> 
<circle cx="10.5410" cy="5.0800" r="0.5080" /> 
<path d="M11.0490 15.2400
L13.5890 15.2400
" />
</g>
<g style="fill:#A90000; fill-opacity:0.0; 
stroke:#A90000; stroke-width:0.1524; stroke-opacity:1; 
stroke-linecap:round; stroke-linejoin:round;">
<text x="12.3190" y="16.7640"
textLength="1.4127" font-size="1.6933" lengthAdjust="spacingAndGlyphs"
text-anchor="middle" opacity="0">1</text>
<g class="stroked-text"><desc>1</desc>
<path d="M12.6819 16.8164
L11.9562 16.8164
" />
<path d="M12.3190 16.8164
L12.3190 15.5464
" />
<path d="M12.3190 15.5464
L12.1981 15.7279
" />
<path d="M12.1981 15.7279
L12.0771 15.8488
" />
<path d="M12.0771 15.8488
L11.9562 15.9093
" />
</g></g>
<g style="fill:#840000; fill-opacity:0.0; 
stroke:#840000; stroke-width:0.1524; stroke-opacity:1; 
stroke-linecap:round; stroke-linejoin:round;">
<path d="M5.9690 17.7800
L3.4290 17.7800
" />
</g>
<g style="fill:#A90000; fill-opacity:0.0; 
stroke:#A90000; stroke-width:0.1524; stroke-opacity:1; 
stroke-linecap:round; stroke-linejoin:round;">
<text x="4.6990" y="19.3040"
textLength="1.4127" font-size="1.6933" lengthAdjust="spacingAndGlyphs"
text-anchor="middle" opacity="0">2</text>
<g class="stroked-text"><desc>2</desc>
<path d="M4.3362 18.2074
L4.3966 18.1469
" />
<path d="M4.3966 18.1469
L4.5176 18.0864
" />
<path d="M4.5176 18.0864
L4.8200 18.0864
" />
<path d="M4.8200 18.0864
L4.9409 18.1469
" />
<path d="M4.9409 18.1469
L5.0014 18.2074
" />
<path d="M5.0014 18.2074
L5.0619 18.3283
" />
<path d="M5.0619 18.3283
L5.0619 18.4493
" />
<path d="M5.0619 18.4493
L5.0014 18.6307
" />
<path d="M5.0014 18.6307
L4.2757 19.3564
" />
<path d="M4.2757 19.3564
L5.0619 19.3564
" />
</g></g>
<g style="fill:#840000; fill-opacity:0.0; 
stroke:#840000; stroke-width:0.1524; stroke-opacity:1; 
stroke-linecap:round; stroke-linejoin:round;">
<path d="M11.0490 20.3200
L13.5890 20.3200
" />
</g>
<g style="fill:#A90000; fill-opacity:0.0; 
stroke:#A90000; stroke-width:0.1524; stroke-opacity:1; 
stroke-linecap:round; stroke-linejoin:round;">
<text x="12.3190" y="21.8440"
textLength="1.4127" font-size="1.6933" lengthAdjust="spacingAndGlyphs"
text-anchor="middle" opacity="0">3</text>
<g class="stroked-text"><desc>3</desc>
<path d="M11.8957 20.6264
L12.6819 20.6264
" />
<path d="M12.6819 20.6264
L12.2585 21.1102
" />
<path d="M12.2585 21.1102
L12.4400 21.1102
" />
<path d="M12.4400 21.1102
L12.5609 21.1707
" />
<path d="M12.5609 21.1707
L12.6214 21.2312
" />
<path d="M12.6214 21.2312
L12.6819 21.3521
" />
<path d="M12.6819 21.3521
L12.6819 21.6545
" />
<path d="M12.6819 21.6545
L12.6214 21.7755
" />
<path d="M12.6214 21.7755
L12.5609 21.8360
" />
<path d="M12.5609 21.8360
L12.4400 21.8964
" />
<path d="M12.4400 21.8964
L12.0771 21.8964
" />
<path d="M12.0771 21.8964
L11.9562 21.8360
" />
<path d="M11.9562 21.8360
L11.8957 21.7755
" />
</g></g>
<g style="fill:#840000; fill-opacity:0.0; 
stroke:#840000; stroke-width:0.1524; stroke-opacity:1; 
stroke-linecap:round; stroke-linejoin:round;">
<path d="M11.0490 5.0800
L13.5890 5.0800
" />
</g>
<g style="fill:#A90000; fill-opacity:0.0; 
stroke:#A90000; stroke-width:0.1524; stroke-opacity:1; 
stroke-linecap:round; stroke-linejoin:round;">
<text x="12.3190" y="6.6040"
textLength="1.4127" font-size="1.6933" lengthAdjust="spacingAndGlyphs"
text-anchor="middle" opacity="0">4</text>
<g class="stroked-text"><desc>4</desc>
<path d="M12.5609 5.8098
L12.5609 6.6564
" />
<path d="M12.2585 5.3260
L11.9562 6.2331
" />
<path d="M11.9562 6.2331
L12.7423 6.2331
" />
</g></g>
<g style="fill:#840000; fill-opacity:0.0; 
stroke:#840000; stroke-width:0.1524; stroke-opacity:1; 
stroke-linecap:round; stroke-linejoin:round;">
<path d="M5.9690 7.6200
L3.4290 7.6200
" />
</g>
<g style="fill:#A90000; fill-opacity:0.0; 
stroke:#A90000; stroke-width:0.1524; stroke-opacity:1; 
stroke-linecap:round; stroke-linejoin:round;">
<text x="4.6990" y="9.1440"
textLength="1.4127" font-size="1.6933" lengthAdjust="spacingAndGlyphs"
text-anchor="middle" opacity="0">5</text>
<g class="stroked-text"><desc>5</desc>
<path d="M5.0014 7.9264
L4.3966 7.9264
" />
<path d="M4.3966 7.9264
L4.3362 8.5312
" />
<path d="M4.3362 8.5312
L4.3966 8.4707
" />
<path d="M4.3966 8.4707
L4.5176 8.4102
" />
<path d="M4.5176 8.4102
L4.8200 8.4102
" />
<path d="M4.8200 8.4102
L4.9409 8.4707
" />
<path d="M4.9409 8.4707
L5.0014 8.5312
" />
<path d="M5.0014 8.5312
L5.0619 8.6521
" />
<path d="M5.0619 8.6521
L5.0619 8.9545
" />
<path d="M5.0619 8.9545
L5.0014 9.0755
" />
<path d="M5.0014 9.0755
L4.9409 9.1360
" />
<path d="M4.9409 9.1360
L4.8200 9.1964
" />
<path d="M4.8200 9.1964
L4.5176 9.1964
" />
<path d="M4.5176 9.1964
L4.3966 9.1360
" />
<path d="M4.3966 9.1360
L4.3362 9.0755
" />
</g></g>
<g style="fill:#840000; fill-opacity:0.0; 
stroke:#840000; stroke-width:0.1524; stroke-opacity:1; 
stroke-linecap:round; stroke-linejoin:round;">
<path d="M11.0490 10.1600
L13.5890 10.1600
" />
</g>
<g style="fill:#A90000; fill-opacity:0.0; 
stroke:#A90000; stroke-width:0.1524; stroke-opacity:1; 
stroke-linecap:round; stroke-linejoin:round;">
<text x="12.3190" y="11.6840"
textLength="1.4127" font-size="1.6933" lengthAdjust="spacingAndGlyphs"
text-anchor="middle" opacity="0">6</text>
<g class="stroked-text"><desc>6</desc>
<path d="M12.5609 10.4664
L12.3190 10.4664
" />
<path d="M12.3190 10.4664
L12.1981 10.5269
" />
<path d="M12.1981 10.5269
L12.1376 10.5874
" />
<path d="M12.1376 10.5874
L12.0166 10.7688
" />
<path d="M12.0166 10.7688
L11.9562 11.0107
" />
<path d="M11.9562 11.0107
L11.9562 11.4945
" />
<path d="M11.9562 11.4945
L12.0166 11.6155
" />
<path d="M12.0166 11.6155
L12.0771 11.6760
" />
<path d="M12.0771 11.6760
L12.1981 11.7364
" />
<path d="M12.1981 11.7364
L12.4400 11.7364
" />
<path d="M12.4400 11.7364
L12.5609 11.6760
" />
<path d="M12.5609 11.6760
L12.6214 11.6155
" />
<path d="M12.6214 11.6155
L12.6819 11.4945
" />
<path d="M12.6819 11.4945
L12.6819 11.1921
" />
<path d="M12.6819 11.1921
L12.6214 11.0712
" />
<path d="M12.6214 11.0712
L12.5609 11.0107
" />
<path d="M12.5609 11.0107
L12.4400 10.9502
" />
<path d="M12.4400 10.9502
L12.1981 10.9502
" />
<path d="M12.1981 10.9502
L12.0771 11.0107
" />
<path d="M12.0771 11.0107
L12.0166 11.0712
" />
<path d="M12.0166 11.0712
L11.9562 11.1921
" />
</g></g>
<g style="fill:#840084; fill-opacity:0.0; 
stroke:#840084; stroke-width:0.1524; stroke-opacity:1; 
stroke-linecap:round; stroke-linejoin:round;">
</g>
<g style="fill:#006464; fill-opacity:0.0; 
stroke:#006464; stroke-width:0.1524; stroke-opacity:1; 
stroke-linecap:round; stroke-linejoin:round;">
</g>
<g style="fill:#006464; fill-opacity:0.0; 
stroke:#006464; stroke-width:0.1588; stroke-opacity:1; 
stroke-linecap:round; stroke-linejoin:round;">
<text x="8.5090" y="4.4450"
textLength="3.9719" font-size="1.6933" lengthAdjust="spacingAndGlyphs"
text-anchor="middle" opacity="0">SW?</text>
<g class="stroked-text"><desc>SW?</desc>
<path d="M6.8762 4.3288
L7.0576 4.3892
" />
<path d="M7.0576 4.3892
L7.3600 4.3892
" />
<path d="M7.3600 4.3892
L7.4809 4.3288
" />
<path d="M7.4809 4.3288
L7.5414 4.2683
" />
<path d="M7.5414 4.2683
L7.6019 4.1473
" />
<path d="M7.6019 4.1473
L7.6019 4.0264
" />
<path d="M7.6019 4.0264
L7.5414 3.9054
" />
<path d="M7.5414 3.9054
L7.4809 3.8449
" />
<path d="M7.4809 3.8449
L7.3600 3.7845
" />
<path d="M7.3600 3.7845
L7.1181 3.7240
" />
<path d="M7.1181 3.7240
L6.9971 3.6635
" />
<path d="M6.9971 3.6635
L6.9366 3.6030
" />
<path d="M6.9366 3.6030
L6.8762 3.4821
" />
<path d="M6.8762 3.4821
L6.8762 3.3611
" />
<path d="M6.8762 3.3611
L6.9366 3.2402
" />
<path d="M6.9366 3.2402
L6.9971 3.1797
" />
<path d="M6.9971 3.1797
L7.1181 3.1192
" />
<path d="M7.1181 3.1192
L7.4204 3.1192
" />
<path d="M7.4204 3.1192
L7.6019 3.1797
" />
<path d="M8.0252 3.1192
L8.3276 4.3892
" />
<path d="M8.3276 4.3892
L8.5695 3.4821
" />
<path d="M8.5695 3.4821
L8.8114 4.3892
" />
<path d="M8.8114 4.3892
L9.1138 3.1192
" />
<path d="M9.7790 4.2683
L9.8394 4.3288
" />
<path d="M9.8394 4.3288
L9.7790 4.3892
" />
<path d="M9.7790 4.3892
L9.7185 4.3288
" />
<path d="M9.7185 4.3288
L9.7790 4.2683
" />
<path d="M9.7790 4.2683
L9.7790 4.3892
" />
<path d="M9.5371 3.1797
L9.6580 3.1192
" />
<path d="M9.6580 3.1192
L9.9604 3.1192
" />
<path d="M9.9604 3.1192
L10.0813 3.1797
" />
<path d="M10.0813 3.1797
L10.1418 3.3007
" />
<path d="M10.1418 3.3007
L10.1418 3.4216
" />
<path d="M10.1418 3.4216
L10.0813 3.5426
" />
<path d="M10.0813 3.5426
L10.0209 3.6030
" />
<path d="M10.0209 3.6030
L9.8999 3.6635
" />
<path d="M9.8999 3.6635
L9.8394 3.7240
" />
<path d="M9.8394 3.7240
L9.7790 3.8449
" />
<path d="M9.7790 3.8449
L9.7790 3.9054
" />
</g><text x="8.5090" y="23.4950"
textLength="14.1922" font-size="1.6933" lengthAdjust="spacingAndGlyphs"
text-anchor="middle" opacity="0">SW_Push_DPDT</text>
<g class="stroked-text"><desc>SW_Push_DPDT</desc>
<path d="M1.7660 23.3788
L1.9474 23.4392
" />
<path d="M1.9474 23.4392
L2.2498 23.4392
" />
<path d="M2.2498 23.4392
L2.3707 23.3788
" />
<path d="M2.3707 23.3788
L2.4312 23.3183
" />
<path d="M2.4312 23.3183
L2.4917 23.1973
" />
<path d="M2.4917 23.1973
L2.4917 23.0764
" />
<path d="M2.4917 23.0764
L2.4312 22.9554
" />
<path d="M2.4312 22.9554
L2.3707 22.8949
" />
<path d="M2.3707 22.8949
L2.2498 22.8345
" />
<path d="M2.2498 22.8345
L2.0079 22.7740
" />
<path d="M2.0079 22.7740
L1.8869 22.7135
" />
<path d="M1.8869 22.7135
L1.8264 22.6530
" />
<path d="M1.8264 22.6530
L1.7660 22.5321
" />
<path d="M1.7660 22.5321
L1.7660 22.4111
" />
<path d="M1.7660 22.4111
L1.8264 22.2902
" />
<path d="M1.8264 22.2902
L1.8869 22.2297
" />
<path d="M1.8869 22.2297
L2.0079 22.1692
" />
<path d="M2.0079 22.1692
L2.3102 22.1692
" />
<path d="M2.3102 22.1692
L2.4917 22.2297
" />
<path d="M2.9150 22.1692
L3.2174 23.4392
" />
<path d="M3.2174 23.4392
L3.4593 22.5321
" />
<path d="M3.4593 22.5321
L3.7012 23.4392
" />
<path d="M3.7012 23.4392
L4.0036 22.1692
" />
<path d="M4.1850 23.5602
L5.1526 23.5602
" />
<path d="M5.4549 23.4392
L5.4549 22.1692
" />
<path d="M5.4549 22.1692
L5.9387 22.1692
" />
<path d="M5.9387 22.1692
L6.0597 22.2297
" />
<path d="M6.0597 22.2297
L6.1202 22.2902
" />
<path d="M6.1202 22.2902
L6.1806 22.4111
" />
<path d="M6.1806 22.4111
L6.1806 22.5926
" />
<path d="M6.1806 22.5926
L6.1202 22.7135
" />
<path d="M6.1202 22.7135
L6.0597 22.7740
" />
<path d="M6.0597 22.7740
L5.9387 22.8345
" />
<path d="M5.9387 22.8345
L5.4549 22.8345
" />
<path d="M7.2692 22.5926
L7.2692 23.4392
" />
<path d="M6.7249 22.5926
L6.7249 23.2578
" />
<path d="M6.7249 23.2578
L6.7854 23.3788
" />
<path d="M6.7854 23.3788
L6.9064 23.4392
" />
<path d="M6.9064 23.4392
L7.0878 23.4392
" />
<path d="M7.0878 23.4392
L7.2087 23.3788
" />
<path d="M7.2087 23.3788
L7.2692 23.3183
" />
<path d="M7.8135 23.3788
L7.9344 23.4392
" />
<path d="M7.9344 23.4392
L8.1763 23.4392
" />
<path d="M8.1763 23.4392
L8.2973 23.3788
" />
<path d="M8.2973 23.3788
L8.3577 23.2578
" />
<path d="M8.3577 23.2578
L8.3577 23.1973
" />
<path d="M8.3577 23.1973
L8.2973 23.0764
" />
<path d="M8.2973 23.0764
L8.1763 23.0159
" />
<path d="M8.1763 23.0159
L7.9949 23.0159
" />
<path d="M7.9949 23.0159
L7.8739 22.9554
" />
<path d="M7.8739 22.9554
L7.8135 22.8345
" />
<path d="M7.8135 22.8345
L7.8135 22.7740
" />
<path d="M7.8135 22.7740
L7.8739 22.6530
" />
<path d="M7.8739 22.6530
L7.9949 22.5926
" />
<path d="M7.9949 22.5926
L8.1763 22.5926
" />
<path d="M8.1763 22.5926
L8.2973 22.6530
" />
<path d="M8.9020 23.4392
L8.9020 22.1692
" />
<path d="M9.4463 23.4392
L9.4463 22.7740
" />
<path d="M9.4463 22.7740
L9.3858 22.6530
" />
<path d="M9.3858 22.6530
L9.2649 22.5926
" />
<path d="M9.2649 22.5926
L9.0835 22.5926
" />
<path d="M9.0835 22.5926
L8.9625 22.6530
" />
<path d="M8.9625 22.6530
L8.9020 22.7135
" />
<path d="M9.7487 23.5602
L10.7163 23.5602
" />
<path d="M11.0186 23.4392
L11.0186 22.1692
" />
<path d="M11.0186 22.1692
L11.3210 22.1692
" />
<path d="M11.3210 22.1692
L11.5024 22.2297
" />
<path d="M11.5024 22.2297
L11.6234 22.3507
" />
<path d="M11.6234 22.3507
L11.6839 22.4716
" />
<path d="M11.6839 22.4716
L11.7443 22.7135
" />
<path d="M11.7443 22.7135
L11.7443 22.8949
" />
<path d="M11.7443 22.8949
L11.6839 23.1368
" />
<path d="M11.6839 23.1368
L11.6234 23.2578
" />
<path d="M11.6234 23.2578
L11.5024 23.3788
" />
<path d="M11.5024 23.3788
L11.3210 23.4392
" />
<path d="M11.3210 23.4392
L11.0186 23.4392
" />
<path d="M12.2886 23.4392
L12.2886 22.1692
" />
<path d="M12.2886 22.1692
L12.7724 22.1692
" />
<path d="M12.7724 22.1692
L12.8934 22.2297
" />
<path d="M12.8934 22.2297
L12.9539 22.2902
" />
<path d="M12.9539 22.2902
L13.0143 22.4111
" />
<path d="M13.0143 22.4111
L13.0143 22.5926
" />
<path d="M13.0143 22.5926
L12.9539 22.7135
" />
<path d="M12.9539 22.7135
L12.8934 22.7740
" />
<path d="M12.8934 22.7740
L12.7724 22.8345
" />
<path d="M12.7724 22.8345
L12.2886 22.8345
" />
<path d="M13.5586 23.4392
L13.5586 22.1692
" />
<path d="M13.5586 22.1692
L13.8610 22.1692
" />
<path d="M13.8610 22.1692
L14.0424 22.2297
" />
<path d="M14.0424 22.2297
L14.1634 22.3507
" />
<path d="M14.1634 22.3507
L14.2239 22.4716
" />
<path d="M14.2239 22.4716
L14.2843 22.7135
" />
<path d="M14.2843 22.7135
L14.2843 22.8949
" />
<path d="M14.2843 22.8949
L14.2239 23.1368
" />
<path d="M14.2239 23.1368
L14.1634 23.2578
" />
<path d="M14.1634 23.2578
L14.0424 23.3788
" />
<path d="M14.0424 23.3788
L13.8610 23.4392
" />
<path d="M13.8610 23.4392
L13.5586 23.4392
" />
<path d="M14.6472 22.1692
L15.3729 22.1692
" />
<path d="M15.0101 23.4392
L15.0101 22.1692
" />
</g></g> 
</svg>
