<?xml version="1.0" standalone="no"?>
 <!DOCTYPE svg PUBLIC "-//W3C//DTD SVG 1.1//EN" 
 "http://www.w3.org/Graphics/SVG/1.1/DTD/svg11.dtd"> 
<svg
  xmlns:svg="http://www.w3.org/2000/svg"
  xmlns="http://www.w3.org/2000/svg"
  xmlns:xlink="http://www.w3.org/1999/xlink"
  version="1.1"
  width="192.4812mm" height="71.3486mm" viewBox="0.0000 0.0000 192.4812 71.3486">
<title>SVG Image created as LCD24064_silk.svg date 2023/09/21 01:28:52 </title>
  <desc>Image generated by PCBNEW </desc>
<g style="fill:#000000; fill-opacity:1.0000;stroke:#000000; stroke-opacity:1.0000;
stroke-linecap:round; stroke-linejoin:round;"
 transform="translate(0 0) scale(1 1)">
</g>
<g style="fill:#000000; fill-opacity:0.0; 
stroke:#000000; stroke-width:0.0000; stroke-opacity:1; 
stroke-linecap:round; stroke-linejoin:round;">
</g>
<g style="fill:#000000; fill-opacity:1.0000; 
stroke:#000000; stroke-width:0.0212; stroke-opacity:1; 
stroke-linecap:round; stroke-linejoin:round;">
<rect x="-5.000000" y="-5.000000" width="202.501191" height="81.350500" rx="0.000000" />
</g>
<g style="fill:#FFFFFF; fill-opacity:1.0000; 
stroke:#FFFFFF; stroke-width:0.0212; stroke-opacity:1; 
stroke-linecap:round; stroke-linejoin:round;">
<g >
</g>
<g >
</g>
<g >
</g>
<g >
</g>
</g>
<g style="fill:#FFFFFF; fill-opacity:1.0000; 
stroke:#FFFFFF; stroke-width:0.0212; stroke-opacity:1; 
stroke-linecap:round; stroke-linejoin:round;">
<g >
</g>
<g >
</g>
<g >
</g>
<g >
</g>
</g>
<g style="fill:#FFFFFF; fill-opacity:1.0000; 
stroke:#FFFFFF; stroke-width:0.0212; stroke-opacity:1; 
stroke-linecap:round; stroke-linejoin:round;">
<g >
</g>
<g >
</g>
<g >
</g>
<g >
</g>
</g>
<g style="fill:#FFFFFF; fill-opacity:1.0000; 
stroke:#FFFFFF; stroke-width:0.0212; stroke-opacity:1; 
stroke-linecap:round; stroke-linejoin:round;">
<g >
</g>
<g >
</g>
<g >
</g>
<g >
</g>
</g>
<g style="fill:#FFFFFF; fill-opacity:1.0000; 
stroke:#FFFFFF; stroke-width:0.0212; stroke-opacity:1; 
stroke-linecap:round; stroke-linejoin:round;">
<g >
</g>
<g >
</g>
<g >
</g>
<g >
</g>
</g>
<g style="fill:#FFFFFF; fill-opacity:1.0000; 
stroke:#FFFFFF; stroke-width:0.0212; stroke-opacity:1; 
stroke-linecap:round; stroke-linejoin:round;">
<g >
</g>
<g >
</g>
<g >
</g>
<g >
</g>
</g>
<g style="fill:#FFFFFF; fill-opacity:1.0000; 
stroke:#FFFFFF; stroke-width:0.0212; stroke-opacity:1; 
stroke-linecap:round; stroke-linejoin:round;">
<g >
</g>
<g >
</g>
<g >
</g>
<g >
</g>
</g>
<g style="fill:#FFFFFF; fill-opacity:1.0000; 
stroke:#FFFFFF; stroke-width:0.0212; stroke-opacity:1; 
stroke-linecap:round; stroke-linejoin:round;">
<g >
</g>
<g >
</g>
<g >
</g>
<g >
</g>
</g>
<g style="fill:#FFFFFF; fill-opacity:1.0000; 
stroke:#FFFFFF; stroke-width:0.0212; stroke-opacity:1; 
stroke-linecap:round; stroke-linejoin:round;">
<g >
</g>
<g >
</g>
<g >
</g>
<g >
</g>
</g>
<g style="fill:#FFFFFF; fill-opacity:1.0000; 
stroke:#FFFFFF; stroke-width:0.0212; stroke-opacity:1; 
stroke-linecap:round; stroke-linejoin:round;">
<g >
</g>
<g >
</g>
<g >
</g>
<g >
</g>
</g>
<g style="fill:#FFFFFF; fill-opacity:1.0000; 
stroke:#FFFFFF; stroke-width:0.0212; stroke-opacity:1; 
stroke-linecap:round; stroke-linejoin:round;">
<g >
</g>
<g >
</g>
<g >
</g>
<g >
</g>
</g>
<g style="fill:#FFFFFF; fill-opacity:1.0000; 
stroke:#FFFFFF; stroke-width:0.0212; stroke-opacity:1; 
stroke-linecap:round; stroke-linejoin:round;">
<g >
</g>
<g >
</g>
<g >
</g>
<g >
</g>
</g>
<g style="fill:#FFFFFF; fill-opacity:1.0000; 
stroke:#FFFFFF; stroke-width:0.0212; stroke-opacity:1; 
stroke-linecap:round; stroke-linejoin:round;">
<g >
</g>
<g >
</g>
<g >
</g>
<g >
</g>
</g>
<g style="fill:#000000; fill-opacity:1.0000; 
stroke:#000000; stroke-width:0.0212; stroke-opacity:1; 
stroke-linecap:round; stroke-linejoin:round;">
</g>
<g style="fill:#FFFFFF; fill-opacity:1.0000; 
stroke:#FFFFFF; stroke-width:0.0212; stroke-opacity:1; 
stroke-linecap:round; stroke-linejoin:round;">
<g >
</g>
<g >
</g>
<g >
</g>
<g >
</g>
</g>
<g style="fill:#FFFFFF; fill-opacity:1.0000; 
stroke:#FFFFFF; stroke-width:0.0212; stroke-opacity:1; 
stroke-linecap:round; stroke-linejoin:round;">
<g >
</g>
<g >
</g>
<g >
</g>
<g >
</g>
</g>
<g style="fill:#FFFFFF; fill-opacity:1.0000; 
stroke:#FFFFFF; stroke-width:0.0212; stroke-opacity:1; 
stroke-linecap:round; stroke-linejoin:round;">
<g >
</g>
<g >
</g>
<g >
</g>
<g >
</g>
</g>
<g style="fill:#000000; fill-opacity:1.0000; 
stroke:#000000; stroke-width:0.0212; stroke-opacity:1; 
stroke-linecap:round; stroke-linejoin:round;">
</g>
<g style="fill:#FFFFFF; fill-opacity:1.0000; 
stroke:#FFFFFF; stroke-width:0.0212; stroke-opacity:1; 
stroke-linecap:round; stroke-linejoin:round;">
<g >
</g>
<g >
</g>
<g >
</g>
<g >
</g>
</g>
<g style="fill:#000000; fill-opacity:1.0000; 
stroke:#000000; stroke-width:0.0212; stroke-opacity:1; 
stroke-linecap:round; stroke-linejoin:round;">
</g>
<g style="fill:#FFFFFF; fill-opacity:1.0000; 
stroke:#FFFFFF; stroke-width:0.0212; stroke-opacity:1; 
stroke-linecap:round; stroke-linejoin:round;">
<g >
</g>
<g >
</g>
<g >
</g>
<g >
</g>
</g>
<g style="fill:#000000; fill-opacity:1.0000; 
stroke:#000000; stroke-width:0.0212; stroke-opacity:1; 
stroke-linecap:round; stroke-linejoin:round;">
</g>
<g style="fill:#FFFFFF; fill-opacity:1.0000; 
stroke:#FFFFFF; stroke-width:0.0212; stroke-opacity:1; 
stroke-linecap:round; stroke-linejoin:round;">
<g >
</g>
<g >
</g>
<g >
</g>
<g >
</g>
</g>
<g style="fill:#000000; fill-opacity:1.0000; 
stroke:#000000; stroke-width:0.0212; stroke-opacity:1; 
stroke-linecap:round; stroke-linejoin:round;">
</g>
<g style="fill:#FFFFFF; fill-opacity:1.0000; 
stroke:#FFFFFF; stroke-width:0.0212; stroke-opacity:1; 
stroke-linecap:round; stroke-linejoin:round;">
<g >
</g>
<g >
</g>
<g >
</g>
<g >
</g>
</g>
<g style="fill:#000000; fill-opacity:1.0000; 
stroke:#000000; stroke-width:0.0212; stroke-opacity:1; 
stroke-linecap:round; stroke-linejoin:round;">
</g>
<g style="fill:#FFFFFF; fill-opacity:1.0000; 
stroke:#FFFFFF; stroke-width:0.0212; stroke-opacity:1; 
stroke-linecap:round; stroke-linejoin:round;">
<g >
</g>
<g >
</g>
<g >
</g>
<g >
</g>
</g>
<g style="fill:#000000; fill-opacity:1.0000; 
stroke:#000000; stroke-width:0.0212; stroke-opacity:1; 
stroke-linecap:round; stroke-linejoin:round;">
</g>
<g style="fill:#FFFFFF; fill-opacity:1.0000; 
stroke:#FFFFFF; stroke-width:0.0212; stroke-opacity:1; 
stroke-linecap:round; stroke-linejoin:round;">
<g >
</g>
<g >
</g>
<g >
</g>
<g >
</g>
</g>
<g style="fill:#000000; fill-opacity:1.0000; 
stroke:#000000; stroke-width:0.0212; stroke-opacity:1; 
stroke-linecap:round; stroke-linejoin:round;">
</g>
<g style="fill:#FFFFFF; fill-opacity:1.0000; 
stroke:#FFFFFF; stroke-width:0.0212; stroke-opacity:1; 
stroke-linecap:round; stroke-linejoin:round;">
<g >
</g>
<g >
</g>
<g >
</g>
<g >
</g>
</g>
<g style="fill:#000000; fill-opacity:1.0000; 
stroke:#000000; stroke-width:0.0212; stroke-opacity:1; 
stroke-linecap:round; stroke-linejoin:round;">
</g>
<g style="fill:#FFFFFF; fill-opacity:1.0000; 
stroke:#FFFFFF; stroke-width:0.0212; stroke-opacity:1; 
stroke-linecap:round; stroke-linejoin:round;">
<g >
</g>
<g >
</g>
<g >
</g>
<g >
</g>
</g>
<g style="fill:#000000; fill-opacity:1.0000; 
stroke:#000000; stroke-width:0.0212; stroke-opacity:1; 
stroke-linecap:round; stroke-linejoin:round;">
</g>
<g style="fill:#FFFFFF; fill-opacity:1.0000; 
stroke:#FFFFFF; stroke-width:0.0212; stroke-opacity:1; 
stroke-linecap:round; stroke-linejoin:round;">
<g >
</g>
<g >
</g>
<g >
</g>
<g >
</g>
</g>
<g style="fill:#000000; fill-opacity:1.0000; 
stroke:#000000; stroke-width:0.0212; stroke-opacity:1; 
stroke-linecap:round; stroke-linejoin:round;">
</g>
<g style="fill:#FFFFFF; fill-opacity:1.0000; 
stroke:#FFFFFF; stroke-width:0.0212; stroke-opacity:1; 
stroke-linecap:round; stroke-linejoin:round;">
<g >
</g>
<g >
</g>
<g >
</g>
<g >
</g>
</g>
<g style="fill:#000000; fill-opacity:1.0000; 
stroke:#000000; stroke-width:0.0212; stroke-opacity:1; 
stroke-linecap:round; stroke-linejoin:round;">
</g>
<g style="fill:#FFFFFF; fill-opacity:1.0000; 
stroke:#FFFFFF; stroke-width:0.0212; stroke-opacity:1; 
stroke-linecap:round; stroke-linejoin:round;">
<g >
</g>
<g >
</g>
<g >
</g>
<g >
</g>
</g>
<g style="fill:#000000; fill-opacity:1.0000; 
stroke:#000000; stroke-width:0.0212; stroke-opacity:1; 
stroke-linecap:round; stroke-linejoin:round;">
</g>
<g style="fill:#FFFFFF; fill-opacity:1.0000; 
stroke:#FFFFFF; stroke-width:0.0212; stroke-opacity:1; 
stroke-linecap:round; stroke-linejoin:round;">
<g >
</g>
<g >
</g>
<g >
</g>
<g >
</g>
</g>
<g style="fill:#000000; fill-opacity:1.0000; 
stroke:#000000; stroke-width:0.0212; stroke-opacity:1; 
stroke-linecap:round; stroke-linejoin:round;">
</g>
<g style="fill:#FFFFFF; fill-opacity:1.0000; 
stroke:#FFFFFF; stroke-width:0.0212; stroke-opacity:1; 
stroke-linecap:round; stroke-linejoin:round;">
<g >
</g>
<g >
</g>
<g >
</g>
<g >
</g>
</g>
<g style="fill:#000000; fill-opacity:1.0000; 
stroke:#000000; stroke-width:0.0212; stroke-opacity:1; 
stroke-linecap:round; stroke-linejoin:round;">
</g>
<g style="fill:#FFFFFF; fill-opacity:1.0000; 
stroke:#FFFFFF; stroke-width:0.0212; stroke-opacity:1; 
stroke-linecap:round; stroke-linejoin:round;">
<g >
</g>
<g >
</g>
<g >
</g>
<g >
</g>
</g>
<g style="fill:#000000; fill-opacity:1.0000; 
stroke:#000000; stroke-width:0.0212; stroke-opacity:1; 
stroke-linecap:round; stroke-linejoin:round;">
</g>
<g style="fill:#FFFFFF; fill-opacity:1.0000; 
stroke:#FFFFFF; stroke-width:0.0212; stroke-opacity:1; 
stroke-linecap:round; stroke-linejoin:round;">
<g >
</g>
<g >
</g>
<g >
</g>
<g >
</g>
</g>
<g style="fill:#000000; fill-opacity:1.0000; 
stroke:#000000; stroke-width:0.0212; stroke-opacity:1; 
stroke-linecap:round; stroke-linejoin:round;">
</g>
<g style="fill:#FFFFFF; fill-opacity:1.0000; 
stroke:#FFFFFF; stroke-width:0.0212; stroke-opacity:1; 
stroke-linecap:round; stroke-linejoin:round;">
<g >
</g>
<g >
</g>
<g >
</g>
<g >
</g>
</g>
<g style="fill:#000000; fill-opacity:1.0000; 
stroke:#000000; stroke-width:0.0212; stroke-opacity:1; 
stroke-linecap:round; stroke-linejoin:round;">
</g>
<g style="fill:#FFFFFF; fill-opacity:1.0000; 
stroke:#FFFFFF; stroke-width:0.0212; stroke-opacity:1; 
stroke-linecap:round; stroke-linejoin:round;">
<g >
</g>
<g >
</g>
<g >
</g>
<g >
</g>
</g>
<g style="fill:#000000; fill-opacity:1.0000; 
stroke:#000000; stroke-width:0.0212; stroke-opacity:1; 
stroke-linecap:round; stroke-linejoin:round;">
</g>
<g style="fill:#FFFFFF; fill-opacity:1.0000; 
stroke:#FFFFFF; stroke-width:0.0212; stroke-opacity:1; 
stroke-linecap:round; stroke-linejoin:round;">
<g >
</g>
<g >
</g>
<g >
</g>
<g >
</g>
</g>
<g style="fill:#000000; fill-opacity:1.0000; 
stroke:#000000; stroke-width:0.0212; stroke-opacity:1; 
stroke-linecap:round; stroke-linejoin:round;">
</g>
<g style="fill:#FFFFFF; fill-opacity:1.0000; 
stroke:#FFFFFF; stroke-width:0.0212; stroke-opacity:1; 
stroke-linecap:round; stroke-linejoin:round;">
<g >
</g>
<g >
</g>
<g >
</g>
<g >
</g>
</g>
<g style="fill:#000000; fill-opacity:1.0000; 
stroke:#000000; stroke-width:0.0212; stroke-opacity:1; 
stroke-linecap:round; stroke-linejoin:round;">
</g>
<g style="fill:#FFFFFF; fill-opacity:1.0000; 
stroke:#FFFFFF; stroke-width:0.0212; stroke-opacity:1; 
stroke-linecap:round; stroke-linejoin:round;">
<g >
</g>
<g >
</g>
<g >
</g>
<g >
</g>
</g>
<g style="fill:#000000; fill-opacity:1.0000; 
stroke:#000000; stroke-width:0.0212; stroke-opacity:1; 
stroke-linecap:round; stroke-linejoin:round;">
</g>
<g style="fill:#FFFFFF; fill-opacity:1.0000; 
stroke:#FFFFFF; stroke-width:0.0212; stroke-opacity:1; 
stroke-linecap:round; stroke-linejoin:round;">
<g >
</g>
<g >
</g>
<g >
</g>
<g >
</g>
</g>
<g style="fill:#000000; fill-opacity:1.0000; 
stroke:#000000; stroke-width:0.0212; stroke-opacity:1; 
stroke-linecap:round; stroke-linejoin:round;">
</g>
<g style="fill:#FFFFFF; fill-opacity:1.0000; 
stroke:#FFFFFF; stroke-width:0.0212; stroke-opacity:1; 
stroke-linecap:round; stroke-linejoin:round;">
<g >
</g>
<g >
</g>
<g >
</g>
<g >
</g>
</g>
<g style="fill:#000000; fill-opacity:1.0000; 
stroke:#000000; stroke-width:0.0212; stroke-opacity:1; 
stroke-linecap:round; stroke-linejoin:round;">
</g>
<g style="fill:#FFFFFF; fill-opacity:1.0000; 
stroke:#FFFFFF; stroke-width:0.0212; stroke-opacity:1; 
stroke-linecap:round; stroke-linejoin:round;">
<g >
</g>
<g >
</g>
<g >
</g>
<g >
</g>
</g>
<g style="fill:#000000; fill-opacity:1.0000; 
stroke:#000000; stroke-width:0.0212; stroke-opacity:1; 
stroke-linecap:round; stroke-linejoin:round;">
</g>
<g style="fill:#FFFFFF; fill-opacity:1.0000; 
stroke:#FFFFFF; stroke-width:0.0212; stroke-opacity:1; 
stroke-linecap:round; stroke-linejoin:round;">
<g >
</g>
<g >
</g>
<g >
</g>
<g >
</g>
</g>
<g style="fill:#000000; fill-opacity:1.0000; 
stroke:#000000; stroke-width:0.0212; stroke-opacity:1; 
stroke-linecap:round; stroke-linejoin:round;">
</g>
<g style="fill:#FFFFFF; fill-opacity:1.0000; 
stroke:#FFFFFF; stroke-width:0.0212; stroke-opacity:1; 
stroke-linecap:round; stroke-linejoin:round;">
<g >
</g>
<g >
</g>
<g >
</g>
<g >
</g>
</g>
<g style="fill:#000000; fill-opacity:1.0000; 
stroke:#000000; stroke-width:0.0212; stroke-opacity:1; 
stroke-linecap:round; stroke-linejoin:round;">
</g>
<g style="fill:#FFFFFF; fill-opacity:1.0000; 
stroke:#FFFFFF; stroke-width:0.0212; stroke-opacity:1; 
stroke-linecap:round; stroke-linejoin:round;">
<g >
</g>
<g >
</g>
<g >
</g>
<g >
</g>
</g>
<g style="fill:#000000; fill-opacity:1.0000; 
stroke:#000000; stroke-width:0.0212; stroke-opacity:1; 
stroke-linecap:round; stroke-linejoin:round;">
</g>
<g style="fill:#FFFFFF; fill-opacity:1.0000; 
stroke:#FFFFFF; stroke-width:0.0212; stroke-opacity:1; 
stroke-linecap:round; stroke-linejoin:round;">
<g >
</g>
<g >
</g>
<g >
</g>
<g >
</g>
</g>
<g style="fill:#000000; fill-opacity:1.0000; 
stroke:#000000; stroke-width:0.0212; stroke-opacity:1; 
stroke-linecap:round; stroke-linejoin:round;">
</g>
<g style="fill:#FFFFFF; fill-opacity:1.0000; 
stroke:#FFFFFF; stroke-width:0.0212; stroke-opacity:1; 
stroke-linecap:round; stroke-linejoin:round;">
<g >
</g>
<g >
</g>
<g >
</g>
<g >
</g>
</g>
<g style="fill:#000000; fill-opacity:1.0000; 
stroke:#000000; stroke-width:0.0212; stroke-opacity:1; 
stroke-linecap:round; stroke-linejoin:round;">
</g>
<g style="fill:#FFFFFF; fill-opacity:1.0000; 
stroke:#FFFFFF; stroke-width:0.0212; stroke-opacity:1; 
stroke-linecap:round; stroke-linejoin:round;">
<g >
</g>
<g >
</g>
<g >
</g>
<g >
</g>
</g>
<g style="fill:#000000; fill-opacity:1.0000; 
stroke:#000000; stroke-width:0.0212; stroke-opacity:1; 
stroke-linecap:round; stroke-linejoin:round;">
</g>
<g style="fill:#FFFFFF; fill-opacity:1.0000; 
stroke:#FFFFFF; stroke-width:0.0212; stroke-opacity:1; 
stroke-linecap:round; stroke-linejoin:round;">
<g >
</g>
<g >
</g>
<g >
</g>
<g >
</g>
</g>
<g style="fill:#000000; fill-opacity:1.0000; 
stroke:#000000; stroke-width:0.0212; stroke-opacity:1; 
stroke-linecap:round; stroke-linejoin:round;">
</g>
<g style="fill:#FFFFFF; fill-opacity:1.0000; 
stroke:#FFFFFF; stroke-width:0.0212; stroke-opacity:1; 
stroke-linecap:round; stroke-linejoin:round;">
<g >
</g>
<g >
</g>
<g >
</g>
<g >
</g>
</g>
<g style="fill:#000000; fill-opacity:1.0000; 
stroke:#000000; stroke-width:0.0212; stroke-opacity:1; 
stroke-linecap:round; stroke-linejoin:round;">
</g>
<g style="fill:#FFFFFF; fill-opacity:1.0000; 
stroke:#FFFFFF; stroke-width:0.0212; stroke-opacity:1; 
stroke-linecap:round; stroke-linejoin:round;">
<g >
</g>
<g >
</g>
<g >
</g>
<g >
</g>
</g>
<g style="fill:#FFFFFF; fill-opacity:1.0000; 
stroke:#FFFFFF; stroke-width:0.0212; stroke-opacity:1; 
stroke-linecap:round; stroke-linejoin:round;">
<g >
</g>
<g >
</g>
<g >
</g>
<g >
</g>
</g>
<g style="fill:#FFFFFF; fill-opacity:1.0000; 
stroke:#FFFFFF; stroke-width:0.0212; stroke-opacity:1; 
stroke-linecap:round; stroke-linejoin:round;">
<g >
</g>
<g >
</g>
<g >
</g>
<g >
</g>
</g>
<g style="fill:#000000; fill-opacity:1.0000; 
stroke:#000000; stroke-width:0.0212; stroke-opacity:1; 
stroke-linecap:round; stroke-linejoin:round;">
</g>
<g style="fill:#FFFFFF; fill-opacity:1.0000; 
stroke:#FFFFFF; stroke-width:0.0212; stroke-opacity:1; 
stroke-linecap:round; stroke-linejoin:round;">
<g >
</g>
<g >
</g>
<g >
</g>
<g >
</g>
</g>
<g style="fill:#FFFFFF; fill-opacity:1.0000; 
stroke:#FFFFFF; stroke-width:0.0212; stroke-opacity:1; 
stroke-linecap:round; stroke-linejoin:round;">
<g >
</g>
<g >
</g>
<g >
</g>
<g >
</g>
</g>
<g style="fill:#FFFFFF; fill-opacity:1.0000; 
stroke:#FFFFFF; stroke-width:0.0212; stroke-opacity:1; 
stroke-linecap:round; stroke-linejoin:round;">
</g>
<g style="fill:#FFFFFF; fill-opacity:1.0000; 
stroke:#FFFFFF; stroke-width:0.1000; stroke-opacity:1; 
stroke-linecap:round; stroke-linejoin:round;">
</g>
<g style="fill:#FFFFFF; fill-opacity:0.0; 
stroke:#FFFFFF; stroke-width:0.1000; stroke-opacity:1; 
stroke-linecap:round; stroke-linejoin:round;">
<text x="5.6012" y="1.2605"
textLength="4.3857" font-size="1.3333" lengthAdjust="spacingAndGlyphs"
text-anchor="middle" opacity="0">REF**</text>
<g class="stroked-text"><desc>REF**</desc>
<path d="M4.2679 1.2179
L3.9345 0.7417
" />
<path d="M3.6964 1.2179
L3.6964 0.2179
" />
<path d="M3.6964 0.2179
L4.0774 0.2179
" />
<path d="M4.0774 0.2179
L4.1726 0.2655
" />
<path d="M4.1726 0.2655
L4.2202 0.3132
" />
<path d="M4.2202 0.3132
L4.2679 0.4084
" />
<path d="M4.2679 0.4084
L4.2679 0.5513
" />
<path d="M4.2679 0.5513
L4.2202 0.6465
" />
<path d="M4.2202 0.6465
L4.1726 0.6941
" />
<path d="M4.1726 0.6941
L4.0774 0.7417
" />
<path d="M4.0774 0.7417
L3.6964 0.7417
" />
<path d="M4.6964 0.6941
L5.0298 0.6941
" />
<path d="M5.1726 1.2179
L4.6964 1.2179
" />
<path d="M4.6964 1.2179
L4.6964 0.2179
" />
<path d="M4.6964 0.2179
L5.1726 0.2179
" />
<path d="M5.9345 0.6941
L5.6012 0.6941
" />
<path d="M5.6012 1.2179
L5.6012 0.2179
" />
<path d="M5.6012 0.2179
L6.0774 0.2179
" />
<path d="M6.6012 0.2179
L6.6012 0.4560
" />
<path d="M6.3631 0.3608
L6.6012 0.4560
" />
<path d="M6.6012 0.4560
L6.8393 0.3608
" />
<path d="M6.4583 0.6465
L6.6012 0.4560
" />
<path d="M6.6012 0.4560
L6.7440 0.6465
" />
<path d="M7.3631 0.2179
L7.3631 0.4560
" />
<path d="M7.1250 0.3608
L7.3631 0.4560
" />
<path d="M7.3631 0.4560
L7.6012 0.3608
" />
<path d="M7.2202 0.6465
L7.3631 0.4560
" />
<path d="M7.3631 0.4560
L7.5060 0.6465
" />
</g></g>
<g style="fill:#FFFFFF; fill-opacity:0.0; 
stroke:#FFFFFF; stroke-width:0.1500; stroke-opacity:1; 
stroke-linecap:round; stroke-linejoin:round;">
<text x="5.6012" y="2.7605"
textLength="11.2024" font-size="1.3333" lengthAdjust="spacingAndGlyphs"
text-anchor="middle" opacity="0">LCD24064_silk</text>
<g class="stroked-text"><desc>LCD24064_silk</desc>
<path d="M0.8393 2.7153
L0.3631 2.7153
" />
<path d="M0.3631 2.7153
L0.3631 1.7153
" />
<path d="M1.7440 2.6201
L1.6964 2.6677
" />
<path d="M1.6964 2.6677
L1.5536 2.7153
" />
<path d="M1.5536 2.7153
L1.4583 2.7153
" />
<path d="M1.4583 2.7153
L1.3155 2.6677
" />
<path d="M1.3155 2.6677
L1.2202 2.5725
" />
<path d="M1.2202 2.5725
L1.1726 2.4772
" />
<path d="M1.1726 2.4772
L1.1250 2.2867
" />
<path d="M1.1250 2.2867
L1.1250 2.1439
" />
<path d="M1.1250 2.1439
L1.1726 1.9534
" />
<path d="M1.1726 1.9534
L1.2202 1.8582
" />
<path d="M1.2202 1.8582
L1.3155 1.7629
" />
<path d="M1.3155 1.7629
L1.4583 1.7153
" />
<path d="M1.4583 1.7153
L1.5536 1.7153
" />
<path d="M1.5536 1.7153
L1.6964 1.7629
" />
<path d="M1.6964 1.7629
L1.7440 1.8106
" />
<path d="M2.1726 2.7153
L2.1726 1.7153
" />
<path d="M2.1726 1.7153
L2.4107 1.7153
" />
<path d="M2.4107 1.7153
L2.5536 1.7629
" />
<path d="M2.5536 1.7629
L2.6488 1.8582
" />
<path d="M2.6488 1.8582
L2.6964 1.9534
" />
<path d="M2.6964 1.9534
L2.7440 2.1439
" />
<path d="M2.7440 2.1439
L2.7440 2.2867
" />
<path d="M2.7440 2.2867
L2.6964 2.4772
" />
<path d="M2.6964 2.4772
L2.6488 2.5725
" />
<path d="M2.6488 2.5725
L2.5536 2.6677
" />
<path d="M2.5536 2.6677
L2.4107 2.7153
" />
<path d="M2.4107 2.7153
L2.1726 2.7153
" />
<path d="M3.1250 1.8106
L3.1726 1.7629
" />
<path d="M3.1726 1.7629
L3.2679 1.7153
" />
<path d="M3.2679 1.7153
L3.5060 1.7153
" />
<path d="M3.5060 1.7153
L3.6012 1.7629
" />
<path d="M3.6012 1.7629
L3.6488 1.8106
" />
<path d="M3.6488 1.8106
L3.6964 1.9058
" />
<path d="M3.6964 1.9058
L3.6964 2.0010
" />
<path d="M3.6964 2.0010
L3.6488 2.1439
" />
<path d="M3.6488 2.1439
L3.0774 2.7153
" />
<path d="M3.0774 2.7153
L3.6964 2.7153
" />
<path d="M4.5536 2.0487
L4.5536 2.7153
" />
<path d="M4.3155 1.6677
L4.0774 2.3820
" />
<path d="M4.0774 2.3820
L4.6964 2.3820
" />
<path d="M5.2679 1.7153
L5.3631 1.7153
" />
<path d="M5.3631 1.7153
L5.4583 1.7629
" />
<path d="M5.4583 1.7629
L5.5060 1.8106
" />
<path d="M5.5060 1.8106
L5.5536 1.9058
" />
<path d="M5.5536 1.9058
L5.6012 2.0963
" />
<path d="M5.6012 2.0963
L5.6012 2.3344
" />
<path d="M5.6012 2.3344
L5.5536 2.5248
" />
<path d="M5.5536 2.5248
L5.5060 2.6201
" />
<path d="M5.5060 2.6201
L5.4583 2.6677
" />
<path d="M5.4583 2.6677
L5.3631 2.7153
" />
<path d="M5.3631 2.7153
L5.2679 2.7153
" />
<path d="M5.2679 2.7153
L5.1726 2.6677
" />
<path d="M5.1726 2.6677
L5.1250 2.6201
" />
<path d="M5.1250 2.6201
L5.0774 2.5248
" />
<path d="M5.0774 2.5248
L5.0298 2.3344
" />
<path d="M5.0298 2.3344
L5.0298 2.0963
" />
<path d="M5.0298 2.0963
L5.0774 1.9058
" />
<path d="M5.0774 1.9058
L5.1250 1.8106
" />
<path d="M5.1250 1.8106
L5.1726 1.7629
" />
<path d="M5.1726 1.7629
L5.2679 1.7153
" />
<path d="M6.4583 1.7153
L6.2679 1.7153
" />
<path d="M6.2679 1.7153
L6.1726 1.7629
" />
<path d="M6.1726 1.7629
L6.1250 1.8106
" />
<path d="M6.1250 1.8106
L6.0298 1.9534
" />
<path d="M6.0298 1.9534
L5.9821 2.1439
" />
<path d="M5.9821 2.1439
L5.9821 2.5248
" />
<path d="M5.9821 2.5248
L6.0298 2.6201
" />
<path d="M6.0298 2.6201
L6.0774 2.6677
" />
<path d="M6.0774 2.6677
L6.1726 2.7153
" />
<path d="M6.1726 2.7153
L6.3631 2.7153
" />
<path d="M6.3631 2.7153
L6.4583 2.6677
" />
<path d="M6.4583 2.6677
L6.5060 2.6201
" />
<path d="M6.5060 2.6201
L6.5536 2.5248
" />
<path d="M6.5536 2.5248
L6.5536 2.2867
" />
<path d="M6.5536 2.2867
L6.5060 2.1915
" />
<path d="M6.5060 2.1915
L6.4583 2.1439
" />
<path d="M6.4583 2.1439
L6.3631 2.0963
" />
<path d="M6.3631 2.0963
L6.1726 2.0963
" />
<path d="M6.1726 2.0963
L6.0774 2.1439
" />
<path d="M6.0774 2.1439
L6.0298 2.1915
" />
<path d="M6.0298 2.1915
L5.9821 2.2867
" />
<path d="M7.4107 2.0487
L7.4107 2.7153
" />
<path d="M7.1726 1.6677
L6.9345 2.3820
" />
<path d="M6.9345 2.3820
L7.5536 2.3820
" />
<path d="M7.6964 2.8106
L8.4583 2.8106
" />
<path d="M8.6488 2.6677
L8.7440 2.7153
" />
<path d="M8.7440 2.7153
L8.9345 2.7153
" />
<path d="M8.9345 2.7153
L9.0298 2.6677
" />
<path d="M9.0298 2.6677
L9.0774 2.5725
" />
<path d="M9.0774 2.5725
L9.0774 2.5248
" />
<path d="M9.0774 2.5248
L9.0298 2.4296
" />
<path d="M9.0298 2.4296
L8.9345 2.3820
" />
<path d="M8.9345 2.3820
L8.7917 2.3820
" />
<path d="M8.7917 2.3820
L8.6964 2.3344
" />
<path d="M8.6964 2.3344
L8.6488 2.2391
" />
<path d="M8.6488 2.2391
L8.6488 2.1915
" />
<path d="M8.6488 2.1915
L8.6964 2.0963
" />
<path d="M8.6964 2.0963
L8.7917 2.0487
" />
<path d="M8.7917 2.0487
L8.9345 2.0487
" />
<path d="M8.9345 2.0487
L9.0298 2.0963
" />
<path d="M9.5060 2.7153
L9.5060 2.0487
" />
<path d="M9.5060 1.7153
L9.4583 1.7629
" />
<path d="M9.4583 1.7629
L9.5060 1.8106
" />
<path d="M9.5060 1.8106
L9.5536 1.7629
" />
<path d="M9.5536 1.7629
L9.5060 1.7153
" />
<path d="M9.5060 1.7153
L9.5060 1.8106
" />
<path d="M10.1250 2.7153
L10.0298 2.6677
" />
<path d="M10.0298 2.6677
L9.9821 2.5725
" />
<path d="M9.9821 2.5725
L9.9821 1.7153
" />
<path d="M10.5060 2.7153
L10.5060 1.7153
" />
<path d="M10.6012 2.3344
L10.8869 2.7153
" />
<path d="M10.8869 2.0487
L10.5060 2.4296
" />
</g><text x="5.6012" y="4.2605"
textLength="4.5357" font-size="1.3333" lengthAdjust="spacingAndGlyphs"
text-anchor="middle" opacity="0">REF**</text>
<g class="stroked-text"><desc>REF**</desc>
<path d="M4.2679 4.2153
L3.9345 3.7391
" />
<path d="M3.6964 4.2153
L3.6964 3.2153
" />
<path d="M3.6964 3.2153
L4.0774 3.2153
" />
<path d="M4.0774 3.2153
L4.1726 3.2629
" />
<path d="M4.1726 3.2629
L4.2202 3.3106
" />
<path d="M4.2202 3.3106
L4.2679 3.4058
" />
<path d="M4.2679 3.4058
L4.2679 3.5487
" />
<path d="M4.2679 3.5487
L4.2202 3.6439
" />
<path d="M4.2202 3.6439
L4.1726 3.6915
" />
<path d="M4.1726 3.6915
L4.0774 3.7391
" />
<path d="M4.0774 3.7391
L3.6964 3.7391
" />
<path d="M4.6964 3.6915
L5.0298 3.6915
" />
<path d="M5.1726 4.2153
L4.6964 4.2153
" />
<path d="M4.6964 4.2153
L4.6964 3.2153
" />
<path d="M4.6964 3.2153
L5.1726 3.2153
" />
<path d="M5.9345 3.6915
L5.6012 3.6915
" />
<path d="M5.6012 4.2153
L5.6012 3.2153
" />
<path d="M5.6012 3.2153
L6.0774 3.2153
" />
<path d="M6.6012 3.2153
L6.6012 3.4534
" />
<path d="M6.3631 3.3582
L6.6012 3.4534
" />
<path d="M6.6012 3.4534
L6.8393 3.3582
" />
<path d="M6.4583 3.6439
L6.6012 3.4534
" />
<path d="M6.6012 3.4534
L6.7440 3.6439
" />
<path d="M7.3631 3.2153
L7.3631 3.4534
" />
<path d="M7.1250 3.3582
L7.3631 3.4534
" />
<path d="M7.3631 3.4534
L7.6012 3.3582
" />
<path d="M7.2202 3.6439
L7.3631 3.4534
" />
<path d="M7.3631 3.4534
L7.5060 3.6439
" />
</g></g>
<g style="fill:#FFFFFF; fill-opacity:0.0; 
stroke:#FFFFFF; stroke-width:0.1000; stroke-opacity:1; 
stroke-linecap:round; stroke-linejoin:round;">
<path d="M11.9512 6.3005
L11.9512 10.1105
" />
<path d="M11.9512 10.1105
L15.7612 6.3005
" />
<path d="M11.9512 67.2605
L15.7612 71.0705
" />
<path d="M11.9512 71.0705
L11.9512 67.2605
" />
<path d="M15.7612 6.3005
L11.9512 6.3005
" />
<path d="M15.7612 71.0705
L11.9512 71.0705
" />
<path d="M188.4812 6.3005
L192.2912 10.1105
" />
<path d="M188.4812 71.0705
L192.2912 71.0705
" />
<path d="M192.2912 6.3005
L188.4812 6.3005
" />
<path d="M192.2912 10.1105
L192.2912 6.3005
" />
<path d="M192.2912 67.2605
L188.4812 71.0705
" />
<path d="M192.2912 71.0705
L192.2912 67.2605
" />
<path d="M11.9512 6.3005
L191.9512 6.3005
" />
<path d="M191.9512 6.3005
L191.9512 71.3005
" />
<path d="M191.9512 71.3005
L11.9512 71.3005
" />
<path d="M11.9512 71.3005
L11.9512 6.3005
" />
<path d="M24.9512 11.3005
L178.9512 11.3005
" />
<path d="M178.9512 11.3005
L178.9512 66.3005
" />
<path d="M178.9512 66.3005
L24.9512 66.3005
" />
<path d="M24.9512 66.3005
L24.9512 11.3005
" />
<path d="M184.4512 18.3005
L188.9512 18.3005
" />
<path d="M188.9512 18.3005
L188.9512 45.8005
" />
<path d="M188.9512 45.8005
L184.4512 45.8005
" />
<path d="M184.4512 45.8005
L184.4512 18.3005
" />
<circle cx="13.9512" cy="11.8005" r="2.5000" /> 
<circle cx="13.9512" cy="65.8005" r="2.5000" /> 
<circle cx="189.9512" cy="11.8005" r="2.5000" /> 
<circle cx="189.9512" cy="65.8005" r="2.5000" /> 
<g >
</g>
<g >
</g>
<g >
</g>
<g >
</g>
</g>
<g style="fill:#FFFFFF; fill-opacity:0.0; 
stroke:#FFFFFF; stroke-width:0.1000; stroke-opacity:1; 
stroke-linecap:round; stroke-linejoin:round;">
<g >
</g>
<g >
</g>
<g >
</g>
<g >
</g>
</g>
<g style="fill:#FFFFFF; fill-opacity:0.0; 
stroke:#FFFFFF; stroke-width:0.1000; stroke-opacity:1; 
stroke-linecap:round; stroke-linejoin:round;">
<g >
</g>
<g >
</g>
<g >
</g>
<g >
</g>
</g>
<g style="fill:#FFFFFF; fill-opacity:0.0; 
stroke:#FFFFFF; stroke-width:0.1000; stroke-opacity:1; 
stroke-linecap:round; stroke-linejoin:round;">
<g >
</g>
<g >
</g>
<g >
</g>
<g >
</g>
</g>
<g style="fill:#FFFFFF; fill-opacity:0.0; 
stroke:#FFFFFF; stroke-width:0.1000; stroke-opacity:1; 
stroke-linecap:round; stroke-linejoin:round;">
<g >
</g>
<g >
</g>
<g >
</g>
<g >
</g>
</g>
<g style="fill:#FFFFFF; fill-opacity:0.0; 
stroke:#FFFFFF; stroke-width:0.1000; stroke-opacity:1; 
stroke-linecap:round; stroke-linejoin:round;">
<g >
</g>
<g >
</g>
<g >
</g>
<g >
</g>
</g>
<g style="fill:#FFFFFF; fill-opacity:0.0; 
stroke:#FFFFFF; stroke-width:0.1000; stroke-opacity:1; 
stroke-linecap:round; stroke-linejoin:round;">
<g >
</g>
<g >
</g>
<g >
</g>
<g >
</g>
</g> 
</svg>
